<svg width="3432" height="1132" viewBox="0 0 3432 1132" fill="none" xmlns="http://www.w3.org/2000/svg">
<path d="M102.313 373.8C95.9133 373.8 89.7799 372.733 83.9133 370.6C78.0466 368.733 73.2466 365.4 69.5133 360.6C65.78 355.8 63.9133 349.267 63.9133 341V247C63.9133 240.6 63.5133 235.8 62.7133 232.6C61.9133 229.4 60.0466 227.4 57.1133 226.6C54.1799 225.533 49.6466 225 43.5133 225C42.4466 225 41.9133 224.2 41.9133 222.6C41.9133 220.733 42.4466 219.8 43.5133 219.8C54.1799 219.533 62.8466 216.6 69.5133 211C76.4466 205.4 80.3133 198.2 81.1133 189.4C81.1133 188.6 82.0466 188.2 83.9133 188.2C86.0466 188.2 87.1133 188.6 87.1133 189.4V327.4C87.1133 338.333 89.7799 346.467 95.1133 351.8C100.713 357.133 108.58 359.8 118.713 359.8C125.647 359.8 131.78 358.733 137.113 356.6C142.713 354.2 147.247 351.533 150.713 348.6C151.78 348.067 152.713 348.467 153.513 349.8C154.58 350.867 154.58 351.8 153.513 352.6C143.647 360.067 134.713 365.533 126.713 369C118.98 372.2 110.847 373.8 102.313 373.8ZM141.113 234.2C130.713 231.533 120.713 229.8 111.113 229C101.513 228.2 91.2466 227.8 80.3133 227.8V219C90.98 219 101.247 218.6 111.113 217.8C120.98 217 131.513 216.067 142.713 215C143.247 215 143.78 215.933 144.313 217.8C145.113 219.667 145.513 221.933 145.513 224.6C145.513 226.467 144.98 228.6 143.913 231C143.113 233.4 142.18 234.467 141.113 234.2ZM172.67 369C171.87 369 171.47 368.2 171.47 366.6C171.47 365 171.87 364.2 172.67 364.2C183.07 364.2 189.87 362.467 193.07 359C196.27 355.267 197.87 347.8 197.87 336.6V129.8C197.87 120.467 196.936 113.667 195.07 109.4C193.203 104.867 189.87 102.6 185.07 102.6C181.07 102.6 174.936 104.467 166.67 108.2C165.603 108.733 164.67 108.333 163.87 107C163.336 105.4 163.603 104.333 164.67 103.8L215.47 79C216.003 79 216.27 79 216.27 79C216.27 79 216.403 79 216.67 79C217.47 79 218.27 79.4 219.07 80.2C219.87 80.7333 220.27 81.4 220.27 82.2V336.6C220.27 347.8 221.87 355.267 225.07 359C228.27 362.467 235.07 364.2 245.47 364.2C246.27 364.2 246.67 365 246.67 366.6C246.67 368.2 246.27 369 245.47 369C240.67 369 235.203 368.867 229.07 368.6C222.936 368.333 216.27 368.2 209.07 368.2C202.136 368.2 195.47 368.333 189.07 368.6C182.67 368.867 177.203 369 172.67 369ZM280.27 369C279.47 369 279.07 368.2 279.07 366.6C279.07 365 279.47 364.2 280.27 364.2C290.67 364.2 297.47 362.467 300.67 359C303.87 355.267 305.47 347.8 305.47 336.6V273C305.47 241.8 293.203 226.2 268.67 226.2C258.803 226.2 248.803 229.4 238.67 235.8C228.536 241.933 219.87 250.333 212.67 261L211.07 256.2C222.803 240.2 234.403 228.6 245.87 221.4C257.603 214.2 269.603 210.6 281.87 210.6C296.536 210.6 307.87 214.733 315.87 223C323.87 231 327.87 243 327.87 259V336.6C327.87 347.8 329.47 355.267 332.67 359C335.87 362.467 342.67 364.2 353.07 364.2C353.87 364.2 354.27 365 354.27 366.6C354.27 368.2 353.87 369 353.07 369C348.27 369 342.803 368.867 336.67 368.6C330.536 368.333 323.87 368.2 316.67 368.2C309.736 368.2 303.07 368.333 296.67 368.6C290.27 368.867 284.803 369 280.27 369ZM451.479 373.8C434.946 373.8 421.079 370.2 409.879 363C398.679 355.533 390.279 345.933 384.679 334.2C379.079 322.467 376.279 310.067 376.279 297C376.279 280.733 380.012 266.2 387.479 253.4C395.212 240.333 405.479 230.067 418.279 222.6C431.346 214.867 446.012 211 462.279 211C476.946 211 488.146 214.6 495.879 221.8C503.879 228.733 507.879 238.333 507.879 250.6C507.879 253.533 507.612 255.8 507.079 257.4C506.546 259 505.212 259.8 503.079 259.8H479.879C480.946 246.733 478.546 236.733 472.679 229.8C467.079 222.6 459.079 219 448.679 219C433.746 219 422.279 224.6 414.279 235.8C406.546 247 402.679 262.2 402.679 281.4C402.679 296.6 405.079 310.067 409.879 321.8C414.946 333.533 422.146 342.867 431.479 349.8C441.079 356.467 452.412 359.8 465.479 359.8C472.412 359.8 479.479 358.733 486.679 356.6C493.879 354.467 500.679 351.133 507.079 346.6C507.612 346.067 508.279 346.467 509.079 347.8C510.146 348.867 510.412 349.8 509.879 350.6C500.279 358.867 490.679 364.867 481.079 368.6C471.479 372.067 461.612 373.8 451.479 373.8ZM395.479 260.6L395.079 255.4L486.279 253.4V259.8L395.479 260.6Z" fill="white"/>
<path d="M336.8 389.573C359.2 389.573 383.2 391.439 408.8 395.173C434.933 398.906 455.467 404.239 470.4 411.173C475.2 412.773 478.4 414.906 480 417.573C481.6 419.706 482.667 423.706 483.2 429.573L492.8 540.773C492.8 542.373 491.467 543.439 488.8 543.973C486.667 544.506 485.067 543.706 484 541.573C466.4 500.506 442.4 468.239 412 444.773C382.133 421.306 346.667 409.573 305.6 409.573C269.867 409.573 239.467 418.639 214.4 436.773C189.867 454.906 171.2 480.239 158.4 512.773C146.133 544.773 140 582.106 140 624.773C140 661.573 144.533 696.239 153.6 728.773C162.667 760.773 175.467 789.039 192 813.573C208.533 837.573 228.267 856.506 251.2 870.373C274.133 884.239 299.467 891.173 327.2 891.173C361.333 891.173 391.733 879.973 418.4 857.573C445.6 835.173 469.867 800.506 491.2 753.573C492.267 751.439 494.133 750.639 496.8 751.173C499.467 751.706 500.8 752.773 500.8 754.373L488.8 863.173C487.733 869.573 486.4 873.839 484.8 875.973C483.733 877.573 480.8 879.439 476 881.573C451.467 890.639 426.667 897.306 401.6 901.573C377.067 905.839 353.067 907.973 329.6 907.973C277.867 907.973 233.6 900.239 196.8 884.773C160 868.773 129.867 847.973 106.4 822.373C83.4667 796.239 66.4 767.973 55.2 737.573C44.5333 706.639 39.2 676.239 39.2 646.373C39.2 606.906 47.2 571.439 63.2 539.973C79.7333 508.506 101.867 481.573 129.6 459.173C157.867 436.773 189.6 419.706 224.8 407.973C260.533 395.706 297.867 389.573 336.8 389.573ZM724.756 908.773C691.156 908.773 662.09 901.039 637.556 885.573C613.023 870.106 594.09 849.573 580.756 823.973C567.423 797.839 560.756 769.839 560.756 739.973C560.756 712.239 566.09 688.239 576.756 667.973C587.423 647.706 601.556 631.173 619.156 618.373C636.756 605.039 655.956 595.173 676.756 588.773C697.556 582.373 718.09 579.173 738.356 579.173C772.49 579.173 801.556 587.173 825.556 603.173C850.09 619.173 868.756 639.706 881.556 664.773C894.356 689.839 900.756 716.506 900.756 744.773C900.756 777.306 892.49 806.106 875.956 831.173C859.956 855.706 838.623 874.906 811.956 888.773C785.29 902.106 756.223 908.773 724.756 908.773ZM748.756 891.973C770.09 891.973 786.09 881.573 796.756 860.773C807.423 839.973 812.756 810.639 812.756 772.773C812.756 733.839 807.69 701.306 797.556 675.173C787.956 649.039 775.423 629.306 759.956 615.973C744.49 602.639 728.223 595.973 711.156 595.973C690.356 595.973 674.356 605.306 663.156 623.973C652.49 642.639 647.156 671.439 647.156 710.373C647.156 746.639 651.69 778.639 660.756 806.373C669.823 833.573 682.09 854.639 697.556 869.573C713.023 884.506 730.09 891.973 748.756 891.973ZM1172.96 898.373C1171.36 898.373 1170.56 896.773 1170.56 893.573C1170.56 890.373 1171.36 888.773 1172.96 888.773C1189.5 888.773 1200.7 885.039 1206.56 877.573C1212.43 869.573 1215.36 854.906 1215.36 833.573V718.373C1215.36 689.573 1210.03 668.239 1199.36 654.373C1189.23 640.506 1172.96 633.573 1150.56 633.573C1134.56 633.573 1118.03 637.573 1100.96 645.573C1084.43 653.573 1071.1 664.506 1060.96 678.373L1056.96 668.773C1075.63 642.106 1096.7 620.773 1120.16 604.773C1143.63 588.239 1169.23 579.973 1196.96 579.973C1226.83 579.973 1249.76 589.306 1265.76 607.973C1282.3 626.639 1290.56 650.639 1290.56 679.973V833.573C1290.56 854.906 1293.5 869.573 1299.36 877.573C1305.76 885.039 1317.23 888.773 1333.76 888.773C1335.36 888.773 1336.16 890.373 1336.16 893.573C1336.16 896.773 1335.36 898.373 1333.76 898.373C1323.1 898.373 1310.83 898.106 1296.96 897.573C1283.1 897.039 1268.43 896.773 1252.96 896.773C1238.03 896.773 1223.63 897.039 1209.76 897.573C1195.9 898.106 1183.63 898.373 1172.96 898.373ZM957.763 898.373C956.163 898.373 955.363 896.773 955.363 893.573C955.363 890.373 956.163 888.773 957.763 888.773C974.296 888.773 985.496 885.039 991.363 877.573C997.229 869.573 1000.16 854.906 1000.16 833.573V683.173C1000.16 666.639 998.296 654.639 994.563 647.173C990.829 639.173 984.429 635.173 975.363 635.173C970.563 635.173 964.963 636.239 958.563 638.373C952.163 639.973 944.963 642.639 936.963 646.373C934.829 647.439 933.229 646.373 932.163 643.173C931.096 639.973 931.096 638.106 932.163 637.573L1043.36 583.173C1046.56 582.106 1048.43 581.573 1048.96 581.573C1054.83 581.573 1060.7 587.973 1066.56 600.773C1072.43 613.573 1075.36 631.973 1075.36 655.973V833.573C1075.36 854.906 1078.3 869.573 1084.16 877.573C1090.56 885.039 1102.03 888.773 1118.56 888.773C1120.16 888.773 1120.96 890.373 1120.96 893.573C1120.96 896.773 1120.16 898.373 1118.56 898.373C1107.9 898.373 1095.63 898.106 1081.76 897.573C1067.9 897.039 1053.23 896.773 1037.76 896.773C1022.83 896.773 1008.43 897.039 994.563 897.573C980.696 898.106 968.429 898.373 957.763 898.373ZM1369.26 898.373C1367.12 898.373 1366.06 896.773 1366.06 893.573C1366.06 890.373 1367.12 888.773 1369.26 888.773C1389.52 888.773 1402.59 885.306 1408.46 878.373C1414.32 871.439 1417.26 856.506 1417.26 833.573V653.573C1417.26 641.839 1415.66 633.306 1412.46 627.973C1409.26 622.106 1403.92 618.373 1396.46 616.773C1388.99 614.639 1378.86 613.573 1366.06 613.573C1364.46 613.573 1363.66 611.173 1363.66 606.373C1363.66 601.573 1364.46 599.173 1366.06 599.173C1384.72 599.173 1397.52 596.773 1404.46 591.973C1411.39 586.639 1415.12 577.306 1415.66 563.973C1418.32 504.773 1427.66 457.306 1443.66 421.573C1459.66 385.306 1482.32 358.906 1511.66 342.373C1540.99 325.839 1576.46 317.573 1618.06 317.573C1654.86 317.573 1683.39 323.173 1703.66 334.373C1724.46 345.573 1734.86 360.506 1734.86 379.173C1734.86 388.773 1731.66 397.039 1725.26 403.973C1718.86 410.373 1708.99 413.573 1695.66 413.573C1681.79 413.573 1671.39 409.573 1664.46 401.573C1657.52 393.573 1651.39 384.239 1646.06 373.573C1640.72 362.906 1634.06 353.573 1626.06 345.573C1618.59 337.573 1607.39 333.573 1592.46 333.573C1575.39 333.573 1559.12 340.773 1543.66 355.173C1528.19 369.573 1515.66 392.506 1506.06 423.973C1496.99 455.439 1492.46 496.506 1492.46 547.173V833.573C1492.46 849.039 1494.06 860.773 1497.26 868.773C1500.46 876.773 1507.12 882.106 1517.26 884.773C1527.39 887.439 1542.86 888.773 1563.66 888.773C1565.79 888.773 1566.86 890.373 1566.86 893.573C1566.86 896.773 1565.79 898.373 1563.66 898.373C1544.99 898.373 1526.59 898.106 1508.46 897.573C1490.86 897.039 1472.72 896.773 1454.06 896.773C1438.59 896.773 1423.39 897.039 1408.46 897.573C1394.06 898.106 1380.99 898.373 1369.26 898.373ZM1578.06 630.373C1557.26 625.573 1537.26 622.373 1518.06 620.773C1499.39 618.639 1479.39 617.573 1458.06 617.573V596.773C1478.32 596.773 1498.32 595.973 1518.06 594.373C1537.79 592.773 1558.59 590.906 1580.46 588.773C1582.06 588.773 1583.39 590.906 1584.46 595.173C1585.52 598.906 1586.06 603.173 1586.06 607.973C1586.06 613.306 1584.99 618.639 1582.86 623.973C1581.26 628.773 1579.66 630.906 1578.06 630.373ZM1623.66 898.373C1622.59 898.373 1622.06 896.773 1622.06 893.573C1622.06 890.373 1622.59 888.773 1623.66 888.773C1640.19 888.773 1651.39 885.039 1657.26 877.573C1663.66 869.573 1666.86 854.906 1666.86 833.573V690.373C1666.86 664.773 1663.12 649.039 1655.66 643.173C1648.19 636.773 1634.06 638.373 1613.26 647.973C1611.12 648.506 1609.26 647.173 1607.66 643.973C1606.59 640.773 1606.59 638.906 1607.66 638.373L1728.46 582.373C1731.12 580.773 1734.32 581.573 1738.06 584.773C1741.79 587.439 1743.66 590.106 1743.66 592.773C1743.66 599.173 1743.12 609.839 1742.06 624.773C1741.52 639.706 1741.26 661.039 1741.26 688.773V833.573C1741.26 854.906 1744.19 869.573 1750.06 877.573C1756.46 885.039 1767.92 888.773 1784.46 888.773C1786.59 888.773 1787.66 890.373 1787.66 893.573C1787.66 896.773 1786.59 898.373 1784.46 898.373C1773.79 898.373 1761.52 898.106 1747.66 897.573C1734.32 897.039 1719.92 896.773 1704.46 896.773C1688.99 896.773 1674.32 897.039 1660.46 897.573C1646.59 898.106 1634.32 898.373 1623.66 898.373ZM1955.11 908.773C1932.17 908.773 1911.11 902.639 1891.91 890.373C1873.24 878.106 1858.04 860.506 1846.31 837.573C1835.11 814.106 1829.51 785.839 1829.51 752.773C1829.51 720.239 1835.37 693.039 1847.11 671.173C1858.84 648.773 1873.77 630.906 1891.91 617.573C1910.57 604.239 1930.57 594.639 1951.91 588.773C1973.24 582.373 1993.51 579.173 2012.71 579.173C2031.91 579.173 2049.77 581.573 2066.31 586.373C2082.84 591.173 2097.77 597.039 2111.11 603.973L2092.71 668.773C2081.51 644.773 2068.71 627.439 2054.31 616.773C2039.91 605.573 2022.04 599.973 2000.71 599.973C1973.51 599.973 1951.91 609.573 1935.91 628.773C1919.91 647.439 1911.91 680.239 1911.91 727.173C1911.91 757.573 1915.64 783.439 1923.11 804.773C1930.57 826.106 1940.97 842.373 1954.31 853.573C1967.64 864.773 1982.57 870.373 1999.11 870.373C2020.44 870.373 2039.11 864.506 2055.11 852.773C2071.11 841.039 2086.57 826.906 2101.51 810.373L2109.51 817.573C2098.31 830.373 2084.97 843.973 2069.51 858.373C2054.57 872.239 2037.51 884.239 2018.31 894.373C1999.64 903.973 1978.57 908.773 1955.11 908.773ZM2150.31 328.773V805.573C2150.31 823.706 2151.91 836.506 2155.11 843.973C2158.84 851.439 2164.71 855.173 2172.71 855.173C2176.44 855.173 2180.97 854.373 2186.31 852.773C2192.17 851.173 2198.57 849.039 2205.51 846.373C2207.11 845.306 2208.71 846.373 2210.31 849.573C2211.91 852.239 2212.17 854.106 2211.11 855.173L2100.71 908.773C2099.11 909.306 2097.77 909.573 2096.71 909.573C2091.37 909.573 2086.31 902.906 2081.51 889.573C2077.24 876.239 2075.11 857.306 2075.11 832.773V427.173C2075.11 409.039 2073.51 395.973 2070.31 387.973C2067.11 379.439 2060.97 375.173 2051.91 375.173C2048.17 375.173 2043.64 375.973 2038.31 377.573C2033.51 379.173 2028.17 381.306 2022.31 383.973C2020.17 384.506 2018.31 383.173 2016.71 379.973C2015.11 376.773 2014.84 374.906 2015.91 374.373L2133.51 319.173C2134.57 318.639 2135.64 318.373 2136.71 318.373C2139.37 318.373 2142.31 319.706 2145.51 322.373C2148.71 324.506 2150.31 326.639 2150.31 328.773ZM2399.72 907.973C2365.05 907.973 2335.45 900.773 2310.92 886.373C2286.92 871.973 2268.52 853.039 2255.72 829.573C2243.45 805.573 2237.32 780.239 2237.32 753.573C2237.32 722.106 2245.32 693.573 2261.32 667.973C2277.32 641.839 2298.92 621.039 2326.12 605.573C2353.85 590.106 2385.05 582.373 2419.72 582.373C2452.79 582.373 2478.12 589.573 2495.72 603.973C2513.32 617.839 2522.12 637.039 2522.12 661.573C2522.12 667.439 2521.59 672.773 2520.52 677.573C2519.45 682.373 2517.05 684.773 2513.32 684.773H2436.52C2437.59 659.706 2434.65 639.173 2427.72 623.173C2420.79 606.639 2408.25 598.373 2390.12 598.373C2368.79 598.373 2351.45 609.573 2338.12 631.973C2324.79 653.839 2318.12 683.173 2318.12 719.973C2318.12 749.839 2322.92 775.973 2332.52 798.373C2342.12 820.773 2355.99 838.106 2374.12 850.373C2392.25 862.639 2414.12 868.773 2439.72 868.773C2452.52 868.773 2466.12 866.906 2480.52 863.173C2495.45 859.439 2508.79 853.839 2520.52 846.373C2521.59 845.306 2522.92 845.839 2524.52 847.973C2526.65 850.106 2527.19 851.973 2526.12 853.573C2506.39 873.306 2486.12 887.439 2465.32 895.973C2445.05 903.973 2423.19 907.973 2399.72 907.973ZM2290.12 686.373L2289.32 671.173L2464.52 667.173V684.773L2290.12 686.373ZM2792.49 898.373C2790.89 898.373 2790.09 896.773 2790.09 893.573C2790.09 890.373 2790.89 888.773 2792.49 888.773C2809.03 888.773 2820.23 885.039 2826.09 877.573C2831.96 869.573 2834.89 854.906 2834.89 833.573V718.373C2834.89 689.573 2829.56 668.239 2818.89 654.373C2808.76 640.506 2792.49 633.573 2770.09 633.573C2754.09 633.573 2737.56 637.573 2720.49 645.573C2703.96 653.573 2690.63 664.506 2680.49 678.373L2676.49 668.773C2695.16 642.106 2716.23 620.773 2739.69 604.773C2763.16 588.239 2788.76 579.973 2816.49 579.973C2846.36 579.973 2869.29 589.306 2885.29 607.973C2901.83 626.639 2910.09 650.639 2910.09 679.973V833.573C2910.09 854.906 2913.03 869.573 2918.89 877.573C2925.29 885.039 2936.76 888.773 2953.29 888.773C2954.89 888.773 2955.69 890.373 2955.69 893.573C2955.69 896.773 2954.89 898.373 2953.29 898.373C2942.63 898.373 2930.36 898.106 2916.49 897.573C2902.63 897.039 2887.96 896.773 2872.49 896.773C2857.56 896.773 2843.16 897.039 2829.29 897.573C2815.43 898.106 2803.16 898.373 2792.49 898.373ZM2577.29 898.373C2575.69 898.373 2574.89 896.773 2574.89 893.573C2574.89 890.373 2575.69 888.773 2577.29 888.773C2593.83 888.773 2605.03 885.039 2610.89 877.573C2616.76 869.573 2619.69 854.906 2619.69 833.573V683.173C2619.69 666.639 2617.83 654.639 2614.09 647.173C2610.36 639.173 2603.96 635.173 2594.89 635.173C2590.09 635.173 2584.49 636.239 2578.09 638.373C2571.69 639.973 2564.49 642.639 2556.49 646.373C2554.36 647.439 2552.76 646.373 2551.69 643.173C2550.63 639.973 2550.63 638.106 2551.69 637.573L2662.89 583.173C2666.09 582.106 2667.96 581.573 2668.49 581.573C2674.36 581.573 2680.23 587.973 2686.09 600.773C2691.96 613.573 2694.89 631.973 2694.89 655.973V833.573C2694.89 854.906 2697.83 869.573 2703.69 877.573C2710.09 885.039 2721.56 888.773 2738.09 888.773C2739.69 888.773 2740.49 890.373 2740.49 893.573C2740.49 896.773 2739.69 898.373 2738.09 898.373C2727.43 898.373 2715.16 898.106 2701.29 897.573C2687.43 897.039 2672.76 896.773 2657.29 896.773C2642.36 896.773 2627.96 897.039 2614.09 897.573C2600.23 898.106 2587.96 898.373 2577.29 898.373ZM3114.39 907.973C3101.59 907.973 3088.52 905.839 3075.19 901.573C3062.39 897.306 3051.45 889.839 3042.39 879.173C3033.85 868.506 3029.59 853.573 3029.59 834.373V656.773C3029.59 645.573 3028.25 636.773 3025.59 630.373C3022.92 623.973 3018.65 619.439 3012.79 616.773C3006.92 614.106 2998.92 612.773 2988.79 612.773C2986.65 612.773 2985.59 610.373 2985.59 605.573C2985.59 600.773 2986.65 598.373 2988.79 598.373C3015.99 597.306 3038.12 591.439 3055.19 580.773C3072.25 569.573 3085.05 553.306 3093.59 531.973C3094.65 529.839 3096.79 528.773 3099.99 528.773C3103.72 528.773 3105.59 529.839 3105.59 531.973V807.973C3105.59 829.306 3110.92 844.506 3121.59 853.573C3132.79 862.639 3146.39 867.173 3162.39 867.173C3174.65 867.173 3186.12 864.773 3196.79 859.973C3207.99 854.639 3217.32 849.039 3224.79 843.173C3226.39 841.573 3228.25 842.106 3230.39 844.773C3233.05 846.906 3233.32 848.773 3231.19 850.373C3211.45 870.106 3192.25 884.773 3173.59 894.373C3155.45 903.439 3135.72 907.973 3114.39 907.973ZM3206.39 630.373C3184.52 625.573 3163.19 622.373 3142.39 620.773C3122.12 618.639 3100.52 617.573 3077.59 617.573V596.773C3099.45 596.773 3120.79 595.973 3141.59 594.373C3162.92 592.773 3185.59 590.906 3209.59 588.773C3210.65 588.773 3211.72 590.906 3212.79 595.173C3214.39 598.906 3215.19 603.173 3215.19 607.973C3215.19 613.306 3214.12 618.639 3211.99 623.973C3210.39 628.773 3208.52 630.906 3206.39 630.373Z" fill="white"/>
<path d="M3320 906.8C3305.07 906.8 3293.07 902.533 3284 894C3275.47 884.933 3271.2 872.933 3271.2 858C3271.2 844.133 3275.47 832.933 3284 824.4C3293.07 815.867 3305.07 811.6 3320 811.6C3335.47 811.6 3347.2 815.867 3355.2 824.4C3363.2 832.933 3367.2 844.133 3367.2 858C3367.2 872.933 3363.2 884.933 3355.2 894C3347.2 902.533 3335.47 906.8 3320 906.8Z" fill="#EB0032"/>
</svg>
