<svg width="5000" height="5000" viewBox="0 0 5000 5000" fill="none" xmlns="http://www.w3.org/2000/svg">
<circle cx="2500" cy="2500" r="2500" fill="white"/>
<path d="M887.2 2309.8C880.8 2309.8 874.667 2308.73 868.8 2306.6C862.933 2304.73 858.133 2301.4 854.4 2296.6C850.667 2291.8 848.8 2285.27 848.8 2277V2183C848.8 2176.6 848.4 2171.8 847.6 2168.6C846.8 2165.4 844.933 2163.4 842 2162.6C839.067 2161.53 834.533 2161 828.4 2161C827.333 2161 826.8 2160.2 826.8 2158.6C826.8 2156.73 827.333 2155.8 828.4 2155.8C839.067 2155.53 847.733 2152.6 854.4 2147C861.333 2141.4 865.2 2134.2 866 2125.4C866 2124.6 866.933 2124.2 868.8 2124.2C870.933 2124.2 872 2124.6 872 2125.4V2263.4C872 2274.33 874.667 2282.47 880 2287.8C885.6 2293.13 893.467 2295.8 903.6 2295.8C910.533 2295.8 916.667 2294.73 922 2292.6C927.6 2290.2 932.133 2287.53 935.6 2284.6C936.667 2284.07 937.6 2284.47 938.4 2285.8C939.467 2286.87 939.467 2287.8 938.4 2288.6C928.533 2296.07 919.6 2301.53 911.6 2305C903.867 2308.2 895.733 2309.8 887.2 2309.8ZM926 2170.2C915.6 2167.53 905.6 2165.8 896 2165C886.4 2164.2 876.133 2163.8 865.2 2163.8V2155C875.867 2155 886.133 2154.6 896 2153.8C905.867 2153 916.4 2152.07 927.6 2151C928.133 2151 928.667 2151.93 929.2 2153.8C930 2155.67 930.4 2157.93 930.4 2160.6C930.4 2162.47 929.867 2164.6 928.8 2167C928 2169.4 927.067 2170.47 926 2170.2ZM957.556 2305C956.756 2305 956.356 2304.2 956.356 2302.6C956.356 2301 956.756 2300.2 957.556 2300.2C967.956 2300.2 974.756 2298.47 977.956 2295C981.156 2291.27 982.756 2283.8 982.756 2272.6V2065.8C982.756 2056.47 981.823 2049.67 979.956 2045.4C978.09 2040.87 974.756 2038.6 969.956 2038.6C965.956 2038.6 959.823 2040.47 951.556 2044.2C950.49 2044.73 949.556 2044.33 948.756 2043C948.223 2041.4 948.49 2040.33 949.556 2039.8L1000.36 2015C1000.89 2015 1001.16 2015 1001.16 2015C1001.16 2015 1001.29 2015 1001.56 2015C1002.36 2015 1003.16 2015.4 1003.96 2016.2C1004.76 2016.73 1005.16 2017.4 1005.16 2018.2V2272.6C1005.16 2283.8 1006.76 2291.27 1009.96 2295C1013.16 2298.47 1019.96 2300.2 1030.36 2300.2C1031.16 2300.2 1031.56 2301 1031.56 2302.6C1031.56 2304.2 1031.16 2305 1030.36 2305C1025.56 2305 1020.09 2304.87 1013.96 2304.6C1007.82 2304.33 1001.16 2304.2 993.956 2304.2C987.023 2304.2 980.356 2304.33 973.956 2304.6C967.556 2304.87 962.09 2305 957.556 2305ZM1065.16 2305C1064.36 2305 1063.96 2304.2 1063.96 2302.6C1063.96 2301 1064.36 2300.2 1065.16 2300.2C1075.56 2300.2 1082.36 2298.47 1085.56 2295C1088.76 2291.27 1090.36 2283.8 1090.36 2272.6V2209C1090.36 2177.8 1078.09 2162.2 1053.56 2162.2C1043.69 2162.2 1033.69 2165.4 1023.56 2171.8C1013.42 2177.93 1004.76 2186.33 997.556 2197L995.956 2192.2C1007.69 2176.2 1019.29 2164.6 1030.76 2157.4C1042.49 2150.2 1054.49 2146.6 1066.76 2146.6C1081.42 2146.6 1092.76 2150.73 1100.76 2159C1108.76 2167 1112.76 2179 1112.76 2195V2272.6C1112.76 2283.8 1114.36 2291.27 1117.56 2295C1120.76 2298.47 1127.56 2300.2 1137.96 2300.2C1138.76 2300.2 1139.16 2301 1139.16 2302.6C1139.16 2304.2 1138.76 2305 1137.96 2305C1133.16 2305 1127.69 2304.87 1121.56 2304.6C1115.42 2304.33 1108.76 2304.2 1101.56 2304.2C1094.62 2304.2 1087.96 2304.33 1081.56 2304.6C1075.16 2304.87 1069.69 2305 1065.16 2305ZM1236.37 2309.8C1219.83 2309.8 1205.97 2306.2 1194.77 2299C1183.57 2291.53 1175.17 2281.93 1169.57 2270.2C1163.97 2258.47 1161.17 2246.07 1161.17 2233C1161.17 2216.73 1164.9 2202.2 1172.37 2189.4C1180.1 2176.33 1190.37 2166.07 1203.17 2158.6C1216.23 2150.87 1230.9 2147 1247.17 2147C1261.83 2147 1273.03 2150.6 1280.77 2157.8C1288.77 2164.73 1292.77 2174.33 1292.77 2186.6C1292.77 2189.53 1292.5 2191.8 1291.97 2193.4C1291.43 2195 1290.1 2195.8 1287.97 2195.8H1264.77C1265.83 2182.73 1263.43 2172.73 1257.57 2165.8C1251.97 2158.6 1243.97 2155 1233.57 2155C1218.63 2155 1207.17 2160.6 1199.17 2171.8C1191.43 2183 1187.57 2198.2 1187.57 2217.4C1187.57 2232.6 1189.97 2246.07 1194.77 2257.8C1199.83 2269.53 1207.03 2278.87 1216.37 2285.8C1225.97 2292.47 1237.3 2295.8 1250.37 2295.8C1257.3 2295.8 1264.37 2294.73 1271.57 2292.6C1278.77 2290.47 1285.57 2287.13 1291.97 2282.6C1292.5 2282.07 1293.17 2282.47 1293.97 2283.8C1295.03 2284.87 1295.3 2285.8 1294.77 2286.6C1285.17 2294.87 1275.57 2300.87 1265.97 2304.6C1256.37 2308.07 1246.5 2309.8 1236.37 2309.8ZM1180.37 2196.6L1179.97 2191.4L1271.17 2189.4V2195.8L1180.37 2196.6Z" fill="#123456"/>
<path d="M1125.8 2325.2C1148.2 2325.2 1172.2 2327.07 1197.8 2330.8C1223.93 2334.53 1244.47 2339.87 1259.4 2346.8C1264.2 2348.4 1267.4 2350.53 1269 2353.2C1270.6 2355.33 1271.67 2359.33 1272.2 2365.2L1281.8 2476.4C1281.8 2478 1280.47 2479.07 1277.8 2479.6C1275.67 2480.13 1274.07 2479.33 1273 2477.2C1255.4 2436.13 1231.4 2403.87 1201 2380.4C1171.13 2356.93 1135.67 2345.2 1094.6 2345.2C1058.87 2345.2 1028.47 2354.27 1003.4 2372.4C978.867 2390.53 960.2 2415.87 947.4 2448.4C935.133 2480.4 929 2517.73 929 2560.4C929 2597.2 933.533 2631.87 942.6 2664.4C951.667 2696.4 964.467 2724.67 981 2749.2C997.533 2773.2 1017.27 2792.13 1040.2 2806C1063.13 2819.87 1088.47 2826.8 1116.2 2826.8C1150.33 2826.8 1180.73 2815.6 1207.4 2793.2C1234.6 2770.8 1258.87 2736.13 1280.2 2689.2C1281.27 2687.07 1283.13 2686.27 1285.8 2686.8C1288.47 2687.33 1289.8 2688.4 1289.8 2690L1277.8 2798.8C1276.73 2805.2 1275.4 2809.47 1273.8 2811.6C1272.73 2813.2 1269.8 2815.07 1265 2817.2C1240.47 2826.27 1215.67 2832.93 1190.6 2837.2C1166.07 2841.47 1142.07 2843.6 1118.6 2843.6C1066.87 2843.6 1022.6 2835.87 985.8 2820.4C949 2804.4 918.867 2783.6 895.4 2758C872.467 2731.87 855.4 2703.6 844.2 2673.2C833.533 2642.27 828.2 2611.87 828.2 2582C828.2 2542.53 836.2 2507.07 852.2 2475.6C868.733 2444.13 890.867 2417.2 918.6 2394.8C946.867 2372.4 978.6 2355.33 1013.8 2343.6C1049.53 2331.33 1086.87 2325.2 1125.8 2325.2ZM1513.76 2844.4C1480.16 2844.4 1451.09 2836.67 1426.56 2821.2C1402.02 2805.73 1383.09 2785.2 1369.76 2759.6C1356.42 2733.47 1349.76 2705.47 1349.76 2675.6C1349.76 2647.87 1355.09 2623.87 1365.76 2603.6C1376.42 2583.33 1390.56 2566.8 1408.16 2554C1425.76 2540.67 1444.96 2530.8 1465.76 2524.4C1486.56 2518 1507.09 2514.8 1527.36 2514.8C1561.49 2514.8 1590.56 2522.8 1614.56 2538.8C1639.09 2554.8 1657.76 2575.33 1670.56 2600.4C1683.36 2625.47 1689.76 2652.13 1689.76 2680.4C1689.76 2712.93 1681.49 2741.73 1664.96 2766.8C1648.96 2791.33 1627.62 2810.53 1600.96 2824.4C1574.29 2837.73 1545.22 2844.4 1513.76 2844.4ZM1537.76 2827.6C1559.09 2827.6 1575.09 2817.2 1585.76 2796.4C1596.42 2775.6 1601.76 2746.27 1601.76 2708.4C1601.76 2669.47 1596.69 2636.93 1586.56 2610.8C1576.96 2584.67 1564.42 2564.93 1548.96 2551.6C1533.49 2538.27 1517.22 2531.6 1500.16 2531.6C1479.36 2531.6 1463.36 2540.93 1452.16 2559.6C1441.49 2578.27 1436.16 2607.07 1436.16 2646C1436.16 2682.27 1440.69 2714.27 1449.76 2742C1458.82 2769.2 1471.09 2790.27 1486.56 2805.2C1502.02 2820.13 1519.09 2827.6 1537.76 2827.6ZM1961.96 2834C1960.36 2834 1959.56 2832.4 1959.56 2829.2C1959.56 2826 1960.36 2824.4 1961.96 2824.4C1978.5 2824.4 1989.7 2820.67 1995.56 2813.2C2001.43 2805.2 2004.36 2790.53 2004.36 2769.2V2654C2004.36 2625.2 1999.03 2603.87 1988.36 2590C1978.23 2576.13 1961.96 2569.2 1939.56 2569.2C1923.56 2569.2 1907.03 2573.2 1889.96 2581.2C1873.43 2589.2 1860.1 2600.13 1849.96 2614L1845.96 2604.4C1864.63 2577.73 1885.7 2556.4 1909.16 2540.4C1932.63 2523.87 1958.23 2515.6 1985.96 2515.6C2015.83 2515.6 2038.76 2524.93 2054.76 2543.6C2071.3 2562.27 2079.56 2586.27 2079.56 2615.6V2769.2C2079.56 2790.53 2082.5 2805.2 2088.36 2813.2C2094.76 2820.67 2106.23 2824.4 2122.76 2824.4C2124.36 2824.4 2125.16 2826 2125.16 2829.2C2125.16 2832.4 2124.36 2834 2122.76 2834C2112.1 2834 2099.83 2833.73 2085.96 2833.2C2072.1 2832.67 2057.43 2832.4 2041.96 2832.4C2027.03 2832.4 2012.63 2832.67 1998.76 2833.2C1984.9 2833.73 1972.63 2834 1961.96 2834ZM1746.76 2834C1745.16 2834 1744.36 2832.4 1744.36 2829.2C1744.36 2826 1745.16 2824.4 1746.76 2824.4C1763.3 2824.4 1774.5 2820.67 1780.36 2813.2C1786.23 2805.2 1789.16 2790.53 1789.16 2769.2V2618.8C1789.16 2602.27 1787.3 2590.27 1783.56 2582.8C1779.83 2574.8 1773.43 2570.8 1764.36 2570.8C1759.56 2570.8 1753.96 2571.87 1747.56 2574C1741.16 2575.6 1733.96 2578.27 1725.96 2582C1723.83 2583.07 1722.23 2582 1721.16 2578.8C1720.1 2575.6 1720.1 2573.73 1721.16 2573.2L1832.36 2518.8C1835.56 2517.73 1837.43 2517.2 1837.96 2517.2C1843.83 2517.2 1849.7 2523.6 1855.56 2536.4C1861.43 2549.2 1864.36 2567.6 1864.36 2591.6V2769.2C1864.36 2790.53 1867.3 2805.2 1873.16 2813.2C1879.56 2820.67 1891.03 2824.4 1907.56 2824.4C1909.16 2824.4 1909.96 2826 1909.96 2829.2C1909.96 2832.4 1909.16 2834 1907.56 2834C1896.9 2834 1884.63 2833.73 1870.76 2833.2C1856.9 2832.67 1842.23 2832.4 1826.76 2832.4C1811.83 2832.4 1797.43 2832.67 1783.56 2833.2C1769.7 2833.73 1757.43 2834 1746.76 2834ZM2158.26 2834C2156.12 2834 2155.06 2832.4 2155.06 2829.2C2155.06 2826 2156.12 2824.4 2158.26 2824.4C2178.52 2824.4 2191.59 2820.93 2197.46 2814C2203.32 2807.07 2206.26 2792.13 2206.26 2769.2V2589.2C2206.26 2577.47 2204.66 2568.93 2201.46 2563.6C2198.26 2557.73 2192.92 2554 2185.46 2552.4C2177.99 2550.27 2167.86 2549.2 2155.06 2549.2C2153.46 2549.2 2152.66 2546.8 2152.66 2542C2152.66 2537.2 2153.46 2534.8 2155.06 2534.8C2173.72 2534.8 2186.52 2532.4 2193.46 2527.6C2200.39 2522.27 2204.12 2512.93 2204.66 2499.6C2207.32 2440.4 2216.66 2392.93 2232.66 2357.2C2248.66 2320.93 2271.32 2294.53 2300.66 2278C2329.99 2261.47 2365.46 2253.2 2407.06 2253.2C2443.86 2253.2 2472.39 2258.8 2492.66 2270C2513.46 2281.2 2523.86 2296.13 2523.86 2314.8C2523.86 2324.4 2520.66 2332.67 2514.26 2339.6C2507.86 2346 2497.99 2349.2 2484.66 2349.2C2470.79 2349.2 2460.39 2345.2 2453.46 2337.2C2446.52 2329.2 2440.39 2319.87 2435.06 2309.2C2429.72 2298.53 2423.06 2289.2 2415.06 2281.2C2407.59 2273.2 2396.39 2269.2 2381.46 2269.2C2364.39 2269.2 2348.12 2276.4 2332.66 2290.8C2317.19 2305.2 2304.66 2328.13 2295.06 2359.6C2285.99 2391.07 2281.46 2432.13 2281.46 2482.8V2769.2C2281.46 2784.67 2283.06 2796.4 2286.26 2804.4C2289.46 2812.4 2296.12 2817.73 2306.26 2820.4C2316.39 2823.07 2331.86 2824.4 2352.66 2824.4C2354.79 2824.4 2355.86 2826 2355.86 2829.2C2355.86 2832.4 2354.79 2834 2352.66 2834C2333.99 2834 2315.59 2833.73 2297.46 2833.2C2279.86 2832.67 2261.72 2832.4 2243.06 2832.4C2227.59 2832.4 2212.39 2832.67 2197.46 2833.2C2183.06 2833.73 2169.99 2834 2158.26 2834ZM2367.06 2566C2346.26 2561.2 2326.26 2558 2307.06 2556.4C2288.39 2554.27 2268.39 2553.2 2247.06 2553.2V2532.4C2267.32 2532.4 2287.32 2531.6 2307.06 2530C2326.79 2528.4 2347.59 2526.53 2369.46 2524.4C2371.06 2524.4 2372.39 2526.53 2373.46 2530.8C2374.52 2534.53 2375.06 2538.8 2375.06 2543.6C2375.06 2548.93 2373.99 2554.27 2371.86 2559.6C2370.26 2564.4 2368.66 2566.53 2367.06 2566ZM2412.66 2834C2411.59 2834 2411.06 2832.4 2411.06 2829.2C2411.06 2826 2411.59 2824.4 2412.66 2824.4C2429.19 2824.4 2440.39 2820.67 2446.26 2813.2C2452.66 2805.2 2455.86 2790.53 2455.86 2769.2V2626C2455.86 2600.4 2452.12 2584.67 2444.66 2578.8C2437.19 2572.4 2423.06 2574 2402.26 2583.6C2400.12 2584.13 2398.26 2582.8 2396.66 2579.6C2395.59 2576.4 2395.59 2574.53 2396.66 2574L2517.46 2518C2520.12 2516.4 2523.32 2517.2 2527.06 2520.4C2530.79 2523.07 2532.66 2525.73 2532.66 2528.4C2532.66 2534.8 2532.12 2545.47 2531.06 2560.4C2530.52 2575.33 2530.26 2596.67 2530.26 2624.4V2769.2C2530.26 2790.53 2533.19 2805.2 2539.06 2813.2C2545.46 2820.67 2556.92 2824.4 2573.46 2824.4C2575.59 2824.4 2576.66 2826 2576.66 2829.2C2576.66 2832.4 2575.59 2834 2573.46 2834C2562.79 2834 2550.52 2833.73 2536.66 2833.2C2523.32 2832.67 2508.92 2832.4 2493.46 2832.4C2477.99 2832.4 2463.32 2832.67 2449.46 2833.2C2435.59 2833.73 2423.32 2834 2412.66 2834ZM2744.11 2844.4C2721.17 2844.4 2700.11 2838.27 2680.91 2826C2662.24 2813.73 2647.04 2796.13 2635.31 2773.2C2624.11 2749.73 2618.51 2721.47 2618.51 2688.4C2618.51 2655.87 2624.37 2628.67 2636.11 2606.8C2647.84 2584.4 2662.77 2566.53 2680.91 2553.2C2699.57 2539.87 2719.57 2530.27 2740.91 2524.4C2762.24 2518 2782.51 2514.8 2801.71 2514.8C2820.91 2514.8 2838.77 2517.2 2855.31 2522C2871.84 2526.8 2886.77 2532.67 2900.11 2539.6L2881.71 2604.4C2870.51 2580.4 2857.71 2563.07 2843.31 2552.4C2828.91 2541.2 2811.04 2535.6 2789.71 2535.6C2762.51 2535.6 2740.91 2545.2 2724.91 2564.4C2708.91 2583.07 2700.91 2615.87 2700.91 2662.8C2700.91 2693.2 2704.64 2719.07 2712.11 2740.4C2719.57 2761.73 2729.97 2778 2743.31 2789.2C2756.64 2800.4 2771.57 2806 2788.11 2806C2809.44 2806 2828.11 2800.13 2844.11 2788.4C2860.11 2776.67 2875.57 2762.53 2890.51 2746L2898.51 2753.2C2887.31 2766 2873.97 2779.6 2858.51 2794C2843.57 2807.87 2826.51 2819.87 2807.31 2830C2788.64 2839.6 2767.57 2844.4 2744.11 2844.4ZM2939.31 2264.4V2741.2C2939.31 2759.33 2940.91 2772.13 2944.11 2779.6C2947.84 2787.07 2953.71 2790.8 2961.71 2790.8C2965.44 2790.8 2969.97 2790 2975.31 2788.4C2981.17 2786.8 2987.57 2784.67 2994.51 2782C2996.11 2780.93 2997.71 2782 2999.31 2785.2C3000.91 2787.87 3001.17 2789.73 3000.11 2790.8L2889.71 2844.4C2888.11 2844.93 2886.77 2845.2 2885.71 2845.2C2880.37 2845.2 2875.31 2838.53 2870.51 2825.2C2866.24 2811.87 2864.11 2792.93 2864.11 2768.4V2362.8C2864.11 2344.67 2862.51 2331.6 2859.31 2323.6C2856.11 2315.07 2849.97 2310.8 2840.91 2310.8C2837.17 2310.8 2832.64 2311.6 2827.31 2313.2C2822.51 2314.8 2817.17 2316.93 2811.31 2319.6C2809.17 2320.13 2807.31 2318.8 2805.71 2315.6C2804.11 2312.4 2803.84 2310.53 2804.91 2310L2922.51 2254.8C2923.57 2254.27 2924.64 2254 2925.71 2254C2928.37 2254 2931.31 2255.33 2934.51 2258C2937.71 2260.13 2939.31 2262.27 2939.31 2264.4ZM3188.72 2843.6C3154.05 2843.6 3124.45 2836.4 3099.92 2822C3075.92 2807.6 3057.52 2788.67 3044.72 2765.2C3032.45 2741.2 3026.32 2715.87 3026.32 2689.2C3026.32 2657.73 3034.32 2629.2 3050.32 2603.6C3066.32 2577.47 3087.92 2556.67 3115.12 2541.2C3142.85 2525.73 3174.05 2518 3208.72 2518C3241.79 2518 3267.12 2525.2 3284.72 2539.6C3302.32 2553.47 3311.12 2572.67 3311.12 2597.2C3311.12 2603.07 3310.59 2608.4 3309.52 2613.2C3308.45 2618 3306.05 2620.4 3302.32 2620.4H3225.52C3226.59 2595.33 3223.65 2574.8 3216.72 2558.8C3209.79 2542.27 3197.25 2534 3179.12 2534C3157.79 2534 3140.45 2545.2 3127.12 2567.6C3113.79 2589.47 3107.12 2618.8 3107.12 2655.6C3107.12 2685.47 3111.92 2711.6 3121.52 2734C3131.12 2756.4 3144.99 2773.73 3163.12 2786C3181.25 2798.27 3203.12 2804.4 3228.72 2804.4C3241.52 2804.4 3255.12 2802.53 3269.52 2798.8C3284.45 2795.07 3297.79 2789.47 3309.52 2782C3310.59 2780.93 3311.92 2781.47 3313.52 2783.6C3315.65 2785.73 3316.19 2787.6 3315.12 2789.2C3295.39 2808.93 3275.12 2823.07 3254.32 2831.6C3234.05 2839.6 3212.19 2843.6 3188.72 2843.6ZM3079.12 2622L3078.32 2606.8L3253.52 2602.8V2620.4L3079.12 2622ZM3581.49 2834C3579.89 2834 3579.09 2832.4 3579.09 2829.2C3579.09 2826 3579.89 2824.4 3581.49 2824.4C3598.03 2824.4 3609.23 2820.67 3615.09 2813.2C3620.96 2805.2 3623.89 2790.53 3623.89 2769.2V2654C3623.89 2625.2 3618.56 2603.87 3607.89 2590C3597.76 2576.13 3581.49 2569.2 3559.09 2569.2C3543.09 2569.2 3526.56 2573.2 3509.49 2581.2C3492.96 2589.2 3479.63 2600.13 3469.49 2614L3465.49 2604.4C3484.16 2577.73 3505.23 2556.4 3528.69 2540.4C3552.16 2523.87 3577.76 2515.6 3605.49 2515.6C3635.36 2515.6 3658.29 2524.93 3674.29 2543.6C3690.83 2562.27 3699.09 2586.27 3699.09 2615.6V2769.2C3699.09 2790.53 3702.03 2805.2 3707.89 2813.2C3714.29 2820.67 3725.76 2824.4 3742.29 2824.4C3743.89 2824.4 3744.69 2826 3744.69 2829.2C3744.69 2832.4 3743.89 2834 3742.29 2834C3731.63 2834 3719.36 2833.73 3705.49 2833.2C3691.63 2832.67 3676.96 2832.4 3661.49 2832.4C3646.56 2832.4 3632.16 2832.67 3618.29 2833.2C3604.43 2833.73 3592.16 2834 3581.49 2834ZM3366.29 2834C3364.69 2834 3363.89 2832.4 3363.89 2829.2C3363.89 2826 3364.69 2824.4 3366.29 2824.4C3382.83 2824.4 3394.03 2820.67 3399.89 2813.2C3405.76 2805.2 3408.69 2790.53 3408.69 2769.2V2618.8C3408.69 2602.27 3406.83 2590.27 3403.09 2582.8C3399.36 2574.8 3392.96 2570.8 3383.89 2570.8C3379.09 2570.8 3373.49 2571.87 3367.09 2574C3360.69 2575.6 3353.49 2578.27 3345.49 2582C3343.36 2583.07 3341.76 2582 3340.69 2578.8C3339.63 2575.6 3339.63 2573.73 3340.69 2573.2L3451.89 2518.8C3455.09 2517.73 3456.96 2517.2 3457.49 2517.2C3463.36 2517.2 3469.23 2523.6 3475.09 2536.4C3480.96 2549.2 3483.89 2567.6 3483.89 2591.6V2769.2C3483.89 2790.53 3486.83 2805.2 3492.69 2813.2C3499.09 2820.67 3510.56 2824.4 3527.09 2824.4C3528.69 2824.4 3529.49 2826 3529.49 2829.2C3529.49 2832.4 3528.69 2834 3527.09 2834C3516.43 2834 3504.16 2833.73 3490.29 2833.2C3476.43 2832.67 3461.76 2832.4 3446.29 2832.4C3431.36 2832.4 3416.96 2832.67 3403.09 2833.2C3389.23 2833.73 3376.96 2834 3366.29 2834ZM3903.39 2843.6C3890.59 2843.6 3877.52 2841.47 3864.19 2837.2C3851.39 2832.93 3840.45 2825.47 3831.39 2814.8C3822.85 2804.13 3818.59 2789.2 3818.59 2770V2592.4C3818.59 2581.2 3817.25 2572.4 3814.59 2566C3811.92 2559.6 3807.65 2555.07 3801.79 2552.4C3795.92 2549.73 3787.92 2548.4 3777.79 2548.4C3775.65 2548.4 3774.59 2546 3774.59 2541.2C3774.59 2536.4 3775.65 2534 3777.79 2534C3804.99 2532.93 3827.12 2527.07 3844.19 2516.4C3861.25 2505.2 3874.05 2488.93 3882.59 2467.6C3883.65 2465.47 3885.79 2464.4 3888.99 2464.4C3892.72 2464.4 3894.59 2465.47 3894.59 2467.6V2743.6C3894.59 2764.93 3899.92 2780.13 3910.59 2789.2C3921.79 2798.27 3935.39 2802.8 3951.39 2802.8C3963.65 2802.8 3975.12 2800.4 3985.79 2795.6C3996.99 2790.27 4006.32 2784.67 4013.79 2778.8C4015.39 2777.2 4017.25 2777.73 4019.39 2780.4C4022.05 2782.53 4022.32 2784.4 4020.19 2786C4000.45 2805.73 3981.25 2820.4 3962.59 2830C3944.45 2839.07 3924.72 2843.6 3903.39 2843.6ZM3995.39 2566C3973.52 2561.2 3952.19 2558 3931.39 2556.4C3911.12 2554.27 3889.52 2553.2 3866.59 2553.2V2532.4C3888.45 2532.4 3909.79 2531.6 3930.59 2530C3951.92 2528.4 3974.59 2526.53 3998.59 2524.4C3999.65 2524.4 4000.72 2526.53 4001.79 2530.8C4003.39 2534.53 4004.19 2538.8 4004.19 2543.6C4004.19 2548.93 4003.12 2554.27 4000.99 2559.6C3999.39 2564.4 3997.52 2566.53 3995.39 2566Z" fill="#123456"/>
<path d="M4129 2843.8C4114.07 2843.8 4102.07 2839.53 4093 2831C4084.47 2821.93 4080.2 2809.93 4080.2 2795C4080.2 2781.13 4084.47 2769.93 4093 2761.4C4102.07 2752.87 4114.07 2748.6 4129 2748.6C4144.47 2748.6 4156.2 2752.87 4164.2 2761.4C4172.2 2769.93 4176.2 2781.13 4176.2 2795C4176.2 2809.93 4172.2 2821.93 4164.2 2831C4156.2 2839.53 4144.47 2843.8 4129 2843.8Z" fill="#EB0032"/>
</svg>
