<svg width="3422" height="1129" viewBox="0 0 3422 1129" fill="none" xmlns="http://www.w3.org/2000/svg">
<path d="M98.2 373.8C91.8 373.8 85.6667 372.733 79.8 370.6C73.9333 368.733 69.1333 365.4 65.4 360.6C61.6667 355.8 59.8 349.267 59.8 341V247C59.8 240.6 59.4 235.8 58.6 232.6C57.8 229.4 55.9333 227.4 53 226.6C50.0667 225.533 45.5333 225 39.4 225C38.3333 225 37.8 224.2 37.8 222.6C37.8 220.733 38.3333 219.8 39.4 219.8C50.0667 219.533 58.7333 216.6 65.4 211C72.3333 205.4 76.2 198.2 77 189.4C77 188.6 77.9333 188.2 79.8 188.2C81.9333 188.2 83 188.6 83 189.4V327.4C83 338.333 85.6667 346.467 91 351.8C96.6 357.133 104.467 359.8 114.6 359.8C121.533 359.8 127.667 358.733 133 356.6C138.6 354.2 143.133 351.533 146.6 348.6C147.667 348.067 148.6 348.467 149.4 349.8C150.467 350.867 150.467 351.8 149.4 352.6C139.533 360.067 130.6 365.533 122.6 369C114.867 372.2 106.733 373.8 98.2 373.8ZM137 234.2C126.6 231.533 116.6 229.8 107 229C97.4 228.2 87.1333 227.8 76.2 227.8V219C86.8667 219 97.1333 218.6 107 217.8C116.867 217 127.4 216.067 138.6 215C139.133 215 139.667 215.933 140.2 217.8C141 219.667 141.4 221.933 141.4 224.6C141.4 226.467 140.867 228.6 139.8 231C139 233.4 138.067 234.467 137 234.2ZM168.556 369C167.756 369 167.356 368.2 167.356 366.6C167.356 365 167.756 364.2 168.556 364.2C178.956 364.2 185.756 362.467 188.956 359C192.156 355.267 193.756 347.8 193.756 336.6V129.8C193.756 120.467 192.823 113.667 190.956 109.4C189.09 104.867 185.756 102.6 180.956 102.6C176.956 102.6 170.823 104.467 162.556 108.2C161.49 108.733 160.556 108.333 159.756 107C159.223 105.4 159.49 104.333 160.556 103.8L211.356 79C211.89 79 212.156 79 212.156 79C212.156 79 212.29 79 212.556 79C213.356 79 214.156 79.4 214.956 80.2C215.756 80.7333 216.156 81.4 216.156 82.2V336.6C216.156 347.8 217.756 355.267 220.956 359C224.156 362.467 230.956 364.2 241.356 364.2C242.156 364.2 242.556 365 242.556 366.6C242.556 368.2 242.156 369 241.356 369C236.556 369 231.09 368.867 224.956 368.6C218.823 368.333 212.156 368.2 204.956 368.2C198.023 368.2 191.356 368.333 184.956 368.6C178.556 368.867 173.09 369 168.556 369ZM276.156 369C275.356 369 274.956 368.2 274.956 366.6C274.956 365 275.356 364.2 276.156 364.2C286.556 364.2 293.356 362.467 296.556 359C299.756 355.267 301.356 347.8 301.356 336.6V273C301.356 241.8 289.09 226.2 264.556 226.2C254.69 226.2 244.69 229.4 234.556 235.8C224.423 241.933 215.756 250.333 208.556 261L206.956 256.2C218.69 240.2 230.29 228.6 241.756 221.4C253.49 214.2 265.49 210.6 277.756 210.6C292.423 210.6 303.756 214.733 311.756 223C319.756 231 323.756 243 323.756 259V336.6C323.756 347.8 325.356 355.267 328.556 359C331.756 362.467 338.556 364.2 348.956 364.2C349.756 364.2 350.156 365 350.156 366.6C350.156 368.2 349.756 369 348.956 369C344.156 369 338.69 368.867 332.556 368.6C326.423 368.333 319.756 368.2 312.556 368.2C305.623 368.2 298.956 368.333 292.556 368.6C286.156 368.867 280.69 369 276.156 369ZM447.366 373.8C430.832 373.8 416.966 370.2 405.766 363C394.566 355.533 386.166 345.933 380.566 334.2C374.966 322.467 372.166 310.067 372.166 297C372.166 280.733 375.899 266.2 383.366 253.4C391.099 240.333 401.366 230.067 414.166 222.6C427.232 214.867 441.899 211 458.166 211C472.832 211 484.032 214.6 491.766 221.8C499.766 228.733 503.766 238.333 503.766 250.6C503.766 253.533 503.499 255.8 502.966 257.4C502.432 259 501.099 259.8 498.966 259.8H475.766C476.832 246.733 474.432 236.733 468.566 229.8C462.966 222.6 454.966 219 444.566 219C429.632 219 418.166 224.6 410.166 235.8C402.432 247 398.566 262.2 398.566 281.4C398.566 296.6 400.966 310.067 405.766 321.8C410.832 333.533 418.032 342.867 427.366 349.8C436.966 356.467 448.299 359.8 461.366 359.8C468.299 359.8 475.366 358.733 482.566 356.6C489.766 354.467 496.566 351.133 502.966 346.6C503.499 346.067 504.166 346.467 504.966 347.8C506.032 348.867 506.299 349.8 505.766 350.6C496.166 358.867 486.566 364.867 476.966 368.6C467.366 372.067 457.499 373.8 447.366 373.8ZM391.366 260.6L390.966 255.4L482.166 253.4V259.8L391.366 260.6Z" fill="#123456"/>
<path d="M336.8 389.2C359.2 389.2 383.2 391.067 408.8 394.8C434.933 398.533 455.467 403.867 470.4 410.8C475.2 412.4 478.4 414.533 480 417.2C481.6 419.333 482.667 423.333 483.2 429.2L492.8 540.4C492.8 542 491.467 543.067 488.8 543.6C486.667 544.133 485.067 543.333 484 541.2C466.4 500.133 442.4 467.867 412 444.4C382.133 420.933 346.667 409.2 305.6 409.2C269.867 409.2 239.467 418.267 214.4 436.4C189.867 454.533 171.2 479.867 158.4 512.4C146.133 544.4 140 581.733 140 624.4C140 661.2 144.533 695.867 153.6 728.4C162.667 760.4 175.467 788.667 192 813.2C208.533 837.2 228.267 856.133 251.2 870C274.133 883.867 299.467 890.8 327.2 890.8C361.333 890.8 391.733 879.6 418.4 857.2C445.6 834.8 469.867 800.133 491.2 753.2C492.267 751.067 494.133 750.267 496.8 750.8C499.467 751.333 500.8 752.4 500.8 754L488.8 862.8C487.733 869.2 486.4 873.467 484.8 875.6C483.733 877.2 480.8 879.067 476 881.2C451.467 890.267 426.667 896.933 401.6 901.2C377.067 905.467 353.067 907.6 329.6 907.6C277.867 907.6 233.6 899.867 196.8 884.4C160 868.4 129.867 847.6 106.4 822C83.4667 795.867 66.4 767.6 55.2 737.2C44.5333 706.267 39.2 675.867 39.2 646C39.2 606.533 47.2 571.067 63.2 539.6C79.7333 508.133 101.867 481.2 129.6 458.8C157.867 436.4 189.6 419.333 224.8 407.6C260.533 395.333 297.867 389.2 336.8 389.2ZM724.756 908.4C691.156 908.4 662.09 900.667 637.556 885.2C613.023 869.733 594.09 849.2 580.756 823.6C567.423 797.467 560.756 769.467 560.756 739.6C560.756 711.867 566.09 687.867 576.756 667.6C587.423 647.333 601.556 630.8 619.156 618C636.756 604.667 655.956 594.8 676.756 588.4C697.556 582 718.09 578.8 738.356 578.8C772.49 578.8 801.556 586.8 825.556 602.8C850.09 618.8 868.756 639.333 881.556 664.4C894.356 689.467 900.756 716.133 900.756 744.4C900.756 776.933 892.49 805.733 875.956 830.8C859.956 855.333 838.623 874.533 811.956 888.4C785.29 901.733 756.223 908.4 724.756 908.4ZM748.756 891.6C770.09 891.6 786.09 881.2 796.756 860.4C807.423 839.6 812.756 810.267 812.756 772.4C812.756 733.467 807.69 700.933 797.556 674.8C787.956 648.667 775.423 628.933 759.956 615.6C744.49 602.267 728.223 595.6 711.156 595.6C690.356 595.6 674.356 604.933 663.156 623.6C652.49 642.267 647.156 671.067 647.156 710C647.156 746.267 651.69 778.267 660.756 806C669.823 833.2 682.09 854.267 697.556 869.2C713.023 884.133 730.09 891.6 748.756 891.6ZM1172.96 898C1171.36 898 1170.56 896.4 1170.56 893.2C1170.56 890 1171.36 888.4 1172.96 888.4C1189.5 888.4 1200.7 884.667 1206.56 877.2C1212.43 869.2 1215.36 854.533 1215.36 833.2V718C1215.36 689.2 1210.03 667.867 1199.36 654C1189.23 640.133 1172.96 633.2 1150.56 633.2C1134.56 633.2 1118.03 637.2 1100.96 645.2C1084.43 653.2 1071.1 664.133 1060.96 678L1056.96 668.4C1075.63 641.733 1096.7 620.4 1120.16 604.4C1143.63 587.867 1169.23 579.6 1196.96 579.6C1226.83 579.6 1249.76 588.933 1265.76 607.6C1282.3 626.267 1290.56 650.267 1290.56 679.6V833.2C1290.56 854.533 1293.5 869.2 1299.36 877.2C1305.76 884.667 1317.23 888.4 1333.76 888.4C1335.36 888.4 1336.16 890 1336.16 893.2C1336.16 896.4 1335.36 898 1333.76 898C1323.1 898 1310.83 897.733 1296.96 897.2C1283.1 896.667 1268.43 896.4 1252.96 896.4C1238.03 896.4 1223.63 896.667 1209.76 897.2C1195.9 897.733 1183.63 898 1172.96 898ZM957.763 898C956.163 898 955.363 896.4 955.363 893.2C955.363 890 956.163 888.4 957.763 888.4C974.296 888.4 985.496 884.667 991.363 877.2C997.229 869.2 1000.16 854.533 1000.16 833.2V682.8C1000.16 666.267 998.296 654.267 994.563 646.8C990.829 638.8 984.429 634.8 975.363 634.8C970.563 634.8 964.963 635.867 958.563 638C952.163 639.6 944.963 642.267 936.963 646C934.829 647.067 933.229 646 932.163 642.8C931.096 639.6 931.096 637.733 932.163 637.2L1043.36 582.8C1046.56 581.733 1048.43 581.2 1048.96 581.2C1054.83 581.2 1060.7 587.6 1066.56 600.4C1072.43 613.2 1075.36 631.6 1075.36 655.6V833.2C1075.36 854.533 1078.3 869.2 1084.16 877.2C1090.56 884.667 1102.03 888.4 1118.56 888.4C1120.16 888.4 1120.96 890 1120.96 893.2C1120.96 896.4 1120.16 898 1118.56 898C1107.9 898 1095.63 897.733 1081.76 897.2C1067.9 896.667 1053.23 896.4 1037.76 896.4C1022.83 896.4 1008.43 896.667 994.563 897.2C980.696 897.733 968.429 898 957.763 898ZM1369.26 898C1367.12 898 1366.06 896.4 1366.06 893.2C1366.06 890 1367.12 888.4 1369.26 888.4C1389.52 888.4 1402.59 884.933 1408.46 878C1414.32 871.067 1417.26 856.133 1417.26 833.2V653.2C1417.26 641.467 1415.66 632.933 1412.46 627.6C1409.26 621.733 1403.92 618 1396.46 616.4C1388.99 614.267 1378.86 613.2 1366.06 613.2C1364.46 613.2 1363.66 610.8 1363.66 606C1363.66 601.2 1364.46 598.8 1366.06 598.8C1384.72 598.8 1397.52 596.4 1404.46 591.6C1411.39 586.267 1415.12 576.933 1415.66 563.6C1418.32 504.4 1427.66 456.933 1443.66 421.2C1459.66 384.933 1482.32 358.533 1511.66 342C1540.99 325.467 1576.46 317.2 1618.06 317.2C1654.86 317.2 1683.39 322.8 1703.66 334C1724.46 345.2 1734.86 360.133 1734.86 378.8C1734.86 388.4 1731.66 396.667 1725.26 403.6C1718.86 410 1708.99 413.2 1695.66 413.2C1681.79 413.2 1671.39 409.2 1664.46 401.2C1657.52 393.2 1651.39 383.867 1646.06 373.2C1640.72 362.533 1634.06 353.2 1626.06 345.2C1618.59 337.2 1607.39 333.2 1592.46 333.2C1575.39 333.2 1559.12 340.4 1543.66 354.8C1528.19 369.2 1515.66 392.133 1506.06 423.6C1496.99 455.067 1492.46 496.133 1492.46 546.8V833.2C1492.46 848.667 1494.06 860.4 1497.26 868.4C1500.46 876.4 1507.12 881.733 1517.26 884.4C1527.39 887.067 1542.86 888.4 1563.66 888.4C1565.79 888.4 1566.86 890 1566.86 893.2C1566.86 896.4 1565.79 898 1563.66 898C1544.99 898 1526.59 897.733 1508.46 897.2C1490.86 896.667 1472.72 896.4 1454.06 896.4C1438.59 896.4 1423.39 896.667 1408.46 897.2C1394.06 897.733 1380.99 898 1369.26 898ZM1578.06 630C1557.26 625.2 1537.26 622 1518.06 620.4C1499.39 618.267 1479.39 617.2 1458.06 617.2V596.4C1478.32 596.4 1498.32 595.6 1518.06 594C1537.79 592.4 1558.59 590.533 1580.46 588.4C1582.06 588.4 1583.39 590.533 1584.46 594.8C1585.52 598.533 1586.06 602.8 1586.06 607.6C1586.06 612.933 1584.99 618.267 1582.86 623.6C1581.26 628.4 1579.66 630.533 1578.06 630ZM1623.66 898C1622.59 898 1622.06 896.4 1622.06 893.2C1622.06 890 1622.59 888.4 1623.66 888.4C1640.19 888.4 1651.39 884.667 1657.26 877.2C1663.66 869.2 1666.86 854.533 1666.86 833.2V690C1666.86 664.4 1663.12 648.667 1655.66 642.8C1648.19 636.4 1634.06 638 1613.26 647.6C1611.12 648.133 1609.26 646.8 1607.66 643.6C1606.59 640.4 1606.59 638.533 1607.66 638L1728.46 582C1731.12 580.4 1734.32 581.2 1738.06 584.4C1741.79 587.067 1743.66 589.733 1743.66 592.4C1743.66 598.8 1743.12 609.467 1742.06 624.4C1741.52 639.333 1741.26 660.667 1741.26 688.4V833.2C1741.26 854.533 1744.19 869.2 1750.06 877.2C1756.46 884.667 1767.92 888.4 1784.46 888.4C1786.59 888.4 1787.66 890 1787.66 893.2C1787.66 896.4 1786.59 898 1784.46 898C1773.79 898 1761.52 897.733 1747.66 897.2C1734.32 896.667 1719.92 896.4 1704.46 896.4C1688.99 896.4 1674.32 896.667 1660.46 897.2C1646.59 897.733 1634.32 898 1623.66 898ZM1955.11 908.4C1932.17 908.4 1911.11 902.267 1891.91 890C1873.24 877.733 1858.04 860.133 1846.31 837.2C1835.11 813.733 1829.51 785.467 1829.51 752.4C1829.51 719.867 1835.37 692.667 1847.11 670.8C1858.84 648.4 1873.77 630.533 1891.91 617.2C1910.57 603.867 1930.57 594.267 1951.91 588.4C1973.24 582 1993.51 578.8 2012.71 578.8C2031.91 578.8 2049.77 581.2 2066.31 586C2082.84 590.8 2097.77 596.667 2111.11 603.6L2092.71 668.4C2081.51 644.4 2068.71 627.067 2054.31 616.4C2039.91 605.2 2022.04 599.6 2000.71 599.6C1973.51 599.6 1951.91 609.2 1935.91 628.4C1919.91 647.067 1911.91 679.867 1911.91 726.8C1911.91 757.2 1915.64 783.067 1923.11 804.4C1930.57 825.733 1940.97 842 1954.31 853.2C1967.64 864.4 1982.57 870 1999.11 870C2020.44 870 2039.11 864.133 2055.11 852.4C2071.11 840.667 2086.57 826.533 2101.51 810L2109.51 817.2C2098.31 830 2084.97 843.6 2069.51 858C2054.57 871.867 2037.51 883.867 2018.31 894C1999.64 903.6 1978.57 908.4 1955.11 908.4ZM2150.31 328.4V805.2C2150.31 823.333 2151.91 836.133 2155.11 843.6C2158.84 851.067 2164.71 854.8 2172.71 854.8C2176.44 854.8 2180.97 854 2186.31 852.4C2192.17 850.8 2198.57 848.667 2205.51 846C2207.11 844.933 2208.71 846 2210.31 849.2C2211.91 851.867 2212.17 853.733 2211.11 854.8L2100.71 908.4C2099.11 908.933 2097.77 909.2 2096.71 909.2C2091.37 909.2 2086.31 902.533 2081.51 889.2C2077.24 875.867 2075.11 856.933 2075.11 832.4V426.8C2075.11 408.667 2073.51 395.6 2070.31 387.6C2067.11 379.067 2060.97 374.8 2051.91 374.8C2048.17 374.8 2043.64 375.6 2038.31 377.2C2033.51 378.8 2028.17 380.933 2022.31 383.6C2020.17 384.133 2018.31 382.8 2016.71 379.6C2015.11 376.4 2014.84 374.533 2015.91 374L2133.51 318.8C2134.57 318.267 2135.64 318 2136.71 318C2139.37 318 2142.31 319.333 2145.51 322C2148.71 324.133 2150.31 326.267 2150.31 328.4ZM2399.72 907.6C2365.05 907.6 2335.45 900.4 2310.92 886C2286.92 871.6 2268.52 852.667 2255.72 829.2C2243.45 805.2 2237.32 779.867 2237.32 753.2C2237.32 721.733 2245.32 693.2 2261.32 667.6C2277.32 641.467 2298.92 620.667 2326.12 605.2C2353.85 589.733 2385.05 582 2419.72 582C2452.79 582 2478.12 589.2 2495.72 603.6C2513.32 617.467 2522.12 636.667 2522.12 661.2C2522.12 667.067 2521.59 672.4 2520.52 677.2C2519.45 682 2517.05 684.4 2513.32 684.4H2436.52C2437.59 659.333 2434.65 638.8 2427.72 622.8C2420.79 606.267 2408.25 598 2390.12 598C2368.79 598 2351.45 609.2 2338.12 631.6C2324.79 653.467 2318.12 682.8 2318.12 719.6C2318.12 749.467 2322.92 775.6 2332.52 798C2342.12 820.4 2355.99 837.733 2374.12 850C2392.25 862.267 2414.12 868.4 2439.72 868.4C2452.52 868.4 2466.12 866.533 2480.52 862.8C2495.45 859.067 2508.79 853.467 2520.52 846C2521.59 844.933 2522.92 845.467 2524.52 847.6C2526.65 849.733 2527.19 851.6 2526.12 853.2C2506.39 872.933 2486.12 887.067 2465.32 895.6C2445.05 903.6 2423.19 907.6 2399.72 907.6ZM2290.12 686L2289.32 670.8L2464.52 666.8V684.4L2290.12 686ZM2792.49 898C2790.89 898 2790.09 896.4 2790.09 893.2C2790.09 890 2790.89 888.4 2792.49 888.4C2809.03 888.4 2820.23 884.667 2826.09 877.2C2831.96 869.2 2834.89 854.533 2834.89 833.2V718C2834.89 689.2 2829.56 667.867 2818.89 654C2808.76 640.133 2792.49 633.2 2770.09 633.2C2754.09 633.2 2737.56 637.2 2720.49 645.2C2703.96 653.2 2690.63 664.133 2680.49 678L2676.49 668.4C2695.16 641.733 2716.23 620.4 2739.69 604.4C2763.16 587.867 2788.76 579.6 2816.49 579.6C2846.36 579.6 2869.29 588.933 2885.29 607.6C2901.83 626.267 2910.09 650.267 2910.09 679.6V833.2C2910.09 854.533 2913.03 869.2 2918.89 877.2C2925.29 884.667 2936.76 888.4 2953.29 888.4C2954.89 888.4 2955.69 890 2955.69 893.2C2955.69 896.4 2954.89 898 2953.29 898C2942.63 898 2930.36 897.733 2916.49 897.2C2902.63 896.667 2887.96 896.4 2872.49 896.4C2857.56 896.4 2843.16 896.667 2829.29 897.2C2815.43 897.733 2803.16 898 2792.49 898ZM2577.29 898C2575.69 898 2574.89 896.4 2574.89 893.2C2574.89 890 2575.69 888.4 2577.29 888.4C2593.83 888.4 2605.03 884.667 2610.89 877.2C2616.76 869.2 2619.69 854.533 2619.69 833.2V682.8C2619.69 666.267 2617.83 654.267 2614.09 646.8C2610.36 638.8 2603.96 634.8 2594.89 634.8C2590.09 634.8 2584.49 635.867 2578.09 638C2571.69 639.6 2564.49 642.267 2556.49 646C2554.36 647.067 2552.76 646 2551.69 642.8C2550.63 639.6 2550.63 637.733 2551.69 637.2L2662.89 582.8C2666.09 581.733 2667.96 581.2 2668.49 581.2C2674.36 581.2 2680.23 587.6 2686.09 600.4C2691.96 613.2 2694.89 631.6 2694.89 655.6V833.2C2694.89 854.533 2697.83 869.2 2703.69 877.2C2710.09 884.667 2721.56 888.4 2738.09 888.4C2739.69 888.4 2740.49 890 2740.49 893.2C2740.49 896.4 2739.69 898 2738.09 898C2727.43 898 2715.16 897.733 2701.29 897.2C2687.43 896.667 2672.76 896.4 2657.29 896.4C2642.36 896.4 2627.96 896.667 2614.09 897.2C2600.23 897.733 2587.96 898 2577.29 898ZM3114.39 907.6C3101.59 907.6 3088.52 905.467 3075.19 901.2C3062.39 896.933 3051.45 889.467 3042.39 878.8C3033.85 868.133 3029.59 853.2 3029.59 834V656.4C3029.59 645.2 3028.25 636.4 3025.59 630C3022.92 623.6 3018.65 619.067 3012.79 616.4C3006.92 613.733 2998.92 612.4 2988.79 612.4C2986.65 612.4 2985.59 610 2985.59 605.2C2985.59 600.4 2986.65 598 2988.79 598C3015.99 596.933 3038.12 591.067 3055.19 580.4C3072.25 569.2 3085.05 552.933 3093.59 531.6C3094.65 529.467 3096.79 528.4 3099.99 528.4C3103.72 528.4 3105.59 529.467 3105.59 531.6V807.6C3105.59 828.933 3110.92 844.133 3121.59 853.2C3132.79 862.267 3146.39 866.8 3162.39 866.8C3174.65 866.8 3186.12 864.4 3196.79 859.6C3207.99 854.267 3217.32 848.667 3224.79 842.8C3226.39 841.2 3228.25 841.733 3230.39 844.4C3233.05 846.533 3233.32 848.4 3231.19 850C3211.45 869.733 3192.25 884.4 3173.59 894C3155.45 903.067 3135.72 907.6 3114.39 907.6ZM3206.39 630C3184.52 625.2 3163.19 622 3142.39 620.4C3122.12 618.267 3100.52 617.2 3077.59 617.2V596.4C3099.45 596.4 3120.79 595.6 3141.59 594C3162.92 592.4 3185.59 590.533 3209.59 588.4C3210.65 588.4 3211.72 590.533 3212.79 594.8C3214.39 598.533 3215.19 602.8 3215.19 607.6C3215.19 612.933 3214.12 618.267 3211.99 623.6C3210.39 628.4 3208.52 630.533 3206.39 630Z" fill="#123456"/>
<path d="M3340 907.8C3325.07 907.8 3313.07 903.533 3304 895C3295.47 885.933 3291.2 873.933 3291.2 859C3291.2 845.133 3295.47 833.933 3304 825.4C3313.07 816.867 3325.07 812.6 3340 812.6C3355.47 812.6 3367.2 816.867 3375.2 825.4C3383.2 833.933 3387.2 845.133 3387.2 859C3387.2 873.933 3383.2 885.933 3375.2 895C3367.2 903.533 3355.47 907.8 3340 907.8Z" fill="#EB0032"/>
</svg>
