<svg width="5000" height="3750" viewBox="0 0 5000 3750" fill="none" xmlns="http://www.w3.org/2000/svg">
<rect width="5000" height="3750" fill="white"/>
<path d="M887.2 1684.8C880.8 1684.8 874.667 1683.73 868.8 1681.6C862.933 1679.73 858.133 1676.4 854.4 1671.6C850.667 1666.8 848.8 1660.27 848.8 1652V1558C848.8 1551.6 848.4 1546.8 847.6 1543.6C846.8 1540.4 844.933 1538.4 842 1537.6C839.067 1536.53 834.533 1536 828.4 1536C827.333 1536 826.8 1535.2 826.8 1533.6C826.8 1531.73 827.333 1530.8 828.4 1530.8C839.067 1530.53 847.733 1527.6 854.4 1522C861.333 1516.4 865.2 1509.2 866 1500.4C866 1499.6 866.933 1499.2 868.8 1499.2C870.933 1499.2 872 1499.6 872 1500.4V1638.4C872 1649.33 874.667 1657.47 880 1662.8C885.6 1668.13 893.467 1670.8 903.6 1670.8C910.533 1670.8 916.667 1669.73 922 1667.6C927.6 1665.2 932.133 1662.53 935.6 1659.6C936.667 1659.07 937.6 1659.47 938.4 1660.8C939.467 1661.87 939.467 1662.8 938.4 1663.6C928.533 1671.07 919.6 1676.53 911.6 1680C903.867 1683.2 895.733 1684.8 887.2 1684.8ZM926 1545.2C915.6 1542.53 905.6 1540.8 896 1540C886.4 1539.2 876.133 1538.8 865.2 1538.8V1530C875.867 1530 886.133 1529.6 896 1528.8C905.867 1528 916.4 1527.07 927.6 1526C928.133 1526 928.667 1526.93 929.2 1528.8C930 1530.67 930.4 1532.93 930.4 1535.6C930.4 1537.47 929.867 1539.6 928.8 1542C928 1544.4 927.067 1545.47 926 1545.2ZM957.556 1680C956.756 1680 956.356 1679.2 956.356 1677.6C956.356 1676 956.756 1675.2 957.556 1675.2C967.956 1675.2 974.756 1673.47 977.956 1670C981.156 1666.27 982.756 1658.8 982.756 1647.6V1440.8C982.756 1431.47 981.823 1424.67 979.956 1420.4C978.09 1415.87 974.756 1413.6 969.956 1413.6C965.956 1413.6 959.823 1415.47 951.556 1419.2C950.49 1419.73 949.556 1419.33 948.756 1418C948.223 1416.4 948.49 1415.33 949.556 1414.8L1000.36 1390C1000.89 1390 1001.16 1390 1001.16 1390C1001.16 1390 1001.29 1390 1001.56 1390C1002.36 1390 1003.16 1390.4 1003.96 1391.2C1004.76 1391.73 1005.16 1392.4 1005.16 1393.2V1647.6C1005.16 1658.8 1006.76 1666.27 1009.96 1670C1013.16 1673.47 1019.96 1675.2 1030.36 1675.2C1031.16 1675.2 1031.56 1676 1031.56 1677.6C1031.56 1679.2 1031.16 1680 1030.36 1680C1025.56 1680 1020.09 1679.87 1013.96 1679.6C1007.82 1679.33 1001.16 1679.2 993.956 1679.2C987.023 1679.2 980.356 1679.33 973.956 1679.6C967.556 1679.87 962.09 1680 957.556 1680ZM1065.16 1680C1064.36 1680 1063.96 1679.2 1063.96 1677.6C1063.96 1676 1064.36 1675.2 1065.16 1675.2C1075.56 1675.2 1082.36 1673.47 1085.56 1670C1088.76 1666.27 1090.36 1658.8 1090.36 1647.6V1584C1090.36 1552.8 1078.09 1537.2 1053.56 1537.2C1043.69 1537.2 1033.69 1540.4 1023.56 1546.8C1013.42 1552.93 1004.76 1561.33 997.556 1572L995.956 1567.2C1007.69 1551.2 1019.29 1539.6 1030.76 1532.4C1042.49 1525.2 1054.49 1521.6 1066.76 1521.6C1081.42 1521.6 1092.76 1525.73 1100.76 1534C1108.76 1542 1112.76 1554 1112.76 1570V1647.6C1112.76 1658.8 1114.36 1666.27 1117.56 1670C1120.76 1673.47 1127.56 1675.2 1137.96 1675.2C1138.76 1675.2 1139.16 1676 1139.16 1677.6C1139.16 1679.2 1138.76 1680 1137.96 1680C1133.16 1680 1127.69 1679.87 1121.56 1679.6C1115.42 1679.33 1108.76 1679.2 1101.56 1679.2C1094.62 1679.2 1087.96 1679.33 1081.56 1679.6C1075.16 1679.87 1069.69 1680 1065.16 1680ZM1236.37 1684.8C1219.83 1684.8 1205.97 1681.2 1194.77 1674C1183.57 1666.53 1175.17 1656.93 1169.57 1645.2C1163.97 1633.47 1161.17 1621.07 1161.17 1608C1161.17 1591.73 1164.9 1577.2 1172.37 1564.4C1180.1 1551.33 1190.37 1541.07 1203.17 1533.6C1216.23 1525.87 1230.9 1522 1247.17 1522C1261.83 1522 1273.03 1525.6 1280.77 1532.8C1288.77 1539.73 1292.77 1549.33 1292.77 1561.6C1292.77 1564.53 1292.5 1566.8 1291.97 1568.4C1291.43 1570 1290.1 1570.8 1287.97 1570.8H1264.77C1265.83 1557.73 1263.43 1547.73 1257.57 1540.8C1251.97 1533.6 1243.97 1530 1233.57 1530C1218.63 1530 1207.17 1535.6 1199.17 1546.8C1191.43 1558 1187.57 1573.2 1187.57 1592.4C1187.57 1607.6 1189.97 1621.07 1194.77 1632.8C1199.83 1644.53 1207.03 1653.87 1216.37 1660.8C1225.97 1667.47 1237.3 1670.8 1250.37 1670.8C1257.3 1670.8 1264.37 1669.73 1271.57 1667.6C1278.77 1665.47 1285.57 1662.13 1291.97 1657.6C1292.5 1657.07 1293.17 1657.47 1293.97 1658.8C1295.03 1659.87 1295.3 1660.8 1294.77 1661.6C1285.17 1669.87 1275.57 1675.87 1265.97 1679.6C1256.37 1683.07 1246.5 1684.8 1236.37 1684.8ZM1180.37 1571.6L1179.97 1566.4L1271.17 1564.4V1570.8L1180.37 1571.6Z" fill="#123456"/>
<path d="M1125.8 1700.2C1148.2 1700.2 1172.2 1702.07 1197.8 1705.8C1223.93 1709.53 1244.47 1714.87 1259.4 1721.8C1264.2 1723.4 1267.4 1725.53 1269 1728.2C1270.6 1730.33 1271.67 1734.33 1272.2 1740.2L1281.8 1851.4C1281.8 1853 1280.47 1854.07 1277.8 1854.6C1275.67 1855.13 1274.07 1854.33 1273 1852.2C1255.4 1811.13 1231.4 1778.87 1201 1755.4C1171.13 1731.93 1135.67 1720.2 1094.6 1720.2C1058.87 1720.2 1028.47 1729.27 1003.4 1747.4C978.867 1765.53 960.2 1790.87 947.4 1823.4C935.133 1855.4 929 1892.73 929 1935.4C929 1972.2 933.533 2006.87 942.6 2039.4C951.667 2071.4 964.467 2099.67 981 2124.2C997.533 2148.2 1017.27 2167.13 1040.2 2181C1063.13 2194.87 1088.47 2201.8 1116.2 2201.8C1150.33 2201.8 1180.73 2190.6 1207.4 2168.2C1234.6 2145.8 1258.87 2111.13 1280.2 2064.2C1281.27 2062.07 1283.13 2061.27 1285.8 2061.8C1288.47 2062.33 1289.8 2063.4 1289.8 2065L1277.8 2173.8C1276.73 2180.2 1275.4 2184.47 1273.8 2186.6C1272.73 2188.2 1269.8 2190.07 1265 2192.2C1240.47 2201.27 1215.67 2207.93 1190.6 2212.2C1166.07 2216.47 1142.07 2218.6 1118.6 2218.6C1066.87 2218.6 1022.6 2210.87 985.8 2195.4C949 2179.4 918.867 2158.6 895.4 2133C872.467 2106.87 855.4 2078.6 844.2 2048.2C833.533 2017.27 828.2 1986.87 828.2 1957C828.2 1917.53 836.2 1882.07 852.2 1850.6C868.733 1819.13 890.867 1792.2 918.6 1769.8C946.867 1747.4 978.6 1730.33 1013.8 1718.6C1049.53 1706.33 1086.87 1700.2 1125.8 1700.2ZM1513.76 2219.4C1480.16 2219.4 1451.09 2211.67 1426.56 2196.2C1402.02 2180.73 1383.09 2160.2 1369.76 2134.6C1356.42 2108.47 1349.76 2080.47 1349.76 2050.6C1349.76 2022.87 1355.09 1998.87 1365.76 1978.6C1376.42 1958.33 1390.56 1941.8 1408.16 1929C1425.76 1915.67 1444.96 1905.8 1465.76 1899.4C1486.56 1893 1507.09 1889.8 1527.36 1889.8C1561.49 1889.8 1590.56 1897.8 1614.56 1913.8C1639.09 1929.8 1657.76 1950.33 1670.56 1975.4C1683.36 2000.47 1689.76 2027.13 1689.76 2055.4C1689.76 2087.93 1681.49 2116.73 1664.96 2141.8C1648.96 2166.33 1627.62 2185.53 1600.96 2199.4C1574.29 2212.73 1545.22 2219.4 1513.76 2219.4ZM1537.76 2202.6C1559.09 2202.6 1575.09 2192.2 1585.76 2171.4C1596.42 2150.6 1601.76 2121.27 1601.76 2083.4C1601.76 2044.47 1596.69 2011.93 1586.56 1985.8C1576.96 1959.67 1564.42 1939.93 1548.96 1926.6C1533.49 1913.27 1517.22 1906.6 1500.16 1906.6C1479.36 1906.6 1463.36 1915.93 1452.16 1934.6C1441.49 1953.27 1436.16 1982.07 1436.16 2021C1436.16 2057.27 1440.69 2089.27 1449.76 2117C1458.82 2144.2 1471.09 2165.27 1486.56 2180.2C1502.02 2195.13 1519.09 2202.6 1537.76 2202.6ZM1961.96 2209C1960.36 2209 1959.56 2207.4 1959.56 2204.2C1959.56 2201 1960.36 2199.4 1961.96 2199.4C1978.5 2199.4 1989.7 2195.67 1995.56 2188.2C2001.43 2180.2 2004.36 2165.53 2004.36 2144.2V2029C2004.36 2000.2 1999.03 1978.87 1988.36 1965C1978.23 1951.13 1961.96 1944.2 1939.56 1944.2C1923.56 1944.2 1907.03 1948.2 1889.96 1956.2C1873.43 1964.2 1860.1 1975.13 1849.96 1989L1845.96 1979.4C1864.63 1952.73 1885.7 1931.4 1909.16 1915.4C1932.63 1898.87 1958.23 1890.6 1985.96 1890.6C2015.83 1890.6 2038.76 1899.93 2054.76 1918.6C2071.3 1937.27 2079.56 1961.27 2079.56 1990.6V2144.2C2079.56 2165.53 2082.5 2180.2 2088.36 2188.2C2094.76 2195.67 2106.23 2199.4 2122.76 2199.4C2124.36 2199.4 2125.16 2201 2125.16 2204.2C2125.16 2207.4 2124.36 2209 2122.76 2209C2112.1 2209 2099.83 2208.73 2085.96 2208.2C2072.1 2207.67 2057.43 2207.4 2041.96 2207.4C2027.03 2207.4 2012.63 2207.67 1998.76 2208.2C1984.9 2208.73 1972.63 2209 1961.96 2209ZM1746.76 2209C1745.16 2209 1744.36 2207.4 1744.36 2204.2C1744.36 2201 1745.16 2199.4 1746.76 2199.4C1763.3 2199.4 1774.5 2195.67 1780.36 2188.2C1786.23 2180.2 1789.16 2165.53 1789.16 2144.2V1993.8C1789.16 1977.27 1787.3 1965.27 1783.56 1957.8C1779.83 1949.8 1773.43 1945.8 1764.36 1945.8C1759.56 1945.8 1753.96 1946.87 1747.56 1949C1741.16 1950.6 1733.96 1953.27 1725.96 1957C1723.83 1958.07 1722.23 1957 1721.16 1953.8C1720.1 1950.6 1720.1 1948.73 1721.16 1948.2L1832.36 1893.8C1835.56 1892.73 1837.43 1892.2 1837.96 1892.2C1843.83 1892.2 1849.7 1898.6 1855.56 1911.4C1861.43 1924.2 1864.36 1942.6 1864.36 1966.6V2144.2C1864.36 2165.53 1867.3 2180.2 1873.16 2188.2C1879.56 2195.67 1891.03 2199.4 1907.56 2199.4C1909.16 2199.4 1909.96 2201 1909.96 2204.2C1909.96 2207.4 1909.16 2209 1907.56 2209C1896.9 2209 1884.63 2208.73 1870.76 2208.2C1856.9 2207.67 1842.23 2207.4 1826.76 2207.4C1811.83 2207.4 1797.43 2207.67 1783.56 2208.2C1769.7 2208.73 1757.43 2209 1746.76 2209ZM2158.26 2209C2156.12 2209 2155.06 2207.4 2155.06 2204.2C2155.06 2201 2156.12 2199.4 2158.26 2199.4C2178.52 2199.4 2191.59 2195.93 2197.46 2189C2203.32 2182.07 2206.26 2167.13 2206.26 2144.2V1964.2C2206.26 1952.47 2204.66 1943.93 2201.46 1938.6C2198.26 1932.73 2192.92 1929 2185.46 1927.4C2177.99 1925.27 2167.86 1924.2 2155.06 1924.2C2153.46 1924.2 2152.66 1921.8 2152.66 1917C2152.66 1912.2 2153.46 1909.8 2155.06 1909.8C2173.72 1909.8 2186.52 1907.4 2193.46 1902.6C2200.39 1897.27 2204.12 1887.93 2204.66 1874.6C2207.32 1815.4 2216.66 1767.93 2232.66 1732.2C2248.66 1695.93 2271.32 1669.53 2300.66 1653C2329.99 1636.47 2365.46 1628.2 2407.06 1628.2C2443.86 1628.2 2472.39 1633.8 2492.66 1645C2513.46 1656.2 2523.86 1671.13 2523.86 1689.8C2523.86 1699.4 2520.66 1707.67 2514.26 1714.6C2507.86 1721 2497.99 1724.2 2484.66 1724.2C2470.79 1724.2 2460.39 1720.2 2453.46 1712.2C2446.52 1704.2 2440.39 1694.87 2435.06 1684.2C2429.72 1673.53 2423.06 1664.2 2415.06 1656.2C2407.59 1648.2 2396.39 1644.2 2381.46 1644.2C2364.39 1644.2 2348.12 1651.4 2332.66 1665.8C2317.19 1680.2 2304.66 1703.13 2295.06 1734.6C2285.99 1766.07 2281.46 1807.13 2281.46 1857.8V2144.2C2281.46 2159.67 2283.06 2171.4 2286.26 2179.4C2289.46 2187.4 2296.12 2192.73 2306.26 2195.4C2316.39 2198.07 2331.86 2199.4 2352.66 2199.4C2354.79 2199.4 2355.86 2201 2355.86 2204.2C2355.86 2207.4 2354.79 2209 2352.66 2209C2333.99 2209 2315.59 2208.73 2297.46 2208.2C2279.86 2207.67 2261.72 2207.4 2243.06 2207.4C2227.59 2207.4 2212.39 2207.67 2197.46 2208.2C2183.06 2208.73 2169.99 2209 2158.26 2209ZM2367.06 1941C2346.26 1936.2 2326.26 1933 2307.06 1931.4C2288.39 1929.27 2268.39 1928.2 2247.06 1928.2V1907.4C2267.32 1907.4 2287.32 1906.6 2307.06 1905C2326.79 1903.4 2347.59 1901.53 2369.46 1899.4C2371.06 1899.4 2372.39 1901.53 2373.46 1905.8C2374.52 1909.53 2375.06 1913.8 2375.06 1918.6C2375.06 1923.93 2373.99 1929.27 2371.86 1934.6C2370.26 1939.4 2368.66 1941.53 2367.06 1941ZM2412.66 2209C2411.59 2209 2411.06 2207.4 2411.06 2204.2C2411.06 2201 2411.59 2199.4 2412.66 2199.4C2429.19 2199.4 2440.39 2195.67 2446.26 2188.2C2452.66 2180.2 2455.86 2165.53 2455.86 2144.2V2001C2455.86 1975.4 2452.12 1959.67 2444.66 1953.8C2437.19 1947.4 2423.06 1949 2402.26 1958.6C2400.12 1959.13 2398.26 1957.8 2396.66 1954.6C2395.59 1951.4 2395.59 1949.53 2396.66 1949L2517.46 1893C2520.12 1891.4 2523.32 1892.2 2527.06 1895.4C2530.79 1898.07 2532.66 1900.73 2532.66 1903.4C2532.66 1909.8 2532.12 1920.47 2531.06 1935.4C2530.52 1950.33 2530.26 1971.67 2530.26 1999.4V2144.2C2530.26 2165.53 2533.19 2180.2 2539.06 2188.2C2545.46 2195.67 2556.92 2199.4 2573.46 2199.4C2575.59 2199.4 2576.66 2201 2576.66 2204.2C2576.66 2207.4 2575.59 2209 2573.46 2209C2562.79 2209 2550.52 2208.73 2536.66 2208.2C2523.32 2207.67 2508.92 2207.4 2493.46 2207.4C2477.99 2207.4 2463.32 2207.67 2449.46 2208.2C2435.59 2208.73 2423.32 2209 2412.66 2209ZM2744.11 2219.4C2721.17 2219.4 2700.11 2213.27 2680.91 2201C2662.24 2188.73 2647.04 2171.13 2635.31 2148.2C2624.11 2124.73 2618.51 2096.47 2618.51 2063.4C2618.51 2030.87 2624.37 2003.67 2636.11 1981.8C2647.84 1959.4 2662.77 1941.53 2680.91 1928.2C2699.57 1914.87 2719.57 1905.27 2740.91 1899.4C2762.24 1893 2782.51 1889.8 2801.71 1889.8C2820.91 1889.8 2838.77 1892.2 2855.31 1897C2871.84 1901.8 2886.77 1907.67 2900.11 1914.6L2881.71 1979.4C2870.51 1955.4 2857.71 1938.07 2843.31 1927.4C2828.91 1916.2 2811.04 1910.6 2789.71 1910.6C2762.51 1910.6 2740.91 1920.2 2724.91 1939.4C2708.91 1958.07 2700.91 1990.87 2700.91 2037.8C2700.91 2068.2 2704.64 2094.07 2712.11 2115.4C2719.57 2136.73 2729.97 2153 2743.31 2164.2C2756.64 2175.4 2771.57 2181 2788.11 2181C2809.44 2181 2828.11 2175.13 2844.11 2163.4C2860.11 2151.67 2875.57 2137.53 2890.51 2121L2898.51 2128.2C2887.31 2141 2873.97 2154.6 2858.51 2169C2843.57 2182.87 2826.51 2194.87 2807.31 2205C2788.64 2214.6 2767.57 2219.4 2744.11 2219.4ZM2939.31 1639.4V2116.2C2939.31 2134.33 2940.91 2147.13 2944.11 2154.6C2947.84 2162.07 2953.71 2165.8 2961.71 2165.8C2965.44 2165.8 2969.97 2165 2975.31 2163.4C2981.17 2161.8 2987.57 2159.67 2994.51 2157C2996.11 2155.93 2997.71 2157 2999.31 2160.2C3000.91 2162.87 3001.17 2164.73 3000.11 2165.8L2889.71 2219.4C2888.11 2219.93 2886.77 2220.2 2885.71 2220.2C2880.37 2220.2 2875.31 2213.53 2870.51 2200.2C2866.24 2186.87 2864.11 2167.93 2864.11 2143.4V1737.8C2864.11 1719.67 2862.51 1706.6 2859.31 1698.6C2856.11 1690.07 2849.97 1685.8 2840.91 1685.8C2837.17 1685.8 2832.64 1686.6 2827.31 1688.2C2822.51 1689.8 2817.17 1691.93 2811.31 1694.6C2809.17 1695.13 2807.31 1693.8 2805.71 1690.6C2804.11 1687.4 2803.84 1685.53 2804.91 1685L2922.51 1629.8C2923.57 1629.27 2924.64 1629 2925.71 1629C2928.37 1629 2931.31 1630.33 2934.51 1633C2937.71 1635.13 2939.31 1637.27 2939.31 1639.4ZM3188.72 2218.6C3154.05 2218.6 3124.45 2211.4 3099.92 2197C3075.92 2182.6 3057.52 2163.67 3044.72 2140.2C3032.45 2116.2 3026.32 2090.87 3026.32 2064.2C3026.32 2032.73 3034.32 2004.2 3050.32 1978.6C3066.32 1952.47 3087.92 1931.67 3115.12 1916.2C3142.85 1900.73 3174.05 1893 3208.72 1893C3241.79 1893 3267.12 1900.2 3284.72 1914.6C3302.32 1928.47 3311.12 1947.67 3311.12 1972.2C3311.12 1978.07 3310.59 1983.4 3309.52 1988.2C3308.45 1993 3306.05 1995.4 3302.32 1995.4H3225.52C3226.59 1970.33 3223.65 1949.8 3216.72 1933.8C3209.79 1917.27 3197.25 1909 3179.12 1909C3157.79 1909 3140.45 1920.2 3127.12 1942.6C3113.79 1964.47 3107.12 1993.8 3107.12 2030.6C3107.12 2060.47 3111.92 2086.6 3121.52 2109C3131.12 2131.4 3144.99 2148.73 3163.12 2161C3181.25 2173.27 3203.12 2179.4 3228.72 2179.4C3241.52 2179.4 3255.12 2177.53 3269.52 2173.8C3284.45 2170.07 3297.79 2164.47 3309.52 2157C3310.59 2155.93 3311.92 2156.47 3313.52 2158.6C3315.65 2160.73 3316.19 2162.6 3315.12 2164.2C3295.39 2183.93 3275.12 2198.07 3254.32 2206.6C3234.05 2214.6 3212.19 2218.6 3188.72 2218.6ZM3079.12 1997L3078.32 1981.8L3253.52 1977.8V1995.4L3079.12 1997ZM3581.49 2209C3579.89 2209 3579.09 2207.4 3579.09 2204.2C3579.09 2201 3579.89 2199.4 3581.49 2199.4C3598.03 2199.4 3609.23 2195.67 3615.09 2188.2C3620.96 2180.2 3623.89 2165.53 3623.89 2144.2V2029C3623.89 2000.2 3618.56 1978.87 3607.89 1965C3597.76 1951.13 3581.49 1944.2 3559.09 1944.2C3543.09 1944.2 3526.56 1948.2 3509.49 1956.2C3492.96 1964.2 3479.63 1975.13 3469.49 1989L3465.49 1979.4C3484.16 1952.73 3505.23 1931.4 3528.69 1915.4C3552.16 1898.87 3577.76 1890.6 3605.49 1890.6C3635.36 1890.6 3658.29 1899.93 3674.29 1918.6C3690.83 1937.27 3699.09 1961.27 3699.09 1990.6V2144.2C3699.09 2165.53 3702.03 2180.2 3707.89 2188.2C3714.29 2195.67 3725.76 2199.4 3742.29 2199.4C3743.89 2199.4 3744.69 2201 3744.69 2204.2C3744.69 2207.4 3743.89 2209 3742.29 2209C3731.63 2209 3719.36 2208.73 3705.49 2208.2C3691.63 2207.67 3676.96 2207.4 3661.49 2207.4C3646.56 2207.4 3632.16 2207.67 3618.29 2208.2C3604.43 2208.73 3592.16 2209 3581.49 2209ZM3366.29 2209C3364.69 2209 3363.89 2207.4 3363.89 2204.2C3363.89 2201 3364.69 2199.4 3366.29 2199.4C3382.83 2199.4 3394.03 2195.67 3399.89 2188.2C3405.76 2180.2 3408.69 2165.53 3408.69 2144.2V1993.8C3408.69 1977.27 3406.83 1965.27 3403.09 1957.8C3399.36 1949.8 3392.96 1945.8 3383.89 1945.8C3379.09 1945.8 3373.49 1946.87 3367.09 1949C3360.69 1950.6 3353.49 1953.27 3345.49 1957C3343.36 1958.07 3341.76 1957 3340.69 1953.8C3339.63 1950.6 3339.63 1948.73 3340.69 1948.2L3451.89 1893.8C3455.09 1892.73 3456.96 1892.2 3457.49 1892.2C3463.36 1892.2 3469.23 1898.6 3475.09 1911.4C3480.96 1924.2 3483.89 1942.6 3483.89 1966.6V2144.2C3483.89 2165.53 3486.83 2180.2 3492.69 2188.2C3499.09 2195.67 3510.56 2199.4 3527.09 2199.4C3528.69 2199.4 3529.49 2201 3529.49 2204.2C3529.49 2207.4 3528.69 2209 3527.09 2209C3516.43 2209 3504.16 2208.73 3490.29 2208.2C3476.43 2207.67 3461.76 2207.4 3446.29 2207.4C3431.36 2207.4 3416.96 2207.67 3403.09 2208.2C3389.23 2208.73 3376.96 2209 3366.29 2209ZM3903.39 2218.6C3890.59 2218.6 3877.52 2216.47 3864.19 2212.2C3851.39 2207.93 3840.45 2200.47 3831.39 2189.8C3822.85 2179.13 3818.59 2164.2 3818.59 2145V1967.4C3818.59 1956.2 3817.25 1947.4 3814.59 1941C3811.92 1934.6 3807.65 1930.07 3801.79 1927.4C3795.92 1924.73 3787.92 1923.4 3777.79 1923.4C3775.65 1923.4 3774.59 1921 3774.59 1916.2C3774.59 1911.4 3775.65 1909 3777.79 1909C3804.99 1907.93 3827.12 1902.07 3844.19 1891.4C3861.25 1880.2 3874.05 1863.93 3882.59 1842.6C3883.65 1840.47 3885.79 1839.4 3888.99 1839.4C3892.72 1839.4 3894.59 1840.47 3894.59 1842.6V2118.6C3894.59 2139.93 3899.92 2155.13 3910.59 2164.2C3921.79 2173.27 3935.39 2177.8 3951.39 2177.8C3963.65 2177.8 3975.12 2175.4 3985.79 2170.6C3996.99 2165.27 4006.32 2159.67 4013.79 2153.8C4015.39 2152.2 4017.25 2152.73 4019.39 2155.4C4022.05 2157.53 4022.32 2159.4 4020.19 2161C4000.45 2180.73 3981.25 2195.4 3962.59 2205C3944.45 2214.07 3924.72 2218.6 3903.39 2218.6ZM3995.39 1941C3973.52 1936.2 3952.19 1933 3931.39 1931.4C3911.12 1929.27 3889.52 1928.2 3866.59 1928.2V1907.4C3888.45 1907.4 3909.79 1906.6 3930.59 1905C3951.92 1903.4 3974.59 1901.53 3998.59 1899.4C3999.65 1899.4 4000.72 1901.53 4001.79 1905.8C4003.39 1909.53 4004.19 1913.8 4004.19 1918.6C4004.19 1923.93 4003.12 1929.27 4000.99 1934.6C3999.39 1939.4 3997.52 1941.53 3995.39 1941Z" fill="#123456"/>
<path d="M4129 2218.8C4114.07 2218.8 4102.07 2214.53 4093 2206C4084.47 2196.93 4080.2 2184.93 4080.2 2170C4080.2 2156.13 4084.47 2144.93 4093 2136.4C4102.07 2127.87 4114.07 2123.6 4129 2123.6C4144.47 2123.6 4156.2 2127.87 4164.2 2136.4C4172.2 2144.93 4176.2 2156.13 4176.2 2170C4176.2 2184.93 4172.2 2196.93 4164.2 2206C4156.2 2214.53 4144.47 2218.8 4129 2218.8Z" fill="#EB0032"/>
</svg>
