<svg width="4000" height="2950" viewBox="0 0 4000 2950" fill="none" xmlns="http://www.w3.org/2000/svg">
<rect width="4000" height="2950" fill="white"/>
<path d="M398.2 1204.8C391.8 1204.8 385.667 1203.73 379.8 1201.6C373.933 1199.73 369.133 1196.4 365.4 1191.6C361.667 1186.8 359.8 1180.27 359.8 1172V1078C359.8 1071.6 359.4 1066.8 358.6 1063.6C357.8 1060.4 355.933 1058.4 353 1057.6C350.067 1056.53 345.533 1056 339.4 1056C338.333 1056 337.8 1055.2 337.8 1053.6C337.8 1051.73 338.333 1050.8 339.4 1050.8C350.067 1050.53 358.733 1047.6 365.4 1042C372.333 1036.4 376.2 1029.2 377 1020.4C377 1019.6 377.933 1019.2 379.8 1019.2C381.933 1019.2 383 1019.6 383 1020.4V1158.4C383 1169.33 385.667 1177.47 391 1182.8C396.6 1188.13 404.467 1190.8 414.6 1190.8C421.533 1190.8 427.667 1189.73 433 1187.6C438.6 1185.2 443.133 1182.53 446.6 1179.6C447.667 1179.07 448.6 1179.47 449.4 1180.8C450.467 1181.87 450.467 1182.8 449.4 1183.6C439.533 1191.07 430.6 1196.53 422.6 1200C414.867 1203.2 406.733 1204.8 398.2 1204.8ZM437 1065.2C426.6 1062.53 416.6 1060.8 407 1060C397.4 1059.2 387.133 1058.8 376.2 1058.8V1050C386.867 1050 397.133 1049.6 407 1048.8C416.867 1048 427.4 1047.07 438.6 1046C439.133 1046 439.667 1046.93 440.2 1048.8C441 1050.67 441.4 1052.93 441.4 1055.6C441.4 1057.47 440.867 1059.6 439.8 1062C439 1064.4 438.067 1065.47 437 1065.2ZM468.556 1200C467.756 1200 467.356 1199.2 467.356 1197.6C467.356 1196 467.756 1195.2 468.556 1195.2C478.956 1195.2 485.756 1193.47 488.956 1190C492.156 1186.27 493.756 1178.8 493.756 1167.6V960.8C493.756 951.467 492.823 944.667 490.956 940.4C489.09 935.867 485.756 933.6 480.956 933.6C476.956 933.6 470.823 935.467 462.556 939.2C461.49 939.733 460.556 939.333 459.756 938C459.223 936.4 459.49 935.333 460.556 934.8L511.356 910C511.89 910 512.156 910 512.156 910C512.156 910 512.29 910 512.556 910C513.356 910 514.156 910.4 514.956 911.2C515.756 911.733 516.156 912.4 516.156 913.2V1167.6C516.156 1178.8 517.756 1186.27 520.956 1190C524.156 1193.47 530.956 1195.2 541.356 1195.2C542.156 1195.2 542.556 1196 542.556 1197.6C542.556 1199.2 542.156 1200 541.356 1200C536.556 1200 531.09 1199.87 524.956 1199.6C518.823 1199.33 512.156 1199.2 504.956 1199.2C498.023 1199.2 491.356 1199.33 484.956 1199.6C478.556 1199.87 473.09 1200 468.556 1200ZM576.156 1200C575.356 1200 574.956 1199.2 574.956 1197.6C574.956 1196 575.356 1195.2 576.156 1195.2C586.556 1195.2 593.356 1193.47 596.556 1190C599.756 1186.27 601.356 1178.8 601.356 1167.6V1104C601.356 1072.8 589.09 1057.2 564.556 1057.2C554.69 1057.2 544.69 1060.4 534.556 1066.8C524.423 1072.93 515.756 1081.33 508.556 1092L506.956 1087.2C518.69 1071.2 530.29 1059.6 541.756 1052.4C553.49 1045.2 565.49 1041.6 577.756 1041.6C592.423 1041.6 603.756 1045.73 611.756 1054C619.756 1062 623.756 1074 623.756 1090V1167.6C623.756 1178.8 625.356 1186.27 628.556 1190C631.756 1193.47 638.556 1195.2 648.956 1195.2C649.756 1195.2 650.156 1196 650.156 1197.6C650.156 1199.2 649.756 1200 648.956 1200C644.156 1200 638.69 1199.87 632.556 1199.6C626.423 1199.33 619.756 1199.2 612.556 1199.2C605.623 1199.2 598.956 1199.33 592.556 1199.6C586.156 1199.87 580.69 1200 576.156 1200ZM747.366 1204.8C730.832 1204.8 716.966 1201.2 705.766 1194C694.566 1186.53 686.166 1176.93 680.566 1165.2C674.966 1153.47 672.166 1141.07 672.166 1128C672.166 1111.73 675.899 1097.2 683.366 1084.4C691.099 1071.33 701.366 1061.07 714.166 1053.6C727.232 1045.87 741.899 1042 758.166 1042C772.832 1042 784.032 1045.6 791.766 1052.8C799.766 1059.73 803.766 1069.33 803.766 1081.6C803.766 1084.53 803.499 1086.8 802.966 1088.4C802.432 1090 801.099 1090.8 798.966 1090.8H775.766C776.832 1077.73 774.432 1067.73 768.566 1060.8C762.966 1053.6 754.966 1050 744.566 1050C729.632 1050 718.166 1055.6 710.166 1066.8C702.432 1078 698.566 1093.2 698.566 1112.4C698.566 1127.6 700.966 1141.07 705.766 1152.8C710.832 1164.53 718.032 1173.87 727.366 1180.8C736.966 1187.47 748.299 1190.8 761.366 1190.8C768.299 1190.8 775.366 1189.73 782.566 1187.6C789.766 1185.47 796.566 1182.13 802.966 1177.6C803.499 1177.07 804.166 1177.47 804.966 1178.8C806.032 1179.87 806.299 1180.8 805.766 1181.6C796.166 1189.87 786.566 1195.87 776.966 1199.6C767.366 1203.07 757.499 1204.8 747.366 1204.8ZM691.366 1091.6L690.966 1086.4L782.166 1084.4V1090.8L691.366 1091.6Z" fill="#123456"/>
<path d="M636.8 1220.2C659.2 1220.2 683.2 1222.07 708.8 1225.8C734.933 1229.53 755.467 1234.87 770.4 1241.8C775.2 1243.4 778.4 1245.53 780 1248.2C781.6 1250.33 782.667 1254.33 783.2 1260.2L792.8 1371.4C792.8 1373 791.467 1374.07 788.8 1374.6C786.667 1375.13 785.067 1374.33 784 1372.2C766.4 1331.13 742.4 1298.87 712 1275.4C682.133 1251.93 646.667 1240.2 605.6 1240.2C569.867 1240.2 539.467 1249.27 514.4 1267.4C489.867 1285.53 471.2 1310.87 458.4 1343.4C446.133 1375.4 440 1412.73 440 1455.4C440 1492.2 444.533 1526.87 453.6 1559.4C462.667 1591.4 475.467 1619.67 492 1644.2C508.533 1668.2 528.267 1687.13 551.2 1701C574.133 1714.87 599.467 1721.8 627.2 1721.8C661.333 1721.8 691.733 1710.6 718.4 1688.2C745.6 1665.8 769.867 1631.13 791.2 1584.2C792.267 1582.07 794.133 1581.27 796.8 1581.8C799.467 1582.33 800.8 1583.4 800.8 1585L788.8 1693.8C787.733 1700.2 786.4 1704.47 784.8 1706.6C783.733 1708.2 780.8 1710.07 776 1712.2C751.467 1721.27 726.667 1727.93 701.6 1732.2C677.067 1736.47 653.067 1738.6 629.6 1738.6C577.867 1738.6 533.6 1730.87 496.8 1715.4C460 1699.4 429.867 1678.6 406.4 1653C383.467 1626.87 366.4 1598.6 355.2 1568.2C344.533 1537.27 339.2 1506.87 339.2 1477C339.2 1437.53 347.2 1402.07 363.2 1370.6C379.733 1339.13 401.867 1312.2 429.6 1289.8C457.867 1267.4 489.6 1250.33 524.8 1238.6C560.533 1226.33 597.867 1220.2 636.8 1220.2ZM1024.76 1739.4C991.156 1739.4 962.09 1731.67 937.556 1716.2C913.023 1700.73 894.09 1680.2 880.756 1654.6C867.423 1628.47 860.756 1600.47 860.756 1570.6C860.756 1542.87 866.09 1518.87 876.756 1498.6C887.423 1478.33 901.556 1461.8 919.156 1449C936.756 1435.67 955.956 1425.8 976.756 1419.4C997.556 1413 1018.09 1409.8 1038.36 1409.8C1072.49 1409.8 1101.56 1417.8 1125.56 1433.8C1150.09 1449.8 1168.76 1470.33 1181.56 1495.4C1194.36 1520.47 1200.76 1547.13 1200.76 1575.4C1200.76 1607.93 1192.49 1636.73 1175.96 1661.8C1159.96 1686.33 1138.62 1705.53 1111.96 1719.4C1085.29 1732.73 1056.22 1739.4 1024.76 1739.4ZM1048.76 1722.6C1070.09 1722.6 1086.09 1712.2 1096.76 1691.4C1107.42 1670.6 1112.76 1641.27 1112.76 1603.4C1112.76 1564.47 1107.69 1531.93 1097.56 1505.8C1087.96 1479.67 1075.42 1459.93 1059.96 1446.6C1044.49 1433.27 1028.22 1426.6 1011.16 1426.6C990.356 1426.6 974.356 1435.93 963.156 1454.6C952.49 1473.27 947.156 1502.07 947.156 1541C947.156 1577.27 951.69 1609.27 960.756 1637C969.823 1664.2 982.09 1685.27 997.556 1700.2C1013.02 1715.13 1030.09 1722.6 1048.76 1722.6ZM1472.96 1729C1471.36 1729 1470.56 1727.4 1470.56 1724.2C1470.56 1721 1471.36 1719.4 1472.96 1719.4C1489.5 1719.4 1500.7 1715.67 1506.56 1708.2C1512.43 1700.2 1515.36 1685.53 1515.36 1664.2V1549C1515.36 1520.2 1510.03 1498.87 1499.36 1485C1489.23 1471.13 1472.96 1464.2 1450.56 1464.2C1434.56 1464.2 1418.03 1468.2 1400.96 1476.2C1384.43 1484.2 1371.1 1495.13 1360.96 1509L1356.96 1499.4C1375.63 1472.73 1396.7 1451.4 1420.16 1435.4C1443.63 1418.87 1469.23 1410.6 1496.96 1410.6C1526.83 1410.6 1549.76 1419.93 1565.76 1438.6C1582.3 1457.27 1590.56 1481.27 1590.56 1510.6V1664.2C1590.56 1685.53 1593.5 1700.2 1599.36 1708.2C1605.76 1715.67 1617.23 1719.4 1633.76 1719.4C1635.36 1719.4 1636.16 1721 1636.16 1724.2C1636.16 1727.4 1635.36 1729 1633.76 1729C1623.1 1729 1610.83 1728.73 1596.96 1728.2C1583.1 1727.67 1568.43 1727.4 1552.96 1727.4C1538.03 1727.4 1523.63 1727.67 1509.76 1728.2C1495.9 1728.73 1483.63 1729 1472.96 1729ZM1257.76 1729C1256.16 1729 1255.36 1727.4 1255.36 1724.2C1255.36 1721 1256.16 1719.4 1257.76 1719.4C1274.3 1719.4 1285.5 1715.67 1291.36 1708.2C1297.23 1700.2 1300.16 1685.53 1300.16 1664.2V1513.8C1300.16 1497.27 1298.3 1485.27 1294.56 1477.8C1290.83 1469.8 1284.43 1465.8 1275.36 1465.8C1270.56 1465.8 1264.96 1466.87 1258.56 1469C1252.16 1470.6 1244.96 1473.27 1236.96 1477C1234.83 1478.07 1233.23 1477 1232.16 1473.8C1231.1 1470.6 1231.1 1468.73 1232.16 1468.2L1343.36 1413.8C1346.56 1412.73 1348.43 1412.2 1348.96 1412.2C1354.83 1412.2 1360.7 1418.6 1366.56 1431.4C1372.43 1444.2 1375.36 1462.6 1375.36 1486.6V1664.2C1375.36 1685.53 1378.3 1700.2 1384.16 1708.2C1390.56 1715.67 1402.03 1719.4 1418.56 1719.4C1420.16 1719.4 1420.96 1721 1420.96 1724.2C1420.96 1727.4 1420.16 1729 1418.56 1729C1407.9 1729 1395.63 1728.73 1381.76 1728.2C1367.9 1727.67 1353.23 1727.4 1337.76 1727.4C1322.83 1727.4 1308.43 1727.67 1294.56 1728.2C1280.7 1728.73 1268.43 1729 1257.76 1729ZM1669.26 1729C1667.12 1729 1666.06 1727.4 1666.06 1724.2C1666.06 1721 1667.12 1719.4 1669.26 1719.4C1689.52 1719.4 1702.59 1715.93 1708.46 1709C1714.32 1702.07 1717.26 1687.13 1717.26 1664.2V1484.2C1717.26 1472.47 1715.66 1463.93 1712.46 1458.6C1709.26 1452.73 1703.92 1449 1696.46 1447.4C1688.99 1445.27 1678.86 1444.2 1666.06 1444.2C1664.46 1444.2 1663.66 1441.8 1663.66 1437C1663.66 1432.2 1664.46 1429.8 1666.06 1429.8C1684.72 1429.8 1697.52 1427.4 1704.46 1422.6C1711.39 1417.27 1715.12 1407.93 1715.66 1394.6C1718.32 1335.4 1727.66 1287.93 1743.66 1252.2C1759.66 1215.93 1782.32 1189.53 1811.66 1173C1840.99 1156.47 1876.46 1148.2 1918.06 1148.2C1954.86 1148.2 1983.39 1153.8 2003.66 1165C2024.46 1176.2 2034.86 1191.13 2034.86 1209.8C2034.86 1219.4 2031.66 1227.67 2025.26 1234.6C2018.86 1241 2008.99 1244.2 1995.66 1244.2C1981.79 1244.2 1971.39 1240.2 1964.46 1232.2C1957.52 1224.2 1951.39 1214.87 1946.06 1204.2C1940.72 1193.53 1934.06 1184.2 1926.06 1176.2C1918.59 1168.2 1907.39 1164.2 1892.46 1164.2C1875.39 1164.2 1859.12 1171.4 1843.66 1185.8C1828.19 1200.2 1815.66 1223.13 1806.06 1254.6C1796.99 1286.07 1792.46 1327.13 1792.46 1377.8V1664.2C1792.46 1679.67 1794.06 1691.4 1797.26 1699.4C1800.46 1707.4 1807.12 1712.73 1817.26 1715.4C1827.39 1718.07 1842.86 1719.4 1863.66 1719.4C1865.79 1719.4 1866.86 1721 1866.86 1724.2C1866.86 1727.4 1865.79 1729 1863.66 1729C1844.99 1729 1826.59 1728.73 1808.46 1728.2C1790.86 1727.67 1772.72 1727.4 1754.06 1727.4C1738.59 1727.4 1723.39 1727.67 1708.46 1728.2C1694.06 1728.73 1680.99 1729 1669.26 1729ZM1878.06 1461C1857.26 1456.2 1837.26 1453 1818.06 1451.4C1799.39 1449.27 1779.39 1448.2 1758.06 1448.2V1427.4C1778.32 1427.4 1798.32 1426.6 1818.06 1425C1837.79 1423.4 1858.59 1421.53 1880.46 1419.4C1882.06 1419.4 1883.39 1421.53 1884.46 1425.8C1885.52 1429.53 1886.06 1433.8 1886.06 1438.6C1886.06 1443.93 1884.99 1449.27 1882.86 1454.6C1881.26 1459.4 1879.66 1461.53 1878.06 1461ZM1923.66 1729C1922.59 1729 1922.06 1727.4 1922.06 1724.2C1922.06 1721 1922.59 1719.4 1923.66 1719.4C1940.19 1719.4 1951.39 1715.67 1957.26 1708.2C1963.66 1700.2 1966.86 1685.53 1966.86 1664.2V1521C1966.86 1495.4 1963.12 1479.67 1955.66 1473.8C1948.19 1467.4 1934.06 1469 1913.26 1478.6C1911.12 1479.13 1909.26 1477.8 1907.66 1474.6C1906.59 1471.4 1906.59 1469.53 1907.66 1469L2028.46 1413C2031.12 1411.4 2034.32 1412.2 2038.06 1415.4C2041.79 1418.07 2043.66 1420.73 2043.66 1423.4C2043.66 1429.8 2043.12 1440.47 2042.06 1455.4C2041.52 1470.33 2041.26 1491.67 2041.26 1519.4V1664.2C2041.26 1685.53 2044.19 1700.2 2050.06 1708.2C2056.46 1715.67 2067.92 1719.4 2084.46 1719.4C2086.59 1719.4 2087.66 1721 2087.66 1724.2C2087.66 1727.4 2086.59 1729 2084.46 1729C2073.79 1729 2061.52 1728.73 2047.66 1728.2C2034.32 1727.67 2019.92 1727.4 2004.46 1727.4C1988.99 1727.4 1974.32 1727.67 1960.46 1728.2C1946.59 1728.73 1934.32 1729 1923.66 1729ZM2255.11 1739.4C2232.17 1739.4 2211.11 1733.27 2191.91 1721C2173.24 1708.73 2158.04 1691.13 2146.31 1668.2C2135.11 1644.73 2129.51 1616.47 2129.51 1583.4C2129.51 1550.87 2135.37 1523.67 2147.11 1501.8C2158.84 1479.4 2173.77 1461.53 2191.91 1448.2C2210.57 1434.87 2230.57 1425.27 2251.91 1419.4C2273.24 1413 2293.51 1409.8 2312.71 1409.8C2331.91 1409.8 2349.77 1412.2 2366.31 1417C2382.84 1421.8 2397.77 1427.67 2411.11 1434.6L2392.71 1499.4C2381.51 1475.4 2368.71 1458.07 2354.31 1447.4C2339.91 1436.2 2322.04 1430.6 2300.71 1430.6C2273.51 1430.6 2251.91 1440.2 2235.91 1459.4C2219.91 1478.07 2211.91 1510.87 2211.91 1557.8C2211.91 1588.2 2215.64 1614.07 2223.11 1635.4C2230.57 1656.73 2240.97 1673 2254.31 1684.2C2267.64 1695.4 2282.57 1701 2299.11 1701C2320.44 1701 2339.11 1695.13 2355.11 1683.4C2371.11 1671.67 2386.57 1657.53 2401.51 1641L2409.51 1648.2C2398.31 1661 2384.97 1674.6 2369.51 1689C2354.57 1702.87 2337.51 1714.87 2318.31 1725C2299.64 1734.6 2278.57 1739.4 2255.11 1739.4ZM2450.31 1159.4V1636.2C2450.31 1654.33 2451.91 1667.13 2455.11 1674.6C2458.84 1682.07 2464.71 1685.8 2472.71 1685.8C2476.44 1685.8 2480.97 1685 2486.31 1683.4C2492.17 1681.8 2498.57 1679.67 2505.51 1677C2507.11 1675.93 2508.71 1677 2510.31 1680.2C2511.91 1682.87 2512.17 1684.73 2511.11 1685.8L2400.71 1739.4C2399.11 1739.93 2397.77 1740.2 2396.71 1740.2C2391.37 1740.2 2386.31 1733.53 2381.51 1720.2C2377.24 1706.87 2375.11 1687.93 2375.11 1663.4V1257.8C2375.11 1239.67 2373.51 1226.6 2370.31 1218.6C2367.11 1210.07 2360.97 1205.8 2351.91 1205.8C2348.17 1205.8 2343.64 1206.6 2338.31 1208.2C2333.51 1209.8 2328.17 1211.93 2322.31 1214.6C2320.17 1215.13 2318.31 1213.8 2316.71 1210.6C2315.11 1207.4 2314.84 1205.53 2315.91 1205L2433.51 1149.8C2434.57 1149.27 2435.64 1149 2436.71 1149C2439.37 1149 2442.31 1150.33 2445.51 1153C2448.71 1155.13 2450.31 1157.27 2450.31 1159.4ZM2699.72 1738.6C2665.05 1738.6 2635.45 1731.4 2610.92 1717C2586.92 1702.6 2568.52 1683.67 2555.72 1660.2C2543.45 1636.2 2537.32 1610.87 2537.32 1584.2C2537.32 1552.73 2545.32 1524.2 2561.32 1498.6C2577.32 1472.47 2598.92 1451.67 2626.12 1436.2C2653.85 1420.73 2685.05 1413 2719.72 1413C2752.79 1413 2778.12 1420.2 2795.72 1434.6C2813.32 1448.47 2822.12 1467.67 2822.12 1492.2C2822.12 1498.07 2821.59 1503.4 2820.52 1508.2C2819.45 1513 2817.05 1515.4 2813.32 1515.4H2736.52C2737.59 1490.33 2734.65 1469.8 2727.72 1453.8C2720.79 1437.27 2708.25 1429 2690.12 1429C2668.79 1429 2651.45 1440.2 2638.12 1462.6C2624.79 1484.47 2618.12 1513.8 2618.12 1550.6C2618.12 1580.47 2622.92 1606.6 2632.52 1629C2642.12 1651.4 2655.99 1668.73 2674.12 1681C2692.25 1693.27 2714.12 1699.4 2739.72 1699.4C2752.52 1699.4 2766.12 1697.53 2780.52 1693.8C2795.45 1690.07 2808.79 1684.47 2820.52 1677C2821.59 1675.93 2822.92 1676.47 2824.52 1678.6C2826.65 1680.73 2827.19 1682.6 2826.12 1684.2C2806.39 1703.93 2786.12 1718.07 2765.32 1726.6C2745.05 1734.6 2723.19 1738.6 2699.72 1738.6ZM2590.12 1517L2589.32 1501.8L2764.52 1497.8V1515.4L2590.12 1517ZM3092.49 1729C3090.89 1729 3090.09 1727.4 3090.09 1724.2C3090.09 1721 3090.89 1719.4 3092.49 1719.4C3109.03 1719.4 3120.23 1715.67 3126.09 1708.2C3131.96 1700.2 3134.89 1685.53 3134.89 1664.2V1549C3134.89 1520.2 3129.56 1498.87 3118.89 1485C3108.76 1471.13 3092.49 1464.2 3070.09 1464.2C3054.09 1464.2 3037.56 1468.2 3020.49 1476.2C3003.96 1484.2 2990.63 1495.13 2980.49 1509L2976.49 1499.4C2995.16 1472.73 3016.23 1451.4 3039.69 1435.4C3063.16 1418.87 3088.76 1410.6 3116.49 1410.6C3146.36 1410.6 3169.29 1419.93 3185.29 1438.6C3201.83 1457.27 3210.09 1481.27 3210.09 1510.6V1664.2C3210.09 1685.53 3213.03 1700.2 3218.89 1708.2C3225.29 1715.67 3236.76 1719.4 3253.29 1719.4C3254.89 1719.4 3255.69 1721 3255.69 1724.2C3255.69 1727.4 3254.89 1729 3253.29 1729C3242.63 1729 3230.36 1728.73 3216.49 1728.2C3202.63 1727.67 3187.96 1727.4 3172.49 1727.4C3157.56 1727.4 3143.16 1727.67 3129.29 1728.2C3115.43 1728.73 3103.16 1729 3092.49 1729ZM2877.29 1729C2875.69 1729 2874.89 1727.4 2874.89 1724.2C2874.89 1721 2875.69 1719.4 2877.29 1719.4C2893.83 1719.4 2905.03 1715.67 2910.89 1708.2C2916.76 1700.2 2919.69 1685.53 2919.69 1664.2V1513.8C2919.69 1497.27 2917.83 1485.27 2914.09 1477.8C2910.36 1469.8 2903.96 1465.8 2894.89 1465.8C2890.09 1465.8 2884.49 1466.87 2878.09 1469C2871.69 1470.6 2864.49 1473.27 2856.49 1477C2854.36 1478.07 2852.76 1477 2851.69 1473.8C2850.63 1470.6 2850.63 1468.73 2851.69 1468.2L2962.89 1413.8C2966.09 1412.73 2967.96 1412.2 2968.49 1412.2C2974.36 1412.2 2980.23 1418.6 2986.09 1431.4C2991.96 1444.2 2994.89 1462.6 2994.89 1486.6V1664.2C2994.89 1685.53 2997.83 1700.2 3003.69 1708.2C3010.09 1715.67 3021.56 1719.4 3038.09 1719.4C3039.69 1719.4 3040.49 1721 3040.49 1724.2C3040.49 1727.4 3039.69 1729 3038.09 1729C3027.43 1729 3015.16 1728.73 3001.29 1728.2C2987.43 1727.67 2972.76 1727.4 2957.29 1727.4C2942.36 1727.4 2927.96 1727.67 2914.09 1728.2C2900.23 1728.73 2887.96 1729 2877.29 1729ZM3414.39 1738.6C3401.59 1738.6 3388.52 1736.47 3375.19 1732.2C3362.39 1727.93 3351.45 1720.47 3342.39 1709.8C3333.85 1699.13 3329.59 1684.2 3329.59 1665V1487.4C3329.59 1476.2 3328.25 1467.4 3325.59 1461C3322.92 1454.6 3318.65 1450.07 3312.79 1447.4C3306.92 1444.73 3298.92 1443.4 3288.79 1443.4C3286.65 1443.4 3285.59 1441 3285.59 1436.2C3285.59 1431.4 3286.65 1429 3288.79 1429C3315.99 1427.93 3338.12 1422.07 3355.19 1411.4C3372.25 1400.2 3385.05 1383.93 3393.59 1362.6C3394.65 1360.47 3396.79 1359.4 3399.99 1359.4C3403.72 1359.4 3405.59 1360.47 3405.59 1362.6V1638.6C3405.59 1659.93 3410.92 1675.13 3421.59 1684.2C3432.79 1693.27 3446.39 1697.8 3462.39 1697.8C3474.65 1697.8 3486.12 1695.4 3496.79 1690.6C3507.99 1685.27 3517.32 1679.67 3524.79 1673.8C3526.39 1672.2 3528.25 1672.73 3530.39 1675.4C3533.05 1677.53 3533.32 1679.4 3531.19 1681C3511.45 1700.73 3492.25 1715.4 3473.59 1725C3455.45 1734.07 3435.72 1738.6 3414.39 1738.6ZM3506.39 1461C3484.52 1456.2 3463.19 1453 3442.39 1451.4C3422.12 1449.27 3400.52 1448.2 3377.59 1448.2V1427.4C3399.45 1427.4 3420.79 1426.6 3441.59 1425C3462.92 1423.4 3485.59 1421.53 3509.59 1419.4C3510.65 1419.4 3511.72 1421.53 3512.79 1425.8C3514.39 1429.53 3515.19 1433.8 3515.19 1438.6C3515.19 1443.93 3514.12 1449.27 3511.99 1454.6C3510.39 1459.4 3508.52 1461.53 3506.39 1461Z" fill="#123456"/>
<path d="M3640 1738.8C3625.07 1738.8 3613.07 1734.53 3604 1726C3595.47 1716.93 3591.2 1704.93 3591.2 1690C3591.2 1676.13 3595.47 1664.93 3604 1656.4C3613.07 1647.87 3625.07 1643.6 3640 1643.6C3655.47 1643.6 3667.2 1647.87 3675.2 1656.4C3683.2 1664.93 3687.2 1676.13 3687.2 1690C3687.2 1704.93 3683.2 1716.93 3675.2 1726C3667.2 1734.53 3655.47 1738.8 3640 1738.8Z" fill="#EB0032"/>
</svg>
