<svg width="4000" height="4000" viewBox="0 0 4000 4000" fill="none" xmlns="http://www.w3.org/2000/svg">
<circle cx="2000" cy="2000" r="2000" fill="white"/>
<path d="M426.2 1730.8C419.8 1730.8 413.667 1729.73 407.8 1727.6C401.933 1725.73 397.133 1722.4 393.4 1717.6C389.667 1712.8 387.8 1706.27 387.8 1698V1604C387.8 1597.6 387.4 1592.8 386.6 1589.6C385.8 1586.4 383.933 1584.4 381 1583.6C378.067 1582.53 373.533 1582 367.4 1582C366.333 1582 365.8 1581.2 365.8 1579.6C365.8 1577.73 366.333 1576.8 367.4 1576.8C378.067 1576.53 386.733 1573.6 393.4 1568C400.333 1562.4 404.2 1555.2 405 1546.4C405 1545.6 405.933 1545.2 407.8 1545.2C409.933 1545.2 411 1545.6 411 1546.4V1684.4C411 1695.33 413.667 1703.47 419 1708.8C424.6 1714.13 432.467 1716.8 442.6 1716.8C449.533 1716.8 455.667 1715.73 461 1713.6C466.6 1711.2 471.133 1708.53 474.6 1705.6C475.667 1705.07 476.6 1705.47 477.4 1706.8C478.467 1707.87 478.467 1708.8 477.4 1709.6C467.533 1717.07 458.6 1722.53 450.6 1726C442.867 1729.2 434.733 1730.8 426.2 1730.8ZM465 1591.2C454.6 1588.53 444.6 1586.8 435 1586C425.4 1585.2 415.133 1584.8 404.2 1584.8V1576C414.867 1576 425.133 1575.6 435 1574.8C444.867 1574 455.4 1573.07 466.6 1572C467.133 1572 467.667 1572.93 468.2 1574.8C469 1576.67 469.4 1578.93 469.4 1581.6C469.4 1583.47 468.867 1585.6 467.8 1588C467 1590.4 466.067 1591.47 465 1591.2ZM496.556 1726C495.756 1726 495.356 1725.2 495.356 1723.6C495.356 1722 495.756 1721.2 496.556 1721.2C506.956 1721.2 513.756 1719.47 516.956 1716C520.156 1712.27 521.756 1704.8 521.756 1693.6V1486.8C521.756 1477.47 520.823 1470.67 518.956 1466.4C517.09 1461.87 513.756 1459.6 508.956 1459.6C504.956 1459.6 498.823 1461.47 490.556 1465.2C489.49 1465.73 488.556 1465.33 487.756 1464C487.223 1462.4 487.49 1461.33 488.556 1460.8L539.356 1436C539.89 1436 540.156 1436 540.156 1436C540.156 1436 540.29 1436 540.556 1436C541.356 1436 542.156 1436.4 542.956 1437.2C543.756 1437.73 544.156 1438.4 544.156 1439.2V1693.6C544.156 1704.8 545.756 1712.27 548.956 1716C552.156 1719.47 558.956 1721.2 569.356 1721.2C570.156 1721.2 570.556 1722 570.556 1723.6C570.556 1725.2 570.156 1726 569.356 1726C564.556 1726 559.09 1725.87 552.956 1725.6C546.823 1725.33 540.156 1725.2 532.956 1725.2C526.023 1725.2 519.356 1725.33 512.956 1725.6C506.556 1725.87 501.09 1726 496.556 1726ZM604.156 1726C603.356 1726 602.956 1725.2 602.956 1723.6C602.956 1722 603.356 1721.2 604.156 1721.2C614.556 1721.2 621.356 1719.47 624.556 1716C627.756 1712.27 629.356 1704.8 629.356 1693.6V1630C629.356 1598.8 617.09 1583.2 592.556 1583.2C582.69 1583.2 572.69 1586.4 562.556 1592.8C552.423 1598.93 543.756 1607.33 536.556 1618L534.956 1613.2C546.69 1597.2 558.29 1585.6 569.756 1578.4C581.49 1571.2 593.49 1567.6 605.756 1567.6C620.423 1567.6 631.756 1571.73 639.756 1580C647.756 1588 651.756 1600 651.756 1616V1693.6C651.756 1704.8 653.356 1712.27 656.556 1716C659.756 1719.47 666.556 1721.2 676.956 1721.2C677.756 1721.2 678.156 1722 678.156 1723.6C678.156 1725.2 677.756 1726 676.956 1726C672.156 1726 666.69 1725.87 660.556 1725.6C654.423 1725.33 647.756 1725.2 640.556 1725.2C633.623 1725.2 626.956 1725.33 620.556 1725.6C614.156 1725.87 608.69 1726 604.156 1726ZM775.366 1730.8C758.832 1730.8 744.966 1727.2 733.766 1720C722.566 1712.53 714.166 1702.93 708.566 1691.2C702.966 1679.47 700.166 1667.07 700.166 1654C700.166 1637.73 703.899 1623.2 711.366 1610.4C719.099 1597.33 729.366 1587.07 742.166 1579.6C755.232 1571.87 769.899 1568 786.166 1568C800.832 1568 812.032 1571.6 819.766 1578.8C827.766 1585.73 831.766 1595.33 831.766 1607.6C831.766 1610.53 831.499 1612.8 830.966 1614.4C830.432 1616 829.099 1616.8 826.966 1616.8H803.766C804.832 1603.73 802.432 1593.73 796.566 1586.8C790.966 1579.6 782.966 1576 772.566 1576C757.632 1576 746.166 1581.6 738.166 1592.8C730.432 1604 726.566 1619.2 726.566 1638.4C726.566 1653.6 728.966 1667.07 733.766 1678.8C738.832 1690.53 746.032 1699.87 755.366 1706.8C764.966 1713.47 776.299 1716.8 789.366 1716.8C796.299 1716.8 803.366 1715.73 810.566 1713.6C817.766 1711.47 824.566 1708.13 830.966 1703.6C831.499 1703.07 832.166 1703.47 832.966 1704.8C834.032 1705.87 834.299 1706.8 833.766 1707.6C824.166 1715.87 814.566 1721.87 804.966 1725.6C795.366 1729.07 785.499 1730.8 775.366 1730.8ZM719.366 1617.6L718.966 1612.4L810.166 1610.4V1616.8L719.366 1617.6Z" fill="#123456"/>
<path d="M664.8 1746.2C687.2 1746.2 711.2 1748.07 736.8 1751.8C762.933 1755.53 783.467 1760.87 798.4 1767.8C803.2 1769.4 806.4 1771.53 808 1774.2C809.6 1776.33 810.667 1780.33 811.2 1786.2L820.8 1897.4C820.8 1899 819.467 1900.07 816.8 1900.6C814.667 1901.13 813.067 1900.33 812 1898.2C794.4 1857.13 770.4 1824.87 740 1801.4C710.133 1777.93 674.667 1766.2 633.6 1766.2C597.867 1766.2 567.467 1775.27 542.4 1793.4C517.867 1811.53 499.2 1836.87 486.4 1869.4C474.133 1901.4 468 1938.73 468 1981.4C468 2018.2 472.533 2052.87 481.6 2085.4C490.667 2117.4 503.467 2145.67 520 2170.2C536.533 2194.2 556.267 2213.13 579.2 2227C602.133 2240.87 627.467 2247.8 655.2 2247.8C689.333 2247.8 719.733 2236.6 746.4 2214.2C773.6 2191.8 797.867 2157.13 819.2 2110.2C820.267 2108.07 822.133 2107.27 824.8 2107.8C827.467 2108.33 828.8 2109.4 828.8 2111L816.8 2219.8C815.733 2226.2 814.4 2230.47 812.8 2232.6C811.733 2234.2 808.8 2236.07 804 2238.2C779.467 2247.27 754.667 2253.93 729.6 2258.2C705.067 2262.47 681.067 2264.6 657.6 2264.6C605.867 2264.6 561.6 2256.87 524.8 2241.4C488 2225.4 457.867 2204.6 434.4 2179C411.467 2152.87 394.4 2124.6 383.2 2094.2C372.533 2063.27 367.2 2032.87 367.2 2003C367.2 1963.53 375.2 1928.07 391.2 1896.6C407.733 1865.13 429.867 1838.2 457.6 1815.8C485.867 1793.4 517.6 1776.33 552.8 1764.6C588.533 1752.33 625.867 1746.2 664.8 1746.2ZM1052.76 2265.4C1019.16 2265.4 990.09 2257.67 965.556 2242.2C941.023 2226.73 922.09 2206.2 908.756 2180.6C895.423 2154.47 888.756 2126.47 888.756 2096.6C888.756 2068.87 894.09 2044.87 904.756 2024.6C915.423 2004.33 929.556 1987.8 947.156 1975C964.756 1961.67 983.956 1951.8 1004.76 1945.4C1025.56 1939 1046.09 1935.8 1066.36 1935.8C1100.49 1935.8 1129.56 1943.8 1153.56 1959.8C1178.09 1975.8 1196.76 1996.33 1209.56 2021.4C1222.36 2046.47 1228.76 2073.13 1228.76 2101.4C1228.76 2133.93 1220.49 2162.73 1203.96 2187.8C1187.96 2212.33 1166.62 2231.53 1139.96 2245.4C1113.29 2258.73 1084.22 2265.4 1052.76 2265.4ZM1076.76 2248.6C1098.09 2248.6 1114.09 2238.2 1124.76 2217.4C1135.42 2196.6 1140.76 2167.27 1140.76 2129.4C1140.76 2090.47 1135.69 2057.93 1125.56 2031.8C1115.96 2005.67 1103.42 1985.93 1087.96 1972.6C1072.49 1959.27 1056.22 1952.6 1039.16 1952.6C1018.36 1952.6 1002.36 1961.93 991.156 1980.6C980.49 1999.27 975.156 2028.07 975.156 2067C975.156 2103.27 979.69 2135.27 988.756 2163C997.823 2190.2 1010.09 2211.27 1025.56 2226.2C1041.02 2241.13 1058.09 2248.6 1076.76 2248.6ZM1500.96 2255C1499.36 2255 1498.56 2253.4 1498.56 2250.2C1498.56 2247 1499.36 2245.4 1500.96 2245.4C1517.5 2245.4 1528.7 2241.67 1534.56 2234.2C1540.43 2226.2 1543.36 2211.53 1543.36 2190.2V2075C1543.36 2046.2 1538.03 2024.87 1527.36 2011C1517.23 1997.13 1500.96 1990.2 1478.56 1990.2C1462.56 1990.2 1446.03 1994.2 1428.96 2002.2C1412.43 2010.2 1399.1 2021.13 1388.96 2035L1384.96 2025.4C1403.63 1998.73 1424.7 1977.4 1448.16 1961.4C1471.63 1944.87 1497.23 1936.6 1524.96 1936.6C1554.83 1936.6 1577.76 1945.93 1593.76 1964.6C1610.3 1983.27 1618.56 2007.27 1618.56 2036.6V2190.2C1618.56 2211.53 1621.5 2226.2 1627.36 2234.2C1633.76 2241.67 1645.23 2245.4 1661.76 2245.4C1663.36 2245.4 1664.16 2247 1664.16 2250.2C1664.16 2253.4 1663.36 2255 1661.76 2255C1651.1 2255 1638.83 2254.73 1624.96 2254.2C1611.1 2253.67 1596.43 2253.4 1580.96 2253.4C1566.03 2253.4 1551.63 2253.67 1537.76 2254.2C1523.9 2254.73 1511.63 2255 1500.96 2255ZM1285.76 2255C1284.16 2255 1283.36 2253.4 1283.36 2250.2C1283.36 2247 1284.16 2245.4 1285.76 2245.4C1302.3 2245.4 1313.5 2241.67 1319.36 2234.2C1325.23 2226.2 1328.16 2211.53 1328.16 2190.2V2039.8C1328.16 2023.27 1326.3 2011.27 1322.56 2003.8C1318.83 1995.8 1312.43 1991.8 1303.36 1991.8C1298.56 1991.8 1292.96 1992.87 1286.56 1995C1280.16 1996.6 1272.96 1999.27 1264.96 2003C1262.83 2004.07 1261.23 2003 1260.16 1999.8C1259.1 1996.6 1259.1 1994.73 1260.16 1994.2L1371.36 1939.8C1374.56 1938.73 1376.43 1938.2 1376.96 1938.2C1382.83 1938.2 1388.7 1944.6 1394.56 1957.4C1400.43 1970.2 1403.36 1988.6 1403.36 2012.6V2190.2C1403.36 2211.53 1406.3 2226.2 1412.16 2234.2C1418.56 2241.67 1430.03 2245.4 1446.56 2245.4C1448.16 2245.4 1448.96 2247 1448.96 2250.2C1448.96 2253.4 1448.16 2255 1446.56 2255C1435.9 2255 1423.63 2254.73 1409.76 2254.2C1395.9 2253.67 1381.23 2253.4 1365.76 2253.4C1350.83 2253.4 1336.43 2253.67 1322.56 2254.2C1308.7 2254.73 1296.43 2255 1285.76 2255ZM1697.26 2255C1695.12 2255 1694.06 2253.4 1694.06 2250.2C1694.06 2247 1695.12 2245.4 1697.26 2245.4C1717.52 2245.4 1730.59 2241.93 1736.46 2235C1742.32 2228.07 1745.26 2213.13 1745.26 2190.2V2010.2C1745.26 1998.47 1743.66 1989.93 1740.46 1984.6C1737.26 1978.73 1731.92 1975 1724.46 1973.4C1716.99 1971.27 1706.86 1970.2 1694.06 1970.2C1692.46 1970.2 1691.66 1967.8 1691.66 1963C1691.66 1958.2 1692.46 1955.8 1694.06 1955.8C1712.72 1955.8 1725.52 1953.4 1732.46 1948.6C1739.39 1943.27 1743.12 1933.93 1743.66 1920.6C1746.32 1861.4 1755.66 1813.93 1771.66 1778.2C1787.66 1741.93 1810.32 1715.53 1839.66 1699C1868.99 1682.47 1904.46 1674.2 1946.06 1674.2C1982.86 1674.2 2011.39 1679.8 2031.66 1691C2052.46 1702.2 2062.86 1717.13 2062.86 1735.8C2062.86 1745.4 2059.66 1753.67 2053.26 1760.6C2046.86 1767 2036.99 1770.2 2023.66 1770.2C2009.79 1770.2 1999.39 1766.2 1992.46 1758.2C1985.52 1750.2 1979.39 1740.87 1974.06 1730.2C1968.72 1719.53 1962.06 1710.2 1954.06 1702.2C1946.59 1694.2 1935.39 1690.2 1920.46 1690.2C1903.39 1690.2 1887.12 1697.4 1871.66 1711.8C1856.19 1726.2 1843.66 1749.13 1834.06 1780.6C1824.99 1812.07 1820.46 1853.13 1820.46 1903.8V2190.2C1820.46 2205.67 1822.06 2217.4 1825.26 2225.4C1828.46 2233.4 1835.12 2238.73 1845.26 2241.4C1855.39 2244.07 1870.86 2245.4 1891.66 2245.4C1893.79 2245.4 1894.86 2247 1894.86 2250.2C1894.86 2253.4 1893.79 2255 1891.66 2255C1872.99 2255 1854.59 2254.73 1836.46 2254.2C1818.86 2253.67 1800.72 2253.4 1782.06 2253.4C1766.59 2253.4 1751.39 2253.67 1736.46 2254.2C1722.06 2254.73 1708.99 2255 1697.26 2255ZM1906.06 1987C1885.26 1982.2 1865.26 1979 1846.06 1977.4C1827.39 1975.27 1807.39 1974.2 1786.06 1974.2V1953.4C1806.32 1953.4 1826.32 1952.6 1846.06 1951C1865.79 1949.4 1886.59 1947.53 1908.46 1945.4C1910.06 1945.4 1911.39 1947.53 1912.46 1951.8C1913.52 1955.53 1914.06 1959.8 1914.06 1964.6C1914.06 1969.93 1912.99 1975.27 1910.86 1980.6C1909.26 1985.4 1907.66 1987.53 1906.06 1987ZM1951.66 2255C1950.59 2255 1950.06 2253.4 1950.06 2250.2C1950.06 2247 1950.59 2245.4 1951.66 2245.4C1968.19 2245.4 1979.39 2241.67 1985.26 2234.2C1991.66 2226.2 1994.86 2211.53 1994.86 2190.2V2047C1994.86 2021.4 1991.12 2005.67 1983.66 1999.8C1976.19 1993.4 1962.06 1995 1941.26 2004.6C1939.12 2005.13 1937.26 2003.8 1935.66 2000.6C1934.59 1997.4 1934.59 1995.53 1935.66 1995L2056.46 1939C2059.12 1937.4 2062.32 1938.2 2066.06 1941.4C2069.79 1944.07 2071.66 1946.73 2071.66 1949.4C2071.66 1955.8 2071.12 1966.47 2070.06 1981.4C2069.52 1996.33 2069.26 2017.67 2069.26 2045.4V2190.2C2069.26 2211.53 2072.19 2226.2 2078.06 2234.2C2084.46 2241.67 2095.92 2245.4 2112.46 2245.4C2114.59 2245.4 2115.66 2247 2115.66 2250.2C2115.66 2253.4 2114.59 2255 2112.46 2255C2101.79 2255 2089.52 2254.73 2075.66 2254.2C2062.32 2253.67 2047.92 2253.4 2032.46 2253.4C2016.99 2253.4 2002.32 2253.67 1988.46 2254.2C1974.59 2254.73 1962.32 2255 1951.66 2255ZM2283.11 2265.4C2260.17 2265.4 2239.11 2259.27 2219.91 2247C2201.24 2234.73 2186.04 2217.13 2174.31 2194.2C2163.11 2170.73 2157.51 2142.47 2157.51 2109.4C2157.51 2076.87 2163.37 2049.67 2175.11 2027.8C2186.84 2005.4 2201.77 1987.53 2219.91 1974.2C2238.57 1960.87 2258.57 1951.27 2279.91 1945.4C2301.24 1939 2321.51 1935.8 2340.71 1935.8C2359.91 1935.8 2377.77 1938.2 2394.31 1943C2410.84 1947.8 2425.77 1953.67 2439.11 1960.6L2420.71 2025.4C2409.51 2001.4 2396.71 1984.07 2382.31 1973.4C2367.91 1962.2 2350.04 1956.6 2328.71 1956.6C2301.51 1956.6 2279.91 1966.2 2263.91 1985.4C2247.91 2004.07 2239.91 2036.87 2239.91 2083.8C2239.91 2114.2 2243.64 2140.07 2251.11 2161.4C2258.57 2182.73 2268.97 2199 2282.31 2210.2C2295.64 2221.4 2310.57 2227 2327.11 2227C2348.44 2227 2367.11 2221.13 2383.11 2209.4C2399.11 2197.67 2414.57 2183.53 2429.51 2167L2437.51 2174.2C2426.31 2187 2412.97 2200.6 2397.51 2215C2382.57 2228.87 2365.51 2240.87 2346.31 2251C2327.64 2260.6 2306.57 2265.4 2283.11 2265.4ZM2478.31 1685.4V2162.2C2478.31 2180.33 2479.91 2193.13 2483.11 2200.6C2486.84 2208.07 2492.71 2211.8 2500.71 2211.8C2504.44 2211.8 2508.97 2211 2514.31 2209.4C2520.17 2207.8 2526.57 2205.67 2533.51 2203C2535.11 2201.93 2536.71 2203 2538.31 2206.2C2539.91 2208.87 2540.17 2210.73 2539.11 2211.8L2428.71 2265.4C2427.11 2265.93 2425.77 2266.2 2424.71 2266.2C2419.37 2266.2 2414.31 2259.53 2409.51 2246.2C2405.24 2232.87 2403.11 2213.93 2403.11 2189.4V1783.8C2403.11 1765.67 2401.51 1752.6 2398.31 1744.6C2395.11 1736.07 2388.97 1731.8 2379.91 1731.8C2376.17 1731.8 2371.64 1732.6 2366.31 1734.2C2361.51 1735.8 2356.17 1737.93 2350.31 1740.6C2348.17 1741.13 2346.31 1739.8 2344.71 1736.6C2343.11 1733.4 2342.84 1731.53 2343.91 1731L2461.51 1675.8C2462.57 1675.27 2463.64 1675 2464.71 1675C2467.37 1675 2470.31 1676.33 2473.51 1679C2476.71 1681.13 2478.31 1683.27 2478.31 1685.4ZM2727.72 2264.6C2693.05 2264.6 2663.45 2257.4 2638.92 2243C2614.92 2228.6 2596.52 2209.67 2583.72 2186.2C2571.45 2162.2 2565.32 2136.87 2565.32 2110.2C2565.32 2078.73 2573.32 2050.2 2589.32 2024.6C2605.32 1998.47 2626.92 1977.67 2654.12 1962.2C2681.85 1946.73 2713.05 1939 2747.72 1939C2780.79 1939 2806.12 1946.2 2823.72 1960.6C2841.32 1974.47 2850.12 1993.67 2850.12 2018.2C2850.12 2024.07 2849.59 2029.4 2848.52 2034.2C2847.45 2039 2845.05 2041.4 2841.32 2041.4H2764.52C2765.59 2016.33 2762.65 1995.8 2755.72 1979.8C2748.79 1963.27 2736.25 1955 2718.12 1955C2696.79 1955 2679.45 1966.2 2666.12 1988.6C2652.79 2010.47 2646.12 2039.8 2646.12 2076.6C2646.12 2106.47 2650.92 2132.6 2660.52 2155C2670.12 2177.4 2683.99 2194.73 2702.12 2207C2720.25 2219.27 2742.12 2225.4 2767.72 2225.4C2780.52 2225.4 2794.12 2223.53 2808.52 2219.8C2823.45 2216.07 2836.79 2210.47 2848.52 2203C2849.59 2201.93 2850.92 2202.47 2852.52 2204.6C2854.65 2206.73 2855.19 2208.6 2854.12 2210.2C2834.39 2229.93 2814.12 2244.07 2793.32 2252.6C2773.05 2260.6 2751.19 2264.6 2727.72 2264.6ZM2618.12 2043L2617.32 2027.8L2792.52 2023.8V2041.4L2618.12 2043ZM3120.49 2255C3118.89 2255 3118.09 2253.4 3118.09 2250.2C3118.09 2247 3118.89 2245.4 3120.49 2245.4C3137.03 2245.4 3148.23 2241.67 3154.09 2234.2C3159.96 2226.2 3162.89 2211.53 3162.89 2190.2V2075C3162.89 2046.2 3157.56 2024.87 3146.89 2011C3136.76 1997.13 3120.49 1990.2 3098.09 1990.2C3082.09 1990.2 3065.56 1994.2 3048.49 2002.2C3031.96 2010.2 3018.63 2021.13 3008.49 2035L3004.49 2025.4C3023.16 1998.73 3044.23 1977.4 3067.69 1961.4C3091.16 1944.87 3116.76 1936.6 3144.49 1936.6C3174.36 1936.6 3197.29 1945.93 3213.29 1964.6C3229.83 1983.27 3238.09 2007.27 3238.09 2036.6V2190.2C3238.09 2211.53 3241.03 2226.2 3246.89 2234.2C3253.29 2241.67 3264.76 2245.4 3281.29 2245.4C3282.89 2245.4 3283.69 2247 3283.69 2250.2C3283.69 2253.4 3282.89 2255 3281.29 2255C3270.63 2255 3258.36 2254.73 3244.49 2254.2C3230.63 2253.67 3215.96 2253.4 3200.49 2253.4C3185.56 2253.4 3171.16 2253.67 3157.29 2254.2C3143.43 2254.73 3131.16 2255 3120.49 2255ZM2905.29 2255C2903.69 2255 2902.89 2253.4 2902.89 2250.2C2902.89 2247 2903.69 2245.4 2905.29 2245.4C2921.83 2245.4 2933.03 2241.67 2938.89 2234.2C2944.76 2226.2 2947.69 2211.53 2947.69 2190.2V2039.8C2947.69 2023.27 2945.83 2011.27 2942.09 2003.8C2938.36 1995.8 2931.96 1991.8 2922.89 1991.8C2918.09 1991.8 2912.49 1992.87 2906.09 1995C2899.69 1996.6 2892.49 1999.27 2884.49 2003C2882.36 2004.07 2880.76 2003 2879.69 1999.8C2878.63 1996.6 2878.63 1994.73 2879.69 1994.2L2990.89 1939.8C2994.09 1938.73 2995.96 1938.2 2996.49 1938.2C3002.36 1938.2 3008.23 1944.6 3014.09 1957.4C3019.96 1970.2 3022.89 1988.6 3022.89 2012.6V2190.2C3022.89 2211.53 3025.83 2226.2 3031.69 2234.2C3038.09 2241.67 3049.56 2245.4 3066.09 2245.4C3067.69 2245.4 3068.49 2247 3068.49 2250.2C3068.49 2253.4 3067.69 2255 3066.09 2255C3055.43 2255 3043.16 2254.73 3029.29 2254.2C3015.43 2253.67 3000.76 2253.4 2985.29 2253.4C2970.36 2253.4 2955.96 2253.67 2942.09 2254.2C2928.23 2254.73 2915.96 2255 2905.29 2255ZM3442.39 2264.6C3429.59 2264.6 3416.52 2262.47 3403.19 2258.2C3390.39 2253.93 3379.45 2246.47 3370.39 2235.8C3361.85 2225.13 3357.59 2210.2 3357.59 2191V2013.4C3357.59 2002.2 3356.25 1993.4 3353.59 1987C3350.92 1980.6 3346.65 1976.07 3340.79 1973.4C3334.92 1970.73 3326.92 1969.4 3316.79 1969.4C3314.65 1969.4 3313.59 1967 3313.59 1962.2C3313.59 1957.4 3314.65 1955 3316.79 1955C3343.99 1953.93 3366.12 1948.07 3383.19 1937.4C3400.25 1926.2 3413.05 1909.93 3421.59 1888.6C3422.65 1886.47 3424.79 1885.4 3427.99 1885.4C3431.72 1885.4 3433.59 1886.47 3433.59 1888.6V2164.6C3433.59 2185.93 3438.92 2201.13 3449.59 2210.2C3460.79 2219.27 3474.39 2223.8 3490.39 2223.8C3502.65 2223.8 3514.12 2221.4 3524.79 2216.6C3535.99 2211.27 3545.32 2205.67 3552.79 2199.8C3554.39 2198.2 3556.25 2198.73 3558.39 2201.4C3561.05 2203.53 3561.32 2205.4 3559.19 2207C3539.45 2226.73 3520.25 2241.4 3501.59 2251C3483.45 2260.07 3463.72 2264.6 3442.39 2264.6ZM3534.39 1987C3512.52 1982.2 3491.19 1979 3470.39 1977.4C3450.12 1975.27 3428.52 1974.2 3405.59 1974.2V1953.4C3427.45 1953.4 3448.79 1952.6 3469.59 1951C3490.92 1949.4 3513.59 1947.53 3537.59 1945.4C3538.65 1945.4 3539.72 1947.53 3540.79 1951.8C3542.39 1955.53 3543.19 1959.8 3543.19 1964.6C3543.19 1969.93 3542.12 1975.27 3539.99 1980.6C3538.39 1985.4 3536.52 1987.53 3534.39 1987Z" fill="#123456"/>
<path d="M3668 2264.8C3653.07 2264.8 3641.07 2260.53 3632 2252C3623.47 2242.93 3619.2 2230.93 3619.2 2216C3619.2 2202.13 3623.47 2190.93 3632 2182.4C3641.07 2173.87 3653.07 2169.6 3668 2169.6C3683.47 2169.6 3695.2 2173.87 3703.2 2182.4C3711.2 2190.93 3715.2 2202.13 3715.2 2216C3715.2 2230.93 3711.2 2242.93 3703.2 2252C3695.2 2260.53 3683.47 2264.8 3668 2264.8Z" fill="#EB0032"/>
</svg>
