<svg xmlns="http://www.w3.org/2000/svg" viewBox="0 0 1672 425"><g fill="#ffffff" fill-rule="nonzero"><path d="M152.8 423.8c11.733 0 23.8-1.067 36.2-3.2 12.4-2.133 24.733-5.467 37-10 2.4-1.067 3.933-2.067 4.6-3 .667-.933 1.267-3 1.8-6.2l6-54.4c0-.8-.667-1.333-2-1.6-1.333-.267-2.267.133-2.8 1.2-10.667 23.467-22.733 40.8-36.2 52-13.467 11.2-28.733 16.8-45.8 16.8-13.867 0-26.533-3.467-38-10.4-11.467-6.933-21.333-16.467-29.6-28.6-8.267-12.133-14.667-26.267-19.2-42.4-4.533-16.133-6.8-33.4-6.8-51.8 0-21.333 3.133-40.067 9.4-56.2 6.267-16.133 15.6-28.733 28-37.8 12.4-9.067 27.533-13.6 45.4-13.6 20.533 0 38.333 5.867 53.4 17.6s27 27.867 35.8 48.4c.533 1.067 1.4 1.467 2.6 1.2 1.2-.267 1.8-.8 1.8-1.6l-4.8-55.6c-.267-2.933-.8-5-1.6-6.2-.8-1.2-2.4-2.2-4.8-3-7.467-3.467-17.667-6.133-30.6-8s-25-2.8-36.2-2.8c-19.467 0-38.067 3-55.8 9-17.733 6-33.6 14.6-47.6 25.8-14 11.2-25.067 24.667-33.2 40.4-8.133 15.733-12.2 33.467-12.2 53.2 0 14.933 2.733 30.067 8.2 45.4 5.467 15.333 14 29.467 25.6 42.4C53 393.733 68 404.133 86.4 412c18.4 7.867 40.533 11.8 66.4 11.8Zm197.6.4c15.733 0 30.267-3.4 43.6-10.2 13.333-6.8 24.067-16.4 32.2-28.8 8.133-12.4 12.2-26.733 12.2-43 0-14.133-3.2-27.467-9.6-40-6.4-12.533-15.667-22.8-27.8-30.8-12.133-8-26.733-12-43.8-12-10.133 0-20.4 1.6-30.8 4.8-10.4 3.2-20 8.067-28.8 14.6-8.8 6.533-15.867 14.867-21.2 25-5.333 10.133-8 22.133-8 36 0 14.933 3.333 28.867 10 41.8 6.667 12.933 16.133 23.267 28.4 31 12.267 7.733 26.8 11.6 43.6 11.6Zm12-8.4c-9.333 0-17.867-3.733-25.6-11.2-7.733-7.467-13.867-18.067-18.4-31.8-4.533-13.733-6.8-29.667-6.8-47.8 0-19.467 2.733-33.867 8.2-43.2 5.467-9.333 13.4-14 23.8-14 8.533 0 16.667 3.333 24.4 10 7.733 6.667 14.067 16.533 19 29.6s7.4 29.333 7.4 48.8c0 18.933-2.667 33.6-8 44-5.333 10.4-13.333 15.6-24 15.6Zm292.4 3.2c.8 0 1.2-.8 1.2-2.4 0-1.6-.4-2.4-1.2-2.4-8.267 0-13.933-1.933-17-5.8s-4.6-11.133-4.6-21.8v-76.8c0-14.667-4.067-26.667-12.2-36-8.133-9.333-19.667-14-34.6-14-13.867 0-26.667 4.067-38.4 12.2-8 5.545-15.442 12.3-22.326 20.262l-.179.208-.022-.554c-.404-8.932-1.767-16.033-4.088-21.304l-.185-.412c-2.933-6.4-5.867-9.6-8.8-9.6-.267 0-1.2.267-2.8.8L454 288.6c-.533.267-.533 1.2 0 2.8.533 1.6 1.333 2.133 2.4 1.6 4-1.867 7.6-3.267 10.8-4.2 3.2-.933 6-1.4 8.4-1.4 4.533 0 7.733 1.933 9.6 5.8s2.8 9.933 2.8 18.2v75.2c0 10.667-1.467 17.933-4.4 21.8-2.933 3.867-8.533 5.8-16.8 5.8-.8 0-1.2.8-1.2 2.4 0 1.6.4 2.4 1.2 2.4 5.333 0 11.467-.133 18.4-.4 6.933-.267 14.133-.4 21.6-.4 7.733 0 15.067.133 22 .4s13.067.4 18.4.4c.8 0 1.2-.8 1.2-2.4 0-1.6-.4-2.4-1.2-2.4-8.267 0-13.933-1.933-17-5.8s-4.6-11.133-4.6-21.8v-85.501c3.587-3.174 7.689-5.895 12.304-8.162l.696-.337c8.4-4 16.6-6 24.6-6 11.2 0 19.4 3.467 24.6 10.4 5.2 6.933 7.8 17.6 7.8 32v57.6c0 10.667-1.467 17.933-4.4 21.8-2.933 3.867-8.533 5.8-16.8 5.8-.8 0-1.2.8-1.2 2.4 0 1.6.4 2.4 1.2 2.4 5.333 0 11.467-.133 18.4-.4 6.933-.267 14.133-.4 21.6-.4 7.733 0 15.067.133 22 .4s13.067.4 18.4.4Zm114.8 0c1.067 0 1.6-.8 1.6-2.4 0-1.6-.533-2.4-1.6-2.4-10.4 0-18.133-.667-23.2-2s-8.4-4-10-8c-1.6-4-2.4-9.867-2.4-17.6V279.032h.022c3.89.202 7.687.474 11.395.817L747 280c9.467.933 19.4 2.6 29.8 5 .8.267 1.667-.867 2.6-3.4a22.394 22.394 0 0 0 1.4-7.8c0-2.4-.267-4.6-.8-6.6s-1.2-3-2-3c-10.933 1.067-21.333 2-31.2 2.8-3.795.308-7.61.556-11.444.746l-1.356.063V243.4c0-24.938 2.261-45.224 6.783-60.859l.217-.741c4.667-15.733 10.867-27.2 18.6-34.4 7.733-7.2 15.867-10.8 24.4-10.8 7.467 0 13.133 2 17 6 3.867 4 7.133 8.667 9.8 14 2.667 5.333 5.733 10 9.2 14 3.467 4 8.667 6 15.6 6 6.667 0 11.6-1.667 14.8-5 3.2-3.333 4.8-7.4 4.8-12.2 0-9.333-5.133-16.8-15.4-22.4-10.267-5.6-24.6-8.4-43-8.4-20.8 0-38.533 4.133-53.2 12.4-14.667 8.267-26 21.4-34 39.4s-12.667 41.8-14 71.4c-.267 6.667-2.133 11.267-5.6 13.8-3.467 2.533-9.867 3.8-19.2 3.8-.8 0-1.2 1.2-1.2 3.6 0 2.4.4 3.6 1.2 3.6 6.4 0 11.467.467 15.2 1.4 3.733.933 6.4 2.8 8 5.6 1.6 2.8 2.4 7.133 2.4 13v90c0 11.467-1.467 18.933-4.4 22.4-2.933 3.467-9.467 5.2-19.6 5.2-1.067 0-1.6.8-1.6 2.4 0 1.6.533 2.4 1.6 2.4 5.867 0 12.467-.133 19.8-.4s14.867-.4 22.6-.4c9.333 0 18.467.133 27.4.4s18.067.4 27.4.4Zm110.4 0c1.067 0 1.6-.8 1.6-2.4 0-1.6-.533-2.4-1.6-2.4-8.267 0-13.933-1.933-17-5.8s-4.6-11.133-4.6-21.8v-73.28c.009-13.44.209-23.812.6-31.12.4-7.467.6-12.8.6-16 0-1.333-.933-2.733-2.8-4.2-1.867-1.467-3.467-1.8-4.8-1l-60.4 28c-.533.267-.467 1.2.2 2.8.667 1.6 1.533 2.267 2.6 2 10.4-4.8 17.467-5.667 21.2-2.6 3.733 3.067 5.6 11 5.6 23.8v71.6c0 10.667-1.533 17.933-4.6 21.8-3.067 3.867-8.733 5.8-17 5.8-.533 0-.8.8-.8 2.4 0 1.6.267 2.4.8 2.4 5.333 0 11.467-.133 18.4-.4 6.933-.267 14.267-.4 22-.4 7.733 0 15 .133 21.8.4 6.8.267 12.867.4 18.2.4Zm156 5.6c.533 0 1.2-.133 2-.4l55.2-26.8c.533-.533.4-1.533-.4-3s-1.6-1.933-2.4-1.4c-3.467 1.333-6.6 2.4-9.4 3.2-2.8.8-5.133 1.2-7 1.2-4 0-6.867-1.867-8.6-5.6-1.733-3.733-2.6-10.133-2.6-19.2V134.2c0-1.067-.8-2.2-2.4-3.4-1.6-1.2-3.067-1.8-4.4-1.8a3.55 3.55 0 0 0-1.6.4L995.6 157c-.533.267-.4 1.2.4 2.8.8 1.6 1.733 2.267 2.8 2 2.933-1.333 5.667-2.4 8.2-3.2 2.533-.8 4.733-1.2 6.6-1.2 4.533 0 7.6 2.067 9.2 6.2 1.6 4.133 2.4 10.733 2.4 19.8v80.953l-1.063-.341a145.34 145.34 0 0 0-2.215-.681L1020.8 263c-8.267-2.4-17.2-3.6-26.8-3.6-9.6 0-19.733 1.533-30.4 4.6-10.667 3.067-20.6 7.933-29.8 14.6s-16.733 15.533-22.6 26.6c-5.867 11.067-8.8 24.733-8.8 41 0 16.533 2.867 30.6 8.6 42.2 5.733 11.6 13.333 20.467 22.8 26.6 9.467 6.133 19.933 9.2 31.4 9.2 11.733 0 22.333-2.467 31.8-7.4 9.467-4.933 18-10.933 25.6-18 .66-.614 1.314-1.226 1.96-1.836l.921-.873.034.53c.465 7.119 1.444 12.965 2.939 17.54l.146.439c2.267 6.667 4.733 10 7.4 10ZM987.2 405c-8.267 0-15.733-2.8-22.4-8.4-6.667-5.6-11.867-13.733-15.6-24.4-3.733-10.667-5.6-23.6-5.6-38.8 0-23.467 4-39.933 12-49.4 8-9.467 18.8-14.2 32.4-14.2 10.667 0 19.6 2.733 26.8 8.2 3.673 2.79 7.139 6.429 10.396 10.918l.004.008V386.2c0 .533.002 1.061.006 1.584l.003.327-.897.787a140.158 140.158 0 0 1-8.19 6.62l-.922.682c-8 5.867-17.333 8.8-28 8.8Zm200.4 18.8c11.733 0 22.733-2.067 33-6.2s20.333-11.133 30.2-21c.533-.8.333-1.733-.6-2.8-.933-1.067-1.667-1.333-2.2-.8-5.867 3.733-12.467 6.533-19.8 8.4s-14.2 2.8-20.6 2.8c-12.8 0-23.733-3.067-32.8-9.2-9.067-6.133-16-14.8-20.8-26-4.8-11.2-7.2-24.267-7.2-39.2 0-6.033.358-11.671 1.075-16.916l.002-.022L1220 312.2h24.4c1.8 0 2.98-1.116 3.54-3.347l.06-.253c.533-2.4.8-5.067.8-8 0-12.267-4.4-21.933-13.2-29-8.8-7.067-21.467-10.6-38-10.6-17.333 0-32.867 3.867-46.6 11.6-13.733 7.733-24.6 18.067-32.6 31s-12 27.267-12 43c0 13.333 3.133 25.933 9.4 37.8 6.267 11.867 15.467 21.4 27.6 28.6 12.133 7.2 26.867 10.8 44.2 10.8Zm-38.314-118.786.097-.426c1.666-7.216 4.138-13.545 7.417-18.988 6.667-11.067 15.333-16.6 26-16.6 9.067 0 15.333 4.067 18.8 12.2 2.62 6.145 4.097 13.546 4.433 22.203l.01.316-56.757 1.295ZM1464.4 419c.8 0 1.2-.8 1.2-2.4 0-1.6-.4-2.4-1.2-2.4-8.267 0-13.933-1.933-17-5.8s-4.6-11.133-4.6-21.8v-76.8c0-14.667-4.067-26.667-12.2-36-8.133-9.333-19.667-14-34.6-14-13.867 0-26.667 4.067-38.4 12.2-8 5.545-15.442 12.3-22.326 20.262l-.179.208-.022-.554c-.404-8.932-1.767-16.033-4.088-21.304l-.185-.412c-2.933-6.4-5.867-9.6-8.8-9.6-.267 0-1.2.267-2.8.8l-55.6 27.2c-.533.267-.533 1.2 0 2.8.533 1.6 1.333 2.133 2.4 1.6 4-1.867 7.6-3.267 10.8-4.2 3.2-.933 6-1.4 8.4-1.4 4.533 0 7.733 1.933 9.6 5.8s2.8 9.933 2.8 18.2v75.2c0 10.667-1.467 17.933-4.4 21.8-2.933 3.867-8.533 5.8-16.8 5.8-.8 0-1.2.8-1.2 2.4 0 1.6.4 2.4 1.2 2.4 5.333 0 11.467-.133 18.4-.4 6.933-.267 14.133-.4 21.6-.4 7.733 0 15.067.133 22 .4s13.067.4 18.4.4c.8 0 1.2-.8 1.2-2.4 0-1.6-.4-2.4-1.2-2.4-8.267 0-13.933-1.933-17-5.8s-4.6-11.133-4.6-21.8v-85.501c3.587-3.174 7.689-5.895 12.304-8.162l.696-.337c8.4-4 16.6-6 24.6-6 11.2 0 19.4 3.467 24.6 10.4 5.2 6.933 7.8 17.6 7.8 32v57.6c0 10.667-1.467 17.933-4.4 21.8-2.933 3.867-8.533 5.8-16.8 5.8-.8 0-1.2.8-1.2 2.4 0 1.6.4 2.4 1.2 2.4 5.333 0 11.467-.133 18.4-.4 6.933-.267 14.133-.4 21.6-.4 7.733 0 15.067.133 22 .4s13.067.4 18.4.4Zm80.4 4.8c10.667 0 20.6-2.333 29.8-7s18.733-11.933 28.6-21.8c1.067-.8 1-1.8-.2-3s-2.2-1.4-3-.6c-3.733 2.933-8.333 5.667-13.8 8.2-5.467 2.533-11.267 3.8-17.4 3.8-8 0-14.733-2.267-20.2-6.8-5.467-4.533-8.2-12.133-8.2-22.8v-94.956l.933.033c5.467.207 10.784.531 15.95.972L1559 280c10.267.933 20.867 2.6 31.8 5 1.067.267 2.067-.867 3-3.4a22.394 22.394 0 0 0 1.4-7.8c0-2.4-.333-4.6-1-6.6s-1.267-3-1.8-3c-12 1.067-23.267 2-33.8 2.8-5.267.4-10.583.7-15.95.9l-2.25.078V235.8c0-1.02-.793-1.553-2.379-1.597l-.221-.003c-1.733 0-2.867.533-3.4 1.6-4.267 10.667-10.667 18.733-19.2 24.2-8.533 5.467-19.6 8.467-33.2 9-1.067 0-1.6 1.2-1.6 3.6 0 2.4.533 3.6 1.6 3.6 5.067 0 9.067.667 12 2s5.067 3.6 6.4 6.8c1.333 3.2 2 7.6 2 13.2V387c0 9.6 2.2 17.067 6.6 22.4 4.4 5.333 9.867 9.067 16.4 11.2 6.533 2.133 13 3.2 19.4 3.2Zm102.8-.4c7.733 0 13.6-2.2 17.6-6.6 4-4.4 6-10.333 6-17.8 0-6.933-2-12.533-6-16.8-4-4.267-9.867-6.4-17.6-6.4-7.467 0-13.4 2.133-17.8 6.4s-6.6 9.867-6.6 16.8c0 7.467 2.2 13.4 6.6 17.8 4.4 4.4 10.333 6.6 17.8 6.6ZM76.395 152c.33 0 .495-.33.495-.99 0-.66-.165-.99-.495-.99-3.96 0-6.902-.275-8.828-.825-1.924-.55-3.217-1.65-3.877-3.3-.66-1.65-.99-4.07-.99-7.26V62.57c0-2.53.192-4.51.578-5.94.385-1.43 1.155-2.448 2.31-3.053s2.832-.907 5.032-.907h27.225c2.31 0 3.465.935 3.465 2.805v83.16c0 4.4-.633 7.398-1.898 8.993-1.265 1.595-3.602 2.392-7.012 2.392-.22 0-.33.33-.33.99 0 .66.11.99.33.99 2.2 0 4.73-.055 7.59-.165 2.86-.11 5.885-.165 9.075-.165 3.19 0 6.215.055 9.075.165 2.86.11 5.335.165 7.425.165.44 0 .66-.33.66-.99 0-.66-.22-.99-.66-.99-3.41 0-5.72-.798-6.93-2.393-1.21-1.595-1.815-4.592-1.815-8.992v-35.298l.234-.21a21.73 21.73 0 0 1 4.426-2.959l.455-.226c3.52-1.704 6.93-2.557 10.23-2.557 9.02 0 13.53 5.83 13.53 17.49v23.76c0 4.4-.632 7.398-1.897 8.993-1.266 1.595-3.603 2.392-7.013 2.392-.22 0-.33.33-.33.99 0 .66.11.99.33.99 2.2 0 4.73-.055 7.59-.165 2.86-.11 5.885-.165 9.075-.165 3.19 0 6.215.055 9.075.165 2.86.11 5.335.165 7.425.165.44 0 .66-.33.66-.99 0-.66-.22-.99-.66-.99-3.41 0-5.72-.798-6.93-2.393-1.21-1.595-1.815-4.592-1.815-8.992v-31.68c0-6.05-1.705-11-5.115-14.85-3.41-3.85-8.14-5.775-14.19-5.775-5.61 0-10.808 1.595-15.593 4.785-3.445 2.297-6.59 5.135-9.437 8.516l-.05.06V32.705c0-.513-.407-.811-1.222-.893l-.18-.015c-.936-.055-1.513.138-1.733.578-2.2 4.07-5.692 7.755-10.478 11.055-4.784 3.3-10.752 5.115-17.902 5.445-2.2.11-5.308.22-9.323.33-4.014.11-8.085.165-12.21.165H53.296c-6.16 0-12.045-.055-17.655-.165-5.61-.11-10.78-.22-15.51-.33-.99 0-2.227-.083-3.712-.248-1.486-.165-2.805-.495-3.96-.99-1.155-.495-1.733-1.292-1.733-2.392 0-.55-.303-.825-.907-.825-.605 0-.908.275-.908.825 0 1.98-.082 4.51-.248 7.59a324.15 324.15 0 0 1-.66 9.57c-.275 3.3-.522 6.352-.742 9.157-.22 2.806-.44 4.978-.66 6.518 0 .33.275.523.825.578.55.055.88-.083.99-.413 2.75-8.14 6.463-14.438 11.137-18.893 4.675-4.454 10.368-6.682 17.078-6.682 2.09 0 3.685.302 4.785.907s1.843 1.596 2.227 2.97c.386 1.376.578 3.273.578 5.693v76.395c0 3.19-.358 5.61-1.072 7.26-.716 1.65-2.063 2.75-4.043 3.3-1.98.55-4.895.825-8.745.825-.33 0-.495.33-.495.99 0 .66.165.99.495.99 3.19 0 6.71-.055 10.56-.165 3.85-.11 7.975-.165 12.375-.165 4.62 0 8.855.055 12.705.165 3.85.11 7.315.165 10.395.165Zm135.3 1.98c4.84 0 9.377-.852 13.613-2.557 4.234-1.706 8.387-4.593 12.457-8.663.22-.33.138-.715-.247-1.155-.386-.44-.688-.55-.908-.33-2.42 1.54-5.143 2.695-8.168 3.465-3.025.77-5.857 1.155-8.497 1.155-5.28 0-9.79-1.265-13.53-3.795-3.74-2.53-6.6-6.105-8.58-10.725-1.98-4.62-2.97-10.01-2.97-16.17 0-2.456.144-4.753.432-6.892l.013-.095 29.75-.273h10.065c.722 0 1.202-.435 1.44-1.305l.045-.18c.22-.99.33-2.09.33-3.3 0-5.06-1.815-9.047-5.445-11.962-3.63-2.915-8.855-4.373-15.675-4.373-7.15 0-13.558 1.595-19.222 4.785-5.666 3.19-10.148 7.453-13.448 12.787-3.3 5.335-4.95 11.248-4.95 17.738 0 5.5 1.293 10.698 3.877 15.592 2.585 4.895 6.38 8.828 11.386 11.798 5.005 2.97 11.082 4.455 18.232 4.455Zm-15.805-48.999.006-.027c.688-3.038 1.719-5.699 3.094-7.981 2.75-4.566 6.325-6.848 10.725-6.848 3.74 0 6.325 1.677 7.755 5.032 1.045 2.452 1.65 5.389 1.813 8.81l.019.479-23.412.535Z"/></g></svg>