<?xml version="1.0" standalone="no"?>
<!DOCTYPE svg PUBLIC "-//W3C//DTD SVG 20010904//EN"
 "http://www.w3.org/TR/2001/REC-SVG-20010904/DTD/svg10.dtd">
<svg version="1.0" xmlns="http://www.w3.org/2000/svg"
 width="1150.000000pt" height="1150.000000pt" viewBox="0 0 1150.000000 1150.000000"
 preserveAspectRatio="xMidYMid meet">
<metadata>
Created by potrace 1.14, written by Peter Selinger 2001-2017
</metadata>
<g transform="translate(0.000000,1150.000000) scale(0.100000,-0.100000)"
fill="#000000" stroke="none">
<path d="M5458 11495 c-2 -1 -50 -6 -108 -9 -58 -4 -123 -9 -145 -11 -22 -2
-65 -7 -95 -10 -30 -3 -68 -7 -85 -10 -16 -2 -48 -7 -70 -9 -22 -3 -51 -8 -65
-10 -14 -2 -47 -8 -75 -12 -27 -4 -52 -8 -55 -9 -3 0 -27 -5 -55 -10 -27 -5
-52 -9 -55 -10 -3 0 -21 -4 -40 -8 -19 -4 -46 -10 -60 -13 -14 -3 -36 -7 -50
-10 -14 -3 -50 -11 -80 -19 -30 -8 -66 -16 -80 -19 -123 -23 -612 -185 -775
-255 -28 -13 -99 -43 -175 -76 -120 -53 -384 -189 -530 -274 -495 -287 -999
-695 -1365 -1105 -38 -43 -79 -88 -90 -100 -11 -12 -38 -44 -60 -70 -22 -27
-45 -54 -50 -60 -6 -6 -33 -40 -60 -76 -28 -36 -53 -67 -56 -70 -5 -5 -65 -87
-133 -184 -16 -22 -54 -77 -83 -121 -29 -44 -58 -87 -63 -95 -57 -84 -170
-281 -251 -435 -280 -534 -479 -1136 -575 -1734 -3 -18 -7 -41 -9 -50 -1 -9
-6 -41 -10 -71 -3 -30 -8 -66 -10 -80 -2 -14 -7 -56 -11 -95 -3 -38 -8 -78
-10 -87 -19 -102 -26 -734 -10 -938 15 -201 19 -236 46 -435 13 -94 14 -99 39
-230 63 -331 162 -689 266 -955 212 -546 459 -996 787 -1432 75 -99 216 -275
253 -314 5 -6 44 -49 85 -95 130 -145 358 -368 489 -479 29 -25 67 -58 84 -73
42 -37 298 -234 362 -278 28 -19 52 -36 55 -39 3 -4 41 -29 85 -57 44 -29 85
-56 90 -61 6 -4 33 -21 60 -37 28 -16 57 -34 65 -40 8 -7 42 -27 75 -45 33
-17 65 -36 70 -40 20 -16 362 -189 455 -230 52 -23 109 -48 126 -56 146 -65
521 -196 704 -245 107 -29 295 -75 360 -88 94 -19 102 -20 230 -41 69 -12 136
-23 149 -25 13 -2 69 -9 125 -15 56 -6 117 -13 136 -15 215 -27 821 -27 1075
0 22 2 69 7 105 10 36 3 72 8 80 10 8 2 42 6 75 10 33 3 69 8 80 10 11 3 37 7
57 10 32 4 354 69 398 79 297 73 691 200 855 276 11 5 38 16 60 25 254 101
701 344 977 532 120 81 333 238 358 263 3 3 28 23 55 45 28 22 55 44 61 50 6
5 37 33 70 60 178 152 425 400 584 585 12 14 31 36 44 50 12 14 56 68 97 120
357 450 618 894 841 1435 46 110 200 555 193 555 -2 0 4 21 12 48 15 50 71
270 79 312 3 14 14 68 24 120 11 52 22 111 25 130 3 19 8 46 10 60 3 14 7 39
9 55 3 17 7 53 11 80 4 28 8 61 10 75 4 28 13 111 20 185 28 285 27 806 0
1080 -13 122 -30 259 -40 315 -2 14 -7 43 -10 65 -11 80 -44 252 -70 368 -15
65 -74 287 -91 338 -8 25 -16 54 -19 65 -2 10 -26 86 -54 167 -124 360 -311
763 -501 1080 -36 59 -69 115 -75 125 -5 9 -41 63 -80 120 -38 56 -74 110 -80
119 -5 9 -16 24 -22 32 -7 9 -43 57 -80 108 -56 75 -218 276 -258 319 -5 6
-44 49 -85 95 -163 182 -416 423 -605 577 -38 31 -72 59 -75 62 -7 8 -239 182
-270 203 -425 289 -779 480 -1200 647 -388 154 -873 284 -1250 335 -25 3 -52
8 -60 10 -8 2 -42 7 -75 10 -33 3 -71 8 -85 10 -14 3 -59 8 -100 11 -41 3 -95
7 -120 10 -51 5 -707 14 -712 9z"/>
</g>
</svg>
