<svg width="3422" height="1128" viewBox="0 0 3422 1128" fill="none" xmlns="http://www.w3.org/2000/svg">
<path d="M1365.62 1016V929.9H1418.63V945.152H1381.36V963.479H1410.15V978.731H1381.36V1016H1365.62ZM1451.5 1017.23C1444.82 1017.23 1439.12 1015.77 1434.41 1012.86C1429.69 1009.95 1426.08 1006.08 1423.58 1001.24C1421.12 996.402 1419.89 991.113 1419.89 985.373C1419.89 979.592 1421.12 974.262 1423.58 969.383C1426.08 964.504 1429.69 960.609 1434.41 957.698C1439.12 954.746 1444.82 953.27 1451.5 953.27C1458.19 953.27 1463.88 954.746 1468.6 957.698C1473.31 960.609 1476.9 964.504 1479.36 969.383C1481.86 974.262 1483.11 979.592 1483.11 985.373C1483.11 991.113 1481.86 996.402 1479.36 1001.24C1476.9 1006.08 1473.31 1009.95 1468.6 1012.86C1463.88 1015.77 1458.19 1017.23 1451.5 1017.23ZM1451.5 1004.68C1456.63 1004.68 1460.56 1002.9 1463.31 999.333C1466.1 995.725 1467.49 991.072 1467.49 985.373C1467.49 979.592 1466.1 974.897 1463.31 971.289C1460.56 967.64 1456.63 965.816 1451.5 965.816C1446.42 965.816 1442.48 967.64 1439.69 971.289C1436.91 974.897 1435.51 979.592 1435.51 985.373C1435.51 991.072 1436.91 995.725 1439.69 999.333C1442.48 1002.9 1446.42 1004.68 1451.5 1004.68ZM1493.73 1016V954.5H1508L1508.37 961.019C1509.92 959.297 1512.12 957.575 1514.95 955.853C1517.78 954.131 1520.87 953.27 1524.23 953.27C1525.22 953.27 1526.12 953.352 1526.94 953.516L1525.83 968.522C1524.93 968.276 1524.03 968.112 1523.13 968.03C1522.27 967.948 1521.4 967.907 1520.54 967.907C1517.96 967.907 1515.6 968.501 1513.47 969.69C1511.34 970.879 1509.84 972.335 1508.98 974.057V1016H1493.73ZM1582.01 1017.23C1578.15 1017.23 1575.01 1016.45 1572.6 1014.89C1570.18 1013.29 1568.39 1011.26 1567.25 1008.8C1566.1 1006.34 1565.52 1003.78 1565.52 1001.12V967.046H1556.79L1558.14 954.5H1565.52V940.97L1580.78 939.371V954.5H1594.31V967.046H1580.78V994.844C1580.78 997.96 1580.96 1000.21 1581.33 1001.61C1581.7 1002.96 1582.54 1003.82 1583.85 1004.19C1585.16 1004.52 1587.25 1004.68 1590.12 1004.68H1594.31L1592.95 1017.23H1582.01ZM1604.11 1016V923.75H1619.37V963.479L1615.92 960.773C1618.51 958.969 1621.31 957.308 1624.35 955.791C1627.38 954.274 1631.01 953.516 1635.23 953.516C1640.65 953.516 1645.05 954.725 1648.46 957.144C1651.86 959.522 1654.36 962.843 1655.96 967.107C1657.56 971.33 1658.36 976.23 1658.36 981.806V1016H1643.11V982.913C1643.11 977.173 1642.18 972.929 1640.34 970.182C1638.49 967.435 1635.48 966.062 1631.3 966.062C1627.73 966.062 1624.8 966.902 1622.5 968.583C1620.25 970.223 1618.26 972.458 1616.54 975.287L1619.37 967.046V1016H1604.11ZM1699.9 1017.23C1693.22 1017.23 1687.52 1015.77 1682.81 1012.86C1678.09 1009.95 1674.48 1006.08 1671.98 1001.24C1669.52 996.402 1668.29 991.113 1668.29 985.373C1668.29 979.592 1669.52 974.262 1671.98 969.383C1674.48 964.504 1678.09 960.609 1682.81 957.698C1687.52 954.746 1693.22 953.27 1699.9 953.27C1706.59 953.27 1712.29 954.746 1717 957.698C1721.72 960.609 1725.3 964.504 1727.76 969.383C1730.27 974.262 1731.52 979.592 1731.52 985.373C1731.52 991.113 1730.27 996.402 1727.76 1001.24C1725.3 1006.08 1721.72 1009.95 1717 1012.86C1712.29 1015.77 1706.59 1017.23 1699.9 1017.23ZM1699.9 1004.68C1705.03 1004.68 1708.97 1002.9 1711.71 999.333C1714.5 995.725 1715.89 991.072 1715.89 985.373C1715.89 979.592 1714.5 974.897 1711.71 971.289C1708.97 967.64 1705.03 965.816 1699.9 965.816C1694.82 965.816 1690.88 967.64 1688.1 971.289C1685.31 974.897 1683.91 979.592 1683.91 985.373C1683.91 991.072 1685.31 995.725 1688.1 999.333C1690.88 1002.9 1694.82 1004.68 1699.9 1004.68ZM1759.6 1017.23C1755.54 1017.23 1751.87 1016.84 1748.59 1016.06C1745.35 1015.28 1742.09 1014.15 1738.81 1012.68L1740.16 999.641C1743.32 1001.49 1746.42 1002.98 1749.45 1004.13C1752.53 1005.24 1755.74 1005.79 1759.11 1005.79C1762.14 1005.79 1764.46 1005.3 1766.06 1004.31C1767.65 1003.33 1768.45 1001.77 1768.45 999.641C1768.45 998.042 1768.02 996.73 1767.16 995.705C1766.34 994.68 1765.09 993.757 1763.41 992.937C1761.73 992.117 1759.64 991.236 1757.14 990.293C1753.37 988.899 1750.15 987.382 1747.48 985.742C1744.86 984.102 1742.85 982.134 1741.46 979.838C1740.1 977.501 1739.43 974.631 1739.43 971.228C1739.43 967.702 1740.35 964.586 1742.19 961.88C1744.04 959.174 1746.66 957.062 1750.07 955.545C1753.47 954.028 1757.51 953.27 1762.18 953.27C1766.08 953.27 1769.56 953.7 1772.64 954.561C1775.75 955.422 1778.62 956.591 1781.25 958.067L1779.89 971.105C1777.15 969.178 1774.38 967.599 1771.59 966.369C1768.8 965.098 1765.75 964.463 1762.43 964.463C1759.8 964.463 1757.77 964.996 1756.34 966.062C1754.9 967.128 1754.19 968.645 1754.19 970.613C1754.19 972.991 1755.19 974.774 1757.2 975.963C1759.21 977.152 1762.43 978.608 1766.86 980.33C1769.73 981.437 1772.21 982.585 1774.3 983.774C1776.43 984.963 1778.19 986.275 1779.59 987.71C1780.98 989.145 1782 990.785 1782.66 992.63C1783.36 994.434 1783.71 996.525 1783.71 998.903C1783.71 1002.8 1782.76 1006.12 1780.88 1008.87C1779.03 1011.57 1776.31 1013.64 1772.7 1015.08C1769.13 1016.51 1764.76 1017.23 1759.6 1017.23ZM1823.79 1017.23C1816.36 1017.23 1810.17 1015.75 1805.21 1012.8C1800.29 1009.81 1796.6 1005.87 1794.14 1000.99C1791.68 996.074 1790.45 990.703 1790.45 984.881C1790.45 979.264 1791.6 974.077 1793.9 969.321C1796.23 964.565 1799.64 960.752 1804.11 957.882C1808.57 954.971 1814.03 953.516 1820.46 953.516C1826.37 953.516 1831.29 954.725 1835.22 957.144C1839.16 959.563 1842.11 962.802 1844.08 966.861C1846.05 970.879 1847.03 975.328 1847.03 980.207C1847.03 981.56 1846.95 982.933 1846.79 984.327C1846.62 985.68 1846.38 987.095 1846.05 988.571H1806.32C1806.89 992.384 1808.08 995.479 1809.89 997.857C1811.73 1000.19 1813.97 1001.92 1816.59 1003.02C1819.26 1004.13 1822.1 1004.68 1825.14 1004.68C1828.71 1004.68 1832.03 1004.23 1835.1 1003.33C1838.18 1002.39 1841.01 1001.16 1843.59 999.641L1844.33 1012.56C1841.99 1013.79 1839.08 1014.87 1835.59 1015.82C1832.11 1016.76 1828.17 1017.23 1823.79 1017.23ZM1806.69 978.239H1831.53C1831.53 976.394 1831.19 974.549 1830.49 972.704C1829.79 970.818 1828.62 969.239 1826.98 967.968C1825.38 966.697 1823.21 966.062 1820.46 966.062C1816.53 966.062 1813.43 967.21 1811.18 969.506C1808.92 971.802 1807.43 974.713 1806.69 978.239ZM1897.13 1016L1879.17 954.5H1894.05L1904.63 997.427L1916.19 955.73H1928.98L1940.42 997.427L1951.12 954.5H1966.01L1948.05 1016H1935.26L1922.59 975.902L1909.92 1016H1897.13ZM1974.2 1016V923.75H1989.45V963.479L1986 960.773C1988.59 958.969 1991.4 957.308 1994.43 955.791C1997.46 954.274 2001.09 953.516 2005.31 953.516C2010.73 953.516 2015.13 954.725 2018.54 957.144C2021.94 959.522 2024.44 962.843 2026.04 967.107C2027.64 971.33 2028.44 976.23 2028.44 981.806V1016H2013.19V982.913C2013.19 977.173 2012.26 972.929 2010.42 970.182C2008.57 967.435 2005.56 966.062 2001.38 966.062C1997.81 966.062 1994.88 966.902 1992.58 968.583C1990.33 970.223 1988.34 972.458 1986.62 975.287L1989.45 967.046V1016H1974.2ZM2069.99 1017.23C2063.3 1017.23 2057.6 1015.77 2052.89 1012.86C2048.17 1009.95 2044.57 1006.08 2042.06 1001.24C2039.6 996.402 2038.37 991.113 2038.37 985.373C2038.37 979.592 2039.6 974.262 2042.06 969.383C2044.57 964.504 2048.17 960.609 2052.89 957.698C2057.6 954.746 2063.3 953.27 2069.99 953.27C2076.67 953.27 2082.37 954.746 2087.08 957.698C2091.8 960.609 2095.39 964.504 2097.85 969.383C2100.35 974.262 2101.6 979.592 2101.6 985.373C2101.6 991.113 2100.35 996.402 2097.85 1001.24C2095.39 1006.08 2091.8 1009.95 2087.08 1012.86C2082.37 1015.77 2076.67 1017.23 2069.99 1017.23ZM2069.99 1004.68C2075.11 1004.68 2079.05 1002.9 2081.79 999.333C2084.58 995.725 2085.98 991.072 2085.98 985.373C2085.98 979.592 2084.58 974.897 2081.79 971.289C2079.05 967.64 2075.11 965.816 2069.99 965.816C2064.9 965.816 2060.97 967.64 2058.18 971.289C2055.39 974.897 2054 979.592 2054 985.373C2054 991.072 2055.39 995.725 2058.18 999.333C2060.97 1002.9 2064.9 1004.68 2069.99 1004.68ZM2164.69 1017.23C2158.45 1017.23 2153.21 1015.77 2148.94 1012.86C2144.72 1009.95 2141.52 1006.08 2139.35 1001.24C2137.22 996.402 2136.15 991.113 2136.15 985.373C2136.15 979.633 2137.22 974.344 2139.35 969.506C2141.52 964.668 2144.72 960.793 2148.94 957.882C2153.21 954.971 2158.45 953.516 2164.69 953.516C2169.2 953.516 2173.01 954.274 2176.13 955.791C2179.24 957.267 2181.99 959.174 2184.37 961.511L2180.68 964.709V923.75H2195.93V1016H2181.54L2180.8 1005.54L2185.23 1008.74C2182.36 1011.37 2179.38 1013.44 2176.31 1014.95C2173.23 1016.47 2169.36 1017.23 2164.69 1017.23ZM2166.9 1004.68C2170.26 1004.68 2173.01 1003.86 2175.14 1002.22C2177.27 1000.58 2178.85 998.329 2179.88 995.459C2180.9 992.548 2181.41 989.186 2181.41 985.373C2181.41 981.56 2180.9 978.218 2179.88 975.348C2178.85 972.437 2177.27 970.162 2175.14 968.522C2173.01 966.882 2170.26 966.062 2166.9 966.062C2163.7 966.062 2160.98 966.882 2158.72 968.522C2156.47 970.162 2154.74 972.437 2153.55 975.348C2152.37 978.218 2151.77 981.56 2151.77 985.373C2151.77 989.186 2152.37 992.548 2153.55 995.459C2154.74 998.329 2156.47 1000.58 2158.72 1002.22C2160.98 1003.86 2163.7 1004.68 2166.9 1004.68ZM2239.75 1017.23C2232.33 1017.23 2226.14 1015.75 2221.18 1012.8C2216.26 1009.81 2212.57 1005.87 2210.11 1000.99C2207.65 996.074 2206.42 990.703 2206.42 984.881C2206.42 979.264 2207.57 974.077 2209.86 969.321C2212.2 964.565 2215.6 960.752 2220.07 957.882C2224.54 954.971 2229.99 953.516 2236.43 953.516C2242.33 953.516 2247.25 954.725 2251.19 957.144C2255.13 959.563 2258.08 962.802 2260.05 966.861C2262.01 970.879 2263 975.328 2263 980.207C2263 981.56 2262.92 982.933 2262.75 984.327C2262.59 985.68 2262.34 987.095 2262.01 988.571H2222.29C2222.86 992.384 2224.05 995.479 2225.85 997.857C2227.7 1000.19 2229.93 1001.92 2232.56 1003.02C2235.22 1004.13 2238.07 1004.68 2241.1 1004.68C2244.67 1004.68 2247.99 1004.23 2251.07 1003.33C2254.14 1002.39 2256.97 1001.16 2259.55 999.641L2260.29 1012.56C2257.96 1013.79 2255.04 1014.87 2251.56 1015.82C2248.07 1016.76 2244.14 1017.23 2239.75 1017.23ZM2222.65 978.239H2247.5C2247.5 976.394 2247.15 974.549 2246.46 972.704C2245.76 970.818 2244.59 969.239 2242.95 967.968C2241.35 966.697 2239.18 966.062 2236.43 966.062C2232.49 966.062 2229.4 967.21 2227.14 969.506C2224.89 971.802 2223.39 974.713 2222.65 978.239ZM2273.41 1016V954.5H2286.45L2287.43 963.479L2285.22 960.773C2287.56 958.928 2290.34 957.267 2293.58 955.791C2296.86 954.274 2300.68 953.516 2305.02 953.516C2308.3 953.516 2311.19 954.008 2313.69 954.992C2316.23 955.935 2318.41 957.308 2320.21 959.112C2322.02 960.875 2323.47 962.987 2324.58 965.447L2320.89 964.586C2322.86 961.06 2325.73 958.333 2329.5 956.406C2333.31 954.479 2337.62 953.516 2342.41 953.516C2348.07 953.516 2352.68 954.684 2356.25 957.021C2359.82 959.358 2362.44 962.659 2364.12 966.923C2365.8 971.146 2366.64 976.107 2366.64 981.806V1016H2351.39V982.913C2351.39 977.173 2350.49 972.929 2348.69 970.182C2346.92 967.435 2343.97 966.062 2339.83 966.062C2337.78 966.062 2335.98 966.431 2334.42 967.169C2332.9 967.866 2331.63 968.911 2330.61 970.305C2329.62 971.658 2328.88 973.319 2328.39 975.287C2327.9 977.214 2327.65 979.387 2327.65 981.806V1016H2312.4V982.913C2312.4 979.1 2311.99 975.943 2311.17 973.442C2310.39 970.941 2309.12 969.096 2307.36 967.907C2305.64 966.677 2303.38 966.062 2300.59 966.062C2297.03 966.062 2294.09 966.902 2291.8 968.583C2289.54 970.223 2287.56 972.458 2285.83 975.287L2288.66 967.046V1016H2273.41ZM2393.6 1017.23C2390.32 1017.23 2387.33 1016.51 2384.62 1015.08C2381.91 1013.6 2379.76 1011.49 2378.16 1008.74C2376.56 1006 2375.76 1002.67 2375.76 998.78C2375.76 995.295 2376.56 992.322 2378.16 989.862C2379.8 987.361 2381.93 985.291 2384.56 983.651C2387.22 981.97 2390.09 980.658 2393.17 979.715C2396.28 978.731 2399.34 978.013 2402.33 977.562C2405.37 977.111 2408.03 976.845 2410.33 976.763C2410.16 973.237 2409.26 970.674 2407.62 969.075C2405.98 967.476 2403.19 966.677 2399.26 966.677C2396.51 966.677 2393.82 967.066 2391.2 967.845C2388.62 968.583 2385.69 969.752 2382.41 971.351L2381.05 958.928C2384.74 957.124 2388.43 955.771 2392.12 954.869C2395.85 953.967 2399.63 953.516 2403.44 953.516C2408.03 953.516 2411.99 954.336 2415.31 955.976C2418.63 957.616 2421.19 960.26 2423 963.909C2424.8 967.517 2425.7 972.294 2425.7 978.239V994.844C2425.7 997.919 2425.85 1000.15 2426.13 1001.55C2426.42 1002.9 2426.95 1003.76 2427.73 1004.13C2428.51 1004.5 2429.64 1004.68 2431.11 1004.68H2433.08L2431.73 1017.23H2426.19C2423.9 1017.23 2421.85 1016.92 2420.04 1016.31C2418.28 1015.73 2416.76 1014.91 2415.49 1013.85C2414.22 1012.78 2413.2 1011.53 2412.42 1010.1C2410.41 1012.35 2407.68 1014.11 2404.24 1015.38C2400.84 1016.62 2397.29 1017.23 2393.6 1017.23ZM2399.99 1005.54C2401.35 1005.54 2403.03 1005.2 2405.04 1004.5C2407.05 1003.76 2408.85 1002.63 2410.45 1001.12V987.095C2407.58 987.218 2404.71 987.689 2401.84 988.509C2398.97 989.329 2396.57 990.539 2394.64 992.138C2392.72 993.737 2391.75 995.746 2391.75 998.165C2391.75 1000.67 2392.41 1002.53 2393.72 1003.76C2395.03 1004.95 2397.12 1005.54 2399.99 1005.54ZM2441.57 1016V954.5H2455.84L2456.46 965.939L2452.89 961.265C2455.23 959.297 2458.02 957.513 2461.25 955.914C2464.49 954.315 2468.27 953.516 2472.57 953.516C2480.44 953.516 2486.28 956.14 2490.1 961.388C2493.91 966.595 2495.82 973.36 2495.82 981.683V1016H2480.57V982.913C2480.57 977.173 2479.6 972.929 2477.67 970.182C2475.79 967.435 2472.69 966.062 2468.39 966.062C2464.9 966.062 2462.05 966.923 2459.84 968.645C2457.63 970.326 2455.68 972.581 2454 975.41L2456.83 967.907V1016H2441.57ZM2534.29 1017.23C2528.05 1017.23 2522.81 1015.77 2518.54 1012.86C2514.32 1009.95 2511.12 1006.08 2508.95 1001.24C2506.82 996.402 2505.75 991.113 2505.75 985.373C2505.75 979.633 2506.82 974.344 2508.95 969.506C2511.12 964.668 2514.32 960.793 2518.54 957.882C2522.81 954.971 2528.05 953.516 2534.29 953.516C2538.8 953.516 2542.61 954.274 2545.73 955.791C2548.84 957.267 2551.59 959.174 2553.97 961.511L2550.28 964.709V923.75H2565.53V1016H2551.14L2550.4 1005.54L2554.83 1008.74C2551.96 1011.37 2548.99 1013.44 2545.91 1014.95C2542.84 1016.47 2538.96 1017.23 2534.29 1017.23ZM2536.5 1004.68C2539.86 1004.68 2542.61 1003.86 2544.74 1002.22C2546.87 1000.58 2548.45 998.329 2549.48 995.459C2550.5 992.548 2551.01 989.186 2551.01 985.373C2551.01 981.56 2550.5 978.218 2549.48 975.348C2548.45 972.437 2546.87 970.162 2544.74 968.522C2542.61 966.882 2539.86 966.062 2536.5 966.062C2533.3 966.062 2530.58 966.882 2528.32 968.522C2526.07 970.162 2524.34 972.437 2523.16 975.348C2521.97 978.218 2521.37 981.56 2521.37 985.373C2521.37 989.186 2521.97 992.548 2523.16 995.459C2524.34 998.329 2526.07 1000.58 2528.32 1002.22C2530.58 1003.86 2533.3 1004.68 2536.5 1004.68ZM2627.39 1017.23C2623.53 1017.23 2620.39 1016.45 2617.98 1014.89C2615.56 1013.29 2613.77 1011.26 2612.63 1008.8C2611.48 1006.34 2610.9 1003.78 2610.9 1001.12V967.046H2602.17L2603.52 954.5H2610.9V940.97L2626.16 939.371V954.5H2639.69V967.046H2626.16V994.844C2626.16 997.96 2626.34 1000.21 2626.71 1001.61C2627.08 1002.96 2627.92 1003.82 2629.23 1004.19C2630.54 1004.52 2632.63 1004.68 2635.5 1004.68H2639.69L2638.33 1017.23H2627.39ZM2649.49 1016V923.75H2664.75V963.479L2661.3 960.773C2663.89 958.969 2666.69 957.308 2669.73 955.791C2672.76 954.274 2676.39 953.516 2680.61 953.516C2686.03 953.516 2690.43 954.725 2693.84 957.144C2697.24 959.522 2699.74 962.843 2701.34 967.107C2702.94 971.33 2703.74 976.23 2703.74 981.806V1016H2688.49V982.913C2688.49 977.173 2687.56 972.929 2685.72 970.182C2683.87 967.435 2680.86 966.062 2676.68 966.062C2673.11 966.062 2670.18 966.902 2667.88 968.583C2665.63 970.223 2663.64 972.458 2661.92 975.287L2664.75 967.046V1016H2649.49ZM2747.01 1017.23C2739.59 1017.23 2733.39 1015.75 2728.43 1012.8C2723.51 1009.81 2719.82 1005.87 2717.36 1000.99C2714.9 996.074 2713.67 990.703 2713.67 984.881C2713.67 979.264 2714.82 974.077 2717.12 969.321C2719.45 964.565 2722.86 960.752 2727.33 957.882C2731.8 954.971 2737.25 953.516 2743.69 953.516C2749.59 953.516 2754.51 954.725 2758.45 957.144C2762.38 959.563 2765.33 962.802 2767.3 966.861C2769.27 970.879 2770.25 975.328 2770.25 980.207C2770.25 981.56 2770.17 982.933 2770.01 984.327C2769.84 985.68 2769.6 987.095 2769.27 988.571H2729.54C2730.11 992.384 2731.3 995.479 2733.11 997.857C2734.95 1000.19 2737.19 1001.92 2739.81 1003.02C2742.48 1004.13 2745.33 1004.68 2748.36 1004.68C2751.93 1004.68 2755.25 1004.23 2758.32 1003.33C2761.4 1002.39 2764.23 1001.16 2766.81 999.641L2767.55 1012.56C2765.21 1013.79 2762.3 1014.87 2758.81 1015.82C2755.33 1016.76 2751.39 1017.23 2747.01 1017.23ZM2729.91 978.239H2754.76C2754.76 976.394 2754.41 974.549 2753.71 972.704C2753.01 970.818 2751.84 969.239 2750.2 967.968C2748.61 966.697 2746.43 966.062 2743.69 966.062C2739.75 966.062 2736.65 967.21 2734.4 969.506C2732.14 971.802 2730.65 974.713 2729.91 978.239ZM2808.29 1016V954.5H2823.54V1016H2808.29ZM2808.29 945.152V929.9H2823.54V945.152H2808.29ZM2837.84 1016V954.5H2850.88L2851.86 963.479L2849.65 960.773C2851.99 958.928 2854.77 957.267 2858.01 955.791C2861.29 954.274 2865.11 953.516 2869.45 953.516C2872.73 953.516 2875.62 954.008 2878.12 954.992C2880.67 955.935 2882.84 957.308 2884.64 959.112C2886.45 960.875 2887.9 962.987 2889.01 965.447L2885.32 964.586C2887.29 961.06 2890.16 958.333 2893.93 956.406C2897.74 954.479 2902.05 953.516 2906.84 953.516C2912.5 953.516 2917.11 954.684 2920.68 957.021C2924.25 959.358 2926.87 962.659 2928.55 966.923C2930.23 971.146 2931.08 976.107 2931.08 981.806V1016H2915.82V982.913C2915.82 977.173 2914.92 972.929 2913.12 970.182C2911.35 967.435 2908.4 966.062 2904.26 966.062C2902.21 966.062 2900.41 966.431 2898.85 967.169C2897.33 967.866 2896.06 968.911 2895.04 970.305C2894.05 971.658 2893.31 973.319 2892.82 975.287C2892.33 977.214 2892.08 979.387 2892.08 981.806V1016H2876.83V982.913C2876.83 979.1 2876.42 975.943 2875.6 973.442C2874.82 970.941 2873.55 969.096 2871.79 967.907C2870.07 966.677 2867.81 966.062 2865.02 966.062C2861.46 966.062 2858.53 966.902 2856.23 968.583C2853.97 970.223 2851.99 972.458 2850.26 975.287L2853.09 967.046V1016H2837.84ZM2944.75 1045.77V954.5H2957.05L2960 964.709L2955.45 963.11C2958.28 960.199 2961.35 957.882 2964.67 956.16C2967.99 954.397 2972.05 953.516 2976.85 953.516C2982.88 953.516 2987.94 954.971 2992.04 957.882C2996.14 960.793 2999.23 964.668 3001.33 969.506C3003.46 974.344 3004.52 979.633 3004.52 985.373C3004.52 991.113 3003.46 996.402 3001.33 1001.24C2999.23 1006.08 2996.14 1009.95 2992.04 1012.86C2987.94 1015.77 2982.88 1017.23 2976.85 1017.23C2972.05 1017.23 2968.16 1016.57 2965.16 1015.26C2962.17 1013.95 2959.14 1011.86 2956.06 1008.99L2960 1005.91V1045.77H2944.75ZM2974.51 1004.68C2979.06 1004.68 2982.59 1002.9 2985.09 999.333C2987.63 995.725 2988.9 991.072 2988.9 985.373C2988.9 979.633 2987.63 974.979 2985.09 971.412C2982.59 967.845 2979.06 966.062 2974.51 966.062C2970.99 966.062 2968.09 966.882 2965.84 968.522C2963.58 970.162 2961.92 972.437 2960.86 975.348C2959.79 978.218 2959.26 981.56 2959.26 985.373C2959.26 989.186 2959.79 992.548 2960.86 995.459C2961.92 998.329 2963.58 1000.58 2965.84 1002.22C2968.09 1003.86 2970.99 1004.68 2974.51 1004.68ZM3043.06 1017.23C3036.37 1017.23 3030.67 1015.77 3025.96 1012.86C3021.24 1009.95 3017.64 1006.08 3015.13 1001.24C3012.67 996.402 3011.44 991.113 3011.44 985.373C3011.44 979.592 3012.67 974.262 3015.13 969.383C3017.64 964.504 3021.24 960.609 3025.96 957.698C3030.67 954.746 3036.37 953.27 3043.06 953.27C3049.74 953.27 3055.44 954.746 3060.15 957.698C3064.87 960.609 3068.45 964.504 3070.91 969.383C3073.42 974.262 3074.67 979.592 3074.67 985.373C3074.67 991.113 3073.42 996.402 3070.91 1001.24C3068.45 1006.08 3064.87 1009.95 3060.15 1012.86C3055.44 1015.77 3049.74 1017.23 3043.06 1017.23ZM3043.06 1004.68C3048.18 1004.68 3052.12 1002.9 3054.86 999.333C3057.65 995.725 3059.05 991.072 3059.05 985.373C3059.05 979.592 3057.65 974.897 3054.86 971.289C3052.12 967.64 3048.18 965.816 3043.06 965.816C3037.97 965.816 3034.04 967.64 3031.25 971.289C3028.46 974.897 3027.07 979.592 3027.07 985.373C3027.07 991.072 3028.46 995.725 3031.25 999.333C3034.04 1002.9 3037.97 1004.68 3043.06 1004.68ZM3102.75 1017.23C3098.69 1017.23 3095.02 1016.84 3091.74 1016.06C3088.5 1015.28 3085.24 1014.15 3081.96 1012.68L3083.31 999.641C3086.47 1001.49 3089.57 1002.98 3092.6 1004.13C3095.68 1005.24 3098.89 1005.79 3102.26 1005.79C3105.29 1005.79 3107.61 1005.3 3109.21 1004.31C3110.8 1003.33 3111.6 1001.77 3111.6 999.641C3111.6 998.042 3111.17 996.73 3110.31 995.705C3109.49 994.68 3108.24 993.757 3106.56 992.937C3104.88 992.117 3102.79 991.236 3100.29 990.293C3096.52 988.899 3093.3 987.382 3090.63 985.742C3088.01 984.102 3086 982.134 3084.61 979.838C3083.25 977.501 3082.58 974.631 3082.58 971.228C3082.58 967.702 3083.5 964.586 3085.34 961.88C3087.19 959.174 3089.81 957.062 3093.22 955.545C3096.62 954.028 3100.66 953.27 3105.33 953.27C3109.23 953.27 3112.71 953.7 3115.79 954.561C3118.9 955.422 3121.77 956.591 3124.4 958.067L3123.04 971.105C3120.3 969.178 3117.53 967.599 3114.74 966.369C3111.95 965.098 3108.9 964.463 3105.58 964.463C3102.95 964.463 3100.92 964.996 3099.49 966.062C3098.05 967.128 3097.34 968.645 3097.34 970.613C3097.34 972.991 3098.34 974.774 3100.35 975.963C3102.36 977.152 3105.58 978.608 3110.01 980.33C3112.88 981.437 3115.36 982.585 3117.45 983.774C3119.58 984.963 3121.34 986.275 3122.74 987.71C3124.13 989.145 3125.15 990.785 3125.81 992.63C3126.51 994.434 3126.86 996.525 3126.86 998.903C3126.86 1002.8 3125.91 1006.12 3124.03 1008.87C3122.18 1011.57 3119.46 1013.64 3115.85 1015.08C3112.28 1016.51 3107.91 1017.23 3102.75 1017.23ZM3154.76 1017.23C3150.7 1017.23 3147.03 1016.84 3143.75 1016.06C3140.51 1015.28 3137.25 1014.15 3133.97 1012.68L3135.33 999.641C3138.48 1001.49 3141.58 1002.98 3144.61 1004.13C3147.69 1005.24 3150.91 1005.79 3154.27 1005.79C3157.3 1005.79 3159.62 1005.3 3161.22 1004.31C3162.82 1003.33 3163.62 1001.77 3163.62 999.641C3163.62 998.042 3163.18 996.73 3162.32 995.705C3161.5 994.68 3160.25 993.757 3158.57 992.937C3156.89 992.117 3154.8 991.236 3152.3 990.293C3148.53 988.899 3145.31 987.382 3142.64 985.742C3140.02 984.102 3138.01 982.134 3136.62 979.838C3135.26 977.501 3134.59 974.631 3134.59 971.228C3134.59 967.702 3135.51 964.586 3137.35 961.88C3139.2 959.174 3141.82 957.062 3145.23 955.545C3148.63 954.028 3152.67 953.27 3157.34 953.27C3161.24 953.27 3164.72 953.7 3167.8 954.561C3170.91 955.422 3173.78 956.591 3176.41 958.067L3175.05 971.105C3172.31 969.178 3169.54 967.599 3166.75 966.369C3163.96 965.098 3160.91 964.463 3157.59 964.463C3154.96 964.463 3152.93 964.996 3151.5 966.062C3150.06 967.128 3149.35 968.645 3149.35 970.613C3149.35 972.991 3150.35 974.774 3152.36 975.963C3154.37 977.152 3157.59 978.608 3162.02 980.33C3164.89 981.437 3167.37 982.585 3169.46 983.774C3171.59 984.963 3173.35 986.275 3174.75 987.71C3176.14 989.145 3177.17 990.785 3177.82 992.63C3178.52 994.434 3178.87 996.525 3178.87 998.903C3178.87 1002.8 3177.92 1006.12 3176.04 1008.87C3174.19 1011.57 3171.47 1013.64 3167.86 1015.08C3164.29 1016.51 3159.93 1017.23 3154.76 1017.23ZM3189.3 1016V954.5H3204.56V1016H3189.3ZM3189.3 945.152V929.9H3204.56V945.152H3189.3ZM3250.83 1017.23C3246.16 1017.23 3242.12 1016.47 3238.72 1014.95C3235.31 1013.44 3232.14 1011.37 3229.18 1008.74L3233.74 1005.54L3233 1016H3218.73V923.75H3233.98V964.709L3230.29 962.372C3233 959.584 3236.01 957.411 3239.33 955.853C3242.69 954.295 3246.53 953.516 3250.83 953.516C3256.86 953.516 3261.92 954.971 3266.02 957.882C3270.12 960.793 3273.22 964.668 3275.31 969.506C3277.44 974.344 3278.51 979.633 3278.51 985.373C3278.51 991.113 3277.44 996.402 3275.31 1001.24C3273.22 1006.08 3270.12 1009.95 3266.02 1012.86C3261.92 1015.77 3256.86 1017.23 3250.83 1017.23ZM3248.62 1004.68C3251.65 1004.68 3254.24 1003.86 3256.37 1002.22C3258.5 1000.58 3260.12 998.329 3261.23 995.459C3262.33 992.548 3262.89 989.186 3262.89 985.373C3262.89 981.56 3262.33 978.218 3261.23 975.348C3260.12 972.437 3258.5 970.162 3256.37 968.522C3254.24 966.882 3251.65 966.062 3248.62 966.062C3245.05 966.062 3242.14 966.882 3239.89 968.522C3237.63 970.162 3235.95 972.437 3234.84 975.348C3233.78 978.218 3233.24 981.56 3233.24 985.373C3233.24 989.186 3233.78 992.548 3234.84 995.459C3235.95 998.329 3237.63 1000.58 3239.89 1002.22C3242.14 1003.86 3245.05 1004.68 3248.62 1004.68ZM3304.87 1017.23C3301.22 1017.23 3298.22 1016.51 3295.89 1015.08C3293.59 1013.6 3291.89 1011.65 3290.78 1009.23C3289.67 1006.77 3289.12 1004.07 3289.12 1001.12V923.75H3304.37V994.844C3304.37 998.124 3304.56 1000.46 3304.93 1001.85C3305.34 1003.21 3306.07 1004.03 3307.14 1004.31C3308.21 1004.56 3309.74 1004.68 3311.75 1004.68L3310.4 1017.23H3304.87ZM3350.48 1017.23C3343.05 1017.23 3336.86 1015.75 3331.9 1012.8C3326.98 1009.81 3323.29 1005.87 3320.83 1000.99C3318.37 996.074 3317.14 990.703 3317.14 984.881C3317.14 979.264 3318.29 974.077 3320.59 969.321C3322.92 964.565 3326.33 960.752 3330.8 957.882C3335.26 954.971 3340.72 953.516 3347.15 953.516C3353.06 953.516 3357.98 954.725 3361.91 957.144C3365.85 959.563 3368.8 962.802 3370.77 966.861C3372.74 970.879 3373.72 975.328 3373.72 980.207C3373.72 981.56 3373.64 982.933 3373.48 984.327C3373.31 985.68 3373.07 987.095 3372.74 988.571H3333.01C3333.58 992.384 3334.77 995.479 3336.58 997.857C3338.42 1000.19 3340.66 1001.92 3343.28 1003.02C3345.94 1004.13 3348.79 1004.68 3351.83 1004.68C3355.4 1004.68 3358.72 1004.23 3361.79 1003.33C3364.87 1002.39 3367.7 1001.16 3370.28 999.641L3371.02 1012.56C3368.68 1013.79 3365.77 1014.87 3362.28 1015.82C3358.8 1016.76 3354.86 1017.23 3350.48 1017.23ZM3333.38 978.239H3358.22C3358.22 976.394 3357.88 974.549 3357.18 972.704C3356.48 970.818 3355.31 969.239 3353.67 967.968C3352.07 966.697 3349.9 966.062 3347.15 966.062C3343.22 966.062 3340.12 967.21 3337.87 969.506C3335.61 971.802 3334.12 974.713 3333.38 978.239Z" fill="white"/>
<path d="M98.2 373.8C91.8 373.8 85.6667 372.733 79.8 370.6C73.9333 368.733 69.1333 365.4 65.4 360.6C61.6667 355.8 59.8 349.267 59.8 341V247C59.8 240.6 59.4 235.8 58.6 232.6C57.8 229.4 55.9333 227.4 53 226.6C50.0667 225.533 45.5333 225 39.4 225C38.3333 225 37.8 224.2 37.8 222.6C37.8 220.733 38.3333 219.8 39.4 219.8C50.0667 219.533 58.7333 216.6 65.4 211C72.3333 205.4 76.2 198.2 77 189.4C77 188.6 77.9333 188.2 79.8 188.2C81.9333 188.2 83 188.6 83 189.4V327.4C83 338.333 85.6667 346.467 91 351.8C96.6 357.133 104.467 359.8 114.6 359.8C121.533 359.8 127.667 358.733 133 356.6C138.6 354.2 143.133 351.533 146.6 348.6C147.667 348.067 148.6 348.467 149.4 349.8C150.467 350.867 150.467 351.8 149.4 352.6C139.533 360.067 130.6 365.533 122.6 369C114.867 372.2 106.733 373.8 98.2 373.8ZM137 234.2C126.6 231.533 116.6 229.8 107 229C97.4 228.2 87.1333 227.8 76.2 227.8V219C86.8667 219 97.1333 218.6 107 217.8C116.867 217 127.4 216.067 138.6 215C139.133 215 139.667 215.933 140.2 217.8C141 219.667 141.4 221.933 141.4 224.6C141.4 226.467 140.867 228.6 139.8 231C139 233.4 138.067 234.467 137 234.2ZM168.556 369C167.756 369 167.356 368.2 167.356 366.6C167.356 365 167.756 364.2 168.556 364.2C178.956 364.2 185.756 362.467 188.956 359C192.156 355.267 193.756 347.8 193.756 336.6V129.8C193.756 120.467 192.823 113.667 190.956 109.4C189.09 104.867 185.756 102.6 180.956 102.6C176.956 102.6 170.823 104.467 162.556 108.2C161.49 108.733 160.556 108.333 159.756 107C159.223 105.4 159.49 104.333 160.556 103.8L211.356 79C211.89 79 212.156 79 212.156 79C212.156 79 212.29 79 212.556 79C213.356 79 214.156 79.4 214.956 80.2C215.756 80.7333 216.156 81.4 216.156 82.2V336.6C216.156 347.8 217.756 355.267 220.956 359C224.156 362.467 230.956 364.2 241.356 364.2C242.156 364.2 242.556 365 242.556 366.6C242.556 368.2 242.156 369 241.356 369C236.556 369 231.09 368.867 224.956 368.6C218.823 368.333 212.156 368.2 204.956 368.2C198.023 368.2 191.356 368.333 184.956 368.6C178.556 368.867 173.09 369 168.556 369ZM276.156 369C275.356 369 274.956 368.2 274.956 366.6C274.956 365 275.356 364.2 276.156 364.2C286.556 364.2 293.356 362.467 296.556 359C299.756 355.267 301.356 347.8 301.356 336.6V273C301.356 241.8 289.09 226.2 264.556 226.2C254.69 226.2 244.69 229.4 234.556 235.8C224.423 241.933 215.756 250.333 208.556 261L206.956 256.2C218.69 240.2 230.29 228.6 241.756 221.4C253.49 214.2 265.49 210.6 277.756 210.6C292.423 210.6 303.756 214.733 311.756 223C319.756 231 323.756 243 323.756 259V336.6C323.756 347.8 325.356 355.267 328.556 359C331.756 362.467 338.556 364.2 348.956 364.2C349.756 364.2 350.156 365 350.156 366.6C350.156 368.2 349.756 369 348.956 369C344.156 369 338.69 368.867 332.556 368.6C326.423 368.333 319.756 368.2 312.556 368.2C305.623 368.2 298.956 368.333 292.556 368.6C286.156 368.867 280.69 369 276.156 369ZM447.366 373.8C430.832 373.8 416.966 370.2 405.766 363C394.566 355.533 386.166 345.933 380.566 334.2C374.966 322.467 372.166 310.067 372.166 297C372.166 280.733 375.899 266.2 383.366 253.4C391.099 240.333 401.366 230.067 414.166 222.6C427.232 214.867 441.899 211 458.166 211C472.832 211 484.032 214.6 491.766 221.8C499.766 228.733 503.766 238.333 503.766 250.6C503.766 253.533 503.499 255.8 502.966 257.4C502.432 259 501.099 259.8 498.966 259.8H475.766C476.832 246.733 474.432 236.733 468.566 229.8C462.966 222.6 454.966 219 444.566 219C429.632 219 418.166 224.6 410.166 235.8C402.432 247 398.566 262.2 398.566 281.4C398.566 296.6 400.966 310.067 405.766 321.8C410.832 333.533 418.032 342.867 427.366 349.8C436.966 356.467 448.299 359.8 461.366 359.8C468.299 359.8 475.366 358.733 482.566 356.6C489.766 354.467 496.566 351.133 502.966 346.6C503.499 346.067 504.166 346.467 504.966 347.8C506.032 348.867 506.299 349.8 505.766 350.6C496.166 358.867 486.566 364.867 476.966 368.6C467.366 372.067 457.499 373.8 447.366 373.8ZM391.366 260.6L390.966 255.4L482.166 253.4V259.8L391.366 260.6Z" fill="white"/>
<path d="M336.8 389.2C359.2 389.2 383.2 391.067 408.8 394.8C434.933 398.533 455.467 403.867 470.4 410.8C475.2 412.4 478.4 414.533 480 417.2C481.6 419.333 482.667 423.333 483.2 429.2L492.8 540.4C492.8 542 491.467 543.067 488.8 543.6C486.667 544.133 485.067 543.333 484 541.2C466.4 500.133 442.4 467.867 412 444.4C382.133 420.933 346.667 409.2 305.6 409.2C269.867 409.2 239.467 418.267 214.4 436.4C189.867 454.533 171.2 479.867 158.4 512.4C146.133 544.4 140 581.733 140 624.4C140 661.2 144.533 695.867 153.6 728.4C162.667 760.4 175.467 788.667 192 813.2C208.533 837.2 228.267 856.133 251.2 870C274.133 883.867 299.467 890.8 327.2 890.8C361.333 890.8 391.733 879.6 418.4 857.2C445.6 834.8 469.867 800.133 491.2 753.2C492.267 751.067 494.133 750.267 496.8 750.8C499.467 751.333 500.8 752.4 500.8 754L488.8 862.8C487.733 869.2 486.4 873.467 484.8 875.6C483.733 877.2 480.8 879.067 476 881.2C451.467 890.267 426.667 896.933 401.6 901.2C377.067 905.467 353.067 907.6 329.6 907.6C277.867 907.6 233.6 899.867 196.8 884.4C160 868.4 129.867 847.6 106.4 822C83.4667 795.867 66.4 767.6 55.2 737.2C44.5333 706.267 39.2 675.867 39.2 646C39.2 606.533 47.2 571.067 63.2 539.6C79.7333 508.133 101.867 481.2 129.6 458.8C157.867 436.4 189.6 419.333 224.8 407.6C260.533 395.333 297.867 389.2 336.8 389.2ZM724.756 908.4C691.156 908.4 662.09 900.667 637.556 885.2C613.023 869.733 594.09 849.2 580.756 823.6C567.423 797.467 560.756 769.467 560.756 739.6C560.756 711.867 566.09 687.867 576.756 667.6C587.423 647.333 601.556 630.8 619.156 618C636.756 604.667 655.956 594.8 676.756 588.4C697.556 582 718.09 578.8 738.356 578.8C772.49 578.8 801.556 586.8 825.556 602.8C850.09 618.8 868.756 639.333 881.556 664.4C894.356 689.467 900.756 716.133 900.756 744.4C900.756 776.933 892.49 805.733 875.956 830.8C859.956 855.333 838.623 874.533 811.956 888.4C785.29 901.733 756.223 908.4 724.756 908.4ZM748.756 891.6C770.09 891.6 786.09 881.2 796.756 860.4C807.423 839.6 812.756 810.267 812.756 772.4C812.756 733.467 807.69 700.933 797.556 674.8C787.956 648.667 775.423 628.933 759.956 615.6C744.49 602.267 728.223 595.6 711.156 595.6C690.356 595.6 674.356 604.933 663.156 623.6C652.49 642.267 647.156 671.067 647.156 710C647.156 746.267 651.69 778.267 660.756 806C669.823 833.2 682.09 854.267 697.556 869.2C713.023 884.133 730.09 891.6 748.756 891.6ZM1172.96 898C1171.36 898 1170.56 896.4 1170.56 893.2C1170.56 890 1171.36 888.4 1172.96 888.4C1189.5 888.4 1200.7 884.667 1206.56 877.2C1212.43 869.2 1215.36 854.533 1215.36 833.2V718C1215.36 689.2 1210.03 667.867 1199.36 654C1189.23 640.133 1172.96 633.2 1150.56 633.2C1134.56 633.2 1118.03 637.2 1100.96 645.2C1084.43 653.2 1071.1 664.133 1060.96 678L1056.96 668.4C1075.63 641.733 1096.7 620.4 1120.16 604.4C1143.63 587.867 1169.23 579.6 1196.96 579.6C1226.83 579.6 1249.76 588.933 1265.76 607.6C1282.3 626.267 1290.56 650.267 1290.56 679.6V833.2C1290.56 854.533 1293.5 869.2 1299.36 877.2C1305.76 884.667 1317.23 888.4 1333.76 888.4C1335.36 888.4 1336.16 890 1336.16 893.2C1336.16 896.4 1335.36 898 1333.76 898C1323.1 898 1310.83 897.733 1296.96 897.2C1283.1 896.667 1268.43 896.4 1252.96 896.4C1238.03 896.4 1223.63 896.667 1209.76 897.2C1195.9 897.733 1183.63 898 1172.96 898ZM957.763 898C956.163 898 955.363 896.4 955.363 893.2C955.363 890 956.163 888.4 957.763 888.4C974.296 888.4 985.496 884.667 991.363 877.2C997.229 869.2 1000.16 854.533 1000.16 833.2V682.8C1000.16 666.267 998.296 654.267 994.563 646.8C990.829 638.8 984.429 634.8 975.363 634.8C970.563 634.8 964.963 635.867 958.563 638C952.163 639.6 944.963 642.267 936.963 646C934.829 647.067 933.229 646 932.163 642.8C931.096 639.6 931.096 637.733 932.163 637.2L1043.36 582.8C1046.56 581.733 1048.43 581.2 1048.96 581.2C1054.83 581.2 1060.7 587.6 1066.56 600.4C1072.43 613.2 1075.36 631.6 1075.36 655.6V833.2C1075.36 854.533 1078.3 869.2 1084.16 877.2C1090.56 884.667 1102.03 888.4 1118.56 888.4C1120.16 888.4 1120.96 890 1120.96 893.2C1120.96 896.4 1120.16 898 1118.56 898C1107.9 898 1095.63 897.733 1081.76 897.2C1067.9 896.667 1053.23 896.4 1037.76 896.4C1022.83 896.4 1008.43 896.667 994.563 897.2C980.696 897.733 968.429 898 957.763 898ZM1369.26 898C1367.12 898 1366.06 896.4 1366.06 893.2C1366.06 890 1367.12 888.4 1369.26 888.4C1389.52 888.4 1402.59 884.933 1408.46 878C1414.32 871.067 1417.26 856.133 1417.26 833.2V653.2C1417.26 641.467 1415.66 632.933 1412.46 627.6C1409.26 621.733 1403.92 618 1396.46 616.4C1388.99 614.267 1378.86 613.2 1366.06 613.2C1364.46 613.2 1363.66 610.8 1363.66 606C1363.66 601.2 1364.46 598.8 1366.06 598.8C1384.72 598.8 1397.52 596.4 1404.46 591.6C1411.39 586.267 1415.12 576.933 1415.66 563.6C1418.32 504.4 1427.66 456.933 1443.66 421.2C1459.66 384.933 1482.32 358.533 1511.66 342C1540.99 325.467 1576.46 317.2 1618.06 317.2C1654.86 317.2 1683.39 322.8 1703.66 334C1724.46 345.2 1734.86 360.133 1734.86 378.8C1734.86 388.4 1731.66 396.667 1725.26 403.6C1718.86 410 1708.99 413.2 1695.66 413.2C1681.79 413.2 1671.39 409.2 1664.46 401.2C1657.52 393.2 1651.39 383.867 1646.06 373.2C1640.72 362.533 1634.06 353.2 1626.06 345.2C1618.59 337.2 1607.39 333.2 1592.46 333.2C1575.39 333.2 1559.12 340.4 1543.66 354.8C1528.19 369.2 1515.66 392.133 1506.06 423.6C1496.99 455.067 1492.46 496.133 1492.46 546.8V833.2C1492.46 848.667 1494.06 860.4 1497.26 868.4C1500.46 876.4 1507.12 881.733 1517.26 884.4C1527.39 887.067 1542.86 888.4 1563.66 888.4C1565.79 888.4 1566.86 890 1566.86 893.2C1566.86 896.4 1565.79 898 1563.66 898C1544.99 898 1526.59 897.733 1508.46 897.2C1490.86 896.667 1472.72 896.4 1454.06 896.4C1438.59 896.4 1423.39 896.667 1408.46 897.2C1394.06 897.733 1380.99 898 1369.26 898ZM1578.06 630C1557.26 625.2 1537.26 622 1518.06 620.4C1499.39 618.267 1479.39 617.2 1458.06 617.2V596.4C1478.32 596.4 1498.32 595.6 1518.06 594C1537.79 592.4 1558.59 590.533 1580.46 588.4C1582.06 588.4 1583.39 590.533 1584.46 594.8C1585.52 598.533 1586.06 602.8 1586.06 607.6C1586.06 612.933 1584.99 618.267 1582.86 623.6C1581.26 628.4 1579.66 630.533 1578.06 630ZM1623.66 898C1622.59 898 1622.06 896.4 1622.06 893.2C1622.06 890 1622.59 888.4 1623.66 888.4C1640.19 888.4 1651.39 884.667 1657.26 877.2C1663.66 869.2 1666.86 854.533 1666.86 833.2V690C1666.86 664.4 1663.12 648.667 1655.66 642.8C1648.19 636.4 1634.06 638 1613.26 647.6C1611.12 648.133 1609.26 646.8 1607.66 643.6C1606.59 640.4 1606.59 638.533 1607.66 638L1728.46 582C1731.12 580.4 1734.32 581.2 1738.06 584.4C1741.79 587.067 1743.66 589.733 1743.66 592.4C1743.66 598.8 1743.12 609.467 1742.06 624.4C1741.52 639.333 1741.26 660.667 1741.26 688.4V833.2C1741.26 854.533 1744.19 869.2 1750.06 877.2C1756.46 884.667 1767.92 888.4 1784.46 888.4C1786.59 888.4 1787.66 890 1787.66 893.2C1787.66 896.4 1786.59 898 1784.46 898C1773.79 898 1761.52 897.733 1747.66 897.2C1734.32 896.667 1719.92 896.4 1704.46 896.4C1688.99 896.4 1674.32 896.667 1660.46 897.2C1646.59 897.733 1634.32 898 1623.66 898ZM1955.11 908.4C1932.17 908.4 1911.11 902.267 1891.91 890C1873.24 877.733 1858.04 860.133 1846.31 837.2C1835.11 813.733 1829.51 785.467 1829.51 752.4C1829.51 719.867 1835.37 692.667 1847.11 670.8C1858.84 648.4 1873.77 630.533 1891.91 617.2C1910.57 603.867 1930.57 594.267 1951.91 588.4C1973.24 582 1993.51 578.8 2012.71 578.8C2031.91 578.8 2049.77 581.2 2066.31 586C2082.84 590.8 2097.77 596.667 2111.11 603.6L2092.71 668.4C2081.51 644.4 2068.71 627.067 2054.31 616.4C2039.91 605.2 2022.04 599.6 2000.71 599.6C1973.51 599.6 1951.91 609.2 1935.91 628.4C1919.91 647.067 1911.91 679.867 1911.91 726.8C1911.91 757.2 1915.64 783.067 1923.11 804.4C1930.57 825.733 1940.97 842 1954.31 853.2C1967.64 864.4 1982.57 870 1999.11 870C2020.44 870 2039.11 864.133 2055.11 852.4C2071.11 840.667 2086.57 826.533 2101.51 810L2109.51 817.2C2098.31 830 2084.97 843.6 2069.51 858C2054.57 871.867 2037.51 883.867 2018.31 894C1999.64 903.6 1978.57 908.4 1955.11 908.4ZM2150.31 328.4V805.2C2150.31 823.333 2151.91 836.133 2155.11 843.6C2158.84 851.067 2164.71 854.8 2172.71 854.8C2176.44 854.8 2180.97 854 2186.31 852.4C2192.17 850.8 2198.57 848.667 2205.51 846C2207.11 844.933 2208.71 846 2210.31 849.2C2211.91 851.867 2212.17 853.733 2211.11 854.8L2100.71 908.4C2099.11 908.933 2097.77 909.2 2096.71 909.2C2091.37 909.2 2086.31 902.533 2081.51 889.2C2077.24 875.867 2075.11 856.933 2075.11 832.4V426.8C2075.11 408.667 2073.51 395.6 2070.31 387.6C2067.11 379.067 2060.97 374.8 2051.91 374.8C2048.17 374.8 2043.64 375.6 2038.31 377.2C2033.51 378.8 2028.17 380.933 2022.31 383.6C2020.17 384.133 2018.31 382.8 2016.71 379.6C2015.11 376.4 2014.84 374.533 2015.91 374L2133.51 318.8C2134.57 318.267 2135.64 318 2136.71 318C2139.37 318 2142.31 319.333 2145.51 322C2148.71 324.133 2150.31 326.267 2150.31 328.4ZM2399.72 907.6C2365.05 907.6 2335.45 900.4 2310.92 886C2286.92 871.6 2268.52 852.667 2255.72 829.2C2243.45 805.2 2237.32 779.867 2237.32 753.2C2237.32 721.733 2245.32 693.2 2261.32 667.6C2277.32 641.467 2298.92 620.667 2326.12 605.2C2353.85 589.733 2385.05 582 2419.72 582C2452.79 582 2478.12 589.2 2495.72 603.6C2513.32 617.467 2522.12 636.667 2522.12 661.2C2522.12 667.067 2521.59 672.4 2520.52 677.2C2519.45 682 2517.05 684.4 2513.32 684.4H2436.52C2437.59 659.333 2434.65 638.8 2427.72 622.8C2420.79 606.267 2408.25 598 2390.12 598C2368.79 598 2351.45 609.2 2338.12 631.6C2324.79 653.467 2318.12 682.8 2318.12 719.6C2318.12 749.467 2322.92 775.6 2332.52 798C2342.12 820.4 2355.99 837.733 2374.12 850C2392.25 862.267 2414.12 868.4 2439.72 868.4C2452.52 868.4 2466.12 866.533 2480.52 862.8C2495.45 859.067 2508.79 853.467 2520.52 846C2521.59 844.933 2522.92 845.467 2524.52 847.6C2526.65 849.733 2527.19 851.6 2526.12 853.2C2506.39 872.933 2486.12 887.067 2465.32 895.6C2445.05 903.6 2423.19 907.6 2399.72 907.6ZM2290.12 686L2289.32 670.8L2464.52 666.8V684.4L2290.12 686ZM2792.49 898C2790.89 898 2790.09 896.4 2790.09 893.2C2790.09 890 2790.89 888.4 2792.49 888.4C2809.03 888.4 2820.23 884.667 2826.09 877.2C2831.96 869.2 2834.89 854.533 2834.89 833.2V718C2834.89 689.2 2829.56 667.867 2818.89 654C2808.76 640.133 2792.49 633.2 2770.09 633.2C2754.09 633.2 2737.56 637.2 2720.49 645.2C2703.96 653.2 2690.63 664.133 2680.49 678L2676.49 668.4C2695.16 641.733 2716.23 620.4 2739.69 604.4C2763.16 587.867 2788.76 579.6 2816.49 579.6C2846.36 579.6 2869.29 588.933 2885.29 607.6C2901.83 626.267 2910.09 650.267 2910.09 679.6V833.2C2910.09 854.533 2913.03 869.2 2918.89 877.2C2925.29 884.667 2936.76 888.4 2953.29 888.4C2954.89 888.4 2955.69 890 2955.69 893.2C2955.69 896.4 2954.89 898 2953.29 898C2942.63 898 2930.36 897.733 2916.49 897.2C2902.63 896.667 2887.96 896.4 2872.49 896.4C2857.56 896.4 2843.16 896.667 2829.29 897.2C2815.43 897.733 2803.16 898 2792.49 898ZM2577.29 898C2575.69 898 2574.89 896.4 2574.89 893.2C2574.89 890 2575.69 888.4 2577.29 888.4C2593.83 888.4 2605.03 884.667 2610.89 877.2C2616.76 869.2 2619.69 854.533 2619.69 833.2V682.8C2619.69 666.267 2617.83 654.267 2614.09 646.8C2610.36 638.8 2603.96 634.8 2594.89 634.8C2590.09 634.8 2584.49 635.867 2578.09 638C2571.69 639.6 2564.49 642.267 2556.49 646C2554.36 647.067 2552.76 646 2551.69 642.8C2550.63 639.6 2550.63 637.733 2551.69 637.2L2662.89 582.8C2666.09 581.733 2667.96 581.2 2668.49 581.2C2674.36 581.2 2680.23 587.6 2686.09 600.4C2691.96 613.2 2694.89 631.6 2694.89 655.6V833.2C2694.89 854.533 2697.83 869.2 2703.69 877.2C2710.09 884.667 2721.56 888.4 2738.09 888.4C2739.69 888.4 2740.49 890 2740.49 893.2C2740.49 896.4 2739.69 898 2738.09 898C2727.43 898 2715.16 897.733 2701.29 897.2C2687.43 896.667 2672.76 896.4 2657.29 896.4C2642.36 896.4 2627.96 896.667 2614.09 897.2C2600.23 897.733 2587.96 898 2577.29 898ZM3114.39 907.6C3101.59 907.6 3088.52 905.467 3075.19 901.2C3062.39 896.933 3051.45 889.467 3042.39 878.8C3033.85 868.133 3029.59 853.2 3029.59 834V656.4C3029.59 645.2 3028.25 636.4 3025.59 630C3022.92 623.6 3018.65 619.067 3012.79 616.4C3006.92 613.733 2998.92 612.4 2988.79 612.4C2986.65 612.4 2985.59 610 2985.59 605.2C2985.59 600.4 2986.65 598 2988.79 598C3015.99 596.933 3038.12 591.067 3055.19 580.4C3072.25 569.2 3085.05 552.933 3093.59 531.6C3094.65 529.467 3096.79 528.4 3099.99 528.4C3103.72 528.4 3105.59 529.467 3105.59 531.6V807.6C3105.59 828.933 3110.92 844.133 3121.59 853.2C3132.79 862.267 3146.39 866.8 3162.39 866.8C3174.65 866.8 3186.12 864.4 3196.79 859.6C3207.99 854.267 3217.32 848.667 3224.79 842.8C3226.39 841.2 3228.25 841.733 3230.39 844.4C3233.05 846.533 3233.32 848.4 3231.19 850C3211.45 869.733 3192.25 884.4 3173.59 894C3155.45 903.067 3135.72 907.6 3114.39 907.6ZM3206.39 630C3184.52 625.2 3163.19 622 3142.39 620.4C3122.12 618.267 3100.52 617.2 3077.59 617.2V596.4C3099.45 596.4 3120.79 595.6 3141.59 594C3162.92 592.4 3185.59 590.533 3209.59 588.4C3210.65 588.4 3211.72 590.533 3212.79 594.8C3214.39 598.533 3215.19 602.8 3215.19 607.6C3215.19 612.933 3214.12 618.267 3211.99 623.6C3210.39 628.4 3208.52 630.533 3206.39 630Z" fill="white"/>
<path d="M3340 906.8C3325.07 906.8 3313.07 902.533 3304 894C3295.47 884.933 3291.2 872.933 3291.2 858C3291.2 844.133 3295.47 832.933 3304 824.4C3313.07 815.867 3325.07 811.6 3340 811.6C3355.47 811.6 3367.2 815.867 3375.2 824.4C3383.2 832.933 3387.2 844.133 3387.2 858C3387.2 872.933 3383.2 884.933 3375.2 894C3367.2 902.533 3355.47 906.8 3340 906.8Z" fill="#EB0032"/>
</svg>
