<svg viewBox="0 0 851 288" fill="none" xmlns="http://www.w3.org/2000/svg">
  <path
    d="M18.8 93.2C17.2 93.2 15.6667 92.9333 14.2 92.4C12.7333 91.9333 11.5333 91.1 10.6 89.9C9.66667 88.7 9.2 87.0667 9.2 85V61.5C9.2 59.9 9.1 58.7 8.9 57.9C8.7 57.1 8.23333 56.6 7.5 56.4C6.76667 56.1333 5.63333 56 4.1 56C3.83333 56 3.7 55.8 3.7 55.4C3.7 54.9333 3.83333 54.7 4.1 54.7C6.76667 54.6333 8.93333 53.9 10.6 52.5C12.3333 51.1 13.3 49.3 13.5 47.1C13.5 46.9 13.7333 46.8 14.2 46.8C14.7333 46.8 15 46.9 15 47.1V81.6C15 84.3333 15.6667 86.3667 17 87.7C18.4 89.0333 20.3667 89.7 22.9 89.7C24.6333 89.7 26.1667 89.4333 27.5 88.9C28.9 88.3 30.0333 87.6333 30.9 86.9C31.1667 86.7667 31.4 86.8667 31.6 87.2C31.8667 87.4667 31.8667 87.7 31.6 87.9C29.1333 89.7667 26.9 91.1333 24.9 92C22.9667 92.8 20.9333 93.2 18.8 93.2ZM28.5 58.3C25.9 57.6333 23.4 57.2 21 57C18.6 56.8 16.0333 56.7 13.3 56.7V54.5C15.9667 54.5 18.5333 54.4 21 54.2C23.4667 54 26.1 53.7667 28.9 53.5C29.0333 53.5 29.1667 53.7333 29.3 54.2C29.5 54.6667 29.6 55.2333 29.6 55.9C29.6 56.3667 29.4667 56.9 29.2 57.5C29 58.1 28.7667 58.3667 28.5 58.3ZM36.3891 92C36.1891 92 36.0891 91.8 36.0891 91.4C36.0891 91 36.1891 90.8 36.3891 90.8C38.9891 90.8 40.6891 90.3667 41.4891 89.5C42.2891 88.5667 42.6891 86.7 42.6891 83.9V32.2C42.6891 29.8667 42.4557 28.1667 41.9891 27.1C41.5224 25.9667 40.6891 25.4 39.4891 25.4C38.4891 25.4 36.9557 25.8667 34.8891 26.8C34.6224 26.9333 34.3891 26.8333 34.1891 26.5C34.0557 26.1 34.1224 25.8333 34.3891 25.7L47.0891 19.5C47.2224 19.5 47.2891 19.5 47.2891 19.5C47.2891 19.5 47.3224 19.5 47.3891 19.5C47.5891 19.5 47.7891 19.6 47.9891 19.8C48.1891 19.9333 48.2891 20.1 48.2891 20.3V83.9C48.2891 86.7 48.6891 88.5667 49.4891 89.5C50.2891 90.3667 51.9891 90.8 54.5891 90.8C54.7891 90.8 54.8891 91 54.8891 91.4C54.8891 91.8 54.7891 92 54.5891 92C53.3891 92 52.0224 91.9667 50.4891 91.9C48.9557 91.8333 47.2891 91.8 45.4891 91.8C43.7557 91.8 42.0891 91.8333 40.4891 91.9C38.8891 91.9667 37.5224 92 36.3891 92ZM63.2891 92C63.0891 92 62.9891 91.8 62.9891 91.4C62.9891 91 63.0891 90.8 63.2891 90.8C65.8891 90.8 67.5891 90.3667 68.3891 89.5C69.1891 88.5667 69.5891 86.7 69.5891 83.9V68C69.5891 60.2 66.5224 56.3 60.3891 56.3C57.9224 56.3 55.4224 57.1 52.8891 58.7C50.3557 60.2333 48.1891 62.3333 46.3891 65L45.9891 63.8C48.9224 59.8 51.8224 56.9 54.6891 55.1C57.6224 53.3 60.6224 52.4 63.6891 52.4C67.3557 52.4 70.1891 53.4333 72.1891 55.5C74.1891 57.5 75.1891 60.5 75.1891 64.5V83.9C75.1891 86.7 75.5891 88.5667 76.3891 89.5C77.1891 90.3667 78.8891 90.8 81.4891 90.8C81.6891 90.8 81.7891 91 81.7891 91.4C81.7891 91.8 81.6891 92 81.4891 92C80.2891 92 78.9224 91.9667 77.3891 91.9C75.8557 91.8333 74.1891 91.8 72.3891 91.8C70.6557 91.8 68.9891 91.8333 67.3891 91.9C65.7891 91.9667 64.4224 92 63.2891 92ZM106.091 93.2C101.958 93.2 98.4914 92.3 95.6914 90.5C92.8914 88.6333 90.7914 86.2333 89.3914 83.3C87.9914 80.3667 87.2914 77.2667 87.2914 74C87.2914 69.9333 88.2247 66.3 90.0914 63.1C92.0247 59.8333 94.5914 57.2667 97.7914 55.4C101.058 53.4667 104.725 52.5 108.791 52.5C112.458 52.5 115.258 53.4 117.191 55.2C119.191 56.9333 120.191 59.3333 120.191 62.4C120.191 63.1333 120.125 63.7 119.991 64.1C119.858 64.5 119.525 64.7 118.991 64.7H113.191C113.458 61.4333 112.858 58.9333 111.391 57.2C109.991 55.4 107.991 54.5 105.391 54.5C101.658 54.5 98.7914 55.9 96.7914 58.7C94.8581 61.5 93.8914 65.3 93.8914 70.1C93.8914 73.9 94.4914 77.2667 95.6914 80.2C96.9581 83.1333 98.7581 85.4667 101.091 87.2C103.491 88.8667 106.325 89.7 109.591 89.7C111.325 89.7 113.091 89.4333 114.891 88.9C116.691 88.3667 118.391 87.5333 119.991 86.4C120.125 86.2667 120.291 86.3667 120.491 86.7C120.758 86.9667 120.825 87.2 120.691 87.4C118.291 89.4667 115.891 90.9667 113.491 91.9C111.091 92.7667 108.625 93.2 106.091 93.2ZM92.0914 64.9L91.9914 63.6L114.791 63.1V64.7L92.0914 64.9Z"
    fill="#123456" />
  <path
    d="M84.2 103.8C89.8 103.8 95.8 104.267 102.2 105.2C108.733 106.133 113.867 107.467 117.6 109.2C118.8 109.6 119.6 110.133 120 110.8C120.4 111.333 120.667 112.333 120.8 113.8L123.2 141.6C123.2 142 122.867 142.267 122.2 142.4C121.667 142.533 121.267 142.333 121 141.8C116.6 131.533 110.6 123.467 103 117.6C95.5333 111.733 86.6667 108.8 76.4 108.8C67.4667 108.8 59.8667 111.067 53.6 115.6C47.4667 120.133 42.8 126.467 39.6 134.6C36.5333 142.6 35 151.933 35 162.6C35 171.8 36.1333 180.467 38.4 188.6C40.6667 196.6 43.8667 203.667 48 209.8C52.1333 215.8 57.0667 220.533 62.8 224C68.5333 227.467 74.8667 229.2 81.8 229.2C90.3333 229.2 97.9333 226.4 104.6 220.8C111.4 215.2 117.467 206.533 122.8 194.8C123.067 194.267 123.533 194.067 124.2 194.2C124.867 194.333 125.2 194.6 125.2 195L122.2 222.2C121.933 223.8 121.6 224.867 121.2 225.4C120.933 225.8 120.2 226.267 119 226.8C112.867 229.067 106.667 230.733 100.4 231.8C94.2667 232.867 88.2667 233.4 82.4 233.4C69.4667 233.4 58.4 231.467 49.2 227.6C40 223.6 32.4667 218.4 26.6 212C20.8667 205.467 16.6 198.4 13.8 190.8C11.1333 183.067 9.8 175.467 9.8 168C9.8 158.133 11.8 149.267 15.8 141.4C19.9333 133.533 25.4667 126.8 32.4 121.2C39.4667 115.6 47.4 111.333 56.2 108.4C65.1333 105.333 74.4667 103.8 84.2 103.8ZM181.189 233.6C172.789 233.6 165.522 231.667 159.389 227.8C153.256 223.933 148.522 218.8 145.189 212.4C141.856 205.867 140.189 198.867 140.189 191.4C140.189 184.467 141.522 178.467 144.189 173.4C146.856 168.333 150.389 164.2 154.789 161C159.189 157.667 163.989 155.2 169.189 153.6C174.389 152 179.522 151.2 184.589 151.2C193.122 151.2 200.389 153.2 206.389 157.2C212.522 161.2 217.189 166.333 220.389 172.6C223.589 178.867 225.189 185.533 225.189 192.6C225.189 200.733 223.122 207.933 218.989 214.2C214.989 220.333 209.656 225.133 202.989 228.6C196.322 231.933 189.056 233.6 181.189 233.6ZM187.189 229.4C192.522 229.4 196.522 226.8 199.189 221.6C201.856 216.4 203.189 209.067 203.189 199.6C203.189 189.867 201.922 181.733 199.389 175.2C196.989 168.667 193.856 163.733 189.989 160.4C186.122 157.067 182.056 155.4 177.789 155.4C172.589 155.4 168.589 157.733 165.789 162.4C163.122 167.067 161.789 174.267 161.789 184C161.789 193.067 162.922 201.067 165.189 208C167.456 214.8 170.522 220.067 174.389 223.8C178.256 227.533 182.522 229.4 187.189 229.4ZM293.241 231C292.841 231 292.641 230.6 292.641 229.8C292.641 229 292.841 228.6 293.241 228.6C297.374 228.6 300.174 227.667 301.641 225.8C303.107 223.8 303.841 220.133 303.841 214.8V186C303.841 178.8 302.507 173.467 299.841 170C297.307 166.533 293.241 164.8 287.641 164.8C283.641 164.8 279.507 165.8 275.241 167.8C271.107 169.8 267.774 172.533 265.241 176L264.241 173.6C268.907 166.933 274.174 161.6 280.041 157.6C285.907 153.467 292.307 151.4 299.241 151.4C306.707 151.4 312.441 153.733 316.441 158.4C320.574 163.067 322.641 169.067 322.641 176.4V214.8C322.641 220.133 323.374 223.8 324.841 225.8C326.441 227.667 329.307 228.6 333.441 228.6C333.841 228.6 334.041 229 334.041 229.8C334.041 230.6 333.841 231 333.441 231C330.774 231 327.707 230.933 324.241 230.8C320.774 230.667 317.107 230.6 313.241 230.6C309.507 230.6 305.907 230.667 302.441 230.8C298.974 230.933 295.907 231 293.241 231ZM239.441 231C239.041 231 238.841 230.6 238.841 229.8C238.841 229 239.041 228.6 239.441 228.6C243.574 228.6 246.374 227.667 247.841 225.8C249.307 223.8 250.041 220.133 250.041 214.8V177.2C250.041 173.067 249.574 170.067 248.641 168.2C247.707 166.2 246.107 165.2 243.841 165.2C242.641 165.2 241.241 165.467 239.641 166C238.041 166.4 236.241 167.067 234.241 168C233.707 168.267 233.307 168 233.041 167.2C232.774 166.4 232.774 165.933 233.041 165.8L260.841 152.2C261.641 151.933 262.107 151.8 262.241 151.8C263.707 151.8 265.174 153.4 266.641 156.6C268.107 159.8 268.841 164.4 268.841 170.4V214.8C268.841 220.133 269.574 223.8 271.041 225.8C272.641 227.667 275.507 228.6 279.641 228.6C280.041 228.6 280.241 229 280.241 229.8C280.241 230.6 280.041 231 279.641 231C276.974 231 273.907 230.933 270.441 230.8C266.974 230.667 263.307 230.6 259.441 230.6C255.707 230.6 252.107 230.667 248.641 230.8C245.174 230.933 242.107 231 239.441 231ZM342.314 231C341.781 231 341.514 230.6 341.514 229.8C341.514 229 341.781 228.6 342.314 228.6C347.381 228.6 350.647 227.733 352.114 226C353.581 224.267 354.314 220.533 354.314 214.8V169.8C354.314 166.867 353.914 164.733 353.114 163.4C352.314 161.933 350.981 161 349.114 160.6C347.247 160.067 344.714 159.8 341.514 159.8C341.114 159.8 340.914 159.2 340.914 158C340.914 156.8 341.114 156.2 341.514 156.2C346.181 156.2 349.381 155.6 351.114 154.4C352.847 153.067 353.781 150.733 353.914 147.4C354.581 132.6 356.914 120.733 360.914 111.8C364.914 102.733 370.581 96.1333 377.914 92C385.247 87.8667 394.114 85.8 404.514 85.8C413.714 85.8 420.847 87.2 425.914 90C431.114 92.8 433.714 96.5333 433.714 101.2C433.714 103.6 432.914 105.667 431.314 107.4C429.714 109 427.247 109.8 423.914 109.8C420.447 109.8 417.847 108.8 416.114 106.8C414.381 104.8 412.847 102.467 411.514 99.8C410.181 97.1333 408.514 94.8 406.514 92.8C404.647 90.8 401.847 89.8 398.114 89.8C393.847 89.8 389.781 91.6 385.914 95.2C382.047 98.8 378.914 104.533 376.514 112.4C374.247 120.267 373.114 130.533 373.114 143.2V214.8C373.114 218.667 373.514 221.6 374.314 223.6C375.114 225.6 376.781 226.933 379.314 227.6C381.847 228.267 385.714 228.6 390.914 228.6C391.447 228.6 391.714 229 391.714 229.8C391.714 230.6 391.447 231 390.914 231C386.247 231 381.647 230.933 377.114 230.8C372.714 230.667 368.181 230.6 363.514 230.6C359.647 230.6 355.847 230.667 352.114 230.8C348.514 230.933 345.247 231 342.314 231ZM394.514 164C389.314 162.8 384.314 162 379.514 161.6C374.847 161.067 369.847 160.8 364.514 160.8V155.6C369.581 155.6 374.581 155.4 379.514 155C384.447 154.6 389.647 154.133 395.114 153.6C395.514 153.6 395.847 154.133 396.114 155.2C396.381 156.133 396.514 157.2 396.514 158.4C396.514 159.733 396.247 161.067 395.714 162.4C395.314 163.6 394.914 164.133 394.514 164ZM405.914 231C405.647 231 405.514 230.6 405.514 229.8C405.514 229 405.647 228.6 405.914 228.6C410.047 228.6 412.847 227.667 414.314 225.8C415.914 223.8 416.714 220.133 416.714 214.8V179C416.714 172.6 415.781 168.667 413.914 167.2C412.047 165.6 408.514 166 403.314 168.4C402.781 168.533 402.314 168.2 401.914 167.4C401.647 166.6 401.647 166.133 401.914 166L432.114 152C432.781 151.6 433.581 151.8 434.514 152.6C435.447 153.267 435.914 153.933 435.914 154.6C435.914 156.2 435.781 158.867 435.514 162.6C435.381 166.333 435.314 171.667 435.314 178.6V214.8C435.314 220.133 436.047 223.8 437.514 225.8C439.114 227.667 441.981 228.6 446.114 228.6C446.647 228.6 446.914 229 446.914 229.8C446.914 230.6 446.647 231 446.114 231C443.447 231 440.381 230.933 436.914 230.8C433.581 230.667 429.981 230.6 426.114 230.6C422.247 230.6 418.581 230.667 415.114 230.8C411.647 230.933 408.581 231 405.914 231ZM488.777 233.6C483.043 233.6 477.777 232.067 472.977 229C468.31 225.933 464.51 221.533 461.577 215.8C458.777 209.933 457.377 202.867 457.377 194.6C457.377 186.467 458.843 179.667 461.777 174.2C464.71 168.6 468.443 164.133 472.977 160.8C477.643 157.467 482.643 155.067 487.977 153.6C493.31 152 498.377 151.2 503.177 151.2C507.977 151.2 512.443 151.8 516.577 153C520.71 154.2 524.443 155.667 527.777 157.4L523.177 173.6C520.377 167.6 517.177 163.267 513.577 160.6C509.977 157.8 505.51 156.4 500.177 156.4C493.377 156.4 487.977 158.8 483.977 163.6C479.977 168.267 477.977 176.467 477.977 188.2C477.977 195.8 478.91 202.267 480.777 207.6C482.643 212.933 485.243 217 488.577 219.8C491.91 222.6 495.643 224 499.777 224C505.11 224 509.777 222.533 513.777 219.6C517.777 216.667 521.643 213.133 525.377 209L527.377 210.8C524.577 214 521.243 217.4 517.377 221C513.643 224.467 509.377 227.467 504.577 230C499.91 232.4 494.643 233.6 488.777 233.6ZM537.577 88.6V207.8C537.577 212.333 537.977 215.533 538.777 217.4C539.71 219.267 541.177 220.2 543.177 220.2C544.11 220.2 545.243 220 546.577 219.6C548.043 219.2 549.643 218.667 551.377 218C551.777 217.733 552.177 218 552.577 218.8C552.977 219.467 553.043 219.933 552.777 220.2L525.177 233.6C524.777 233.733 524.443 233.8 524.177 233.8C522.843 233.8 521.577 232.133 520.377 228.8C519.31 225.467 518.777 220.733 518.777 214.6V113.2C518.777 108.667 518.377 105.4 517.577 103.4C516.777 101.267 515.243 100.2 512.977 100.2C512.043 100.2 510.91 100.4 509.577 100.8C508.377 101.2 507.043 101.733 505.577 102.4C505.043 102.533 504.577 102.2 504.177 101.4C503.777 100.6 503.71 100.133 503.977 100L533.377 86.2C533.643 86.0667 533.91 86 534.177 86C534.843 86 535.577 86.3333 536.377 87C537.177 87.5333 537.577 88.0667 537.577 88.6ZM599.93 233.4C591.263 233.4 583.863 231.6 577.73 228C571.73 224.4 567.13 219.667 563.93 213.8C560.863 207.8 559.33 201.467 559.33 194.8C559.33 186.933 561.33 179.8 565.33 173.4C569.33 166.867 574.73 161.667 581.53 157.8C588.463 153.933 596.263 152 604.93 152C613.196 152 619.53 153.8 623.93 157.4C628.33 160.867 630.53 165.667 630.53 171.8C630.53 173.267 630.396 174.6 630.13 175.8C629.863 177 629.263 177.6 628.33 177.6H609.13C609.396 171.333 608.663 166.2 606.93 162.2C605.196 158.067 602.063 156 597.53 156C592.196 156 587.863 158.8 584.53 164.4C581.196 169.867 579.53 177.2 579.53 186.4C579.53 193.867 580.73 200.4 583.13 206C585.53 211.6 588.996 215.933 593.53 219C598.063 222.067 603.53 223.6 609.93 223.6C613.13 223.6 616.53 223.133 620.13 222.2C623.863 221.267 627.196 219.867 630.13 218C630.396 217.733 630.73 217.867 631.13 218.4C631.663 218.933 631.796 219.4 631.53 219.8C626.596 224.733 621.53 228.267 616.33 230.4C611.263 232.4 605.796 233.4 599.93 233.4ZM572.53 178L572.33 174.2L616.13 173.2V177.6L572.53 178ZM698.123 231C697.723 231 697.523 230.6 697.523 229.8C697.523 229 697.723 228.6 698.123 228.6C702.257 228.6 705.057 227.667 706.523 225.8C707.99 223.8 708.723 220.133 708.723 214.8V186C708.723 178.8 707.39 173.467 704.723 170C702.19 166.533 698.123 164.8 692.523 164.8C688.523 164.8 684.39 165.8 680.123 167.8C675.99 169.8 672.657 172.533 670.123 176L669.123 173.6C673.79 166.933 679.057 161.6 684.923 157.6C690.79 153.467 697.19 151.4 704.123 151.4C711.59 151.4 717.323 153.733 721.323 158.4C725.457 163.067 727.523 169.067 727.523 176.4V214.8C727.523 220.133 728.257 223.8 729.723 225.8C731.323 227.667 734.19 228.6 738.323 228.6C738.723 228.6 738.923 229 738.923 229.8C738.923 230.6 738.723 231 738.323 231C735.657 231 732.59 230.933 729.123 230.8C725.657 230.667 721.99 230.6 718.123 230.6C714.39 230.6 710.79 230.667 707.323 230.8C703.857 230.933 700.79 231 698.123 231ZM644.323 231C643.923 231 643.723 230.6 643.723 229.8C643.723 229 643.923 228.6 644.323 228.6C648.457 228.6 651.257 227.667 652.723 225.8C654.19 223.8 654.923 220.133 654.923 214.8V177.2C654.923 173.067 654.457 170.067 653.523 168.2C652.59 166.2 650.99 165.2 648.723 165.2C647.523 165.2 646.123 165.467 644.523 166C642.923 166.4 641.123 167.067 639.123 168C638.59 168.267 638.19 168 637.923 167.2C637.657 166.4 637.657 165.933 637.923 165.8L665.723 152.2C666.523 151.933 666.99 151.8 667.123 151.8C668.59 151.8 670.057 153.4 671.523 156.6C672.99 159.8 673.723 164.4 673.723 170.4V214.8C673.723 220.133 674.457 223.8 675.923 225.8C677.523 227.667 680.39 228.6 684.523 228.6C684.923 228.6 685.123 229 685.123 229.8C685.123 230.6 684.923 231 684.523 231C681.857 231 678.79 230.933 675.323 230.8C671.857 230.667 668.19 230.6 664.323 230.6C660.59 230.6 656.99 230.667 653.523 230.8C650.057 230.933 646.99 231 644.323 231ZM778.597 233.4C775.397 233.4 772.13 232.867 768.797 231.8C765.597 230.733 762.864 228.867 760.597 226.2C758.464 223.533 757.397 219.8 757.397 215V170.6C757.397 167.8 757.064 165.6 756.397 164C755.73 162.4 754.664 161.267 753.197 160.6C751.73 159.933 749.73 159.6 747.197 159.6C746.664 159.6 746.397 159 746.397 157.8C746.397 156.6 746.664 156 747.197 156C753.997 155.733 759.53 154.267 763.797 151.6C768.064 148.8 771.264 144.733 773.397 139.4C773.664 138.867 774.197 138.6 774.997 138.6C775.93 138.6 776.397 138.867 776.397 139.4V208.4C776.397 213.733 777.73 217.533 780.397 219.8C783.197 222.067 786.597 223.2 790.597 223.2C793.664 223.2 796.53 222.6 799.197 221.4C801.997 220.067 804.33 218.667 806.197 217.2C806.597 216.8 807.064 216.933 807.597 217.6C808.264 218.133 808.33 218.6 807.797 219C802.864 223.933 798.064 227.6 793.397 230C788.864 232.267 783.93 233.4 778.597 233.4ZM801.597 164C796.13 162.8 790.797 162 785.597 161.6C780.53 161.067 775.13 160.8 769.397 160.8V155.6C774.864 155.6 780.197 155.4 785.397 155C790.73 154.6 796.397 154.133 802.397 153.6C802.664 153.6 802.93 154.133 803.197 155.2C803.597 156.133 803.797 157.2 803.797 158.4C803.797 159.733 803.53 161.067 802.997 162.4C802.597 163.6 802.13 164.133 801.597 164Z"
    fill="#123456" />
  <path
    d="M830 233.2C826.267 233.2 823.267 232.133 821 230C818.867 227.733 817.8 224.733 817.8 221C817.8 217.533 818.867 214.733 821 212.6C823.267 210.467 826.267 209.4 830 209.4C833.867 209.4 836.8 210.467 838.8 212.6C840.8 214.733 841.8 217.533 841.8 221C841.8 224.733 840.8 227.733 838.8 230C836.8 232.133 833.867 233.2 830 233.2Z"
    fill="#eb0032" />
</svg>