<svg viewBox="0 0 1150 1150" fill="none" xmlns="http://www.w3.org/2000/svg">
<circle cx="575" cy="575" r="575" fill="#123456"/>
<path d="M188.8 501.2C187.2 501.2 185.667 500.933 184.2 500.4C182.733 499.933 181.533 499.1 180.6 497.9C179.667 496.7 179.2 495.067 179.2 493V469.5C179.2 467.9 179.1 466.7 178.9 465.9C178.7 465.1 178.233 464.6 177.5 464.4C176.767 464.133 175.633 464 174.1 464C173.833 464 173.7 463.8 173.7 463.4C173.7 462.933 173.833 462.7 174.1 462.7C176.767 462.633 178.933 461.9 180.6 460.5C182.333 459.1 183.3 457.3 183.5 455.1C183.5 454.9 183.733 454.8 184.2 454.8C184.733 454.8 185 454.9 185 455.1V489.6C185 492.333 185.667 494.367 187 495.7C188.4 497.033 190.367 497.7 192.9 497.7C194.633 497.7 196.167 497.433 197.5 496.9C198.9 496.3 200.033 495.633 200.9 494.9C201.167 494.767 201.4 494.867 201.6 495.2C201.867 495.467 201.867 495.7 201.6 495.9C199.133 497.767 196.9 499.133 194.9 500C192.967 500.8 190.933 501.2 188.8 501.2ZM198.5 466.3C195.9 465.633 193.4 465.2 191 465C188.6 464.8 186.033 464.7 183.3 464.7V462.5C185.967 462.5 188.533 462.4 191 462.2C193.467 462 196.1 461.767 198.9 461.5C199.033 461.5 199.167 461.733 199.3 462.2C199.5 462.667 199.6 463.233 199.6 463.9C199.6 464.367 199.467 464.9 199.2 465.5C199 466.1 198.767 466.367 198.5 466.3ZM206.389 500C206.189 500 206.089 499.8 206.089 499.4C206.089 499 206.189 498.8 206.389 498.8C208.989 498.8 210.689 498.367 211.489 497.5C212.289 496.567 212.689 494.7 212.689 491.9V440.2C212.689 437.867 212.456 436.167 211.989 435.1C211.522 433.967 210.689 433.4 209.489 433.4C208.489 433.4 206.956 433.867 204.889 434.8C204.622 434.933 204.389 434.833 204.189 434.5C204.056 434.1 204.122 433.833 204.389 433.7L217.089 427.5C217.222 427.5 217.289 427.5 217.289 427.5C217.289 427.5 217.322 427.5 217.389 427.5C217.589 427.5 217.789 427.6 217.989 427.8C218.189 427.933 218.289 428.1 218.289 428.3V491.9C218.289 494.7 218.689 496.567 219.489 497.5C220.289 498.367 221.989 498.8 224.589 498.8C224.789 498.8 224.889 499 224.889 499.4C224.889 499.8 224.789 500 224.589 500C223.389 500 222.022 499.967 220.489 499.9C218.956 499.833 217.289 499.8 215.489 499.8C213.756 499.8 212.089 499.833 210.489 499.9C208.889 499.967 207.522 500 206.389 500ZM233.289 500C233.089 500 232.989 499.8 232.989 499.4C232.989 499 233.089 498.8 233.289 498.8C235.889 498.8 237.589 498.367 238.389 497.5C239.189 496.567 239.589 494.7 239.589 491.9V476C239.589 468.2 236.522 464.3 230.389 464.3C227.922 464.3 225.422 465.1 222.889 466.7C220.356 468.233 218.189 470.333 216.389 473L215.989 471.8C218.922 467.8 221.822 464.9 224.689 463.1C227.622 461.3 230.622 460.4 233.689 460.4C237.356 460.4 240.189 461.433 242.189 463.5C244.189 465.5 245.189 468.5 245.189 472.5V491.9C245.189 494.7 245.589 496.567 246.389 497.5C247.189 498.367 248.889 498.8 251.489 498.8C251.689 498.8 251.789 499 251.789 499.4C251.789 499.8 251.689 500 251.489 500C250.289 500 248.922 499.967 247.389 499.9C245.856 499.833 244.189 499.8 242.389 499.8C240.656 499.8 238.989 499.833 237.389 499.9C235.789 499.967 234.422 500 233.289 500ZM276.091 501.2C271.958 501.2 268.491 500.3 265.691 498.5C262.891 496.633 260.791 494.233 259.391 491.3C257.991 488.367 257.291 485.267 257.291 482C257.291 477.933 258.225 474.3 260.091 471.1C262.025 467.833 264.591 465.267 267.791 463.4C271.058 461.467 274.725 460.5 278.791 460.5C282.458 460.5 285.258 461.4 287.191 463.2C289.191 464.933 290.191 467.333 290.191 470.4C290.191 471.133 290.125 471.7 289.991 472.1C289.858 472.5 289.525 472.7 288.991 472.7H283.191C283.458 469.433 282.858 466.933 281.391 465.2C279.991 463.4 277.991 462.5 275.391 462.5C271.658 462.5 268.791 463.9 266.791 466.7C264.858 469.5 263.891 473.3 263.891 478.1C263.891 481.9 264.491 485.267 265.691 488.2C266.958 491.133 268.758 493.467 271.091 495.2C273.491 496.867 276.325 497.7 279.591 497.7C281.325 497.7 283.091 497.433 284.891 496.9C286.691 496.367 288.391 495.533 289.991 494.4C290.125 494.267 290.291 494.367 290.491 494.7C290.758 494.967 290.825 495.2 290.691 495.4C288.291 497.467 285.891 498.967 283.491 499.9C281.091 500.767 278.625 501.2 276.091 501.2ZM262.091 472.9L261.991 471.6L284.791 471.1V472.7L262.091 472.9Z" fill="white"/>
<path d="M254.2 511.8C259.8 511.8 265.8 512.267 272.2 513.2C278.733 514.133 283.867 515.467 287.6 517.2C288.8 517.6 289.6 518.133 290 518.8C290.4 519.333 290.667 520.333 290.8 521.8L293.2 549.6C293.2 550 292.867 550.267 292.2 550.4C291.667 550.533 291.267 550.333 291 549.8C286.6 539.533 280.6 531.467 273 525.6C265.533 519.733 256.667 516.8 246.4 516.8C237.467 516.8 229.867 519.067 223.6 523.6C217.467 528.133 212.8 534.467 209.6 542.6C206.533 550.6 205 559.933 205 570.6C205 579.8 206.133 588.467 208.4 596.6C210.667 604.6 213.867 611.667 218 617.8C222.133 623.8 227.067 628.533 232.8 632C238.533 635.467 244.867 637.2 251.8 637.2C260.333 637.2 267.933 634.4 274.6 628.8C281.4 623.2 287.467 614.533 292.8 602.8C293.067 602.267 293.533 602.067 294.2 602.2C294.867 602.333 295.2 602.6 295.2 603L292.2 630.2C291.933 631.8 291.6 632.867 291.2 633.4C290.933 633.8 290.2 634.267 289 634.8C282.867 637.067 276.667 638.733 270.4 639.8C264.267 640.867 258.267 641.4 252.4 641.4C239.467 641.4 228.4 639.467 219.2 635.6C210 631.6 202.467 626.4 196.6 620C190.867 613.467 186.6 606.4 183.8 598.8C181.133 591.067 179.8 583.467 179.8 576C179.8 566.133 181.8 557.267 185.8 549.4C189.933 541.533 195.467 534.8 202.4 529.2C209.467 523.6 217.4 519.333 226.2 516.4C235.133 513.333 244.467 511.8 254.2 511.8ZM351.189 641.6C342.789 641.6 335.522 639.667 329.389 635.8C323.256 631.933 318.522 626.8 315.189 620.4C311.856 613.867 310.189 606.867 310.189 599.4C310.189 592.467 311.522 586.467 314.189 581.4C316.856 576.333 320.389 572.2 324.789 569C329.189 565.667 333.989 563.2 339.189 561.6C344.389 560 349.522 559.2 354.589 559.2C363.122 559.2 370.389 561.2 376.389 565.2C382.522 569.2 387.189 574.333 390.389 580.6C393.589 586.867 395.189 593.533 395.189 600.6C395.189 608.733 393.122 615.933 388.989 622.2C384.989 628.333 379.656 633.133 372.989 636.6C366.322 639.933 359.056 641.6 351.189 641.6ZM357.189 637.4C362.522 637.4 366.522 634.8 369.189 629.6C371.856 624.4 373.189 617.067 373.189 607.6C373.189 597.867 371.922 589.733 369.389 583.2C366.989 576.667 363.856 571.733 359.989 568.4C356.122 565.067 352.056 563.4 347.789 563.4C342.589 563.4 338.589 565.733 335.789 570.4C333.122 575.067 331.789 582.267 331.789 592C331.789 601.067 332.922 609.067 335.189 616C337.456 622.8 340.522 628.067 344.389 631.8C348.256 635.533 352.522 637.4 357.189 637.4ZM463.241 639C462.841 639 462.641 638.6 462.641 637.8C462.641 637 462.841 636.6 463.241 636.6C467.374 636.6 470.174 635.667 471.641 633.8C473.107 631.8 473.841 628.133 473.841 622.8V594C473.841 586.8 472.507 581.467 469.841 578C467.307 574.533 463.241 572.8 457.641 572.8C453.641 572.8 449.507 573.8 445.241 575.8C441.107 577.8 437.774 580.533 435.241 584L434.241 581.6C438.907 574.933 444.174 569.6 450.041 565.6C455.907 561.467 462.307 559.4 469.241 559.4C476.707 559.4 482.441 561.733 486.441 566.4C490.574 571.067 492.641 577.067 492.641 584.4V622.8C492.641 628.133 493.374 631.8 494.841 633.8C496.441 635.667 499.307 636.6 503.441 636.6C503.841 636.6 504.041 637 504.041 637.8C504.041 638.6 503.841 639 503.441 639C500.774 639 497.707 638.933 494.241 638.8C490.774 638.667 487.107 638.6 483.241 638.6C479.507 638.6 475.907 638.667 472.441 638.8C468.974 638.933 465.907 639 463.241 639ZM409.441 639C409.041 639 408.841 638.6 408.841 637.8C408.841 637 409.041 636.6 409.441 636.6C413.574 636.6 416.374 635.667 417.841 633.8C419.307 631.8 420.041 628.133 420.041 622.8V585.2C420.041 581.067 419.574 578.067 418.641 576.2C417.707 574.2 416.107 573.2 413.841 573.2C412.641 573.2 411.241 573.467 409.641 574C408.041 574.4 406.241 575.067 404.241 576C403.707 576.267 403.307 576 403.041 575.2C402.774 574.4 402.774 573.933 403.041 573.8L430.841 560.2C431.641 559.933 432.107 559.8 432.241 559.8C433.707 559.8 435.174 561.4 436.641 564.6C438.107 567.8 438.841 572.4 438.841 578.4V622.8C438.841 628.133 439.574 631.8 441.041 633.8C442.641 635.667 445.507 636.6 449.641 636.6C450.041 636.6 450.241 637 450.241 637.8C450.241 638.6 450.041 639 449.641 639C446.974 639 443.907 638.933 440.441 638.8C436.974 638.667 433.307 638.6 429.441 638.6C425.707 638.6 422.107 638.667 418.641 638.8C415.174 638.933 412.107 639 409.441 639ZM512.314 639C511.781 639 511.514 638.6 511.514 637.8C511.514 637 511.781 636.6 512.314 636.6C517.381 636.6 520.647 635.733 522.114 634C523.581 632.267 524.314 628.533 524.314 622.8V577.8C524.314 574.867 523.914 572.733 523.114 571.4C522.314 569.933 520.981 569 519.114 568.6C517.247 568.067 514.714 567.8 511.514 567.8C511.114 567.8 510.914 567.2 510.914 566C510.914 564.8 511.114 564.2 511.514 564.2C516.181 564.2 519.381 563.6 521.114 562.4C522.847 561.067 523.781 558.733 523.914 555.4C524.581 540.6 526.914 528.733 530.914 519.8C534.914 510.733 540.581 504.133 547.914 500C555.247 495.867 564.114 493.8 574.514 493.8C583.714 493.8 590.847 495.2 595.914 498C601.114 500.8 603.714 504.533 603.714 509.2C603.714 511.6 602.914 513.667 601.314 515.4C599.714 517 597.247 517.8 593.914 517.8C590.447 517.8 587.847 516.8 586.114 514.8C584.381 512.8 582.847 510.467 581.514 507.8C580.181 505.133 578.514 502.8 576.514 500.8C574.647 498.8 571.847 497.8 568.114 497.8C563.847 497.8 559.781 499.6 555.914 503.2C552.047 506.8 548.914 512.533 546.514 520.4C544.247 528.267 543.114 538.533 543.114 551.2V622.8C543.114 626.667 543.514 629.6 544.314 631.6C545.114 633.6 546.781 634.933 549.314 635.6C551.847 636.267 555.714 636.6 560.914 636.6C561.447 636.6 561.714 637 561.714 637.8C561.714 638.6 561.447 639 560.914 639C556.247 639 551.647 638.933 547.114 638.8C542.714 638.667 538.181 638.6 533.514 638.6C529.647 638.6 525.847 638.667 522.114 638.8C518.514 638.933 515.247 639 512.314 639ZM564.514 572C559.314 570.8 554.314 570 549.514 569.6C544.847 569.067 539.847 568.8 534.514 568.8V563.6C539.581 563.6 544.581 563.4 549.514 563C554.447 562.6 559.647 562.133 565.114 561.6C565.514 561.6 565.847 562.133 566.114 563.2C566.381 564.133 566.514 565.2 566.514 566.4C566.514 567.733 566.247 569.067 565.714 570.4C565.314 571.6 564.914 572.133 564.514 572ZM575.914 639C575.647 639 575.514 638.6 575.514 637.8C575.514 637 575.647 636.6 575.914 636.6C580.047 636.6 582.847 635.667 584.314 633.8C585.914 631.8 586.714 628.133 586.714 622.8V587C586.714 580.6 585.781 576.667 583.914 575.2C582.047 573.6 578.514 574 573.314 576.4C572.781 576.533 572.314 576.2 571.914 575.4C571.647 574.6 571.647 574.133 571.914 574L602.114 560C602.781 559.6 603.581 559.8 604.514 560.6C605.447 561.267 605.914 561.933 605.914 562.6C605.914 564.2 605.781 566.867 605.514 570.6C605.381 574.333 605.314 579.667 605.314 586.6V622.8C605.314 628.133 606.047 631.8 607.514 633.8C609.114 635.667 611.981 636.6 616.114 636.6C616.647 636.6 616.914 637 616.914 637.8C616.914 638.6 616.647 639 616.114 639C613.447 639 610.381 638.933 606.914 638.8C603.581 638.667 599.981 638.6 596.114 638.6C592.247 638.6 588.581 638.667 585.114 638.8C581.647 638.933 578.581 639 575.914 639ZM658.777 641.6C653.043 641.6 647.777 640.067 642.977 637C638.31 633.933 634.51 629.533 631.577 623.8C628.777 617.933 627.377 610.867 627.377 602.6C627.377 594.467 628.843 587.667 631.777 582.2C634.71 576.6 638.443 572.133 642.977 568.8C647.643 565.467 652.643 563.067 657.977 561.6C663.31 560 668.377 559.2 673.177 559.2C677.977 559.2 682.443 559.8 686.577 561C690.71 562.2 694.443 563.667 697.777 565.4L693.177 581.6C690.377 575.6 687.177 571.267 683.577 568.6C679.977 565.8 675.51 564.4 670.177 564.4C663.377 564.4 657.977 566.8 653.977 571.6C649.977 576.267 647.977 584.467 647.977 596.2C647.977 603.8 648.91 610.267 650.777 615.6C652.643 620.933 655.243 625 658.577 627.8C661.91 630.6 665.643 632 669.777 632C675.11 632 679.777 630.533 683.777 627.6C687.777 624.667 691.643 621.133 695.377 617L697.377 618.8C694.577 622 691.243 625.4 687.377 629C683.643 632.467 679.377 635.467 674.577 638C669.91 640.4 664.643 641.6 658.777 641.6ZM707.577 496.6V615.8C707.577 620.333 707.977 623.533 708.777 625.4C709.71 627.267 711.177 628.2 713.177 628.2C714.11 628.2 715.243 628 716.577 627.6C718.043 627.2 719.643 626.667 721.377 626C721.777 625.733 722.177 626 722.577 626.8C722.977 627.467 723.043 627.933 722.777 628.2L695.177 641.6C694.777 641.733 694.443 641.8 694.177 641.8C692.843 641.8 691.577 640.133 690.377 636.8C689.31 633.467 688.777 628.733 688.777 622.6V521.2C688.777 516.667 688.377 513.4 687.577 511.4C686.777 509.267 685.243 508.2 682.977 508.2C682.043 508.2 680.91 508.4 679.577 508.8C678.377 509.2 677.043 509.733 675.577 510.4C675.043 510.533 674.577 510.2 674.177 509.4C673.777 508.6 673.71 508.133 673.977 508L703.377 494.2C703.643 494.067 703.91 494 704.177 494C704.843 494 705.577 494.333 706.377 495C707.177 495.533 707.577 496.067 707.577 496.6ZM769.93 641.4C761.263 641.4 753.863 639.6 747.73 636C741.73 632.4 737.13 627.667 733.93 621.8C730.863 615.8 729.33 609.467 729.33 602.8C729.33 594.933 731.33 587.8 735.33 581.4C739.33 574.867 744.73 569.667 751.53 565.8C758.463 561.933 766.263 560 774.93 560C783.196 560 789.53 561.8 793.93 565.4C798.33 568.867 800.53 573.667 800.53 579.8C800.53 581.267 800.396 582.6 800.13 583.8C799.863 585 799.263 585.6 798.33 585.6H779.13C779.396 579.333 778.663 574.2 776.93 570.2C775.196 566.067 772.063 564 767.53 564C762.196 564 757.863 566.8 754.53 572.4C751.196 577.867 749.53 585.2 749.53 594.4C749.53 601.867 750.73 608.4 753.13 614C755.53 619.6 758.996 623.933 763.53 627C768.063 630.067 773.53 631.6 779.93 631.6C783.13 631.6 786.53 631.133 790.13 630.2C793.863 629.267 797.196 627.867 800.13 626C800.396 625.733 800.73 625.867 801.13 626.4C801.663 626.933 801.796 627.4 801.53 627.8C796.596 632.733 791.53 636.267 786.33 638.4C781.263 640.4 775.796 641.4 769.93 641.4ZM742.53 586L742.33 582.2L786.13 581.2V585.6L742.53 586ZM868.123 639C867.723 639 867.523 638.6 867.523 637.8C867.523 637 867.723 636.6 868.123 636.6C872.257 636.6 875.057 635.667 876.523 633.8C877.99 631.8 878.723 628.133 878.723 622.8V594C878.723 586.8 877.39 581.467 874.723 578C872.19 574.533 868.123 572.8 862.523 572.8C858.523 572.8 854.39 573.8 850.123 575.8C845.99 577.8 842.657 580.533 840.123 584L839.123 581.6C843.79 574.933 849.057 569.6 854.923 565.6C860.79 561.467 867.19 559.4 874.123 559.4C881.59 559.4 887.323 561.733 891.323 566.4C895.457 571.067 897.523 577.067 897.523 584.4V622.8C897.523 628.133 898.257 631.8 899.723 633.8C901.323 635.667 904.19 636.6 908.323 636.6C908.723 636.6 908.923 637 908.923 637.8C908.923 638.6 908.723 639 908.323 639C905.657 639 902.59 638.933 899.123 638.8C895.657 638.667 891.99 638.6 888.123 638.6C884.39 638.6 880.79 638.667 877.323 638.8C873.857 638.933 870.79 639 868.123 639ZM814.323 639C813.923 639 813.723 638.6 813.723 637.8C813.723 637 813.923 636.6 814.323 636.6C818.457 636.6 821.257 635.667 822.723 633.8C824.19 631.8 824.923 628.133 824.923 622.8V585.2C824.923 581.067 824.457 578.067 823.523 576.2C822.59 574.2 820.99 573.2 818.723 573.2C817.523 573.2 816.123 573.467 814.523 574C812.923 574.4 811.123 575.067 809.123 576C808.59 576.267 808.19 576 807.923 575.2C807.657 574.4 807.657 573.933 807.923 573.8L835.723 560.2C836.523 559.933 836.99 559.8 837.123 559.8C838.59 559.8 840.057 561.4 841.523 564.6C842.99 567.8 843.723 572.4 843.723 578.4V622.8C843.723 628.133 844.457 631.8 845.923 633.8C847.523 635.667 850.39 636.6 854.523 636.6C854.923 636.6 855.123 637 855.123 637.8C855.123 638.6 854.923 639 854.523 639C851.857 639 848.79 638.933 845.323 638.8C841.857 638.667 838.19 638.6 834.323 638.6C830.59 638.6 826.99 638.667 823.523 638.8C820.057 638.933 816.99 639 814.323 639ZM948.597 641.4C945.397 641.4 942.13 640.867 938.797 639.8C935.597 638.733 932.864 636.867 930.597 634.2C928.464 631.533 927.397 627.8 927.397 623V578.6C927.397 575.8 927.064 573.6 926.397 572C925.73 570.4 924.664 569.267 923.197 568.6C921.73 567.933 919.73 567.6 917.197 567.6C916.664 567.6 916.397 567 916.397 565.8C916.397 564.6 916.664 564 917.197 564C923.997 563.733 929.53 562.267 933.797 559.6C938.064 556.8 941.264 552.733 943.397 547.4C943.664 546.867 944.197 546.6 944.997 546.6C945.93 546.6 946.397 546.867 946.397 547.4V616.4C946.397 621.733 947.73 625.533 950.397 627.8C953.197 630.067 956.597 631.2 960.597 631.2C963.664 631.2 966.53 630.6 969.197 629.4C971.997 628.067 974.33 626.667 976.197 625.2C976.597 624.8 977.064 624.933 977.597 625.6C978.264 626.133 978.33 626.6 977.797 627C972.864 631.933 968.064 635.6 963.397 638C958.864 640.267 953.93 641.4 948.597 641.4ZM971.597 572C966.13 570.8 960.797 570 955.597 569.6C950.53 569.067 945.13 568.8 939.397 568.8V563.6C944.864 563.6 950.197 563.4 955.397 563C960.73 562.6 966.397 562.133 972.397 561.6C972.664 561.6 972.93 562.133 973.197 563.2C973.597 564.133 973.797 565.2 973.797 566.4C973.797 567.733 973.53 569.067 972.997 570.4C972.597 571.6 972.13 572.133 971.597 572Z" fill="white"/>
<path d="M1000 641.2C996.267 641.2 993.267 640.133 991 638C988.867 635.733 987.8 632.733 987.8 629C987.8 625.533 988.867 622.733 991 620.6C993.267 618.467 996.267 617.4 1000 617.4C1003.87 617.4 1006.8 618.467 1008.8 620.6C1010.8 622.733 1011.8 625.533 1011.8 629C1011.8 632.733 1010.8 635.733 1008.8 638C1006.8 640.133 1003.87 641.2 1000 641.2Z" fill="#eb0032"/>
</svg>
