<svg viewBox="0 0 851 315" fill="none" xmlns="http://www.w3.org/2000/svg">
<path d="M18.8 93.2C17.2 93.2 15.6667 92.9333 14.2 92.4C12.7333 91.9333 11.5333 91.1 10.6 89.9C9.66667 88.7 9.2 87.0667 9.2 85V61.5C9.2 59.9 9.1 58.7 8.9 57.9C8.7 57.1 8.23333 56.6 7.5 56.4C6.76667 56.1333 5.63333 56 4.1 56C3.83333 56 3.7 55.8 3.7 55.4C3.7 54.9333 3.83333 54.7 4.1 54.7C6.76667 54.6333 8.93333 53.9 10.6 52.5C12.3333 51.1 13.3 49.3 13.5 47.1C13.5 46.9 13.7333 46.8 14.2 46.8C14.7333 46.8 15 46.9 15 47.1V81.6C15 84.3333 15.6667 86.3667 17 87.7C18.4 89.0333 20.3667 89.7 22.9 89.7C24.6333 89.7 26.1667 89.4333 27.5 88.9C28.9 88.3 30.0333 87.6333 30.9 86.9C31.1667 86.7667 31.4 86.8667 31.6 87.2C31.8667 87.4667 31.8667 87.7 31.6 87.9C29.1333 89.7667 26.9 91.1333 24.9 92C22.9667 92.8 20.9333 93.2 18.8 93.2ZM28.5 58.3C25.9 57.6333 23.4 57.2 21 57C18.6 56.8 16.0333 56.7 13.3 56.7V54.5C15.9667 54.5 18.5333 54.4 21 54.2C23.4667 54 26.1 53.7667 28.9 53.5C29.0333 53.5 29.1667 53.7333 29.3 54.2C29.5 54.6667 29.6 55.2333 29.6 55.9C29.6 56.3667 29.4667 56.9 29.2 57.5C29 58.1 28.7667 58.3667 28.5 58.3ZM36.3891 92C36.1891 92 36.0891 91.8 36.0891 91.4C36.0891 91 36.1891 90.8 36.3891 90.8C38.9891 90.8 40.6891 90.3667 41.4891 89.5C42.2891 88.5667 42.6891 86.7 42.6891 83.9V32.2C42.6891 29.8667 42.4557 28.1667 41.9891 27.1C41.5224 25.9667 40.6891 25.4 39.4891 25.4C38.4891 25.4 36.9557 25.8667 34.8891 26.8C34.6224 26.9333 34.3891 26.8333 34.1891 26.5C34.0557 26.1 34.1224 25.8333 34.3891 25.7L47.0891 19.5C47.2224 19.5 47.2891 19.5 47.2891 19.5C47.2891 19.5 47.3224 19.5 47.3891 19.5C47.5891 19.5 47.7891 19.6 47.9891 19.8C48.1891 19.9333 48.2891 20.1 48.2891 20.3V83.9C48.2891 86.7 48.6891 88.5667 49.4891 89.5C50.2891 90.3667 51.9891 90.8 54.5891 90.8C54.7891 90.8 54.8891 91 54.8891 91.4C54.8891 91.8 54.7891 92 54.5891 92C53.3891 92 52.0224 91.9667 50.4891 91.9C48.9557 91.8333 47.2891 91.8 45.4891 91.8C43.7557 91.8 42.0891 91.8333 40.4891 91.9C38.8891 91.9667 37.5224 92 36.3891 92ZM63.2891 92C63.0891 92 62.9891 91.8 62.9891 91.4C62.9891 91 63.0891 90.8 63.2891 90.8C65.8891 90.8 67.5891 90.3667 68.3891 89.5C69.1891 88.5667 69.5891 86.7 69.5891 83.9V68C69.5891 60.2 66.5224 56.3 60.3891 56.3C57.9224 56.3 55.4224 57.1 52.8891 58.7C50.3557 60.2333 48.1891 62.3333 46.3891 65L45.9891 63.8C48.9224 59.8 51.8224 56.9 54.6891 55.1C57.6224 53.3 60.6224 52.4 63.6891 52.4C67.3557 52.4 70.1891 53.4333 72.1891 55.5C74.1891 57.5 75.1891 60.5 75.1891 64.5V83.9C75.1891 86.7 75.5891 88.5667 76.3891 89.5C77.1891 90.3667 78.8891 90.8 81.4891 90.8C81.6891 90.8 81.7891 91 81.7891 91.4C81.7891 91.8 81.6891 92 81.4891 92C80.2891 92 78.9224 91.9667 77.3891 91.9C75.8557 91.8333 74.1891 91.8 72.3891 91.8C70.6557 91.8 68.9891 91.8333 67.3891 91.9C65.7891 91.9667 64.4224 92 63.2891 92ZM106.091 93.2C101.958 93.2 98.4914 92.3 95.6914 90.5C92.8914 88.6333 90.7914 86.2333 89.3914 83.3C87.9914 80.3667 87.2914 77.2667 87.2914 74C87.2914 69.9333 88.2247 66.3 90.0914 63.1C92.0247 59.8333 94.5914 57.2667 97.7914 55.4C101.058 53.4667 104.725 52.5 108.791 52.5C112.458 52.5 115.258 53.4 117.191 55.2C119.191 56.9333 120.191 59.3333 120.191 62.4C120.191 63.1333 120.125 63.7 119.991 64.1C119.858 64.5 119.525 64.7 118.991 64.7H113.191C113.458 61.4333 112.858 58.9333 111.391 57.2C109.991 55.4 107.991 54.5 105.391 54.5C101.658 54.5 98.7914 55.9 96.7914 58.7C94.8581 61.5 93.8914 65.3 93.8914 70.1C93.8914 73.9 94.4914 77.2667 95.6914 80.2C96.9581 83.1333 98.7581 85.4667 101.091 87.2C103.491 88.8667 106.325 89.7 109.591 89.7C111.325 89.7 113.091 89.4333 114.891 88.9C116.691 88.3667 118.391 87.5333 119.991 86.4C120.125 86.2667 120.291 86.3667 120.491 86.7C120.758 86.9667 120.825 87.2 120.691 87.4C118.291 89.4667 115.891 90.9667 113.491 91.9C111.091 92.7667 108.625 93.2 106.091 93.2ZM92.0914 64.9L91.9914 63.6L114.791 63.1V64.7L92.0914 64.9Z" fill="#123456"/>
<path d="M84.2 103.8C89.8 103.8 95.8 104.267 102.2 105.2C108.733 106.133 113.867 107.467 117.6 109.2C118.8 109.6 119.6 110.133 120 110.8C120.4 111.333 120.667 112.333 120.8 113.8L123.2 141.6C123.2 142 122.867 142.267 122.2 142.4C121.667 142.533 121.267 142.333 121 141.8C116.6 131.533 110.6 123.467 103 117.6C95.5333 111.733 86.6667 108.8 76.4 108.8C67.4667 108.8 59.8667 111.067 53.6 115.6C47.4667 120.133 42.8 126.467 39.6 134.6C36.5333 142.6 35 151.933 35 162.6C35 171.8 36.1333 180.467 38.4 188.6C40.6667 196.6 43.8667 203.667 48 209.8C52.1333 215.8 57.0667 220.533 62.8 224C68.5333 227.467 74.8667 229.2 81.8 229.2C90.3333 229.2 97.9333 226.4 104.6 220.8C111.4 215.2 117.467 206.533 122.8 194.8C123.067 194.267 123.533 194.067 124.2 194.2C124.867 194.333 125.2 194.6 125.2 195L122.2 222.2C121.933 223.8 121.6 224.867 121.2 225.4C120.933 225.8 120.2 226.267 119 226.8C112.867 229.067 106.667 230.733 100.4 231.8C94.2667 232.867 88.2667 233.4 82.4 233.4C69.4667 233.4 58.4 231.467 49.2 227.6C40 223.6 32.4667 218.4 26.6 212C20.8667 205.467 16.6 198.4 13.8 190.8C11.1333 183.067 9.8 175.467 9.8 168C9.8 158.133 11.8 149.267 15.8 141.4C19.9333 133.533 25.4667 126.8 32.4 121.2C39.4667 115.6 47.4 111.333 56.2 108.4C65.1333 105.333 74.4667 103.8 84.2 103.8ZM181.189 233.6C172.789 233.6 165.522 231.667 159.389 227.8C153.256 223.933 148.522 218.8 145.189 212.4C141.856 205.867 140.189 198.867 140.189 191.4C140.189 184.467 141.522 178.467 144.189 173.4C146.856 168.333 150.389 164.2 154.789 161C159.189 157.667 163.989 155.2 169.189 153.6C174.389 152 179.522 151.2 184.589 151.2C193.122 151.2 200.389 153.2 206.389 157.2C212.522 161.2 217.189 166.333 220.389 172.6C223.589 178.867 225.189 185.533 225.189 192.6C225.189 200.733 223.122 207.933 218.989 214.2C214.989 220.333 209.656 225.133 202.989 228.6C196.322 231.933 189.056 233.6 181.189 233.6ZM187.189 229.4C192.522 229.4 196.522 226.8 199.189 221.6C201.856 216.4 203.189 209.067 203.189 199.6C203.189 189.867 201.922 181.733 199.389 175.2C196.989 168.667 193.856 163.733 189.989 160.4C186.122 157.067 182.056 155.4 177.789 155.4C172.589 155.4 168.589 157.733 165.789 162.4C163.122 167.067 161.789 174.267 161.789 184C161.789 193.067 162.922 201.067 165.189 208C167.456 214.8 170.522 220.067 174.389 223.8C178.256 227.533 182.522 229.4 187.189 229.4ZM293.241 231C292.841 231 292.641 230.6 292.641 229.8C292.641 229 292.841 228.6 293.241 228.6C297.374 228.6 300.174 227.667 301.641 225.8C303.107 223.8 303.841 220.133 303.841 214.8V186C303.841 178.8 302.507 173.467 299.841 170C297.307 166.533 293.241 164.8 287.641 164.8C283.641 164.8 279.507 165.8 275.241 167.8C271.107 169.8 267.774 172.533 265.241 176L264.241 173.6C268.907 166.933 274.174 161.6 280.041 157.6C285.907 153.467 292.307 151.4 299.241 151.4C306.707 151.4 312.441 153.733 316.441 158.4C320.574 163.067 322.641 169.067 322.641 176.4V214.8C322.641 220.133 323.374 223.8 324.841 225.8C326.441 227.667 329.307 228.6 333.441 228.6C333.841 228.6 334.041 229 334.041 229.8C334.041 230.6 333.841 231 333.441 231C330.774 231 327.707 230.933 324.241 230.8C320.774 230.667 317.107 230.6 313.241 230.6C309.507 230.6 305.907 230.667 302.441 230.8C298.974 230.933 295.907 231 293.241 231ZM239.441 231C239.041 231 238.841 230.6 238.841 229.8C238.841 229 239.041 228.6 239.441 228.6C243.574 228.6 246.374 227.667 247.841 225.8C249.307 223.8 250.041 220.133 250.041 214.8V177.2C250.041 173.067 249.574 170.067 248.641 168.2C247.707 166.2 246.107 165.2 243.841 165.2C242.641 165.2 241.241 165.467 239.641 166C238.041 166.4 236.241 167.067 234.241 168C233.707 168.267 233.307 168 233.041 167.2C232.774 166.4 232.774 165.933 233.041 165.8L260.841 152.2C261.641 151.933 262.107 151.8 262.241 151.8C263.707 151.8 265.174 153.4 266.641 156.6C268.107 159.8 268.841 164.4 268.841 170.4V214.8C268.841 220.133 269.574 223.8 271.041 225.8C272.641 227.667 275.507 228.6 279.641 228.6C280.041 228.6 280.241 229 280.241 229.8C280.241 230.6 280.041 231 279.641 231C276.974 231 273.907 230.933 270.441 230.8C266.974 230.667 263.307 230.6 259.441 230.6C255.707 230.6 252.107 230.667 248.641 230.8C245.174 230.933 242.107 231 239.441 231ZM342.314 231C341.781 231 341.514 230.6 341.514 229.8C341.514 229 341.781 228.6 342.314 228.6C347.381 228.6 350.647 227.733 352.114 226C353.581 224.267 354.314 220.533 354.314 214.8V169.8C354.314 166.867 353.914 164.733 353.114 163.4C352.314 161.933 350.981 161 349.114 160.6C347.247 160.067 344.714 159.8 341.514 159.8C341.114 159.8 340.914 159.2 340.914 158C340.914 156.8 341.114 156.2 341.514 156.2C346.181 156.2 349.381 155.6 351.114 154.4C352.847 153.067 353.781 150.733 353.914 147.4C354.581 132.6 356.914 120.733 360.914 111.8C364.914 102.733 370.581 96.1333 377.914 92C385.247 87.8667 394.114 85.8 404.514 85.8C413.714 85.8 420.847 87.2 425.914 90C431.114 92.8 433.714 96.5333 433.714 101.2C433.714 103.6 432.914 105.667 431.314 107.4C429.714 109 427.247 109.8 423.914 109.8C420.447 109.8 417.847 108.8 416.114 106.8C414.381 104.8 412.847 102.467 411.514 99.8C410.181 97.1333 408.514 94.8 406.514 92.8C404.647 90.8 401.847 89.8 398.114 89.8C393.847 89.8 389.781 91.6 385.914 95.2C382.047 98.8 378.914 104.533 376.514 112.4C374.247 120.267 373.114 130.533 373.114 143.2V214.8C373.114 218.667 373.514 221.6 374.314 223.6C375.114 225.6 376.781 226.933 379.314 227.6C381.847 228.267 385.714 228.6 390.914 228.6C391.447 228.6 391.714 229 391.714 229.8C391.714 230.6 391.447 231 390.914 231C386.247 231 381.647 230.933 377.114 230.8C372.714 230.667 368.181 230.6 363.514 230.6C359.647 230.6 355.847 230.667 352.114 230.8C348.514 230.933 345.247 231 342.314 231ZM394.514 164C389.314 162.8 384.314 162 379.514 161.6C374.847 161.067 369.847 160.8 364.514 160.8V155.6C369.581 155.6 374.581 155.4 379.514 155C384.447 154.6 389.647 154.133 395.114 153.6C395.514 153.6 395.847 154.133 396.114 155.2C396.381 156.133 396.514 157.2 396.514 158.4C396.514 159.733 396.247 161.067 395.714 162.4C395.314 163.6 394.914 164.133 394.514 164ZM405.914 231C405.647 231 405.514 230.6 405.514 229.8C405.514 229 405.647 228.6 405.914 228.6C410.047 228.6 412.847 227.667 414.314 225.8C415.914 223.8 416.714 220.133 416.714 214.8V179C416.714 172.6 415.781 168.667 413.914 167.2C412.047 165.6 408.514 166 403.314 168.4C402.781 168.533 402.314 168.2 401.914 167.4C401.647 166.6 401.647 166.133 401.914 166L432.114 152C432.781 151.6 433.581 151.8 434.514 152.6C435.447 153.267 435.914 153.933 435.914 154.6C435.914 156.2 435.781 158.867 435.514 162.6C435.381 166.333 435.314 171.667 435.314 178.6V214.8C435.314 220.133 436.047 223.8 437.514 225.8C439.114 227.667 441.981 228.6 446.114 228.6C446.647 228.6 446.914 229 446.914 229.8C446.914 230.6 446.647 231 446.114 231C443.447 231 440.381 230.933 436.914 230.8C433.581 230.667 429.981 230.6 426.114 230.6C422.247 230.6 418.581 230.667 415.114 230.8C411.647 230.933 408.581 231 405.914 231ZM488.777 233.6C483.043 233.6 477.777 232.067 472.977 229C468.31 225.933 464.51 221.533 461.577 215.8C458.777 209.933 457.377 202.867 457.377 194.6C457.377 186.467 458.843 179.667 461.777 174.2C464.71 168.6 468.443 164.133 472.977 160.8C477.643 157.467 482.643 155.067 487.977 153.6C493.31 152 498.377 151.2 503.177 151.2C507.977 151.2 512.443 151.8 516.577 153C520.71 154.2 524.443 155.667 527.777 157.4L523.177 173.6C520.377 167.6 517.177 163.267 513.577 160.6C509.977 157.8 505.51 156.4 500.177 156.4C493.377 156.4 487.977 158.8 483.977 163.6C479.977 168.267 477.977 176.467 477.977 188.2C477.977 195.8 478.91 202.267 480.777 207.6C482.643 212.933 485.243 217 488.577 219.8C491.91 222.6 495.643 224 499.777 224C505.11 224 509.777 222.533 513.777 219.6C517.777 216.667 521.643 213.133 525.377 209L527.377 210.8C524.577 214 521.243 217.4 517.377 221C513.643 224.467 509.377 227.467 504.577 230C499.91 232.4 494.643 233.6 488.777 233.6ZM537.577 88.6V207.8C537.577 212.333 537.977 215.533 538.777 217.4C539.71 219.267 541.177 220.2 543.177 220.2C544.11 220.2 545.243 220 546.577 219.6C548.043 219.2 549.643 218.667 551.377 218C551.777 217.733 552.177 218 552.577 218.8C552.977 219.467 553.043 219.933 552.777 220.2L525.177 233.6C524.777 233.733 524.443 233.8 524.177 233.8C522.843 233.8 521.577 232.133 520.377 228.8C519.31 225.467 518.777 220.733 518.777 214.6V113.2C518.777 108.667 518.377 105.4 517.577 103.4C516.777 101.267 515.243 100.2 512.977 100.2C512.043 100.2 510.91 100.4 509.577 100.8C508.377 101.2 507.043 101.733 505.577 102.4C505.043 102.533 504.577 102.2 504.177 101.4C503.777 100.6 503.71 100.133 503.977 100L533.377 86.2C533.643 86.0667 533.91 86 534.177 86C534.843 86 535.577 86.3333 536.377 87C537.177 87.5333 537.577 88.0667 537.577 88.6ZM599.93 233.4C591.263 233.4 583.863 231.6 577.73 228C571.73 224.4 567.13 219.667 563.93 213.8C560.863 207.8 559.33 201.467 559.33 194.8C559.33 186.933 561.33 179.8 565.33 173.4C569.33 166.867 574.73 161.667 581.53 157.8C588.463 153.933 596.263 152 604.93 152C613.196 152 619.53 153.8 623.93 157.4C628.33 160.867 630.53 165.667 630.53 171.8C630.53 173.267 630.396 174.6 630.13 175.8C629.863 177 629.263 177.6 628.33 177.6H609.13C609.396 171.333 608.663 166.2 606.93 162.2C605.196 158.067 602.063 156 597.53 156C592.196 156 587.863 158.8 584.53 164.4C581.196 169.867 579.53 177.2 579.53 186.4C579.53 193.867 580.73 200.4 583.13 206C585.53 211.6 588.996 215.933 593.53 219C598.063 222.067 603.53 223.6 609.93 223.6C613.13 223.6 616.53 223.133 620.13 222.2C623.863 221.267 627.196 219.867 630.13 218C630.396 217.733 630.73 217.867 631.13 218.4C631.663 218.933 631.796 219.4 631.53 219.8C626.596 224.733 621.53 228.267 616.33 230.4C611.263 232.4 605.796 233.4 599.93 233.4ZM572.53 178L572.33 174.2L616.13 173.2V177.6L572.53 178ZM698.123 231C697.723 231 697.523 230.6 697.523 229.8C697.523 229 697.723 228.6 698.123 228.6C702.257 228.6 705.057 227.667 706.523 225.8C707.99 223.8 708.723 220.133 708.723 214.8V186C708.723 178.8 707.39 173.467 704.723 170C702.19 166.533 698.123 164.8 692.523 164.8C688.523 164.8 684.39 165.8 680.123 167.8C675.99 169.8 672.657 172.533 670.123 176L669.123 173.6C673.79 166.933 679.057 161.6 684.923 157.6C690.79 153.467 697.19 151.4 704.123 151.4C711.59 151.4 717.323 153.733 721.323 158.4C725.457 163.067 727.523 169.067 727.523 176.4V214.8C727.523 220.133 728.257 223.8 729.723 225.8C731.323 227.667 734.19 228.6 738.323 228.6C738.723 228.6 738.923 229 738.923 229.8C738.923 230.6 738.723 231 738.323 231C735.657 231 732.59 230.933 729.123 230.8C725.657 230.667 721.99 230.6 718.123 230.6C714.39 230.6 710.79 230.667 707.323 230.8C703.857 230.933 700.79 231 698.123 231ZM644.323 231C643.923 231 643.723 230.6 643.723 229.8C643.723 229 643.923 228.6 644.323 228.6C648.457 228.6 651.257 227.667 652.723 225.8C654.19 223.8 654.923 220.133 654.923 214.8V177.2C654.923 173.067 654.457 170.067 653.523 168.2C652.59 166.2 650.99 165.2 648.723 165.2C647.523 165.2 646.123 165.467 644.523 166C642.923 166.4 641.123 167.067 639.123 168C638.59 168.267 638.19 168 637.923 167.2C637.657 166.4 637.657 165.933 637.923 165.8L665.723 152.2C666.523 151.933 666.99 151.8 667.123 151.8C668.59 151.8 670.057 153.4 671.523 156.6C672.99 159.8 673.723 164.4 673.723 170.4V214.8C673.723 220.133 674.457 223.8 675.923 225.8C677.523 227.667 680.39 228.6 684.523 228.6C684.923 228.6 685.123 229 685.123 229.8C685.123 230.6 684.923 231 684.523 231C681.857 231 678.79 230.933 675.323 230.8C671.857 230.667 668.19 230.6 664.323 230.6C660.59 230.6 656.99 230.667 653.523 230.8C650.057 230.933 646.99 231 644.323 231ZM778.597 233.4C775.397 233.4 772.13 232.867 768.797 231.8C765.597 230.733 762.864 228.867 760.597 226.2C758.464 223.533 757.397 219.8 757.397 215V170.6C757.397 167.8 757.064 165.6 756.397 164C755.73 162.4 754.664 161.267 753.197 160.6C751.73 159.933 749.73 159.6 747.197 159.6C746.664 159.6 746.397 159 746.397 157.8C746.397 156.6 746.664 156 747.197 156C753.997 155.733 759.53 154.267 763.797 151.6C768.064 148.8 771.264 144.733 773.397 139.4C773.664 138.867 774.197 138.6 774.997 138.6C775.93 138.6 776.397 138.867 776.397 139.4V208.4C776.397 213.733 777.73 217.533 780.397 219.8C783.197 222.067 786.597 223.2 790.597 223.2C793.664 223.2 796.53 222.6 799.197 221.4C801.997 220.067 804.33 218.667 806.197 217.2C806.597 216.8 807.064 216.933 807.597 217.6C808.264 218.133 808.33 218.6 807.797 219C802.864 223.933 798.064 227.6 793.397 230C788.864 232.267 783.93 233.4 778.597 233.4ZM801.597 164C796.13 162.8 790.797 162 785.597 161.6C780.53 161.067 775.13 160.8 769.397 160.8V155.6C774.864 155.6 780.197 155.4 785.397 155C790.73 154.6 796.397 154.133 802.397 153.6C802.664 153.6 802.93 154.133 803.197 155.2C803.597 156.133 803.797 157.2 803.797 158.4C803.797 159.733 803.53 161.067 802.997 162.4C802.597 163.6 802.13 164.133 801.597 164Z" fill="#123456"/>
<path d="M830 233.2C826.267 233.2 823.267 232.133 821 230C818.867 227.733 817.8 224.733 817.8 221C817.8 217.533 818.867 214.733 821 212.6C823.267 210.467 826.267 209.4 830 209.4C833.867 209.4 836.8 210.467 838.8 212.6C840.8 214.733 841.8 217.533 841.8 221C841.8 224.733 840.8 227.733 838.8 230C836.8 232.133 833.867 233.2 830 233.2Z" fill="#FF34DD"/>
<path d="M408.033 286V246.1H415.329V279.502H431.745V286H408.033ZM448.853 286.57C445.414 286.57 442.545 285.886 440.246 284.518C437.966 283.131 436.256 281.307 435.116 279.046C433.976 276.766 433.406 274.277 433.406 271.579C433.406 268.976 433.938 266.572 435.002 264.368C436.085 262.164 437.662 260.397 439.733 259.067C441.804 257.718 444.331 257.044 447.314 257.044C450.05 257.044 452.33 257.604 454.154 258.725C455.978 259.846 457.346 261.347 458.258 263.228C459.17 265.09 459.626 267.152 459.626 269.413C459.626 270.04 459.588 270.676 459.512 271.322C459.436 271.949 459.322 272.605 459.17 273.289H440.759C441.025 275.056 441.576 276.49 442.412 277.592C443.267 278.675 444.302 279.473 445.518 279.986C446.753 280.499 448.074 280.756 449.48 280.756C451.133 280.756 452.672 280.547 454.097 280.129C455.522 279.692 456.833 279.122 458.03 278.419L458.372 284.404C457.289 284.974 455.94 285.477 454.325 285.914C452.71 286.352 450.886 286.57 448.853 286.57ZM440.93 268.501H452.444C452.444 267.646 452.282 266.791 451.959 265.936C451.636 265.062 451.095 264.33 450.335 263.741C449.594 263.152 448.587 262.858 447.314 262.858C445.49 262.858 444.055 263.39 443.01 264.454C441.965 265.518 441.272 266.867 440.93 268.501ZM473.742 286.57C471.956 286.57 470.502 286.209 469.381 285.487C468.26 284.746 467.434 283.805 466.902 282.665C466.37 281.525 466.104 280.338 466.104 279.103V263.314H462.057L462.684 257.5H466.104V251.23L473.172 250.489V257.5H479.442V263.314H473.172V276.196C473.172 277.64 473.257 278.685 473.428 279.331C473.599 279.958 473.989 280.357 474.597 280.528C475.205 280.68 476.174 280.756 477.504 280.756H479.442L478.815 286.57H473.742ZM487.236 260.692H483.93L486.381 253.852H483.474V246.1H490.884V253.168L487.236 260.692ZM503.215 286.57C501.334 286.57 499.634 286.39 498.114 286.029C496.613 285.667 495.102 285.145 493.582 284.461L494.209 278.419C495.672 279.274 497.107 279.967 498.513 280.499C499.938 281.012 501.429 281.269 502.987 281.269C504.393 281.269 505.467 281.041 506.208 280.585C506.949 280.129 507.319 279.407 507.319 278.419C507.319 277.678 507.12 277.07 506.721 276.595C506.341 276.12 505.761 275.692 504.982 275.312C504.203 274.932 503.234 274.524 502.075 274.087C500.327 273.441 498.836 272.738 497.601 271.978C496.385 271.218 495.454 270.306 494.808 269.242C494.181 268.159 493.867 266.829 493.867 265.252C493.867 263.618 494.295 262.174 495.15 260.92C496.005 259.666 497.221 258.687 498.798 257.984C500.375 257.281 502.246 256.93 504.412 256.93C506.217 256.93 507.832 257.129 509.257 257.528C510.701 257.927 512.031 258.469 513.247 259.153L512.62 265.195C511.347 264.302 510.065 263.57 508.773 263C507.481 262.411 506.065 262.117 504.526 262.117C503.31 262.117 502.37 262.364 501.705 262.858C501.04 263.352 500.707 264.055 500.707 264.967C500.707 266.069 501.173 266.895 502.104 267.446C503.035 267.997 504.526 268.672 506.578 269.47C507.908 269.983 509.058 270.515 510.027 271.066C511.015 271.617 511.832 272.225 512.478 272.89C513.124 273.555 513.599 274.315 513.903 275.17C514.226 276.006 514.387 276.975 514.387 278.077C514.387 279.882 513.95 281.421 513.076 282.694C512.221 283.948 510.958 284.907 509.286 285.572C507.633 286.238 505.609 286.57 503.215 286.57ZM543.541 286.57C540.653 286.57 538.221 285.896 536.245 284.546C534.288 283.197 532.806 281.402 531.799 279.16C530.811 276.918 530.317 274.467 530.317 271.807C530.317 269.147 530.811 266.696 531.799 264.454C532.806 262.212 534.288 260.416 536.245 259.067C538.221 257.718 540.653 257.044 543.541 257.044C545.631 257.044 547.398 257.395 548.842 258.098C550.286 258.782 551.559 259.666 552.661 260.749L550.951 262.231V243.25H558.019V286H551.35L551.008 281.155L553.06 282.637C551.73 283.853 550.352 284.812 548.927 285.515C547.502 286.219 545.707 286.57 543.541 286.57ZM544.567 280.756C546.125 280.756 547.398 280.376 548.386 279.616C549.374 278.856 550.105 277.811 550.58 276.481C551.055 275.132 551.293 273.574 551.293 271.807C551.293 270.04 551.055 268.491 550.58 267.161C550.105 265.812 549.374 264.758 548.386 263.998C547.398 263.238 546.125 262.858 544.567 262.858C543.085 262.858 541.821 263.238 540.776 263.998C539.731 264.758 538.933 265.812 538.382 267.161C537.831 268.491 537.556 270.04 537.556 271.807C537.556 273.574 537.831 275.132 538.382 276.481C538.933 277.811 539.731 278.856 540.776 279.616C541.821 280.376 543.085 280.756 544.567 280.756ZM577.529 286.57C574.432 286.57 571.791 285.896 569.606 284.546C567.421 283.197 565.749 281.402 564.59 279.16C563.45 276.918 562.88 274.467 562.88 271.807C562.88 269.128 563.45 266.658 564.59 264.397C565.749 262.136 567.421 260.331 569.606 258.982C571.791 257.614 574.432 256.93 577.529 256.93C580.626 256.93 583.267 257.614 585.452 258.982C587.637 260.331 589.3 262.136 590.44 264.397C591.599 266.658 592.178 269.128 592.178 271.807C592.178 274.467 591.599 276.918 590.44 279.16C589.3 281.402 587.637 283.197 585.452 284.546C583.267 285.896 580.626 286.57 577.529 286.57ZM577.529 280.756C579.904 280.756 581.728 279.929 583.001 278.276C584.293 276.604 584.939 274.448 584.939 271.807C584.939 269.128 584.293 266.952 583.001 265.28C581.728 263.589 579.904 262.744 577.529 262.744C575.173 262.744 573.349 263.589 572.057 265.28C570.765 266.952 570.119 269.128 570.119 271.807C570.119 274.448 570.765 276.604 572.057 278.276C573.349 279.929 575.173 280.756 577.529 280.756ZM624.721 286.57C622.555 286.57 620.683 286.219 619.106 285.515C617.529 284.812 616.057 283.853 614.689 282.637L616.798 281.155L616.456 286H609.844V243.25H616.912V262.231L615.202 261.148C616.456 259.856 617.852 258.849 619.391 258.127C620.949 257.405 622.726 257.044 624.721 257.044C627.514 257.044 629.86 257.718 631.76 259.067C633.66 260.416 635.095 262.212 636.064 264.454C637.052 266.696 637.546 269.147 637.546 271.807C637.546 274.467 637.052 276.918 636.064 279.16C635.095 281.402 633.66 283.197 631.76 284.546C629.86 285.896 627.514 286.57 624.721 286.57ZM623.695 280.756C625.101 280.756 626.298 280.376 627.286 279.616C628.274 278.856 629.024 277.811 629.537 276.481C630.05 275.132 630.307 273.574 630.307 271.807C630.307 270.04 630.05 268.491 629.537 267.161C629.024 265.812 628.274 264.758 627.286 263.998C626.298 263.238 625.101 262.858 623.695 262.858C622.042 262.858 620.693 263.238 619.648 263.998C618.603 264.758 617.824 265.812 617.311 267.161C616.817 268.491 616.57 270.04 616.57 271.807C616.57 273.574 616.817 275.132 617.311 276.481C617.824 277.811 618.603 278.856 619.648 279.616C620.693 280.376 622.042 280.756 623.695 280.756ZM642.464 286V257.5H649.532V286H642.464ZM642.464 253.168V246.1H649.532V253.168H642.464ZM667.444 300.364C664.784 300.364 662.456 300.032 660.461 299.367C658.485 298.721 656.946 297.79 655.844 296.574C654.761 295.358 654.22 293.904 654.22 292.213C654.22 290.788 654.609 289.515 655.388 288.394C656.186 287.292 657.336 286.323 658.837 285.487C658.077 285.031 657.469 284.461 657.013 283.777C656.557 283.093 656.329 282.314 656.329 281.44C656.329 280.528 656.585 279.739 657.098 279.074C657.63 278.39 658.324 277.849 659.179 277.45C657.735 276.424 656.642 275.113 655.901 273.517C655.16 271.902 654.79 270.154 654.79 268.273C654.79 266.221 655.236 264.34 656.129 262.63C657.022 260.901 658.324 259.523 660.034 258.497C661.763 257.452 663.872 256.93 666.361 256.93C667.653 256.93 668.84 257.091 669.923 257.414C671.025 257.737 672.004 258.184 672.859 258.754C673.429 258.431 674.255 258.146 675.338 257.899C676.421 257.633 677.628 257.5 678.958 257.5C679.281 257.5 679.585 257.5 679.87 257.5C680.174 257.5 680.478 257.5 680.782 257.5L680.326 261.946C679.908 261.946 679.48 261.946 679.043 261.946C678.625 261.946 678.198 261.946 677.761 261.946C677.59 261.946 677.362 261.946 677.077 261.946C676.792 261.946 676.488 261.965 676.165 262.003C676.735 262.877 677.162 263.855 677.447 264.938C677.732 266.021 677.875 267.133 677.875 268.273C677.875 270.325 677.428 272.215 676.535 273.944C675.661 275.654 674.369 277.032 672.659 278.077C670.949 279.103 668.85 279.616 666.361 279.616C665.829 279.616 665.316 279.578 664.822 279.502C664.328 279.426 663.834 279.331 663.34 279.217C662.922 279.388 662.713 279.692 662.713 280.129C662.713 280.642 663.026 281.031 663.653 281.297C664.28 281.563 665.259 281.801 666.589 282.01L671.491 282.637C674.55 283.036 676.944 283.9 678.673 285.23C680.421 286.561 681.295 288.451 681.295 290.902C681.295 292.802 680.744 294.455 679.642 295.861C678.559 297.286 676.982 298.388 674.911 299.167C672.84 299.965 670.351 300.364 667.444 300.364ZM667.729 295.006C670.123 295.006 671.937 294.712 673.172 294.123C674.407 293.534 675.025 292.631 675.025 291.415C675.025 290.332 674.588 289.534 673.714 289.021C672.859 288.508 671.491 288.109 669.61 287.824L663.368 286.912C662.437 287.273 661.658 287.767 661.031 288.394C660.404 289.04 660.091 289.876 660.091 290.902C660.091 292.289 660.765 293.315 662.114 293.98C663.463 294.664 665.335 295.006 667.729 295.006ZM666.361 274.372C668.052 274.372 669.325 273.821 670.18 272.719C671.054 271.598 671.491 270.116 671.491 268.273C671.491 266.411 671.054 264.929 670.18 263.827C669.325 262.725 668.052 262.174 666.361 262.174C664.651 262.174 663.359 262.725 662.485 263.827C661.611 264.929 661.174 266.411 661.174 268.273C661.174 270.116 661.611 271.598 662.485 272.719C663.359 273.821 664.651 274.372 666.361 274.372ZM706.807 286.57C705.021 286.57 703.567 286.209 702.446 285.487C701.325 284.746 700.499 283.805 699.967 282.665C699.435 281.525 699.169 280.338 699.169 279.103V263.314H695.122L695.749 257.5H699.169V251.23L706.237 250.489V257.5H712.507V263.314H706.237V276.196C706.237 277.64 706.322 278.685 706.493 279.331C706.664 279.958 707.054 280.357 707.662 280.528C708.27 280.68 709.239 280.756 710.569 280.756H712.507L711.88 286.57H706.807ZM717.053 286V243.25H724.121V261.661L722.525 260.407C723.722 259.571 725.023 258.801 726.429 258.098C727.835 257.395 729.517 257.044 731.474 257.044C733.982 257.044 736.024 257.604 737.601 258.725C739.178 259.827 740.337 261.366 741.078 263.342C741.819 265.299 742.19 267.57 742.19 270.154V286H735.122V270.667C735.122 268.007 734.694 266.04 733.839 264.767C732.984 263.494 731.588 262.858 729.65 262.858C727.997 262.858 726.638 263.247 725.574 264.026C724.529 264.786 723.608 265.822 722.81 267.133L724.121 263.314V286H717.053ZM748.504 286V257.5H755.572V286H748.504ZM748.504 253.168V246.1H755.572V253.168H748.504ZM762.198 286V257.5H768.81L769.095 262.801L767.442 260.635C768.525 259.723 769.817 258.896 771.318 258.155C772.819 257.414 774.567 257.044 776.562 257.044C780.21 257.044 782.917 258.26 784.684 260.692C786.451 263.105 787.335 266.24 787.335 270.097V286H780.267V270.667C780.267 268.007 779.82 266.04 778.927 264.767C778.053 263.494 776.619 262.858 774.624 262.858C773.009 262.858 771.688 263.257 770.662 264.055C769.636 264.834 768.734 265.879 767.955 267.19L769.266 263.713V286H762.198ZM804.934 300.364C802.274 300.364 799.946 300.032 797.951 299.367C795.975 298.721 794.436 297.79 793.334 296.574C792.251 295.358 791.71 293.904 791.71 292.213C791.71 290.788 792.099 289.515 792.878 288.394C793.676 287.292 794.826 286.323 796.327 285.487C795.567 285.031 794.959 284.461 794.503 283.777C794.047 283.093 793.819 282.314 793.819 281.44C793.819 280.528 794.075 279.739 794.588 279.074C795.12 278.39 795.814 277.849 796.669 277.45C795.225 276.424 794.132 275.113 793.391 273.517C792.65 271.902 792.28 270.154 792.28 268.273C792.28 266.221 792.726 264.34 793.619 262.63C794.512 260.901 795.814 259.523 797.524 258.497C799.253 257.452 801.362 256.93 803.851 256.93C805.143 256.93 806.33 257.091 807.413 257.414C808.515 257.737 809.494 258.184 810.349 258.754C810.919 258.431 811.745 258.146 812.828 257.899C813.911 257.633 815.118 257.5 816.448 257.5C816.771 257.5 817.075 257.5 817.36 257.5C817.664 257.5 817.968 257.5 818.272 257.5L817.816 261.946C817.398 261.946 816.97 261.946 816.533 261.946C816.115 261.946 815.688 261.946 815.251 261.946C815.08 261.946 814.852 261.946 814.567 261.946C814.282 261.946 813.978 261.965 813.655 262.003C814.225 262.877 814.652 263.855 814.937 264.938C815.222 266.021 815.365 267.133 815.365 268.273C815.365 270.325 814.918 272.215 814.025 273.944C813.151 275.654 811.859 277.032 810.149 278.077C808.439 279.103 806.34 279.616 803.851 279.616C803.319 279.616 802.806 279.578 802.312 279.502C801.818 279.426 801.324 279.331 800.83 279.217C800.412 279.388 800.203 279.692 800.203 280.129C800.203 280.642 800.516 281.031 801.143 281.297C801.77 281.563 802.749 281.801 804.079 282.01L808.981 282.637C812.04 283.036 814.434 283.9 816.163 285.23C817.911 286.561 818.785 288.451 818.785 290.902C818.785 292.802 818.234 294.455 817.132 295.861C816.049 297.286 814.472 298.388 812.401 299.167C810.33 299.965 807.841 300.364 804.934 300.364ZM805.219 295.006C807.613 295.006 809.427 294.712 810.662 294.123C811.897 293.534 812.515 292.631 812.515 291.415C812.515 290.332 812.078 289.534 811.204 289.021C810.349 288.508 808.981 288.109 807.1 287.824L800.858 286.912C799.927 287.273 799.148 287.767 798.521 288.394C797.894 289.04 797.581 289.876 797.581 290.902C797.581 292.289 798.255 293.315 799.604 293.98C800.953 294.664 802.825 295.006 805.219 295.006ZM803.851 274.372C805.542 274.372 806.815 273.821 807.67 272.719C808.544 271.598 808.981 270.116 808.981 268.273C808.981 266.411 808.544 264.929 807.67 263.827C806.815 262.725 805.542 262.174 803.851 262.174C802.141 262.174 800.849 262.725 799.975 263.827C799.101 264.929 798.664 266.411 798.664 268.273C798.664 270.116 799.101 271.598 799.975 272.719C800.849 273.821 802.141 274.372 803.851 274.372ZM830.297 286.57C828.416 286.57 826.716 286.39 825.196 286.029C823.695 285.667 822.184 285.145 820.664 284.461L821.291 278.419C822.754 279.274 824.189 279.967 825.595 280.499C827.02 281.012 828.511 281.269 830.069 281.269C831.475 281.269 832.549 281.041 833.29 280.585C834.031 280.129 834.401 279.407 834.401 278.419C834.401 277.678 834.202 277.07 833.803 276.595C833.423 276.12 832.843 275.692 832.064 275.312C831.285 274.932 830.316 274.524 829.157 274.087C827.409 273.441 825.918 272.738 824.683 271.978C823.467 271.218 822.536 270.306 821.89 269.242C821.263 268.159 820.949 266.829 820.949 265.252C820.949 263.618 821.377 262.174 822.232 260.92C823.087 259.666 824.303 258.687 825.88 257.984C827.457 257.281 829.328 256.93 831.494 256.93C833.299 256.93 834.914 257.129 836.339 257.528C837.783 257.927 839.113 258.469 840.329 259.153L839.702 265.195C838.429 264.302 837.147 263.57 835.855 263C834.563 262.411 833.147 262.117 831.608 262.117C830.392 262.117 829.452 262.364 828.787 262.858C828.122 263.352 827.789 264.055 827.789 264.967C827.789 266.069 828.255 266.895 829.186 267.446C830.117 267.997 831.608 268.672 833.66 269.47C834.99 269.983 836.14 270.515 837.109 271.066C838.097 271.617 838.914 272.225 839.56 272.89C840.206 273.555 840.681 274.315 840.985 275.17C841.308 276.006 841.469 276.975 841.469 278.077C841.469 279.882 841.032 281.421 840.158 282.694C839.303 283.948 838.04 284.907 836.368 285.572C834.715 286.238 832.691 286.57 830.297 286.57Z" fill="#123456"/>
</svg>
