<svg width="5000" height="3750" viewBox="0 0 5000 3750" fill="none" xmlns="http://www.w3.org/2000/svg">
<rect width="5000" height="3750" fill="#123456"/>
<path d="M977.313 1682.8C970.913 1682.8 964.779 1681.73 958.913 1679.6C953.046 1677.73 948.246 1674.4 944.513 1669.6C940.779 1664.8 938.913 1658.27 938.913 1650V1556C938.913 1549.6 938.513 1544.8 937.713 1541.6C936.913 1538.4 935.046 1536.4 932.113 1535.6C929.179 1534.53 924.646 1534 918.513 1534C917.446 1534 916.913 1533.2 916.913 1531.6C916.913 1529.73 917.446 1528.8 918.513 1528.8C929.179 1528.53 937.846 1525.6 944.513 1520C951.446 1514.4 955.313 1507.2 956.113 1498.4C956.113 1497.6 957.046 1497.2 958.913 1497.2C961.046 1497.2 962.113 1497.6 962.113 1498.4V1636.4C962.113 1647.33 964.779 1655.47 970.113 1660.8C975.713 1666.13 983.579 1668.8 993.713 1668.8C1000.65 1668.8 1006.78 1667.73 1012.11 1665.6C1017.71 1663.2 1022.25 1660.53 1025.71 1657.6C1026.78 1657.07 1027.71 1657.47 1028.51 1658.8C1029.58 1659.87 1029.58 1660.8 1028.51 1661.6C1018.65 1669.07 1009.71 1674.53 1001.71 1678C993.979 1681.2 985.846 1682.8 977.313 1682.8ZM1016.11 1543.2C1005.71 1540.53 995.713 1538.8 986.113 1538C976.513 1537.2 966.246 1536.8 955.313 1536.8V1528C965.979 1528 976.246 1527.6 986.113 1526.8C995.979 1526 1006.51 1525.07 1017.71 1524C1018.25 1524 1018.78 1524.93 1019.31 1526.8C1020.11 1528.67 1020.51 1530.93 1020.51 1533.6C1020.51 1535.47 1019.98 1537.6 1018.91 1540C1018.11 1542.4 1017.18 1543.47 1016.11 1543.2ZM1047.67 1678C1046.87 1678 1046.47 1677.2 1046.47 1675.6C1046.47 1674 1046.87 1673.2 1047.67 1673.2C1058.07 1673.2 1064.87 1671.47 1068.07 1668C1071.27 1664.27 1072.87 1656.8 1072.87 1645.6V1438.8C1072.87 1429.47 1071.94 1422.67 1070.07 1418.4C1068.2 1413.87 1064.87 1411.6 1060.07 1411.6C1056.07 1411.6 1049.94 1413.47 1041.67 1417.2C1040.6 1417.73 1039.67 1417.33 1038.87 1416C1038.34 1414.4 1038.6 1413.33 1039.67 1412.8L1090.47 1388C1091 1388 1091.27 1388 1091.27 1388C1091.27 1388 1091.4 1388 1091.67 1388C1092.47 1388 1093.27 1388.4 1094.07 1389.2C1094.87 1389.73 1095.27 1390.4 1095.27 1391.2V1645.6C1095.27 1656.8 1096.87 1664.27 1100.07 1668C1103.27 1671.47 1110.07 1673.2 1120.47 1673.2C1121.27 1673.2 1121.67 1674 1121.67 1675.6C1121.67 1677.2 1121.27 1678 1120.47 1678C1115.67 1678 1110.2 1677.87 1104.07 1677.6C1097.94 1677.33 1091.27 1677.2 1084.07 1677.2C1077.14 1677.2 1070.47 1677.33 1064.07 1677.6C1057.67 1677.87 1052.2 1678 1047.67 1678ZM1155.27 1678C1154.47 1678 1154.07 1677.2 1154.07 1675.6C1154.07 1674 1154.47 1673.2 1155.27 1673.2C1165.67 1673.2 1172.47 1671.47 1175.67 1668C1178.87 1664.27 1180.47 1656.8 1180.47 1645.6V1582C1180.47 1550.8 1168.2 1535.2 1143.67 1535.2C1133.8 1535.2 1123.8 1538.4 1113.67 1544.8C1103.54 1550.93 1094.87 1559.33 1087.67 1570L1086.07 1565.2C1097.8 1549.2 1109.4 1537.6 1120.87 1530.4C1132.6 1523.2 1144.6 1519.6 1156.87 1519.6C1171.54 1519.6 1182.87 1523.73 1190.87 1532C1198.87 1540 1202.87 1552 1202.87 1568V1645.6C1202.87 1656.8 1204.47 1664.27 1207.67 1668C1210.87 1671.47 1217.67 1673.2 1228.07 1673.2C1228.87 1673.2 1229.27 1674 1229.27 1675.6C1229.27 1677.2 1228.87 1678 1228.07 1678C1223.27 1678 1217.8 1677.87 1211.67 1677.6C1205.54 1677.33 1198.87 1677.2 1191.67 1677.2C1184.74 1677.2 1178.07 1677.33 1171.67 1677.6C1165.27 1677.87 1159.8 1678 1155.27 1678ZM1326.48 1682.8C1309.95 1682.8 1296.08 1679.2 1284.88 1672C1273.68 1664.53 1265.28 1654.93 1259.68 1643.2C1254.08 1631.47 1251.28 1619.07 1251.28 1606C1251.28 1589.73 1255.01 1575.2 1262.48 1562.4C1270.21 1549.33 1280.48 1539.07 1293.28 1531.6C1306.35 1523.87 1321.01 1520 1337.28 1520C1351.95 1520 1363.15 1523.6 1370.88 1530.8C1378.88 1537.73 1382.88 1547.33 1382.88 1559.6C1382.88 1562.53 1382.61 1564.8 1382.08 1566.4C1381.55 1568 1380.21 1568.8 1378.08 1568.8H1354.88C1355.95 1555.73 1353.55 1545.73 1347.68 1538.8C1342.08 1531.6 1334.08 1528 1323.68 1528C1308.75 1528 1297.28 1533.6 1289.28 1544.8C1281.55 1556 1277.68 1571.2 1277.68 1590.4C1277.68 1605.6 1280.08 1619.07 1284.88 1630.8C1289.95 1642.53 1297.15 1651.87 1306.48 1658.8C1316.08 1665.47 1327.41 1668.8 1340.48 1668.8C1347.41 1668.8 1354.48 1667.73 1361.68 1665.6C1368.88 1663.47 1375.68 1660.13 1382.08 1655.6C1382.61 1655.07 1383.28 1655.47 1384.08 1656.8C1385.15 1657.87 1385.41 1658.8 1384.88 1659.6C1375.28 1667.87 1365.68 1673.87 1356.08 1677.6C1346.48 1681.07 1336.61 1682.8 1326.48 1682.8ZM1270.48 1569.6L1270.08 1564.4L1361.28 1562.4V1568.8L1270.48 1569.6Z" fill="white"/>
<path d="M1211.8 1698.57C1234.2 1698.57 1258.2 1700.44 1283.8 1704.17C1309.93 1707.91 1330.47 1713.24 1345.4 1720.17C1350.2 1721.77 1353.4 1723.91 1355 1726.57C1356.6 1728.71 1357.67 1732.71 1358.2 1738.57L1367.8 1849.77C1367.8 1851.37 1366.47 1852.44 1363.8 1852.97C1361.67 1853.51 1360.07 1852.71 1359 1850.57C1341.4 1809.51 1317.4 1777.24 1287 1753.77C1257.13 1730.31 1221.67 1718.57 1180.6 1718.57C1144.87 1718.57 1114.47 1727.64 1089.4 1745.77C1064.87 1763.91 1046.2 1789.24 1033.4 1821.77C1021.13 1853.77 1015 1891.11 1015 1933.77C1015 1970.57 1019.53 2005.24 1028.6 2037.77C1037.67 2069.77 1050.47 2098.04 1067 2122.57C1083.53 2146.57 1103.27 2165.51 1126.2 2179.37C1149.13 2193.24 1174.47 2200.17 1202.2 2200.17C1236.33 2200.17 1266.73 2188.97 1293.4 2166.57C1320.6 2144.17 1344.87 2109.51 1366.2 2062.57C1367.27 2060.44 1369.13 2059.64 1371.8 2060.17C1374.47 2060.71 1375.8 2061.77 1375.8 2063.37L1363.8 2172.17C1362.73 2178.57 1361.4 2182.84 1359.8 2184.97C1358.73 2186.57 1355.8 2188.44 1351 2190.57C1326.47 2199.64 1301.67 2206.31 1276.6 2210.57C1252.07 2214.84 1228.07 2216.97 1204.6 2216.97C1152.87 2216.97 1108.6 2209.24 1071.8 2193.77C1035 2177.77 1004.87 2156.97 981.4 2131.37C958.467 2105.24 941.4 2076.97 930.2 2046.57C919.533 2015.64 914.2 1985.24 914.2 1955.37C914.2 1915.91 922.2 1880.44 938.2 1848.97C954.733 1817.51 976.867 1790.57 1004.6 1768.17C1032.87 1745.77 1064.6 1728.71 1099.8 1716.97C1135.53 1704.71 1172.87 1698.57 1211.8 1698.57ZM1599.76 2217.77C1566.16 2217.77 1537.09 2210.04 1512.56 2194.57C1488.02 2179.11 1469.09 2158.57 1455.76 2132.97C1442.42 2106.84 1435.76 2078.84 1435.76 2048.97C1435.76 2021.24 1441.09 1997.24 1451.76 1976.97C1462.42 1956.71 1476.56 1940.17 1494.16 1927.37C1511.76 1914.04 1530.96 1904.17 1551.76 1897.77C1572.56 1891.37 1593.09 1888.17 1613.36 1888.17C1647.49 1888.17 1676.56 1896.17 1700.56 1912.17C1725.09 1928.17 1743.76 1948.71 1756.56 1973.77C1769.36 1998.84 1775.76 2025.51 1775.76 2053.77C1775.76 2086.31 1767.49 2115.11 1750.96 2140.17C1734.96 2164.71 1713.62 2183.91 1686.96 2197.77C1660.29 2211.11 1631.22 2217.77 1599.76 2217.77ZM1623.76 2200.97C1645.09 2200.97 1661.09 2190.57 1671.76 2169.77C1682.42 2148.97 1687.76 2119.64 1687.76 2081.77C1687.76 2042.84 1682.69 2010.31 1672.56 1984.17C1662.96 1958.04 1650.42 1938.31 1634.96 1924.97C1619.49 1911.64 1603.22 1904.97 1586.16 1904.97C1565.36 1904.97 1549.36 1914.31 1538.16 1932.97C1527.49 1951.64 1522.16 1980.44 1522.16 2019.37C1522.16 2055.64 1526.69 2087.64 1535.76 2115.37C1544.82 2142.57 1557.09 2163.64 1572.56 2178.57C1588.02 2193.51 1605.09 2200.97 1623.76 2200.97ZM2047.96 2207.37C2046.36 2207.37 2045.56 2205.77 2045.56 2202.57C2045.56 2199.37 2046.36 2197.77 2047.96 2197.77C2064.5 2197.77 2075.7 2194.04 2081.56 2186.57C2087.43 2178.57 2090.36 2163.91 2090.36 2142.57V2027.37C2090.36 1998.57 2085.03 1977.24 2074.36 1963.37C2064.23 1949.51 2047.96 1942.57 2025.56 1942.57C2009.56 1942.57 1993.03 1946.57 1975.96 1954.57C1959.43 1962.57 1946.1 1973.51 1935.96 1987.37L1931.96 1977.77C1950.63 1951.11 1971.7 1929.77 1995.16 1913.77C2018.63 1897.24 2044.23 1888.97 2071.96 1888.97C2101.83 1888.97 2124.76 1898.31 2140.76 1916.97C2157.3 1935.64 2165.56 1959.64 2165.56 1988.97V2142.57C2165.56 2163.91 2168.5 2178.57 2174.36 2186.57C2180.76 2194.04 2192.23 2197.77 2208.76 2197.77C2210.36 2197.77 2211.16 2199.37 2211.16 2202.57C2211.16 2205.77 2210.36 2207.37 2208.76 2207.37C2198.1 2207.37 2185.83 2207.11 2171.96 2206.57C2158.1 2206.04 2143.43 2205.77 2127.96 2205.77C2113.03 2205.77 2098.63 2206.04 2084.76 2206.57C2070.9 2207.11 2058.63 2207.37 2047.96 2207.37ZM1832.76 2207.37C1831.16 2207.37 1830.36 2205.77 1830.36 2202.57C1830.36 2199.37 1831.16 2197.77 1832.76 2197.77C1849.3 2197.77 1860.5 2194.04 1866.36 2186.57C1872.23 2178.57 1875.16 2163.91 1875.16 2142.57V1992.17C1875.16 1975.64 1873.3 1963.64 1869.56 1956.17C1865.83 1948.17 1859.43 1944.17 1850.36 1944.17C1845.56 1944.17 1839.96 1945.24 1833.56 1947.37C1827.16 1948.97 1819.96 1951.64 1811.96 1955.37C1809.83 1956.44 1808.23 1955.37 1807.16 1952.17C1806.1 1948.97 1806.1 1947.11 1807.16 1946.57L1918.36 1892.17C1921.56 1891.11 1923.43 1890.57 1923.96 1890.57C1929.83 1890.57 1935.7 1896.97 1941.56 1909.77C1947.43 1922.57 1950.36 1940.97 1950.36 1964.97V2142.57C1950.36 2163.91 1953.3 2178.57 1959.16 2186.57C1965.56 2194.04 1977.03 2197.77 1993.56 2197.77C1995.16 2197.77 1995.96 2199.37 1995.96 2202.57C1995.96 2205.77 1995.16 2207.37 1993.56 2207.37C1982.9 2207.37 1970.63 2207.11 1956.76 2206.57C1942.9 2206.04 1928.23 2205.77 1912.76 2205.77C1897.83 2205.77 1883.43 2206.04 1869.56 2206.57C1855.7 2207.11 1843.43 2207.37 1832.76 2207.37ZM2244.26 2207.37C2242.12 2207.37 2241.06 2205.77 2241.06 2202.57C2241.06 2199.37 2242.12 2197.77 2244.26 2197.77C2264.52 2197.77 2277.59 2194.31 2283.46 2187.37C2289.32 2180.44 2292.26 2165.51 2292.26 2142.57V1962.57C2292.26 1950.84 2290.66 1942.31 2287.46 1936.97C2284.26 1931.11 2278.92 1927.37 2271.46 1925.77C2263.99 1923.64 2253.86 1922.57 2241.06 1922.57C2239.46 1922.57 2238.66 1920.17 2238.66 1915.37C2238.66 1910.57 2239.46 1908.17 2241.06 1908.17C2259.72 1908.17 2272.52 1905.77 2279.46 1900.97C2286.39 1895.64 2290.12 1886.31 2290.66 1872.97C2293.32 1813.77 2302.66 1766.31 2318.66 1730.57C2334.66 1694.31 2357.32 1667.91 2386.66 1651.37C2415.99 1634.84 2451.46 1626.57 2493.06 1626.57C2529.86 1626.57 2558.39 1632.17 2578.66 1643.37C2599.46 1654.57 2609.86 1669.51 2609.86 1688.17C2609.86 1697.77 2606.66 1706.04 2600.26 1712.97C2593.86 1719.37 2583.99 1722.57 2570.66 1722.57C2556.79 1722.57 2546.39 1718.57 2539.46 1710.57C2532.52 1702.57 2526.39 1693.24 2521.06 1682.57C2515.72 1671.91 2509.06 1662.57 2501.06 1654.57C2493.59 1646.57 2482.39 1642.57 2467.46 1642.57C2450.39 1642.57 2434.12 1649.77 2418.66 1664.17C2403.19 1678.57 2390.66 1701.51 2381.06 1732.97C2371.99 1764.44 2367.46 1805.51 2367.46 1856.17V2142.57C2367.46 2158.04 2369.06 2169.77 2372.26 2177.77C2375.46 2185.77 2382.12 2191.11 2392.26 2193.77C2402.39 2196.44 2417.86 2197.77 2438.66 2197.77C2440.79 2197.77 2441.86 2199.37 2441.86 2202.57C2441.86 2205.77 2440.79 2207.37 2438.66 2207.37C2419.99 2207.37 2401.59 2207.11 2383.46 2206.57C2365.86 2206.04 2347.72 2205.77 2329.06 2205.77C2313.59 2205.77 2298.39 2206.04 2283.46 2206.57C2269.06 2207.11 2255.99 2207.37 2244.26 2207.37ZM2453.06 1939.37C2432.26 1934.57 2412.26 1931.37 2393.06 1929.77C2374.39 1927.64 2354.39 1926.57 2333.06 1926.57V1905.77C2353.32 1905.77 2373.32 1904.97 2393.06 1903.37C2412.79 1901.77 2433.59 1899.91 2455.46 1897.77C2457.06 1897.77 2458.39 1899.91 2459.46 1904.17C2460.52 1907.91 2461.06 1912.17 2461.06 1916.97C2461.06 1922.31 2459.99 1927.64 2457.86 1932.97C2456.26 1937.77 2454.66 1939.91 2453.06 1939.37ZM2498.66 2207.37C2497.59 2207.37 2497.06 2205.77 2497.06 2202.57C2497.06 2199.37 2497.59 2197.77 2498.66 2197.77C2515.19 2197.77 2526.39 2194.04 2532.26 2186.57C2538.66 2178.57 2541.86 2163.91 2541.86 2142.57V1999.37C2541.86 1973.77 2538.12 1958.04 2530.66 1952.17C2523.19 1945.77 2509.06 1947.37 2488.26 1956.97C2486.12 1957.51 2484.26 1956.17 2482.66 1952.97C2481.59 1949.77 2481.59 1947.91 2482.66 1947.37L2603.46 1891.37C2606.12 1889.77 2609.32 1890.57 2613.06 1893.77C2616.79 1896.44 2618.66 1899.11 2618.66 1901.77C2618.66 1908.17 2618.12 1918.84 2617.06 1933.77C2616.52 1948.71 2616.26 1970.04 2616.26 1997.77V2142.57C2616.26 2163.91 2619.19 2178.57 2625.06 2186.57C2631.46 2194.04 2642.92 2197.77 2659.46 2197.77C2661.59 2197.77 2662.66 2199.37 2662.66 2202.57C2662.66 2205.77 2661.59 2207.37 2659.46 2207.37C2648.79 2207.37 2636.52 2207.11 2622.66 2206.57C2609.32 2206.04 2594.92 2205.77 2579.46 2205.77C2563.99 2205.77 2549.32 2206.04 2535.46 2206.57C2521.59 2207.11 2509.32 2207.37 2498.66 2207.37ZM2830.11 2217.77C2807.17 2217.77 2786.11 2211.64 2766.91 2199.37C2748.24 2187.11 2733.04 2169.51 2721.31 2146.57C2710.11 2123.11 2704.51 2094.84 2704.51 2061.77C2704.51 2029.24 2710.37 2002.04 2722.11 1980.17C2733.84 1957.77 2748.77 1939.91 2766.91 1926.57C2785.57 1913.24 2805.57 1903.64 2826.91 1897.77C2848.24 1891.37 2868.51 1888.17 2887.71 1888.17C2906.91 1888.17 2924.77 1890.57 2941.31 1895.37C2957.84 1900.17 2972.77 1906.04 2986.11 1912.97L2967.71 1977.77C2956.51 1953.77 2943.71 1936.44 2929.31 1925.77C2914.91 1914.57 2897.04 1908.97 2875.71 1908.97C2848.51 1908.97 2826.91 1918.57 2810.91 1937.77C2794.91 1956.44 2786.91 1989.24 2786.91 2036.17C2786.91 2066.57 2790.64 2092.44 2798.11 2113.77C2805.57 2135.11 2815.97 2151.37 2829.31 2162.57C2842.64 2173.77 2857.57 2179.37 2874.11 2179.37C2895.44 2179.37 2914.11 2173.51 2930.11 2161.77C2946.11 2150.04 2961.57 2135.91 2976.51 2119.37L2984.51 2126.57C2973.31 2139.37 2959.97 2152.97 2944.51 2167.37C2929.57 2181.24 2912.51 2193.24 2893.31 2203.37C2874.64 2212.97 2853.57 2217.77 2830.11 2217.77ZM3025.31 1637.77V2114.57C3025.31 2132.71 3026.91 2145.51 3030.11 2152.97C3033.84 2160.44 3039.71 2164.17 3047.71 2164.17C3051.44 2164.17 3055.97 2163.37 3061.31 2161.77C3067.17 2160.17 3073.57 2158.04 3080.51 2155.37C3082.11 2154.31 3083.71 2155.37 3085.31 2158.57C3086.91 2161.24 3087.17 2163.11 3086.11 2164.17L2975.71 2217.77C2974.11 2218.31 2972.77 2218.57 2971.71 2218.57C2966.37 2218.57 2961.31 2211.91 2956.51 2198.57C2952.24 2185.24 2950.11 2166.31 2950.11 2141.77V1736.17C2950.11 1718.04 2948.51 1704.97 2945.31 1696.97C2942.11 1688.44 2935.97 1684.17 2926.91 1684.17C2923.17 1684.17 2918.64 1684.97 2913.31 1686.57C2908.51 1688.17 2903.17 1690.31 2897.31 1692.97C2895.17 1693.51 2893.31 1692.17 2891.71 1688.97C2890.11 1685.77 2889.84 1683.91 2890.91 1683.37L3008.51 1628.17C3009.57 1627.64 3010.64 1627.37 3011.71 1627.37C3014.37 1627.37 3017.31 1628.71 3020.51 1631.37C3023.71 1633.51 3025.31 1635.64 3025.31 1637.77ZM3274.72 2216.97C3240.05 2216.97 3210.45 2209.77 3185.92 2195.37C3161.92 2180.97 3143.52 2162.04 3130.72 2138.57C3118.45 2114.57 3112.32 2089.24 3112.32 2062.57C3112.32 2031.11 3120.32 2002.57 3136.32 1976.97C3152.32 1950.84 3173.92 1930.04 3201.12 1914.57C3228.85 1899.11 3260.05 1891.37 3294.72 1891.37C3327.79 1891.37 3353.12 1898.57 3370.72 1912.97C3388.32 1926.84 3397.12 1946.04 3397.12 1970.57C3397.12 1976.44 3396.59 1981.77 3395.52 1986.57C3394.45 1991.37 3392.05 1993.77 3388.32 1993.77H3311.52C3312.59 1968.71 3309.65 1948.17 3302.72 1932.17C3295.79 1915.64 3283.25 1907.37 3265.12 1907.37C3243.79 1907.37 3226.45 1918.57 3213.12 1940.97C3199.79 1962.84 3193.12 1992.17 3193.12 2028.97C3193.12 2058.84 3197.92 2084.97 3207.52 2107.37C3217.12 2129.77 3230.99 2147.11 3249.12 2159.37C3267.25 2171.64 3289.12 2177.77 3314.72 2177.77C3327.52 2177.77 3341.12 2175.91 3355.52 2172.17C3370.45 2168.44 3383.79 2162.84 3395.52 2155.37C3396.59 2154.31 3397.92 2154.84 3399.52 2156.97C3401.65 2159.11 3402.19 2160.97 3401.12 2162.57C3381.39 2182.31 3361.12 2196.44 3340.32 2204.97C3320.05 2212.97 3298.19 2216.97 3274.72 2216.97ZM3165.12 1995.37L3164.32 1980.17L3339.52 1976.17V1993.77L3165.12 1995.37ZM3667.49 2207.37C3665.89 2207.37 3665.09 2205.77 3665.09 2202.57C3665.09 2199.37 3665.89 2197.77 3667.49 2197.77C3684.03 2197.77 3695.23 2194.04 3701.09 2186.57C3706.96 2178.57 3709.89 2163.91 3709.89 2142.57V2027.37C3709.89 1998.57 3704.56 1977.24 3693.89 1963.37C3683.76 1949.51 3667.49 1942.57 3645.09 1942.57C3629.09 1942.57 3612.56 1946.57 3595.49 1954.57C3578.96 1962.57 3565.63 1973.51 3555.49 1987.37L3551.49 1977.77C3570.16 1951.11 3591.23 1929.77 3614.69 1913.77C3638.16 1897.24 3663.76 1888.97 3691.49 1888.97C3721.36 1888.97 3744.29 1898.31 3760.29 1916.97C3776.83 1935.64 3785.09 1959.64 3785.09 1988.97V2142.57C3785.09 2163.91 3788.03 2178.57 3793.89 2186.57C3800.29 2194.04 3811.76 2197.77 3828.29 2197.77C3829.89 2197.77 3830.69 2199.37 3830.69 2202.57C3830.69 2205.77 3829.89 2207.37 3828.29 2207.37C3817.63 2207.37 3805.36 2207.11 3791.49 2206.57C3777.63 2206.04 3762.96 2205.77 3747.49 2205.77C3732.56 2205.77 3718.16 2206.04 3704.29 2206.57C3690.43 2207.11 3678.16 2207.37 3667.49 2207.37ZM3452.29 2207.37C3450.69 2207.37 3449.89 2205.77 3449.89 2202.57C3449.89 2199.37 3450.69 2197.77 3452.29 2197.77C3468.83 2197.77 3480.03 2194.04 3485.89 2186.57C3491.76 2178.57 3494.69 2163.91 3494.69 2142.57V1992.17C3494.69 1975.64 3492.83 1963.64 3489.09 1956.17C3485.36 1948.17 3478.96 1944.17 3469.89 1944.17C3465.09 1944.17 3459.49 1945.24 3453.09 1947.37C3446.69 1948.97 3439.49 1951.64 3431.49 1955.37C3429.36 1956.44 3427.76 1955.37 3426.69 1952.17C3425.63 1948.97 3425.63 1947.11 3426.69 1946.57L3537.89 1892.17C3541.09 1891.11 3542.96 1890.57 3543.49 1890.57C3549.36 1890.57 3555.23 1896.97 3561.09 1909.77C3566.96 1922.57 3569.89 1940.97 3569.89 1964.97V2142.57C3569.89 2163.91 3572.83 2178.57 3578.69 2186.57C3585.09 2194.04 3596.56 2197.77 3613.09 2197.77C3614.69 2197.77 3615.49 2199.37 3615.49 2202.57C3615.49 2205.77 3614.69 2207.37 3613.09 2207.37C3602.43 2207.37 3590.16 2207.11 3576.29 2206.57C3562.43 2206.04 3547.76 2205.77 3532.29 2205.77C3517.36 2205.77 3502.96 2206.04 3489.09 2206.57C3475.23 2207.11 3462.96 2207.37 3452.29 2207.37ZM3989.39 2216.97C3976.59 2216.97 3963.52 2214.84 3950.19 2210.57C3937.39 2206.31 3926.45 2198.84 3917.39 2188.17C3908.85 2177.51 3904.59 2162.57 3904.59 2143.37V1965.77C3904.59 1954.57 3903.25 1945.77 3900.59 1939.37C3897.92 1932.97 3893.65 1928.44 3887.79 1925.77C3881.92 1923.11 3873.92 1921.77 3863.79 1921.77C3861.65 1921.77 3860.59 1919.37 3860.59 1914.57C3860.59 1909.77 3861.65 1907.37 3863.79 1907.37C3890.99 1906.31 3913.12 1900.44 3930.19 1889.77C3947.25 1878.57 3960.05 1862.31 3968.59 1840.97C3969.65 1838.84 3971.79 1837.77 3974.99 1837.77C3978.72 1837.77 3980.59 1838.84 3980.59 1840.97V2116.97C3980.59 2138.31 3985.92 2153.51 3996.59 2162.57C4007.79 2171.64 4021.39 2176.17 4037.39 2176.17C4049.65 2176.17 4061.12 2173.77 4071.79 2168.97C4082.99 2163.64 4092.32 2158.04 4099.79 2152.17C4101.39 2150.57 4103.25 2151.11 4105.39 2153.77C4108.05 2155.91 4108.32 2157.77 4106.19 2159.37C4086.45 2179.11 4067.25 2193.77 4048.59 2203.37C4030.45 2212.44 4010.72 2216.97 3989.39 2216.97ZM4081.39 1939.37C4059.52 1934.57 4038.19 1931.37 4017.39 1929.77C3997.12 1927.64 3975.52 1926.57 3952.59 1926.57V1905.77C3974.45 1905.77 3995.79 1904.97 4016.59 1903.37C4037.92 1901.77 4060.59 1899.91 4084.59 1897.77C4085.65 1897.77 4086.72 1899.91 4087.79 1904.17C4089.39 1907.91 4090.19 1912.17 4090.19 1916.97C4090.19 1922.31 4089.12 1927.64 4086.99 1932.97C4085.39 1937.77 4083.52 1939.91 4081.39 1939.37Z" fill="white"/>
<path d="M4195 2215.8C4180.07 2215.8 4168.07 2211.53 4159 2203C4150.47 2193.93 4146.2 2181.93 4146.2 2167C4146.2 2153.13 4150.47 2141.93 4159 2133.4C4168.07 2124.87 4180.07 2120.6 4195 2120.6C4210.47 2120.6 4222.2 2124.87 4230.2 2133.4C4238.2 2141.93 4242.2 2153.13 4242.2 2167C4242.2 2181.93 4238.2 2193.93 4230.2 2203C4222.2 2211.53 4210.47 2215.8 4195 2215.8Z" fill="#EB0032"/>
</svg>
