<svg width="5000" height="5000" viewBox="0 0 5000 5000" fill="none" xmlns="http://www.w3.org/2000/svg">
<circle cx="2500" cy="2500" r="2500" fill="#123456"/>
<path d="M977.313 2307.8C970.913 2307.8 964.779 2306.73 958.913 2304.6C953.046 2302.73 948.246 2299.4 944.513 2294.6C940.779 2289.8 938.913 2283.27 938.913 2275V2181C938.913 2174.6 938.513 2169.8 937.713 2166.6C936.913 2163.4 935.046 2161.4 932.113 2160.6C929.179 2159.53 924.646 2159 918.513 2159C917.446 2159 916.913 2158.2 916.913 2156.6C916.913 2154.73 917.446 2153.8 918.513 2153.8C929.179 2153.53 937.846 2150.6 944.513 2145C951.446 2139.4 955.313 2132.2 956.113 2123.4C956.113 2122.6 957.046 2122.2 958.913 2122.2C961.046 2122.2 962.113 2122.6 962.113 2123.4V2261.4C962.113 2272.33 964.779 2280.47 970.113 2285.8C975.713 2291.13 983.579 2293.8 993.713 2293.8C1000.65 2293.8 1006.78 2292.73 1012.11 2290.6C1017.71 2288.2 1022.25 2285.53 1025.71 2282.6C1026.78 2282.07 1027.71 2282.47 1028.51 2283.8C1029.58 2284.87 1029.58 2285.8 1028.51 2286.6C1018.65 2294.07 1009.71 2299.53 1001.71 2303C993.979 2306.2 985.846 2307.8 977.313 2307.8ZM1016.11 2168.2C1005.71 2165.53 995.713 2163.8 986.113 2163C976.513 2162.2 966.246 2161.8 955.313 2161.8V2153C965.979 2153 976.246 2152.6 986.113 2151.8C995.979 2151 1006.51 2150.07 1017.71 2149C1018.25 2149 1018.78 2149.93 1019.31 2151.8C1020.11 2153.67 1020.51 2155.93 1020.51 2158.6C1020.51 2160.47 1019.98 2162.6 1018.91 2165C1018.11 2167.4 1017.18 2168.47 1016.11 2168.2ZM1047.67 2303C1046.87 2303 1046.47 2302.2 1046.47 2300.6C1046.47 2299 1046.87 2298.2 1047.67 2298.2C1058.07 2298.2 1064.87 2296.47 1068.07 2293C1071.27 2289.27 1072.87 2281.8 1072.87 2270.6V2063.8C1072.87 2054.47 1071.94 2047.67 1070.07 2043.4C1068.2 2038.87 1064.87 2036.6 1060.07 2036.6C1056.07 2036.6 1049.94 2038.47 1041.67 2042.2C1040.6 2042.73 1039.67 2042.33 1038.87 2041C1038.34 2039.4 1038.6 2038.33 1039.67 2037.8L1090.47 2013C1091 2013 1091.27 2013 1091.27 2013C1091.27 2013 1091.4 2013 1091.67 2013C1092.47 2013 1093.27 2013.4 1094.07 2014.2C1094.87 2014.73 1095.27 2015.4 1095.27 2016.2V2270.6C1095.27 2281.8 1096.87 2289.27 1100.07 2293C1103.27 2296.47 1110.07 2298.2 1120.47 2298.2C1121.27 2298.2 1121.67 2299 1121.67 2300.6C1121.67 2302.2 1121.27 2303 1120.47 2303C1115.67 2303 1110.2 2302.87 1104.07 2302.6C1097.94 2302.33 1091.27 2302.2 1084.07 2302.2C1077.14 2302.2 1070.47 2302.33 1064.07 2302.6C1057.67 2302.87 1052.2 2303 1047.67 2303ZM1155.27 2303C1154.47 2303 1154.07 2302.2 1154.07 2300.6C1154.07 2299 1154.47 2298.2 1155.27 2298.2C1165.67 2298.2 1172.47 2296.47 1175.67 2293C1178.87 2289.27 1180.47 2281.8 1180.47 2270.6V2207C1180.47 2175.8 1168.2 2160.2 1143.67 2160.2C1133.8 2160.2 1123.8 2163.4 1113.67 2169.8C1103.54 2175.93 1094.87 2184.33 1087.67 2195L1086.07 2190.2C1097.8 2174.2 1109.4 2162.6 1120.87 2155.4C1132.6 2148.2 1144.6 2144.6 1156.87 2144.6C1171.54 2144.6 1182.87 2148.73 1190.87 2157C1198.87 2165 1202.87 2177 1202.87 2193V2270.6C1202.87 2281.8 1204.47 2289.27 1207.67 2293C1210.87 2296.47 1217.67 2298.2 1228.07 2298.2C1228.87 2298.2 1229.27 2299 1229.27 2300.6C1229.27 2302.2 1228.87 2303 1228.07 2303C1223.27 2303 1217.8 2302.87 1211.67 2302.6C1205.54 2302.33 1198.87 2302.2 1191.67 2302.2C1184.74 2302.2 1178.07 2302.33 1171.67 2302.6C1165.27 2302.87 1159.8 2303 1155.27 2303ZM1326.48 2307.8C1309.95 2307.8 1296.08 2304.2 1284.88 2297C1273.68 2289.53 1265.28 2279.93 1259.68 2268.2C1254.08 2256.47 1251.28 2244.07 1251.28 2231C1251.28 2214.73 1255.01 2200.2 1262.48 2187.4C1270.21 2174.33 1280.48 2164.07 1293.28 2156.6C1306.35 2148.87 1321.01 2145 1337.28 2145C1351.95 2145 1363.15 2148.6 1370.88 2155.8C1378.88 2162.73 1382.88 2172.33 1382.88 2184.6C1382.88 2187.53 1382.61 2189.8 1382.08 2191.4C1381.55 2193 1380.21 2193.8 1378.08 2193.8H1354.88C1355.95 2180.73 1353.55 2170.73 1347.68 2163.8C1342.08 2156.6 1334.08 2153 1323.68 2153C1308.75 2153 1297.28 2158.6 1289.28 2169.8C1281.55 2181 1277.68 2196.2 1277.68 2215.4C1277.68 2230.6 1280.08 2244.07 1284.88 2255.8C1289.95 2267.53 1297.15 2276.87 1306.48 2283.8C1316.08 2290.47 1327.41 2293.8 1340.48 2293.8C1347.41 2293.8 1354.48 2292.73 1361.68 2290.6C1368.88 2288.47 1375.68 2285.13 1382.08 2280.6C1382.61 2280.07 1383.28 2280.47 1384.08 2281.8C1385.15 2282.87 1385.41 2283.8 1384.88 2284.6C1375.28 2292.87 1365.68 2298.87 1356.08 2302.6C1346.48 2306.07 1336.61 2307.8 1326.48 2307.8ZM1270.48 2194.6L1270.08 2189.4L1361.28 2187.4V2193.8L1270.48 2194.6Z" fill="white"/>
<path d="M1211.8 2323.57C1234.2 2323.57 1258.2 2325.44 1283.8 2329.17C1309.93 2332.91 1330.47 2338.24 1345.4 2345.17C1350.2 2346.77 1353.4 2348.91 1355 2351.57C1356.6 2353.71 1357.67 2357.71 1358.2 2363.57L1367.8 2474.77C1367.8 2476.37 1366.47 2477.44 1363.8 2477.97C1361.67 2478.51 1360.07 2477.71 1359 2475.57C1341.4 2434.51 1317.4 2402.24 1287 2378.77C1257.13 2355.31 1221.67 2343.57 1180.6 2343.57C1144.87 2343.57 1114.47 2352.64 1089.4 2370.77C1064.87 2388.91 1046.2 2414.24 1033.4 2446.77C1021.13 2478.77 1015 2516.11 1015 2558.77C1015 2595.57 1019.53 2630.24 1028.6 2662.77C1037.67 2694.77 1050.47 2723.04 1067 2747.57C1083.53 2771.57 1103.27 2790.51 1126.2 2804.37C1149.13 2818.24 1174.47 2825.17 1202.2 2825.17C1236.33 2825.17 1266.73 2813.97 1293.4 2791.57C1320.6 2769.17 1344.87 2734.51 1366.2 2687.57C1367.27 2685.44 1369.13 2684.64 1371.8 2685.17C1374.47 2685.71 1375.8 2686.77 1375.8 2688.37L1363.8 2797.17C1362.73 2803.57 1361.4 2807.84 1359.8 2809.97C1358.73 2811.57 1355.8 2813.44 1351 2815.57C1326.47 2824.64 1301.67 2831.31 1276.6 2835.57C1252.07 2839.84 1228.07 2841.97 1204.6 2841.97C1152.87 2841.97 1108.6 2834.24 1071.8 2818.77C1035 2802.77 1004.87 2781.97 981.4 2756.37C958.467 2730.24 941.4 2701.97 930.2 2671.57C919.533 2640.64 914.2 2610.24 914.2 2580.37C914.2 2540.91 922.2 2505.44 938.2 2473.97C954.733 2442.51 976.867 2415.57 1004.6 2393.17C1032.87 2370.77 1064.6 2353.71 1099.8 2341.97C1135.53 2329.71 1172.87 2323.57 1211.8 2323.57ZM1599.76 2842.77C1566.16 2842.77 1537.09 2835.04 1512.56 2819.57C1488.02 2804.11 1469.09 2783.57 1455.76 2757.97C1442.42 2731.84 1435.76 2703.84 1435.76 2673.97C1435.76 2646.24 1441.09 2622.24 1451.76 2601.97C1462.42 2581.71 1476.56 2565.17 1494.16 2552.37C1511.76 2539.04 1530.96 2529.17 1551.76 2522.77C1572.56 2516.37 1593.09 2513.17 1613.36 2513.17C1647.49 2513.17 1676.56 2521.17 1700.56 2537.17C1725.09 2553.17 1743.76 2573.71 1756.56 2598.77C1769.36 2623.84 1775.76 2650.51 1775.76 2678.77C1775.76 2711.31 1767.49 2740.11 1750.96 2765.17C1734.96 2789.71 1713.62 2808.91 1686.96 2822.77C1660.29 2836.11 1631.22 2842.77 1599.76 2842.77ZM1623.76 2825.97C1645.09 2825.97 1661.09 2815.57 1671.76 2794.77C1682.42 2773.97 1687.76 2744.64 1687.76 2706.77C1687.76 2667.84 1682.69 2635.31 1672.56 2609.17C1662.96 2583.04 1650.42 2563.31 1634.96 2549.97C1619.49 2536.64 1603.22 2529.97 1586.16 2529.97C1565.36 2529.97 1549.36 2539.31 1538.16 2557.97C1527.49 2576.64 1522.16 2605.44 1522.16 2644.37C1522.16 2680.64 1526.69 2712.64 1535.76 2740.37C1544.82 2767.57 1557.09 2788.64 1572.56 2803.57C1588.02 2818.51 1605.09 2825.97 1623.76 2825.97ZM2047.96 2832.37C2046.36 2832.37 2045.56 2830.77 2045.56 2827.57C2045.56 2824.37 2046.36 2822.77 2047.96 2822.77C2064.5 2822.77 2075.7 2819.04 2081.56 2811.57C2087.43 2803.57 2090.36 2788.91 2090.36 2767.57V2652.37C2090.36 2623.57 2085.03 2602.24 2074.36 2588.37C2064.23 2574.51 2047.96 2567.57 2025.56 2567.57C2009.56 2567.57 1993.03 2571.57 1975.96 2579.57C1959.43 2587.57 1946.1 2598.51 1935.96 2612.37L1931.96 2602.77C1950.63 2576.11 1971.7 2554.77 1995.16 2538.77C2018.63 2522.24 2044.23 2513.97 2071.96 2513.97C2101.83 2513.97 2124.76 2523.31 2140.76 2541.97C2157.3 2560.64 2165.56 2584.64 2165.56 2613.97V2767.57C2165.56 2788.91 2168.5 2803.57 2174.36 2811.57C2180.76 2819.04 2192.23 2822.77 2208.76 2822.77C2210.36 2822.77 2211.16 2824.37 2211.16 2827.57C2211.16 2830.77 2210.36 2832.37 2208.76 2832.37C2198.1 2832.37 2185.83 2832.11 2171.96 2831.57C2158.1 2831.04 2143.43 2830.77 2127.96 2830.77C2113.03 2830.77 2098.63 2831.04 2084.76 2831.57C2070.9 2832.11 2058.63 2832.37 2047.96 2832.37ZM1832.76 2832.37C1831.16 2832.37 1830.36 2830.77 1830.36 2827.57C1830.36 2824.37 1831.16 2822.77 1832.76 2822.77C1849.3 2822.77 1860.5 2819.04 1866.36 2811.57C1872.23 2803.57 1875.16 2788.91 1875.16 2767.57V2617.17C1875.16 2600.64 1873.3 2588.64 1869.56 2581.17C1865.83 2573.17 1859.43 2569.17 1850.36 2569.17C1845.56 2569.17 1839.96 2570.24 1833.56 2572.37C1827.16 2573.97 1819.96 2576.64 1811.96 2580.37C1809.83 2581.44 1808.23 2580.37 1807.16 2577.17C1806.1 2573.97 1806.1 2572.11 1807.16 2571.57L1918.36 2517.17C1921.56 2516.11 1923.43 2515.57 1923.96 2515.57C1929.83 2515.57 1935.7 2521.97 1941.56 2534.77C1947.43 2547.57 1950.36 2565.97 1950.36 2589.97V2767.57C1950.36 2788.91 1953.3 2803.57 1959.16 2811.57C1965.56 2819.04 1977.03 2822.77 1993.56 2822.77C1995.16 2822.77 1995.96 2824.37 1995.96 2827.57C1995.96 2830.77 1995.16 2832.37 1993.56 2832.37C1982.9 2832.37 1970.63 2832.11 1956.76 2831.57C1942.9 2831.04 1928.23 2830.77 1912.76 2830.77C1897.83 2830.77 1883.43 2831.04 1869.56 2831.57C1855.7 2832.11 1843.43 2832.37 1832.76 2832.37ZM2244.26 2832.37C2242.12 2832.37 2241.06 2830.77 2241.06 2827.57C2241.06 2824.37 2242.12 2822.77 2244.26 2822.77C2264.52 2822.77 2277.59 2819.31 2283.46 2812.37C2289.32 2805.44 2292.26 2790.51 2292.26 2767.57V2587.57C2292.26 2575.84 2290.66 2567.31 2287.46 2561.97C2284.26 2556.11 2278.92 2552.37 2271.46 2550.77C2263.99 2548.64 2253.86 2547.57 2241.06 2547.57C2239.46 2547.57 2238.66 2545.17 2238.66 2540.37C2238.66 2535.57 2239.46 2533.17 2241.06 2533.17C2259.72 2533.17 2272.52 2530.77 2279.46 2525.97C2286.39 2520.64 2290.12 2511.31 2290.66 2497.97C2293.32 2438.77 2302.66 2391.31 2318.66 2355.57C2334.66 2319.31 2357.32 2292.91 2386.66 2276.37C2415.99 2259.84 2451.46 2251.57 2493.06 2251.57C2529.86 2251.57 2558.39 2257.17 2578.66 2268.37C2599.46 2279.57 2609.86 2294.51 2609.86 2313.17C2609.86 2322.77 2606.66 2331.04 2600.26 2337.97C2593.86 2344.37 2583.99 2347.57 2570.66 2347.57C2556.79 2347.57 2546.39 2343.57 2539.46 2335.57C2532.52 2327.57 2526.39 2318.24 2521.06 2307.57C2515.72 2296.91 2509.06 2287.57 2501.06 2279.57C2493.59 2271.57 2482.39 2267.57 2467.46 2267.57C2450.39 2267.57 2434.12 2274.77 2418.66 2289.17C2403.19 2303.57 2390.66 2326.51 2381.06 2357.97C2371.99 2389.44 2367.46 2430.51 2367.46 2481.17V2767.57C2367.46 2783.04 2369.06 2794.77 2372.26 2802.77C2375.46 2810.77 2382.12 2816.11 2392.26 2818.77C2402.39 2821.44 2417.86 2822.77 2438.66 2822.77C2440.79 2822.77 2441.86 2824.37 2441.86 2827.57C2441.86 2830.77 2440.79 2832.37 2438.66 2832.37C2419.99 2832.37 2401.59 2832.11 2383.46 2831.57C2365.86 2831.04 2347.72 2830.77 2329.06 2830.77C2313.59 2830.77 2298.39 2831.04 2283.46 2831.57C2269.06 2832.11 2255.99 2832.37 2244.26 2832.37ZM2453.06 2564.37C2432.26 2559.57 2412.26 2556.37 2393.06 2554.77C2374.39 2552.64 2354.39 2551.57 2333.06 2551.57V2530.77C2353.32 2530.77 2373.32 2529.97 2393.06 2528.37C2412.79 2526.77 2433.59 2524.91 2455.46 2522.77C2457.06 2522.77 2458.39 2524.91 2459.46 2529.17C2460.52 2532.91 2461.06 2537.17 2461.06 2541.97C2461.06 2547.31 2459.99 2552.64 2457.86 2557.97C2456.26 2562.77 2454.66 2564.91 2453.06 2564.37ZM2498.66 2832.37C2497.59 2832.37 2497.06 2830.77 2497.06 2827.57C2497.06 2824.37 2497.59 2822.77 2498.66 2822.77C2515.19 2822.77 2526.39 2819.04 2532.26 2811.57C2538.66 2803.57 2541.86 2788.91 2541.86 2767.57V2624.37C2541.86 2598.77 2538.12 2583.04 2530.66 2577.17C2523.19 2570.77 2509.06 2572.37 2488.26 2581.97C2486.12 2582.51 2484.26 2581.17 2482.66 2577.97C2481.59 2574.77 2481.59 2572.91 2482.66 2572.37L2603.46 2516.37C2606.12 2514.77 2609.32 2515.57 2613.06 2518.77C2616.79 2521.44 2618.66 2524.11 2618.66 2526.77C2618.66 2533.17 2618.12 2543.84 2617.06 2558.77C2616.52 2573.71 2616.26 2595.04 2616.26 2622.77V2767.57C2616.26 2788.91 2619.19 2803.57 2625.06 2811.57C2631.46 2819.04 2642.92 2822.77 2659.46 2822.77C2661.59 2822.77 2662.66 2824.37 2662.66 2827.57C2662.66 2830.77 2661.59 2832.37 2659.46 2832.37C2648.79 2832.37 2636.52 2832.11 2622.66 2831.57C2609.32 2831.04 2594.92 2830.77 2579.46 2830.77C2563.99 2830.77 2549.32 2831.04 2535.46 2831.57C2521.59 2832.11 2509.32 2832.37 2498.66 2832.37ZM2830.11 2842.77C2807.17 2842.77 2786.11 2836.64 2766.91 2824.37C2748.24 2812.11 2733.04 2794.51 2721.31 2771.57C2710.11 2748.11 2704.51 2719.84 2704.51 2686.77C2704.51 2654.24 2710.37 2627.04 2722.11 2605.17C2733.84 2582.77 2748.77 2564.91 2766.91 2551.57C2785.57 2538.24 2805.57 2528.64 2826.91 2522.77C2848.24 2516.37 2868.51 2513.17 2887.71 2513.17C2906.91 2513.17 2924.77 2515.57 2941.31 2520.37C2957.84 2525.17 2972.77 2531.04 2986.11 2537.97L2967.71 2602.77C2956.51 2578.77 2943.71 2561.44 2929.31 2550.77C2914.91 2539.57 2897.04 2533.97 2875.71 2533.97C2848.51 2533.97 2826.91 2543.57 2810.91 2562.77C2794.91 2581.44 2786.91 2614.24 2786.91 2661.17C2786.91 2691.57 2790.64 2717.44 2798.11 2738.77C2805.57 2760.11 2815.97 2776.37 2829.31 2787.57C2842.64 2798.77 2857.57 2804.37 2874.11 2804.37C2895.44 2804.37 2914.11 2798.51 2930.11 2786.77C2946.11 2775.04 2961.57 2760.91 2976.51 2744.37L2984.51 2751.57C2973.31 2764.37 2959.97 2777.97 2944.51 2792.37C2929.57 2806.24 2912.51 2818.24 2893.31 2828.37C2874.64 2837.97 2853.57 2842.77 2830.11 2842.77ZM3025.31 2262.77V2739.57C3025.31 2757.71 3026.91 2770.51 3030.11 2777.97C3033.84 2785.44 3039.71 2789.17 3047.71 2789.17C3051.44 2789.17 3055.97 2788.37 3061.31 2786.77C3067.17 2785.17 3073.57 2783.04 3080.51 2780.37C3082.11 2779.31 3083.71 2780.37 3085.31 2783.57C3086.91 2786.24 3087.17 2788.11 3086.11 2789.17L2975.71 2842.77C2974.11 2843.31 2972.77 2843.57 2971.71 2843.57C2966.37 2843.57 2961.31 2836.91 2956.51 2823.57C2952.24 2810.24 2950.11 2791.31 2950.11 2766.77V2361.17C2950.11 2343.04 2948.51 2329.97 2945.31 2321.97C2942.11 2313.44 2935.97 2309.17 2926.91 2309.17C2923.17 2309.17 2918.64 2309.97 2913.31 2311.57C2908.51 2313.17 2903.17 2315.31 2897.31 2317.97C2895.17 2318.51 2893.31 2317.17 2891.71 2313.97C2890.11 2310.77 2889.84 2308.91 2890.91 2308.37L3008.51 2253.17C3009.57 2252.64 3010.64 2252.37 3011.71 2252.37C3014.37 2252.37 3017.31 2253.71 3020.51 2256.37C3023.71 2258.51 3025.31 2260.64 3025.31 2262.77ZM3274.72 2841.97C3240.05 2841.97 3210.45 2834.77 3185.92 2820.37C3161.92 2805.97 3143.52 2787.04 3130.72 2763.57C3118.45 2739.57 3112.32 2714.24 3112.32 2687.57C3112.32 2656.11 3120.32 2627.57 3136.32 2601.97C3152.32 2575.84 3173.92 2555.04 3201.12 2539.57C3228.85 2524.11 3260.05 2516.37 3294.72 2516.37C3327.79 2516.37 3353.12 2523.57 3370.72 2537.97C3388.32 2551.84 3397.12 2571.04 3397.12 2595.57C3397.12 2601.44 3396.59 2606.77 3395.52 2611.57C3394.45 2616.37 3392.05 2618.77 3388.32 2618.77H3311.52C3312.59 2593.71 3309.65 2573.17 3302.72 2557.17C3295.79 2540.64 3283.25 2532.37 3265.12 2532.37C3243.79 2532.37 3226.45 2543.57 3213.12 2565.97C3199.79 2587.84 3193.12 2617.17 3193.12 2653.97C3193.12 2683.84 3197.92 2709.97 3207.52 2732.37C3217.12 2754.77 3230.99 2772.11 3249.12 2784.37C3267.25 2796.64 3289.12 2802.77 3314.72 2802.77C3327.52 2802.77 3341.12 2800.91 3355.52 2797.17C3370.45 2793.44 3383.79 2787.84 3395.52 2780.37C3396.59 2779.31 3397.92 2779.84 3399.52 2781.97C3401.65 2784.11 3402.19 2785.97 3401.12 2787.57C3381.39 2807.31 3361.12 2821.44 3340.32 2829.97C3320.05 2837.97 3298.19 2841.97 3274.72 2841.97ZM3165.12 2620.37L3164.32 2605.17L3339.52 2601.17V2618.77L3165.12 2620.37ZM3667.49 2832.37C3665.89 2832.37 3665.09 2830.77 3665.09 2827.57C3665.09 2824.37 3665.89 2822.77 3667.49 2822.77C3684.03 2822.77 3695.23 2819.04 3701.09 2811.57C3706.96 2803.57 3709.89 2788.91 3709.89 2767.57V2652.37C3709.89 2623.57 3704.56 2602.24 3693.89 2588.37C3683.76 2574.51 3667.49 2567.57 3645.09 2567.57C3629.09 2567.57 3612.56 2571.57 3595.49 2579.57C3578.96 2587.57 3565.63 2598.51 3555.49 2612.37L3551.49 2602.77C3570.16 2576.11 3591.23 2554.77 3614.69 2538.77C3638.16 2522.24 3663.76 2513.97 3691.49 2513.97C3721.36 2513.97 3744.29 2523.31 3760.29 2541.97C3776.83 2560.64 3785.09 2584.64 3785.09 2613.97V2767.57C3785.09 2788.91 3788.03 2803.57 3793.89 2811.57C3800.29 2819.04 3811.76 2822.77 3828.29 2822.77C3829.89 2822.77 3830.69 2824.37 3830.69 2827.57C3830.69 2830.77 3829.89 2832.37 3828.29 2832.37C3817.63 2832.37 3805.36 2832.11 3791.49 2831.57C3777.63 2831.04 3762.96 2830.77 3747.49 2830.77C3732.56 2830.77 3718.16 2831.04 3704.29 2831.57C3690.43 2832.11 3678.16 2832.37 3667.49 2832.37ZM3452.29 2832.37C3450.69 2832.37 3449.89 2830.77 3449.89 2827.57C3449.89 2824.37 3450.69 2822.77 3452.29 2822.77C3468.83 2822.77 3480.03 2819.04 3485.89 2811.57C3491.76 2803.57 3494.69 2788.91 3494.69 2767.57V2617.17C3494.69 2600.64 3492.83 2588.64 3489.09 2581.17C3485.36 2573.17 3478.96 2569.17 3469.89 2569.17C3465.09 2569.17 3459.49 2570.24 3453.09 2572.37C3446.69 2573.97 3439.49 2576.64 3431.49 2580.37C3429.36 2581.44 3427.76 2580.37 3426.69 2577.17C3425.63 2573.97 3425.63 2572.11 3426.69 2571.57L3537.89 2517.17C3541.09 2516.11 3542.96 2515.57 3543.49 2515.57C3549.36 2515.57 3555.23 2521.97 3561.09 2534.77C3566.96 2547.57 3569.89 2565.97 3569.89 2589.97V2767.57C3569.89 2788.91 3572.83 2803.57 3578.69 2811.57C3585.09 2819.04 3596.56 2822.77 3613.09 2822.77C3614.69 2822.77 3615.49 2824.37 3615.49 2827.57C3615.49 2830.77 3614.69 2832.37 3613.09 2832.37C3602.43 2832.37 3590.16 2832.11 3576.29 2831.57C3562.43 2831.04 3547.76 2830.77 3532.29 2830.77C3517.36 2830.77 3502.96 2831.04 3489.09 2831.57C3475.23 2832.11 3462.96 2832.37 3452.29 2832.37ZM3989.39 2841.97C3976.59 2841.97 3963.52 2839.84 3950.19 2835.57C3937.39 2831.31 3926.45 2823.84 3917.39 2813.17C3908.85 2802.51 3904.59 2787.57 3904.59 2768.37V2590.77C3904.59 2579.57 3903.25 2570.77 3900.59 2564.37C3897.92 2557.97 3893.65 2553.44 3887.79 2550.77C3881.92 2548.11 3873.92 2546.77 3863.79 2546.77C3861.65 2546.77 3860.59 2544.37 3860.59 2539.57C3860.59 2534.77 3861.65 2532.37 3863.79 2532.37C3890.99 2531.31 3913.12 2525.44 3930.19 2514.77C3947.25 2503.57 3960.05 2487.31 3968.59 2465.97C3969.65 2463.84 3971.79 2462.77 3974.99 2462.77C3978.72 2462.77 3980.59 2463.84 3980.59 2465.97V2741.97C3980.59 2763.31 3985.92 2778.51 3996.59 2787.57C4007.79 2796.64 4021.39 2801.17 4037.39 2801.17C4049.65 2801.17 4061.12 2798.77 4071.79 2793.97C4082.99 2788.64 4092.32 2783.04 4099.79 2777.17C4101.39 2775.57 4103.25 2776.11 4105.39 2778.77C4108.05 2780.91 4108.32 2782.77 4106.19 2784.37C4086.45 2804.11 4067.25 2818.77 4048.59 2828.37C4030.45 2837.44 4010.72 2841.97 3989.39 2841.97ZM4081.39 2564.37C4059.52 2559.57 4038.19 2556.37 4017.39 2554.77C3997.12 2552.64 3975.52 2551.57 3952.59 2551.57V2530.77C3974.45 2530.77 3995.79 2529.97 4016.59 2528.37C4037.92 2526.77 4060.59 2524.91 4084.59 2522.77C4085.65 2522.77 4086.72 2524.91 4087.79 2529.17C4089.39 2532.91 4090.19 2537.17 4090.19 2541.97C4090.19 2547.31 4089.12 2552.64 4086.99 2557.97C4085.39 2562.77 4083.52 2564.91 4081.39 2564.37Z" fill="white"/>
<path d="M4195 2840.8C4180.07 2840.8 4168.07 2836.53 4159 2828C4150.47 2818.93 4146.2 2806.93 4146.2 2792C4146.2 2778.13 4150.47 2766.93 4159 2758.4C4168.07 2749.87 4180.07 2745.6 4195 2745.6C4210.47 2745.6 4222.2 2749.87 4230.2 2758.4C4238.2 2766.93 4242.2 2778.13 4242.2 2792C4242.2 2806.93 4238.2 2818.93 4230.2 2828C4222.2 2836.53 4210.47 2840.8 4195 2840.8Z" fill="#EB0032"/>
</svg>
