<svg width="4000" height="4000" viewBox="0 0 4000 4000" fill="none" xmlns="http://www.w3.org/2000/svg">
<circle cx="2000" cy="2000" r="2000" fill="#123456"/>
<path d="M398.2 1889.8C391.8 1889.8 385.667 1888.73 379.8 1886.6C373.933 1884.73 369.133 1881.4 365.4 1876.6C361.667 1871.8 359.8 1865.27 359.8 1857V1763C359.8 1756.6 359.4 1751.8 358.6 1748.6C357.8 1745.4 355.933 1743.4 353 1742.6C350.067 1741.53 345.533 1741 339.4 1741C338.333 1741 337.8 1740.2 337.8 1738.6C337.8 1736.73 338.333 1735.8 339.4 1735.8C350.067 1735.53 358.733 1732.6 365.4 1727C372.333 1721.4 376.2 1714.2 377 1705.4C377 1704.6 377.933 1704.2 379.8 1704.2C381.933 1704.2 383 1704.6 383 1705.4V1843.4C383 1854.33 385.667 1862.47 391 1867.8C396.6 1873.13 404.467 1875.8 414.6 1875.8C421.533 1875.8 427.667 1874.73 433 1872.6C438.6 1870.2 443.133 1867.53 446.6 1864.6C447.667 1864.07 448.6 1864.47 449.4 1865.8C450.467 1866.87 450.467 1867.8 449.4 1868.6C439.533 1876.07 430.6 1881.53 422.6 1885C414.867 1888.2 406.733 1889.8 398.2 1889.8ZM437 1750.2C426.6 1747.53 416.6 1745.8 407 1745C397.4 1744.2 387.133 1743.8 376.2 1743.8V1735C386.867 1735 397.133 1734.6 407 1733.8C416.867 1733 427.4 1732.07 438.6 1731C439.133 1731 439.667 1731.93 440.2 1733.8C441 1735.67 441.4 1737.93 441.4 1740.6C441.4 1742.47 440.867 1744.6 439.8 1747C439 1749.4 438.067 1750.47 437 1750.2ZM468.556 1885C467.756 1885 467.356 1884.2 467.356 1882.6C467.356 1881 467.756 1880.2 468.556 1880.2C478.956 1880.2 485.756 1878.47 488.956 1875C492.156 1871.27 493.756 1863.8 493.756 1852.6V1645.8C493.756 1636.47 492.823 1629.67 490.956 1625.4C489.09 1620.87 485.756 1618.6 480.956 1618.6C476.956 1618.6 470.823 1620.47 462.556 1624.2C461.49 1624.73 460.556 1624.33 459.756 1623C459.223 1621.4 459.49 1620.33 460.556 1619.8L511.356 1595C511.89 1595 512.156 1595 512.156 1595C512.156 1595 512.29 1595 512.556 1595C513.356 1595 514.156 1595.4 514.956 1596.2C515.756 1596.73 516.156 1597.4 516.156 1598.2V1852.6C516.156 1863.8 517.756 1871.27 520.956 1875C524.156 1878.47 530.956 1880.2 541.356 1880.2C542.156 1880.2 542.556 1881 542.556 1882.6C542.556 1884.2 542.156 1885 541.356 1885C536.556 1885 531.09 1884.87 524.956 1884.6C518.823 1884.33 512.156 1884.2 504.956 1884.2C498.023 1884.2 491.356 1884.33 484.956 1884.6C478.556 1884.87 473.09 1885 468.556 1885ZM576.156 1885C575.356 1885 574.956 1884.2 574.956 1882.6C574.956 1881 575.356 1880.2 576.156 1880.2C586.556 1880.2 593.356 1878.47 596.556 1875C599.756 1871.27 601.356 1863.8 601.356 1852.6V1789C601.356 1757.8 589.09 1742.2 564.556 1742.2C554.69 1742.2 544.69 1745.4 534.556 1751.8C524.423 1757.93 515.756 1766.33 508.556 1777L506.956 1772.2C518.69 1756.2 530.29 1744.6 541.756 1737.4C553.49 1730.2 565.49 1726.6 577.756 1726.6C592.423 1726.6 603.756 1730.73 611.756 1739C619.756 1747 623.756 1759 623.756 1775V1852.6C623.756 1863.8 625.356 1871.27 628.556 1875C631.756 1878.47 638.556 1880.2 648.956 1880.2C649.756 1880.2 650.156 1881 650.156 1882.6C650.156 1884.2 649.756 1885 648.956 1885C644.156 1885 638.69 1884.87 632.556 1884.6C626.423 1884.33 619.756 1884.2 612.556 1884.2C605.623 1884.2 598.956 1884.33 592.556 1884.6C586.156 1884.87 580.69 1885 576.156 1885ZM747.366 1889.8C730.832 1889.8 716.966 1886.2 705.766 1879C694.566 1871.53 686.166 1861.93 680.566 1850.2C674.966 1838.47 672.166 1826.07 672.166 1813C672.166 1796.73 675.899 1782.2 683.366 1769.4C691.099 1756.33 701.366 1746.07 714.166 1738.6C727.232 1730.87 741.899 1727 758.166 1727C772.832 1727 784.032 1730.6 791.766 1737.8C799.766 1744.73 803.766 1754.33 803.766 1766.6C803.766 1769.53 803.499 1771.8 802.966 1773.4C802.432 1775 801.099 1775.8 798.966 1775.8H775.766C776.832 1762.73 774.432 1752.73 768.566 1745.8C762.966 1738.6 754.966 1735 744.566 1735C729.632 1735 718.166 1740.6 710.166 1751.8C702.432 1763 698.566 1778.2 698.566 1797.4C698.566 1812.6 700.966 1826.07 705.766 1837.8C710.832 1849.53 718.032 1858.87 727.366 1865.8C736.966 1872.47 748.299 1875.8 761.366 1875.8C768.299 1875.8 775.366 1874.73 782.566 1872.6C789.766 1870.47 796.566 1867.13 802.966 1862.6C803.499 1862.07 804.166 1862.47 804.966 1863.8C806.032 1864.87 806.299 1865.8 805.766 1866.6C796.166 1874.87 786.566 1880.87 776.966 1884.6C767.366 1888.07 757.499 1889.8 747.366 1889.8ZM691.366 1776.6L690.966 1771.4L782.166 1769.4V1775.8L691.366 1776.6Z" fill="white"/>
<path d="M636.8 1905.2C659.2 1905.2 683.2 1907.07 708.8 1910.8C734.933 1914.53 755.467 1919.87 770.4 1926.8C775.2 1928.4 778.4 1930.53 780 1933.2C781.6 1935.33 782.667 1939.33 783.2 1945.2L792.8 2056.4C792.8 2058 791.467 2059.07 788.8 2059.6C786.667 2060.13 785.067 2059.33 784 2057.2C766.4 2016.13 742.4 1983.87 712 1960.4C682.133 1936.93 646.667 1925.2 605.6 1925.2C569.867 1925.2 539.467 1934.27 514.4 1952.4C489.867 1970.53 471.2 1995.87 458.4 2028.4C446.133 2060.4 440 2097.73 440 2140.4C440 2177.2 444.533 2211.87 453.6 2244.4C462.667 2276.4 475.467 2304.67 492 2329.2C508.533 2353.2 528.267 2372.13 551.2 2386C574.133 2399.87 599.467 2406.8 627.2 2406.8C661.333 2406.8 691.733 2395.6 718.4 2373.2C745.6 2350.8 769.867 2316.13 791.2 2269.2C792.267 2267.07 794.133 2266.27 796.8 2266.8C799.467 2267.33 800.8 2268.4 800.8 2270L788.8 2378.8C787.733 2385.2 786.4 2389.47 784.8 2391.6C783.733 2393.2 780.8 2395.07 776 2397.2C751.467 2406.27 726.667 2412.93 701.6 2417.2C677.067 2421.47 653.067 2423.6 629.6 2423.6C577.867 2423.6 533.6 2415.87 496.8 2400.4C460 2384.4 429.867 2363.6 406.4 2338C383.467 2311.87 366.4 2283.6 355.2 2253.2C344.533 2222.27 339.2 2191.87 339.2 2162C339.2 2122.53 347.2 2087.07 363.2 2055.6C379.733 2024.13 401.867 1997.2 429.6 1974.8C457.867 1952.4 489.6 1935.33 524.8 1923.6C560.533 1911.33 597.867 1905.2 636.8 1905.2ZM1024.76 2424.4C991.156 2424.4 962.09 2416.67 937.556 2401.2C913.023 2385.73 894.09 2365.2 880.756 2339.6C867.423 2313.47 860.756 2285.47 860.756 2255.6C860.756 2227.87 866.09 2203.87 876.756 2183.6C887.423 2163.33 901.556 2146.8 919.156 2134C936.756 2120.67 955.956 2110.8 976.756 2104.4C997.556 2098 1018.09 2094.8 1038.36 2094.8C1072.49 2094.8 1101.56 2102.8 1125.56 2118.8C1150.09 2134.8 1168.76 2155.33 1181.56 2180.4C1194.36 2205.47 1200.76 2232.13 1200.76 2260.4C1200.76 2292.93 1192.49 2321.73 1175.96 2346.8C1159.96 2371.33 1138.62 2390.53 1111.96 2404.4C1085.29 2417.73 1056.22 2424.4 1024.76 2424.4ZM1048.76 2407.6C1070.09 2407.6 1086.09 2397.2 1096.76 2376.4C1107.42 2355.6 1112.76 2326.27 1112.76 2288.4C1112.76 2249.47 1107.69 2216.93 1097.56 2190.8C1087.96 2164.67 1075.42 2144.93 1059.96 2131.6C1044.49 2118.27 1028.22 2111.6 1011.16 2111.6C990.356 2111.6 974.356 2120.93 963.156 2139.6C952.49 2158.27 947.156 2187.07 947.156 2226C947.156 2262.27 951.69 2294.27 960.756 2322C969.823 2349.2 982.09 2370.27 997.556 2385.2C1013.02 2400.13 1030.09 2407.6 1048.76 2407.6ZM1472.96 2414C1471.36 2414 1470.56 2412.4 1470.56 2409.2C1470.56 2406 1471.36 2404.4 1472.96 2404.4C1489.5 2404.4 1500.7 2400.67 1506.56 2393.2C1512.43 2385.2 1515.36 2370.53 1515.36 2349.2V2234C1515.36 2205.2 1510.03 2183.87 1499.36 2170C1489.23 2156.13 1472.96 2149.2 1450.56 2149.2C1434.56 2149.2 1418.03 2153.2 1400.96 2161.2C1384.43 2169.2 1371.1 2180.13 1360.96 2194L1356.96 2184.4C1375.63 2157.73 1396.7 2136.4 1420.16 2120.4C1443.63 2103.87 1469.23 2095.6 1496.96 2095.6C1526.83 2095.6 1549.76 2104.93 1565.76 2123.6C1582.3 2142.27 1590.56 2166.27 1590.56 2195.6V2349.2C1590.56 2370.53 1593.5 2385.2 1599.36 2393.2C1605.76 2400.67 1617.23 2404.4 1633.76 2404.4C1635.36 2404.4 1636.16 2406 1636.16 2409.2C1636.16 2412.4 1635.36 2414 1633.76 2414C1623.1 2414 1610.83 2413.73 1596.96 2413.2C1583.1 2412.67 1568.43 2412.4 1552.96 2412.4C1538.03 2412.4 1523.63 2412.67 1509.76 2413.2C1495.9 2413.73 1483.63 2414 1472.96 2414ZM1257.76 2414C1256.16 2414 1255.36 2412.4 1255.36 2409.2C1255.36 2406 1256.16 2404.4 1257.76 2404.4C1274.3 2404.4 1285.5 2400.67 1291.36 2393.2C1297.23 2385.2 1300.16 2370.53 1300.16 2349.2V2198.8C1300.16 2182.27 1298.3 2170.27 1294.56 2162.8C1290.83 2154.8 1284.43 2150.8 1275.36 2150.8C1270.56 2150.8 1264.96 2151.87 1258.56 2154C1252.16 2155.6 1244.96 2158.27 1236.96 2162C1234.83 2163.07 1233.23 2162 1232.16 2158.8C1231.1 2155.6 1231.1 2153.73 1232.16 2153.2L1343.36 2098.8C1346.56 2097.73 1348.43 2097.2 1348.96 2097.2C1354.83 2097.2 1360.7 2103.6 1366.56 2116.4C1372.43 2129.2 1375.36 2147.6 1375.36 2171.6V2349.2C1375.36 2370.53 1378.3 2385.2 1384.16 2393.2C1390.56 2400.67 1402.03 2404.4 1418.56 2404.4C1420.16 2404.4 1420.96 2406 1420.96 2409.2C1420.96 2412.4 1420.16 2414 1418.56 2414C1407.9 2414 1395.63 2413.73 1381.76 2413.2C1367.9 2412.67 1353.23 2412.4 1337.76 2412.4C1322.83 2412.4 1308.43 2412.67 1294.56 2413.2C1280.7 2413.73 1268.43 2414 1257.76 2414ZM1669.26 2414C1667.12 2414 1666.06 2412.4 1666.06 2409.2C1666.06 2406 1667.12 2404.4 1669.26 2404.4C1689.52 2404.4 1702.59 2400.93 1708.46 2394C1714.32 2387.07 1717.26 2372.13 1717.26 2349.2V2169.2C1717.26 2157.47 1715.66 2148.93 1712.46 2143.6C1709.26 2137.73 1703.92 2134 1696.46 2132.4C1688.99 2130.27 1678.86 2129.2 1666.06 2129.2C1664.46 2129.2 1663.66 2126.8 1663.66 2122C1663.66 2117.2 1664.46 2114.8 1666.06 2114.8C1684.72 2114.8 1697.52 2112.4 1704.46 2107.6C1711.39 2102.27 1715.12 2092.93 1715.66 2079.6C1718.32 2020.4 1727.66 1972.93 1743.66 1937.2C1759.66 1900.93 1782.32 1874.53 1811.66 1858C1840.99 1841.47 1876.46 1833.2 1918.06 1833.2C1954.86 1833.2 1983.39 1838.8 2003.66 1850C2024.46 1861.2 2034.86 1876.13 2034.86 1894.8C2034.86 1904.4 2031.66 1912.67 2025.26 1919.6C2018.86 1926 2008.99 1929.2 1995.66 1929.2C1981.79 1929.2 1971.39 1925.2 1964.46 1917.2C1957.52 1909.2 1951.39 1899.87 1946.06 1889.2C1940.72 1878.53 1934.06 1869.2 1926.06 1861.2C1918.59 1853.2 1907.39 1849.2 1892.46 1849.2C1875.39 1849.2 1859.12 1856.4 1843.66 1870.8C1828.19 1885.2 1815.66 1908.13 1806.06 1939.6C1796.99 1971.07 1792.46 2012.13 1792.46 2062.8V2349.2C1792.46 2364.67 1794.06 2376.4 1797.26 2384.4C1800.46 2392.4 1807.12 2397.73 1817.26 2400.4C1827.39 2403.07 1842.86 2404.4 1863.66 2404.4C1865.79 2404.4 1866.86 2406 1866.86 2409.2C1866.86 2412.4 1865.79 2414 1863.66 2414C1844.99 2414 1826.59 2413.73 1808.46 2413.2C1790.86 2412.67 1772.72 2412.4 1754.06 2412.4C1738.59 2412.4 1723.39 2412.67 1708.46 2413.2C1694.06 2413.73 1680.99 2414 1669.26 2414ZM1878.06 2146C1857.26 2141.2 1837.26 2138 1818.06 2136.4C1799.39 2134.27 1779.39 2133.2 1758.06 2133.2V2112.4C1778.32 2112.4 1798.32 2111.6 1818.06 2110C1837.79 2108.4 1858.59 2106.53 1880.46 2104.4C1882.06 2104.4 1883.39 2106.53 1884.46 2110.8C1885.52 2114.53 1886.06 2118.8 1886.06 2123.6C1886.06 2128.93 1884.99 2134.27 1882.86 2139.6C1881.26 2144.4 1879.66 2146.53 1878.06 2146ZM1923.66 2414C1922.59 2414 1922.06 2412.4 1922.06 2409.2C1922.06 2406 1922.59 2404.4 1923.66 2404.4C1940.19 2404.4 1951.39 2400.67 1957.26 2393.2C1963.66 2385.2 1966.86 2370.53 1966.86 2349.2V2206C1966.86 2180.4 1963.12 2164.67 1955.66 2158.8C1948.19 2152.4 1934.06 2154 1913.26 2163.6C1911.12 2164.13 1909.26 2162.8 1907.66 2159.6C1906.59 2156.4 1906.59 2154.53 1907.66 2154L2028.46 2098C2031.12 2096.4 2034.32 2097.2 2038.06 2100.4C2041.79 2103.07 2043.66 2105.73 2043.66 2108.4C2043.66 2114.8 2043.12 2125.47 2042.06 2140.4C2041.52 2155.33 2041.26 2176.67 2041.26 2204.4V2349.2C2041.26 2370.53 2044.19 2385.2 2050.06 2393.2C2056.46 2400.67 2067.92 2404.4 2084.46 2404.4C2086.59 2404.4 2087.66 2406 2087.66 2409.2C2087.66 2412.4 2086.59 2414 2084.46 2414C2073.79 2414 2061.52 2413.73 2047.66 2413.2C2034.32 2412.67 2019.92 2412.4 2004.46 2412.4C1988.99 2412.4 1974.32 2412.67 1960.46 2413.2C1946.59 2413.73 1934.32 2414 1923.66 2414ZM2255.11 2424.4C2232.17 2424.4 2211.11 2418.27 2191.91 2406C2173.24 2393.73 2158.04 2376.13 2146.31 2353.2C2135.11 2329.73 2129.51 2301.47 2129.51 2268.4C2129.51 2235.87 2135.37 2208.67 2147.11 2186.8C2158.84 2164.4 2173.77 2146.53 2191.91 2133.2C2210.57 2119.87 2230.57 2110.27 2251.91 2104.4C2273.24 2098 2293.51 2094.8 2312.71 2094.8C2331.91 2094.8 2349.77 2097.2 2366.31 2102C2382.84 2106.8 2397.77 2112.67 2411.11 2119.6L2392.71 2184.4C2381.51 2160.4 2368.71 2143.07 2354.31 2132.4C2339.91 2121.2 2322.04 2115.6 2300.71 2115.6C2273.51 2115.6 2251.91 2125.2 2235.91 2144.4C2219.91 2163.07 2211.91 2195.87 2211.91 2242.8C2211.91 2273.2 2215.64 2299.07 2223.11 2320.4C2230.57 2341.73 2240.97 2358 2254.31 2369.2C2267.64 2380.4 2282.57 2386 2299.11 2386C2320.44 2386 2339.11 2380.13 2355.11 2368.4C2371.11 2356.67 2386.57 2342.53 2401.51 2326L2409.51 2333.2C2398.31 2346 2384.97 2359.6 2369.51 2374C2354.57 2387.87 2337.51 2399.87 2318.31 2410C2299.64 2419.6 2278.57 2424.4 2255.11 2424.4ZM2450.31 1844.4V2321.2C2450.31 2339.33 2451.91 2352.13 2455.11 2359.6C2458.84 2367.07 2464.71 2370.8 2472.71 2370.8C2476.44 2370.8 2480.97 2370 2486.31 2368.4C2492.17 2366.8 2498.57 2364.67 2505.51 2362C2507.11 2360.93 2508.71 2362 2510.31 2365.2C2511.91 2367.87 2512.17 2369.73 2511.11 2370.8L2400.71 2424.4C2399.11 2424.93 2397.77 2425.2 2396.71 2425.2C2391.37 2425.2 2386.31 2418.53 2381.51 2405.2C2377.24 2391.87 2375.11 2372.93 2375.11 2348.4V1942.8C2375.11 1924.67 2373.51 1911.6 2370.31 1903.6C2367.11 1895.07 2360.97 1890.8 2351.91 1890.8C2348.17 1890.8 2343.64 1891.6 2338.31 1893.2C2333.51 1894.8 2328.17 1896.93 2322.31 1899.6C2320.17 1900.13 2318.31 1898.8 2316.71 1895.6C2315.11 1892.4 2314.84 1890.53 2315.91 1890L2433.51 1834.8C2434.57 1834.27 2435.64 1834 2436.71 1834C2439.37 1834 2442.31 1835.33 2445.51 1838C2448.71 1840.13 2450.31 1842.27 2450.31 1844.4ZM2699.72 2423.6C2665.05 2423.6 2635.45 2416.4 2610.92 2402C2586.92 2387.6 2568.52 2368.67 2555.72 2345.2C2543.45 2321.2 2537.32 2295.87 2537.32 2269.2C2537.32 2237.73 2545.32 2209.2 2561.32 2183.6C2577.32 2157.47 2598.92 2136.67 2626.12 2121.2C2653.85 2105.73 2685.05 2098 2719.72 2098C2752.79 2098 2778.12 2105.2 2795.72 2119.6C2813.32 2133.47 2822.12 2152.67 2822.12 2177.2C2822.12 2183.07 2821.59 2188.4 2820.52 2193.2C2819.45 2198 2817.05 2200.4 2813.32 2200.4H2736.52C2737.59 2175.33 2734.65 2154.8 2727.72 2138.8C2720.79 2122.27 2708.25 2114 2690.12 2114C2668.79 2114 2651.45 2125.2 2638.12 2147.6C2624.79 2169.47 2618.12 2198.8 2618.12 2235.6C2618.12 2265.47 2622.92 2291.6 2632.52 2314C2642.12 2336.4 2655.99 2353.73 2674.12 2366C2692.25 2378.27 2714.12 2384.4 2739.72 2384.4C2752.52 2384.4 2766.12 2382.53 2780.52 2378.8C2795.45 2375.07 2808.79 2369.47 2820.52 2362C2821.59 2360.93 2822.92 2361.47 2824.52 2363.6C2826.65 2365.73 2827.19 2367.6 2826.12 2369.2C2806.39 2388.93 2786.12 2403.07 2765.32 2411.6C2745.05 2419.6 2723.19 2423.6 2699.72 2423.6ZM2590.12 2202L2589.32 2186.8L2764.52 2182.8V2200.4L2590.12 2202ZM3092.49 2414C3090.89 2414 3090.09 2412.4 3090.09 2409.2C3090.09 2406 3090.89 2404.4 3092.49 2404.4C3109.03 2404.4 3120.23 2400.67 3126.09 2393.2C3131.96 2385.2 3134.89 2370.53 3134.89 2349.2V2234C3134.89 2205.2 3129.56 2183.87 3118.89 2170C3108.76 2156.13 3092.49 2149.2 3070.09 2149.2C3054.09 2149.2 3037.56 2153.2 3020.49 2161.2C3003.96 2169.2 2990.63 2180.13 2980.49 2194L2976.49 2184.4C2995.16 2157.73 3016.23 2136.4 3039.69 2120.4C3063.16 2103.87 3088.76 2095.6 3116.49 2095.6C3146.36 2095.6 3169.29 2104.93 3185.29 2123.6C3201.83 2142.27 3210.09 2166.27 3210.09 2195.6V2349.2C3210.09 2370.53 3213.03 2385.2 3218.89 2393.2C3225.29 2400.67 3236.76 2404.4 3253.29 2404.4C3254.89 2404.4 3255.69 2406 3255.69 2409.2C3255.69 2412.4 3254.89 2414 3253.29 2414C3242.63 2414 3230.36 2413.73 3216.49 2413.2C3202.63 2412.67 3187.96 2412.4 3172.49 2412.4C3157.56 2412.4 3143.16 2412.67 3129.29 2413.2C3115.43 2413.73 3103.16 2414 3092.49 2414ZM2877.29 2414C2875.69 2414 2874.89 2412.4 2874.89 2409.2C2874.89 2406 2875.69 2404.4 2877.29 2404.4C2893.83 2404.4 2905.03 2400.67 2910.89 2393.2C2916.76 2385.2 2919.69 2370.53 2919.69 2349.2V2198.8C2919.69 2182.27 2917.83 2170.27 2914.09 2162.8C2910.36 2154.8 2903.96 2150.8 2894.89 2150.8C2890.09 2150.8 2884.49 2151.87 2878.09 2154C2871.69 2155.6 2864.49 2158.27 2856.49 2162C2854.36 2163.07 2852.76 2162 2851.69 2158.8C2850.63 2155.6 2850.63 2153.73 2851.69 2153.2L2962.89 2098.8C2966.09 2097.73 2967.96 2097.2 2968.49 2097.2C2974.36 2097.2 2980.23 2103.6 2986.09 2116.4C2991.96 2129.2 2994.89 2147.6 2994.89 2171.6V2349.2C2994.89 2370.53 2997.83 2385.2 3003.69 2393.2C3010.09 2400.67 3021.56 2404.4 3038.09 2404.4C3039.69 2404.4 3040.49 2406 3040.49 2409.2C3040.49 2412.4 3039.69 2414 3038.09 2414C3027.43 2414 3015.16 2413.73 3001.29 2413.2C2987.43 2412.67 2972.76 2412.4 2957.29 2412.4C2942.36 2412.4 2927.96 2412.67 2914.09 2413.2C2900.23 2413.73 2887.96 2414 2877.29 2414ZM3414.39 2423.6C3401.59 2423.6 3388.52 2421.47 3375.19 2417.2C3362.39 2412.93 3351.45 2405.47 3342.39 2394.8C3333.85 2384.13 3329.59 2369.2 3329.59 2350V2172.4C3329.59 2161.2 3328.25 2152.4 3325.59 2146C3322.92 2139.6 3318.65 2135.07 3312.79 2132.4C3306.92 2129.73 3298.92 2128.4 3288.79 2128.4C3286.65 2128.4 3285.59 2126 3285.59 2121.2C3285.59 2116.4 3286.65 2114 3288.79 2114C3315.99 2112.93 3338.12 2107.07 3355.19 2096.4C3372.25 2085.2 3385.05 2068.93 3393.59 2047.6C3394.65 2045.47 3396.79 2044.4 3399.99 2044.4C3403.72 2044.4 3405.59 2045.47 3405.59 2047.6V2323.6C3405.59 2344.93 3410.92 2360.13 3421.59 2369.2C3432.79 2378.27 3446.39 2382.8 3462.39 2382.8C3474.65 2382.8 3486.12 2380.4 3496.79 2375.6C3507.99 2370.27 3517.32 2364.67 3524.79 2358.8C3526.39 2357.2 3528.25 2357.73 3530.39 2360.4C3533.05 2362.53 3533.32 2364.4 3531.19 2366C3511.45 2385.73 3492.25 2400.4 3473.59 2410C3455.45 2419.07 3435.72 2423.6 3414.39 2423.6ZM3506.39 2146C3484.52 2141.2 3463.19 2138 3442.39 2136.4C3422.12 2134.27 3400.52 2133.2 3377.59 2133.2V2112.4C3399.45 2112.4 3420.79 2111.6 3441.59 2110C3462.92 2108.4 3485.59 2106.53 3509.59 2104.4C3510.65 2104.4 3511.72 2106.53 3512.79 2110.8C3514.39 2114.53 3515.19 2118.8 3515.19 2123.6C3515.19 2128.93 3514.12 2134.27 3511.99 2139.6C3510.39 2144.4 3508.52 2146.53 3506.39 2146Z" fill="white"/>
<path d="M3640 2422.8C3625.07 2422.8 3613.07 2418.53 3604 2410C3595.47 2400.93 3591.2 2388.93 3591.2 2374C3591.2 2360.13 3595.47 2348.93 3604 2340.4C3613.07 2331.87 3625.07 2327.6 3640 2327.6C3655.47 2327.6 3667.2 2331.87 3675.2 2340.4C3683.2 2348.93 3687.2 2360.13 3687.2 2374C3687.2 2388.93 3683.2 2400.93 3675.2 2410C3667.2 2418.53 3655.47 2422.8 3640 2422.8Z" fill="#EB0032"/>
</svg>
