<svg width="4000" height="2950" viewBox="0 0 4000 2950" fill="none" xmlns="http://www.w3.org/2000/svg">
<rect width="4000" height="2950" fill="#123456"/>
<path d="M398.2 1205.8C391.8 1205.8 385.667 1204.73 379.8 1202.6C373.933 1200.73 369.133 1197.4 365.4 1192.6C361.667 1187.8 359.8 1181.27 359.8 1173V1079C359.8 1072.6 359.4 1067.8 358.6 1064.6C357.8 1061.4 355.933 1059.4 353 1058.6C350.067 1057.53 345.533 1057 339.4 1057C338.333 1057 337.8 1056.2 337.8 1054.6C337.8 1052.73 338.333 1051.8 339.4 1051.8C350.067 1051.53 358.733 1048.6 365.4 1043C372.333 1037.4 376.2 1030.2 377 1021.4C377 1020.6 377.933 1020.2 379.8 1020.2C381.933 1020.2 383 1020.6 383 1021.4V1159.4C383 1170.33 385.667 1178.47 391 1183.8C396.6 1189.13 404.467 1191.8 414.6 1191.8C421.533 1191.8 427.667 1190.73 433 1188.6C438.6 1186.2 443.133 1183.53 446.6 1180.6C447.667 1180.07 448.6 1180.47 449.4 1181.8C450.467 1182.87 450.467 1183.8 449.4 1184.6C439.533 1192.07 430.6 1197.53 422.6 1201C414.867 1204.2 406.733 1205.8 398.2 1205.8ZM437 1066.2C426.6 1063.53 416.6 1061.8 407 1061C397.4 1060.2 387.133 1059.8 376.2 1059.8V1051C386.867 1051 397.133 1050.6 407 1049.8C416.867 1049 427.4 1048.07 438.6 1047C439.133 1047 439.667 1047.93 440.2 1049.8C441 1051.67 441.4 1053.93 441.4 1056.6C441.4 1058.47 440.867 1060.6 439.8 1063C439 1065.4 438.067 1066.47 437 1066.2ZM468.556 1201C467.756 1201 467.356 1200.2 467.356 1198.6C467.356 1197 467.756 1196.2 468.556 1196.2C478.956 1196.2 485.756 1194.47 488.956 1191C492.156 1187.27 493.756 1179.8 493.756 1168.6V961.8C493.756 952.467 492.823 945.667 490.956 941.4C489.09 936.867 485.756 934.6 480.956 934.6C476.956 934.6 470.823 936.467 462.556 940.2C461.49 940.733 460.556 940.333 459.756 939C459.223 937.4 459.49 936.333 460.556 935.8L511.356 911C511.89 911 512.156 911 512.156 911C512.156 911 512.29 911 512.556 911C513.356 911 514.156 911.4 514.956 912.2C515.756 912.733 516.156 913.4 516.156 914.2V1168.6C516.156 1179.8 517.756 1187.27 520.956 1191C524.156 1194.47 530.956 1196.2 541.356 1196.2C542.156 1196.2 542.556 1197 542.556 1198.6C542.556 1200.2 542.156 1201 541.356 1201C536.556 1201 531.09 1200.87 524.956 1200.6C518.823 1200.33 512.156 1200.2 504.956 1200.2C498.023 1200.2 491.356 1200.33 484.956 1200.6C478.556 1200.87 473.09 1201 468.556 1201ZM576.156 1201C575.356 1201 574.956 1200.2 574.956 1198.6C574.956 1197 575.356 1196.2 576.156 1196.2C586.556 1196.2 593.356 1194.47 596.556 1191C599.756 1187.27 601.356 1179.8 601.356 1168.6V1105C601.356 1073.8 589.09 1058.2 564.556 1058.2C554.69 1058.2 544.69 1061.4 534.556 1067.8C524.423 1073.93 515.756 1082.33 508.556 1093L506.956 1088.2C518.69 1072.2 530.29 1060.6 541.756 1053.4C553.49 1046.2 565.49 1042.6 577.756 1042.6C592.423 1042.6 603.756 1046.73 611.756 1055C619.756 1063 623.756 1075 623.756 1091V1168.6C623.756 1179.8 625.356 1187.27 628.556 1191C631.756 1194.47 638.556 1196.2 648.956 1196.2C649.756 1196.2 650.156 1197 650.156 1198.6C650.156 1200.2 649.756 1201 648.956 1201C644.156 1201 638.69 1200.87 632.556 1200.6C626.423 1200.33 619.756 1200.2 612.556 1200.2C605.623 1200.2 598.956 1200.33 592.556 1200.6C586.156 1200.87 580.69 1201 576.156 1201ZM747.366 1205.8C730.832 1205.8 716.966 1202.2 705.766 1195C694.566 1187.53 686.166 1177.93 680.566 1166.2C674.966 1154.47 672.166 1142.07 672.166 1129C672.166 1112.73 675.899 1098.2 683.366 1085.4C691.099 1072.33 701.366 1062.07 714.166 1054.6C727.232 1046.87 741.899 1043 758.166 1043C772.832 1043 784.032 1046.6 791.766 1053.8C799.766 1060.73 803.766 1070.33 803.766 1082.6C803.766 1085.53 803.499 1087.8 802.966 1089.4C802.432 1091 801.099 1091.8 798.966 1091.8H775.766C776.832 1078.73 774.432 1068.73 768.566 1061.8C762.966 1054.6 754.966 1051 744.566 1051C729.632 1051 718.166 1056.6 710.166 1067.8C702.432 1079 698.566 1094.2 698.566 1113.4C698.566 1128.6 700.966 1142.07 705.766 1153.8C710.832 1165.53 718.032 1174.87 727.366 1181.8C736.966 1188.47 748.299 1191.8 761.366 1191.8C768.299 1191.8 775.366 1190.73 782.566 1188.6C789.766 1186.47 796.566 1183.13 802.966 1178.6C803.499 1178.07 804.166 1178.47 804.966 1179.8C806.032 1180.87 806.299 1181.8 805.766 1182.6C796.166 1190.87 786.566 1196.87 776.966 1200.6C767.366 1204.07 757.499 1205.8 747.366 1205.8ZM691.366 1092.6L690.966 1087.4L782.166 1085.4V1091.8L691.366 1092.6Z" fill="white"/>
<path d="M636.8 1221.2C659.2 1221.2 683.2 1223.07 708.8 1226.8C734.933 1230.53 755.467 1235.87 770.4 1242.8C775.2 1244.4 778.4 1246.53 780 1249.2C781.6 1251.33 782.667 1255.33 783.2 1261.2L792.8 1372.4C792.8 1374 791.467 1375.07 788.8 1375.6C786.667 1376.13 785.067 1375.33 784 1373.2C766.4 1332.13 742.4 1299.87 712 1276.4C682.133 1252.93 646.667 1241.2 605.6 1241.2C569.867 1241.2 539.467 1250.27 514.4 1268.4C489.867 1286.53 471.2 1311.87 458.4 1344.4C446.133 1376.4 440 1413.73 440 1456.4C440 1493.2 444.533 1527.87 453.6 1560.4C462.667 1592.4 475.467 1620.67 492 1645.2C508.533 1669.2 528.267 1688.13 551.2 1702C574.133 1715.87 599.467 1722.8 627.2 1722.8C661.333 1722.8 691.733 1711.6 718.4 1689.2C745.6 1666.8 769.867 1632.13 791.2 1585.2C792.267 1583.07 794.133 1582.27 796.8 1582.8C799.467 1583.33 800.8 1584.4 800.8 1586L788.8 1694.8C787.733 1701.2 786.4 1705.47 784.8 1707.6C783.733 1709.2 780.8 1711.07 776 1713.2C751.467 1722.27 726.667 1728.93 701.6 1733.2C677.067 1737.47 653.067 1739.6 629.6 1739.6C577.867 1739.6 533.6 1731.87 496.8 1716.4C460 1700.4 429.867 1679.6 406.4 1654C383.467 1627.87 366.4 1599.6 355.2 1569.2C344.533 1538.27 339.2 1507.87 339.2 1478C339.2 1438.53 347.2 1403.07 363.2 1371.6C379.733 1340.13 401.867 1313.2 429.6 1290.8C457.867 1268.4 489.6 1251.33 524.8 1239.6C560.533 1227.33 597.867 1221.2 636.8 1221.2ZM1024.76 1740.4C991.156 1740.4 962.09 1732.67 937.556 1717.2C913.023 1701.73 894.09 1681.2 880.756 1655.6C867.423 1629.47 860.756 1601.47 860.756 1571.6C860.756 1543.87 866.09 1519.87 876.756 1499.6C887.423 1479.33 901.556 1462.8 919.156 1450C936.756 1436.67 955.956 1426.8 976.756 1420.4C997.556 1414 1018.09 1410.8 1038.36 1410.8C1072.49 1410.8 1101.56 1418.8 1125.56 1434.8C1150.09 1450.8 1168.76 1471.33 1181.56 1496.4C1194.36 1521.47 1200.76 1548.13 1200.76 1576.4C1200.76 1608.93 1192.49 1637.73 1175.96 1662.8C1159.96 1687.33 1138.62 1706.53 1111.96 1720.4C1085.29 1733.73 1056.22 1740.4 1024.76 1740.4ZM1048.76 1723.6C1070.09 1723.6 1086.09 1713.2 1096.76 1692.4C1107.42 1671.6 1112.76 1642.27 1112.76 1604.4C1112.76 1565.47 1107.69 1532.93 1097.56 1506.8C1087.96 1480.67 1075.42 1460.93 1059.96 1447.6C1044.49 1434.27 1028.22 1427.6 1011.16 1427.6C990.356 1427.6 974.356 1436.93 963.156 1455.6C952.49 1474.27 947.156 1503.07 947.156 1542C947.156 1578.27 951.69 1610.27 960.756 1638C969.823 1665.2 982.09 1686.27 997.556 1701.2C1013.02 1716.13 1030.09 1723.6 1048.76 1723.6ZM1472.96 1730C1471.36 1730 1470.56 1728.4 1470.56 1725.2C1470.56 1722 1471.36 1720.4 1472.96 1720.4C1489.5 1720.4 1500.7 1716.67 1506.56 1709.2C1512.43 1701.2 1515.36 1686.53 1515.36 1665.2V1550C1515.36 1521.2 1510.03 1499.87 1499.36 1486C1489.23 1472.13 1472.96 1465.2 1450.56 1465.2C1434.56 1465.2 1418.03 1469.2 1400.96 1477.2C1384.43 1485.2 1371.1 1496.13 1360.96 1510L1356.96 1500.4C1375.63 1473.73 1396.7 1452.4 1420.16 1436.4C1443.63 1419.87 1469.23 1411.6 1496.96 1411.6C1526.83 1411.6 1549.76 1420.93 1565.76 1439.6C1582.3 1458.27 1590.56 1482.27 1590.56 1511.6V1665.2C1590.56 1686.53 1593.5 1701.2 1599.36 1709.2C1605.76 1716.67 1617.23 1720.4 1633.76 1720.4C1635.36 1720.4 1636.16 1722 1636.16 1725.2C1636.16 1728.4 1635.36 1730 1633.76 1730C1623.1 1730 1610.83 1729.73 1596.96 1729.2C1583.1 1728.67 1568.43 1728.4 1552.96 1728.4C1538.03 1728.4 1523.63 1728.67 1509.76 1729.2C1495.9 1729.73 1483.63 1730 1472.96 1730ZM1257.76 1730C1256.16 1730 1255.36 1728.4 1255.36 1725.2C1255.36 1722 1256.16 1720.4 1257.76 1720.4C1274.3 1720.4 1285.5 1716.67 1291.36 1709.2C1297.23 1701.2 1300.16 1686.53 1300.16 1665.2V1514.8C1300.16 1498.27 1298.3 1486.27 1294.56 1478.8C1290.83 1470.8 1284.43 1466.8 1275.36 1466.8C1270.56 1466.8 1264.96 1467.87 1258.56 1470C1252.16 1471.6 1244.96 1474.27 1236.96 1478C1234.83 1479.07 1233.23 1478 1232.16 1474.8C1231.1 1471.6 1231.1 1469.73 1232.16 1469.2L1343.36 1414.8C1346.56 1413.73 1348.43 1413.2 1348.96 1413.2C1354.83 1413.2 1360.7 1419.6 1366.56 1432.4C1372.43 1445.2 1375.36 1463.6 1375.36 1487.6V1665.2C1375.36 1686.53 1378.3 1701.2 1384.16 1709.2C1390.56 1716.67 1402.03 1720.4 1418.56 1720.4C1420.16 1720.4 1420.96 1722 1420.96 1725.2C1420.96 1728.4 1420.16 1730 1418.56 1730C1407.9 1730 1395.63 1729.73 1381.76 1729.2C1367.9 1728.67 1353.23 1728.4 1337.76 1728.4C1322.83 1728.4 1308.43 1728.67 1294.56 1729.2C1280.7 1729.73 1268.43 1730 1257.76 1730ZM1669.26 1730C1667.12 1730 1666.06 1728.4 1666.06 1725.2C1666.06 1722 1667.12 1720.4 1669.26 1720.4C1689.52 1720.4 1702.59 1716.93 1708.46 1710C1714.32 1703.07 1717.26 1688.13 1717.26 1665.2V1485.2C1717.26 1473.47 1715.66 1464.93 1712.46 1459.6C1709.26 1453.73 1703.92 1450 1696.46 1448.4C1688.99 1446.27 1678.86 1445.2 1666.06 1445.2C1664.46 1445.2 1663.66 1442.8 1663.66 1438C1663.66 1433.2 1664.46 1430.8 1666.06 1430.8C1684.72 1430.8 1697.52 1428.4 1704.46 1423.6C1711.39 1418.27 1715.12 1408.93 1715.66 1395.6C1718.32 1336.4 1727.66 1288.93 1743.66 1253.2C1759.66 1216.93 1782.32 1190.53 1811.66 1174C1840.99 1157.47 1876.46 1149.2 1918.06 1149.2C1954.86 1149.2 1983.39 1154.8 2003.66 1166C2024.46 1177.2 2034.86 1192.13 2034.86 1210.8C2034.86 1220.4 2031.66 1228.67 2025.26 1235.6C2018.86 1242 2008.99 1245.2 1995.66 1245.2C1981.79 1245.2 1971.39 1241.2 1964.46 1233.2C1957.52 1225.2 1951.39 1215.87 1946.06 1205.2C1940.72 1194.53 1934.06 1185.2 1926.06 1177.2C1918.59 1169.2 1907.39 1165.2 1892.46 1165.2C1875.39 1165.2 1859.12 1172.4 1843.66 1186.8C1828.19 1201.2 1815.66 1224.13 1806.06 1255.6C1796.99 1287.07 1792.46 1328.13 1792.46 1378.8V1665.2C1792.46 1680.67 1794.06 1692.4 1797.26 1700.4C1800.46 1708.4 1807.12 1713.73 1817.26 1716.4C1827.39 1719.07 1842.86 1720.4 1863.66 1720.4C1865.79 1720.4 1866.86 1722 1866.86 1725.2C1866.86 1728.4 1865.79 1730 1863.66 1730C1844.99 1730 1826.59 1729.73 1808.46 1729.2C1790.86 1728.67 1772.72 1728.4 1754.06 1728.4C1738.59 1728.4 1723.39 1728.67 1708.46 1729.2C1694.06 1729.73 1680.99 1730 1669.26 1730ZM1878.06 1462C1857.26 1457.2 1837.26 1454 1818.06 1452.4C1799.39 1450.27 1779.39 1449.2 1758.06 1449.2V1428.4C1778.32 1428.4 1798.32 1427.6 1818.06 1426C1837.79 1424.4 1858.59 1422.53 1880.46 1420.4C1882.06 1420.4 1883.39 1422.53 1884.46 1426.8C1885.52 1430.53 1886.06 1434.8 1886.06 1439.6C1886.06 1444.93 1884.99 1450.27 1882.86 1455.6C1881.26 1460.4 1879.66 1462.53 1878.06 1462ZM1923.66 1730C1922.59 1730 1922.06 1728.4 1922.06 1725.2C1922.06 1722 1922.59 1720.4 1923.66 1720.4C1940.19 1720.4 1951.39 1716.67 1957.26 1709.2C1963.66 1701.2 1966.86 1686.53 1966.86 1665.2V1522C1966.86 1496.4 1963.12 1480.67 1955.66 1474.8C1948.19 1468.4 1934.06 1470 1913.26 1479.6C1911.12 1480.13 1909.26 1478.8 1907.66 1475.6C1906.59 1472.4 1906.59 1470.53 1907.66 1470L2028.46 1414C2031.12 1412.4 2034.32 1413.2 2038.06 1416.4C2041.79 1419.07 2043.66 1421.73 2043.66 1424.4C2043.66 1430.8 2043.12 1441.47 2042.06 1456.4C2041.52 1471.33 2041.26 1492.67 2041.26 1520.4V1665.2C2041.26 1686.53 2044.19 1701.2 2050.06 1709.2C2056.46 1716.67 2067.92 1720.4 2084.46 1720.4C2086.59 1720.4 2087.66 1722 2087.66 1725.2C2087.66 1728.4 2086.59 1730 2084.46 1730C2073.79 1730 2061.52 1729.73 2047.66 1729.2C2034.32 1728.67 2019.92 1728.4 2004.46 1728.4C1988.99 1728.4 1974.32 1728.67 1960.46 1729.2C1946.59 1729.73 1934.32 1730 1923.66 1730ZM2255.11 1740.4C2232.17 1740.4 2211.11 1734.27 2191.91 1722C2173.24 1709.73 2158.04 1692.13 2146.31 1669.2C2135.11 1645.73 2129.51 1617.47 2129.51 1584.4C2129.51 1551.87 2135.37 1524.67 2147.11 1502.8C2158.84 1480.4 2173.77 1462.53 2191.91 1449.2C2210.57 1435.87 2230.57 1426.27 2251.91 1420.4C2273.24 1414 2293.51 1410.8 2312.71 1410.8C2331.91 1410.8 2349.77 1413.2 2366.31 1418C2382.84 1422.8 2397.77 1428.67 2411.11 1435.6L2392.71 1500.4C2381.51 1476.4 2368.71 1459.07 2354.31 1448.4C2339.91 1437.2 2322.04 1431.6 2300.71 1431.6C2273.51 1431.6 2251.91 1441.2 2235.91 1460.4C2219.91 1479.07 2211.91 1511.87 2211.91 1558.8C2211.91 1589.2 2215.64 1615.07 2223.11 1636.4C2230.57 1657.73 2240.97 1674 2254.31 1685.2C2267.64 1696.4 2282.57 1702 2299.11 1702C2320.44 1702 2339.11 1696.13 2355.11 1684.4C2371.11 1672.67 2386.57 1658.53 2401.51 1642L2409.51 1649.2C2398.31 1662 2384.97 1675.6 2369.51 1690C2354.57 1703.87 2337.51 1715.87 2318.31 1726C2299.64 1735.6 2278.57 1740.4 2255.11 1740.4ZM2450.31 1160.4V1637.2C2450.31 1655.33 2451.91 1668.13 2455.11 1675.6C2458.84 1683.07 2464.71 1686.8 2472.71 1686.8C2476.44 1686.8 2480.97 1686 2486.31 1684.4C2492.17 1682.8 2498.57 1680.67 2505.51 1678C2507.11 1676.93 2508.71 1678 2510.31 1681.2C2511.91 1683.87 2512.17 1685.73 2511.11 1686.8L2400.71 1740.4C2399.11 1740.93 2397.77 1741.2 2396.71 1741.2C2391.37 1741.2 2386.31 1734.53 2381.51 1721.2C2377.24 1707.87 2375.11 1688.93 2375.11 1664.4V1258.8C2375.11 1240.67 2373.51 1227.6 2370.31 1219.6C2367.11 1211.07 2360.97 1206.8 2351.91 1206.8C2348.17 1206.8 2343.64 1207.6 2338.31 1209.2C2333.51 1210.8 2328.17 1212.93 2322.31 1215.6C2320.17 1216.13 2318.31 1214.8 2316.71 1211.6C2315.11 1208.4 2314.84 1206.53 2315.91 1206L2433.51 1150.8C2434.57 1150.27 2435.64 1150 2436.71 1150C2439.37 1150 2442.31 1151.33 2445.51 1154C2448.71 1156.13 2450.31 1158.27 2450.31 1160.4ZM2699.72 1739.6C2665.05 1739.6 2635.45 1732.4 2610.92 1718C2586.92 1703.6 2568.52 1684.67 2555.72 1661.2C2543.45 1637.2 2537.32 1611.87 2537.32 1585.2C2537.32 1553.73 2545.32 1525.2 2561.32 1499.6C2577.32 1473.47 2598.92 1452.67 2626.12 1437.2C2653.85 1421.73 2685.05 1414 2719.72 1414C2752.79 1414 2778.12 1421.2 2795.72 1435.6C2813.32 1449.47 2822.12 1468.67 2822.12 1493.2C2822.12 1499.07 2821.59 1504.4 2820.52 1509.2C2819.45 1514 2817.05 1516.4 2813.32 1516.4H2736.52C2737.59 1491.33 2734.65 1470.8 2727.72 1454.8C2720.79 1438.27 2708.25 1430 2690.12 1430C2668.79 1430 2651.45 1441.2 2638.12 1463.6C2624.79 1485.47 2618.12 1514.8 2618.12 1551.6C2618.12 1581.47 2622.92 1607.6 2632.52 1630C2642.12 1652.4 2655.99 1669.73 2674.12 1682C2692.25 1694.27 2714.12 1700.4 2739.72 1700.4C2752.52 1700.4 2766.12 1698.53 2780.52 1694.8C2795.45 1691.07 2808.79 1685.47 2820.52 1678C2821.59 1676.93 2822.92 1677.47 2824.52 1679.6C2826.65 1681.73 2827.19 1683.6 2826.12 1685.2C2806.39 1704.93 2786.12 1719.07 2765.32 1727.6C2745.05 1735.6 2723.19 1739.6 2699.72 1739.6ZM2590.12 1518L2589.32 1502.8L2764.52 1498.8V1516.4L2590.12 1518ZM3092.49 1730C3090.89 1730 3090.09 1728.4 3090.09 1725.2C3090.09 1722 3090.89 1720.4 3092.49 1720.4C3109.03 1720.4 3120.23 1716.67 3126.09 1709.2C3131.96 1701.2 3134.89 1686.53 3134.89 1665.2V1550C3134.89 1521.2 3129.56 1499.87 3118.89 1486C3108.76 1472.13 3092.49 1465.2 3070.09 1465.2C3054.09 1465.2 3037.56 1469.2 3020.49 1477.2C3003.96 1485.2 2990.63 1496.13 2980.49 1510L2976.49 1500.4C2995.16 1473.73 3016.23 1452.4 3039.69 1436.4C3063.16 1419.87 3088.76 1411.6 3116.49 1411.6C3146.36 1411.6 3169.29 1420.93 3185.29 1439.6C3201.83 1458.27 3210.09 1482.27 3210.09 1511.6V1665.2C3210.09 1686.53 3213.03 1701.2 3218.89 1709.2C3225.29 1716.67 3236.76 1720.4 3253.29 1720.4C3254.89 1720.4 3255.69 1722 3255.69 1725.2C3255.69 1728.4 3254.89 1730 3253.29 1730C3242.63 1730 3230.36 1729.73 3216.49 1729.2C3202.63 1728.67 3187.96 1728.4 3172.49 1728.4C3157.56 1728.4 3143.16 1728.67 3129.29 1729.2C3115.43 1729.73 3103.16 1730 3092.49 1730ZM2877.29 1730C2875.69 1730 2874.89 1728.4 2874.89 1725.2C2874.89 1722 2875.69 1720.4 2877.29 1720.4C2893.83 1720.4 2905.03 1716.67 2910.89 1709.2C2916.76 1701.2 2919.69 1686.53 2919.69 1665.2V1514.8C2919.69 1498.27 2917.83 1486.27 2914.09 1478.8C2910.36 1470.8 2903.96 1466.8 2894.89 1466.8C2890.09 1466.8 2884.49 1467.87 2878.09 1470C2871.69 1471.6 2864.49 1474.27 2856.49 1478C2854.36 1479.07 2852.76 1478 2851.69 1474.8C2850.63 1471.6 2850.63 1469.73 2851.69 1469.2L2962.89 1414.8C2966.09 1413.73 2967.96 1413.2 2968.49 1413.2C2974.36 1413.2 2980.23 1419.6 2986.09 1432.4C2991.96 1445.2 2994.89 1463.6 2994.89 1487.6V1665.2C2994.89 1686.53 2997.83 1701.2 3003.69 1709.2C3010.09 1716.67 3021.56 1720.4 3038.09 1720.4C3039.69 1720.4 3040.49 1722 3040.49 1725.2C3040.49 1728.4 3039.69 1730 3038.09 1730C3027.43 1730 3015.16 1729.73 3001.29 1729.2C2987.43 1728.67 2972.76 1728.4 2957.29 1728.4C2942.36 1728.4 2927.96 1728.67 2914.09 1729.2C2900.23 1729.73 2887.96 1730 2877.29 1730ZM3414.39 1739.6C3401.59 1739.6 3388.52 1737.47 3375.19 1733.2C3362.39 1728.93 3351.45 1721.47 3342.39 1710.8C3333.85 1700.13 3329.59 1685.2 3329.59 1666V1488.4C3329.59 1477.2 3328.25 1468.4 3325.59 1462C3322.92 1455.6 3318.65 1451.07 3312.79 1448.4C3306.92 1445.73 3298.92 1444.4 3288.79 1444.4C3286.65 1444.4 3285.59 1442 3285.59 1437.2C3285.59 1432.4 3286.65 1430 3288.79 1430C3315.99 1428.93 3338.12 1423.07 3355.19 1412.4C3372.25 1401.2 3385.05 1384.93 3393.59 1363.6C3394.65 1361.47 3396.79 1360.4 3399.99 1360.4C3403.72 1360.4 3405.59 1361.47 3405.59 1363.6V1639.6C3405.59 1660.93 3410.92 1676.13 3421.59 1685.2C3432.79 1694.27 3446.39 1698.8 3462.39 1698.8C3474.65 1698.8 3486.12 1696.4 3496.79 1691.6C3507.99 1686.27 3517.32 1680.67 3524.79 1674.8C3526.39 1673.2 3528.25 1673.73 3530.39 1676.4C3533.05 1678.53 3533.32 1680.4 3531.19 1682C3511.45 1701.73 3492.25 1716.4 3473.59 1726C3455.45 1735.07 3435.72 1739.6 3414.39 1739.6ZM3506.39 1462C3484.52 1457.2 3463.19 1454 3442.39 1452.4C3422.12 1450.27 3400.52 1449.2 3377.59 1449.2V1428.4C3399.45 1428.4 3420.79 1427.6 3441.59 1426C3462.92 1424.4 3485.59 1422.53 3509.59 1420.4C3510.65 1420.4 3511.72 1422.53 3512.79 1426.8C3514.39 1430.53 3515.19 1434.8 3515.19 1439.6C3515.19 1444.93 3514.12 1450.27 3511.99 1455.6C3510.39 1460.4 3508.52 1462.53 3506.39 1462Z" fill="white"/>
<path d="M3640 1738.8C3625.07 1738.8 3613.07 1734.53 3604 1726C3595.47 1716.93 3591.2 1704.93 3591.2 1690C3591.2 1676.13 3595.47 1664.93 3604 1656.4C3613.07 1647.87 3625.07 1643.6 3640 1643.6C3655.47 1643.6 3667.2 1647.87 3675.2 1656.4C3683.2 1664.93 3687.2 1676.13 3687.2 1690C3687.2 1704.93 3683.2 1716.93 3675.2 1726C3667.2 1734.53 3655.47 1738.8 3640 1738.8Z" fill="#EB0032"/>
</svg>
